<?xml version="1.0" encoding="iso-8859-1"?>
<!-- Generator: Adobe Illustrator 27.4.0, SVG Export Plug-In . SVG Version: 6.00 Build 0)  -->
<svg version="1.1" xmlns="http://www.w3.org/2000/svg" xmlns:xlink="http://www.w3.org/1999/xlink" x="0px" y="0px"
	 viewBox="0 0 1920 1080" style="enable-background:new 0 0 1920 1080;" xml:space="preserve">
<g id="background">
</g>
<g id="Layer_4">
</g>
<g id="Layer_1">
</g>
<g id="Layer_2">
</g>
<g id="Layer_5">
</g>
<g id="Layer_6">
	<g>
		<rect y="0.29" style="fill:#020A26;" width="1920" height="1079.71"/>
	</g>
	<polygon style="fill:#04102B;" points="0.001,990.537 82.75,990.537 82.75,915.431 152.782,915.431 152.782,886.412 
		202.122,886.412 202.122,826.668 272.154,826.668 272.154,794.236 299.212,794.236 299.212,760.096 329.452,760.096 
		385.159,760.096 525.223,760.096 525.223,737.906 678.019,737.906 678.019,715.715 711.443,715.715 711.443,691.817 
		835.59,691.817 835.59,647.436 1069.559,647.436 1069.559,626.952 1187.339,626.952 1187.339,599.542 1456.324,599.542 
		1456.324,550.139 1777.037,550.139 1773.058,295.8 1825.581,295.8 1825.581,155.828 1894.021,154.975 1894.021,0.29 0.001,0.29 	
		"/>
	<polygon style="fill:#071833;" points="-0.014,842.031 63.654,842.031 63.654,789.115 153.093,789.115 153.093,703.766 
		286.494,703.766 286.494,671.334 486.594,671.334 486.594,609.883 524.492,609.883 524.492,582.571 591.192,582.571 
		591.192,560.38 791.293,560.38 791.293,529.655 1032.324,529.655 1032.324,495.414 1050.515,495.414 1050.515,461.376 
		1147.533,461.376 1147.533,430.651 1333.991,430.651 1333.991,394.804 1424.945,394.804 1424.945,352.13 1562.136,352.13 
		1561.378,109.74 1629.594,108.033 1629.594,0.29 0,0.29 	"/>
	<polygon style="fill:#091D3A;" points="-0.014,664.506 49.47,664.506 49.47,613.297 203.745,613.297 203.745,584.278 
		282.337,584.278 282.337,546.725 417.692,546.725 417.692,483.567 638.916,483.567 638.916,421.16 845.585,421.16 845.585,355.544 
		950.376,355.544 950.376,278.73 1084.275,278.73 1084.275,195.088 1111.927,195.088 1111.927,123.396 1165.778,123.396 
		1165.778,58.531 1256.014,58.531 1256.014,0.29 -0.001,0.29 	"/>
	<polygon style="fill:#E2E093;" points="333.853,163.248 343.021,178.657 335.425,183.176 340.203,191.206 332.498,195.79 
		341.731,211.308 333.7,216.086 338.284,223.79 322.875,232.959 327.653,240.989 319.623,245.766 324.207,253.471 308.798,262.639 
		313.446,270.452 289.899,284.462 294.547,292.276 240.073,324.687 235.424,316.874 211.876,330.884 207.228,323.071 
		191.601,332.368 187.017,324.664 179.421,329.183 174.579,321.044 158.953,330.342 154.466,322.8 146.652,327.448 137.388,311.876 
		129.466,316.59 124.688,308.559 117.092,313.079 107.924,297.67 100.111,302.318 86.101,278.771 78.287,283.419 45.876,228.944 
		53.689,224.296 39.679,200.748 47.709,195.97 38.735,180.887 46.222,176.432 41.38,168.293 49.41,163.515 40.178,147.998 
		47.991,143.349 43.342,135.536 58.968,126.239 54.255,118.317 61.851,113.798 57.203,105.985 72.937,96.623 68.224,88.701 
		91.555,74.82 87.1,67.332 141.575,34.921 146.223,42.734 169.663,28.789 174.117,36.276 189.744,26.979 194.65,35.226 
		202.355,30.642 206.81,38.13 222.436,28.832 227.085,36.646 234.898,31.997 244.131,47.515 251.944,42.866 256.85,51.113 
		264.447,46.594 273.55,61.894 258.141,71.062 253.621,63.466 245.7,68.18 240.858,60.041 225.448,69.209 220.8,61.396 
		166.325,93.807 170.909,101.512 155.283,110.809 160.061,118.839 152.139,123.552 156.788,131.365 148.975,136.014 
		153.559,143.718 145.637,148.432 154.999,164.166 147.403,168.686 179.814,223.16 187.518,218.576 196.945,234.42 204.649,229.836 
		209.104,237.323 216.917,232.674 221.63,240.596 229.444,235.947 234.286,244.086 249.695,234.918 254.021,242.189 308.93,209.519 
		304.475,202.032 320.101,192.734 315.323,184.704 323.136,180.056 318.813,172.049 	"/>
	<g>
		<path d="M91.958,176.603c0.147,0.82,0.419,1.639,0.421,2.46c0.027,11.706,0.021,23.412,0.01,35.118
			c-0.001,0.592-0.118,1.183-0.223,2.166c-6.266,0-12.494,0-19.194,0c-0.355,13.473,0.04,26.567-0.225,39.649
			c-6.463-0.111-12.926-0.221-19.681-0.337c0-6.67,0-12.913,0-19.373c-6.602,0-12.895,0-19.149,0
			c-0.681,5.193-0.483,36.213,0.308,39.176c6.115,0,12.335,0,18.936,0c0,19.743,0,39.118,0,58.926c6.709,0,13.037,0,19.71,0
			c0,6.66,0,12.889,0,19.267c6.668,0,12.975,0,19.251,0c0.712-6.525,0.427-55.781-0.414-58.715c-6.106,0-12.326,0-18.874,0
			c0-1.551,0-2.732,0-3.914c0-5.434,0.023-10.869-0.006-16.303c-0.034-6.275-0.115-12.549-0.176-18.823c13.015,0,26.029,0,39.508,0
			c0,13.09,0,25.938,0,38.978c6.691,0,12.919,0,19.598,0c0-6.4,0-12.739,0-19.493c6.771,0,13.103,0,19.823,0
			c0-13.278,0-26.136,0-39.354c6.631,0,12.876,0,19.511,0c0-19.743,0-39.126,0-58.904c6.867-0.057,13.346-0.111,19.824-0.165
			l-0.096-0.101c0.031,19.622,0.061,39.245,0.092,58.875c6.73,0,12.947,0,19.593,0c0-13.096,0-25.938,0-39.307
			c6.794,0,13.159,0,19.524,0c0.073,6.56,0.145,13.119,0.218,19.769c6.679,0,12.877,0,19.268,0c0-6.539,0-12.851,0-19.682
			c-6.65,0-13.112,0-19.574,0c0.066-3.847,0.189-7.693,0.188-11.54c-0.006-22.274-0.041-44.548-0.067-66.822l-0.139,0.134
			c6.39,0,12.781,0,19.709,0c0.201,19.42-0.037,38.896,0.132,58.774c6.697,0,13.042,0,19.515,0c0,13.276,0,26.134,0,39.318
			c-6.472,0-12.715,0-19.453,0c-0.281,6.603,0.018,12.937-0.196,19.617c-6.539,0-12.781,0-19.341,0c0,32.838,0,65.289,0,98.22
			c-6.622,0.307-12.968-0.033-19.808,0.223c-0.08,5.309-0.03,10.452-0.039,15.592c-0.009,5.195-0.002,10.389-0.002,15.584
			c0,5.316,0,10.631,0,15.947c0,5.195,0,10.389,0,15.584c0,5.168,0,10.336,0,15.86c-6.577,0-12.808,0-19.524,0
			c0,6.662,0,12.98,0,19.596c-13.245,0-26.005,0-38.678,0c-0.787,2.96-1.055,31.528-0.445,38.885
			c2.5,0.722,32.764,0.981,38.987,0.28c0-6.259,0-12.59,0-19.233c13.193,0,25.948,0,39.202,0c0.308-5.18,0.111-10.078,0.147-14.964
			c0.036-4.832,0.008-9.665,0.008-14.497c0-4.953,0-9.906,0-14.859c0-4.81,0-9.62,0-14.795c6.546,0,12.788,0,19.563,0
			c0.019-16.625,0.007-32.885,0.009-49.146c0.002-16.178,0-32.357,0-48.465c2.668-0.887,13.348-1.109,19.139-0.463
			c0.809,2.516,1.048,93.277,0.177,97.963c-6.247,0-12.588,0-19.117,0c0,13.197,0,25.965,0,39.257
			c6.295,0.312,12.643-0.03,18.905,0.194c0.835,2.656,1.037,14.548,0.312,19.534c-6.259,0-12.601,0-19.174,0
			c0,13.272,0,26.115,0,39.376c6.509,0,12.853,0,19.327,0c0,6.753,0,13.087,0,19.765c-6.469,0-12.71,0-19.335,0
			c-0.43,3.496-0.188,6.718-0.228,9.918c-0.041,3.261-0.009,6.523-0.009,9.785c0,3.141,0,6.282,0,9.423c0,3.252,0,6.503,0,10.239
			c-6.555,0-12.878,0-19.548,0c0,6.706,0,12.937,0,19.599c-6.678,0-13.01,0-19.649,0c0,6.669,0,12.904,0,19.606
			c-6.604,0.271-12.942-0.042-19.437,0.195c0,6.555,0,12.774,0,19.207c0.79,0.102,1.476,0.266,2.162,0.267
			c18.242,0.014,36.484,0.012,54.726,0.004c0.479,0,0.958-0.095,1.437-0.146l-0.111-0.089c0.14,1.785,0.38,3.569,0.401,5.356
			c0.057,4.689,0.019,9.38,0.019,14.452c-26.152,0-52.043,0-78.067,0c-0.866,3.528-0.357,6.768-0.447,9.965
			c-0.088,3.106-0.019,6.217-0.019,9.683c-6.609,0-12.831,0-19.308,0c0,32.902,0,65.436,0,98.344
			c6.542,0.148,13.122,0.296,19.702,0.445l-0.104-0.116c-0.097,1.315-0.276,2.63-0.277,3.944
			c-0.019,16.788-0.013,33.576-0.013,50.365c0,1.321,0,2.642,0,4.473c-6.491,0-12.804,0-19.341,0c0,26.423,0,52.337,0,78.742
			c6.309,0,12.624,0,19.134,0c0,13.236,0,25.984,0,39.233c-6.35,0-12.658,0-19.144,0c-0.093,1.542-0.213,2.598-0.213,3.653
			c-0.009,50.485-0.008,100.971-0.002,151.456c0,0.722,0.077,1.444,0.117,2.167c-19.814,0-39.628,0-59.443,0
			c0.04-0.601,0.116-1.203,0.116-1.804c0.006-63.884,0.007-127.769-0.006-191.653c0-0.917-0.186-1.835-0.322-3.093
			c-6.429,0-12.65,0-19.237,0c0-4.197,0-8.032,0-11.868c0-3.985,0-7.97,0-11.956c0-3.864,0-7.729,0-11.593
			c0-3.985,0.021-7.971-0.006-11.956c-0.025-3.804,0.127-7.62-0.132-11.721c-6.731,0-12.978,0-19.325,0c0-13.188,0-26.04,0-39.014
			c6.553,0,12.872,0,19.597,0c0,13.112,0,25.971,0,38.887c6.631,0,12.85,0,19.027,0c0.773-4.834,0.556-56.126-0.323-59.006
			c-6.099,0-12.319,0-18.838,0c0-4.695,0-9.02,0-13.344c0-4.227,0.024-8.454-0.007-12.68c-0.031-4.292,0.138-8.595-0.135-13.171
			c-6.654,0-12.889,0-19.606,0c0-6.615,0-12.929,0-19.587c-6.711,0-12.941,0-19.585,0c0-6.687,0-13.023,0-19.342
			c-7.031,0-13.633,0-20.234,0c0-6.766,0-13.532,0-20.297c6.469,0.057,12.938,0.118,19.407,0.155
			c0.187,0.001,0.376-0.246,0.941-0.642c0-6.203,0-12.674,0-19.144l-0.101,0.102c5.105,0.026,10.211,0.084,15.316,0.057
			c1.519-0.008,3.036-0.26,4.548-0.393c-0.005,6.601-0.005,13.194-0.005,19.969c6.504,0,12.811,0,19.214,0
			c0-6.578,0-12.897,0-19.557c-1.898,0-3.563,0.026-5.228-0.005c-4.689-0.088-9.377-0.2-14.065-0.303
			c-0.085-12.876-0.17-25.752-0.258-39.007c-6.767,0-13.144,0-19.521,0l0.1,0.1c-0.041-6.443-0.081-12.886-0.124-19.623
			c-7.04,0-13.632,0-20.223,0c0-13.048,0-26.097,0-39.145c6.685-0.078,13.37-0.156,20.028-0.234c0-6.771,0-13.085,0-19.339
			c-6.857,0-13.443,0-20.028,0c0-6.766,0-13.532,0-20.297c6.487,0.051,12.973,0.106,19.46,0.136
			c0.181,0.001,0.363-0.265,0.726-0.547c0.031-0.55,0.106-1.258,0.106-1.967c-0.009-31.843-0.025-63.686-0.04-95.528
			c6.462-0.104,12.922-0.148,19.616,0.018c0,3.717,0,6.96,0,10.202c0,3.138,0,6.276,0,9.414c0,3.259-0.036,6.518,0.01,9.776
			c0.045,3.2-0.228,6.425,0.255,9.889c6.593,0,12.826,0,19.482,0c0,6.632,0,12.957,0,19.21c5.036,0.696,16.931,0.503,19.25-0.213
			c0-19.404,0-38.773,0-58.491c-6.489,0-12.711,0-19.338,0c0-6.676,0-13.007,0-19.773c-6.742,0-13.077,0-19.792,0
			c0-13.294,0-26.147,0-39.357c-6.608,0-12.827,0-19.474,0c0-13.197,0-26.034,0-39.221c-7.041,0-13.651,0-20.262,0
			c0-26.338,0-52.677,0-79.015c6.471,0.063,12.943,0.129,19.414,0.173c0.187,0.001,0.375-0.241,0.917-0.612
			c0-5.953,0-12.156,0-18.855c6.639,0,12.937,0,19.486,0c0-6.975,0-13.447,0-19.919c6.371,0,12.743,0,19.602,0
			c0.3-3.1,0.106-6.308,0.14-9.498c0.032-3.111,0.007-6.223,0.007-9.703c1.547-0.069,2.822-0.145,4.098-0.179
			c5.032-0.133,10.064-0.252,15.096-0.377L91.958,176.603z M190.871,353.954c0-3.823,0-7.065,0-10.308c0-3.141,0-6.281,0-9.422
			c0-3.261-0.035-6.523,0.01-9.784c0.044-3.203-0.223-6.43,0.257-9.956c6.583,0,12.806,0,18.967,0
			c0.712-5.644,0.472-36.424-0.238-38.846c-6.244,0-12.469,0-19.138,0c0,6.567,0,12.892,0,19.514c-13.205,0-25.962,0-39.205,0
			c0,6.623,0,12.943,0,19.509c-6.744,0-13.002,0-19.193,0c-0.81,3.572-0.731,75.417,0.096,78.533
			c6.244,0.089,12.558,0.35,19.267-0.173c0-6.552,0-12.766,0-19.373c6.629,0,12.855,0,19.515,0c0-6.729,0-13.062,0-19.694
			C177.885,353.954,184.123,353.954,190.871,353.954z M171.237,589.989c0-13.177,0-26.018,0-39.048
			c6.746-0.239,13.093,0.091,19.654-0.213c0-6.704,0-12.959,0-19.649c13.111,0,25.965,0,38.728,0
			c0.865-4.445,0.676-56.28-0.125-58.774c-6.228,0-12.452,0-19.155,0c0,6.531,0,12.845,0,19.5c-6.709,0-12.939,0-19.566,0
			c0,6.674,0,13.001,0,19.462c-6.703,0.528-13.062-0.158-19.726,0.446c0,6.572,0,12.78,0,19.364c-6.605,0-12.826,0-18.967,0
			c-0.765,4.245-0.626,56.134,0.12,58.912C158.295,589.989,164.425,589.989,171.237,589.989z M72.829,531.022
			c0,4.182,0,7.912,0,11.641c0,3.743,0,7.486,0,11.229s0,7.486,0,11.229c0,3.622,0,7.244,0,10.866c0,3.743,0,7.486,0,11.229
			s-0.03,7.486,0.008,11.228c0.037,3.686-0.171,7.389,0.133,10.996c6.704,0,12.926,0,19.237,0c0-32.677,0-65.102,0-98.024
			c-6.511,0-12.834,0-19.304,0c-0.2-6.822,0.084-13.174-0.166-19.427c-5.853-0.695-16.956-0.485-19.398,0.303
			c0,12.757,0,25.514,0,38.73C59.865,531.022,66.203,531.022,72.829,531.022z M170.969,491.912c-6.506,0-12.805,0-19.115,0
			c0,6.595,0,12.924,0,19.343c6.473,0,12.691,0,19.115,0C170.969,504.726,170.969,498.406,170.969,491.912z M171.378,255.603
			c6.661,0,12.87,0,19.284,0c0-6.522,0-12.832,0-19.373c-6.481,0-12.78,0-19.284,0C171.378,242.745,171.378,249.06,171.378,255.603z
			 M73.044,688.059c6.472,0,12.765,0,19.128,0c0-6.502,0-12.719,0-19.089c-6.461,0-12.687,0-19.128,0
			C73.044,675.384,73.044,681.6,73.044,688.059z"/>
		<path d="M33.614,157.397c-6.782-0.017-13.565-0.033-20.347-0.05c0-13.048,0-26.097,0-39.145c6.612,0,13.223,0,20.347,0
			C33.614,131.409,33.614,144.403,33.614,157.397z"/>
		<path d="M13.267,648.835c0-13.048,0-26.097,0-39.145c6.783,0.017,13.565,0.033,20.348,0.05c0,0-0.1-0.1-0.1-0.1
			c0,13.08,0,26.159,0,39.239l0.101-0.102C26.832,648.796,20.049,648.816,13.267,648.835z"/>
		<path d="M33.614,413.298c-6.783-0.019-13.565-0.039-20.348-0.058c0-6.766,0-13.532,0-20.297c2.87,0.12,5.74,0.299,8.611,0.346
			c3.713,0.06,7.429,0.015,11.607,0.015C33.529,400.179,33.572,406.738,33.614,413.298z"/>
		<path d="M328.926,256.251c-0.147-0.941-0.421-1.882-0.423-2.823c-0.029-11.47-0.022-22.939-0.01-34.409
			c0.001-0.712,0.121-1.424,0.227-2.588c6.379,0,12.715,0,19.416,0c0-19.835,0-39.214,0-58.949c6.72-0.101,13.07-0.196,19.42-0.292
			l-0.11-0.089c0.14,1.422,0.401,2.845,0.403,4.267c0.025,23.295,0.018,46.591,0.018,69.886c0,1.422,0,2.844,0,4.655
			c6.586,0,12.809,0,19.527,0c0.092,10.099,0.032,19.817,0.043,29.533c0.011,9.742,0.002,19.483,0.002,29.652
			c6.74,0,13.07,0,19.597,0c0,6.652,0,12.873,0,19.325c-12.994,0-25.842,0-39.058,0c0-26.016,0-51.907,0-77.687
			c-2.911-0.863-14.97-1.044-19.718-0.33c0,6.255,0,12.591,0,19.412c-1.821,0-3.226-0.027-4.629,0.005
			c-4.925,0.112-9.849,0.244-14.773,0.368C328.858,256.187,328.926,256.251,328.926,256.251z"/>
		<path d="M151.977,138.032c-0.125,1.304-0.358,2.607-0.36,3.911c-0.025,16.787-0.016,33.573-0.016,50.36c0,1.299,0,2.599,0,4.288
			c-6.715,0-13.051,0-19.752,0c0,19.799,0,39.197,0,58.472c-2.902,0.918-15.727,1.041-19.443,0.263c0-25.891,0-51.82,0-78.137
			c6.337,0,12.561,0,19.299,0c0.183-6.824,0.066-13.286,0.087-19.744c0.021-6.394,0.005-12.788,0.005-18.993
			c0.405-0.343,0.586-0.63,0.768-0.632c6.153-0.043,12.306-0.064,18.459-0.063c0.339,0,0.678,0.223,1.017,0.342L151.977,138.032z"/>
		<path d="M210.503,118.278c0-13.027,0-26.053,0-39.519c13.051,0,25.907,0,39.175,0c0-6.762,0-13.095,0-19.649
			c13.265,0,26.11,0,39.183,0c0,6.492,0,12.821,0,19.569c-13.021,0-25.879,0-39.087,0c0,6.643,0,12.881,0,19.511
			c-6.574,0-12.805,0-19.468,0c-0.133,6.956-0.258,13.528-0.384,20.099c0,0,0.139-0.134,0.139-0.134
			c-6.557,0.001-13.113,0.002-19.67,0.004L210.503,118.278z"/>
		<path d="M152.04,138.1c-0.144-0.821-0.411-1.642-0.413-2.464c-0.027-11.709-0.02-23.417-0.009-35.126
			c0.001-0.592,0.12-1.184,0.224-2.148c6.272,0,12.505,0,19.135,0c0.424-10.078,0.135-19.798,0.189-29.509
			c0.053-9.648,0.012-19.297,0.012-29.389c1.471-0.058,2.739-0.128,4.009-0.153c5.176-0.106,10.353-0.198,15.53-0.295
			c0,0-0.115-0.103-0.115-0.103c0.089,1.078,0.254,2.155,0.255,3.233c0.016,17.515,0.014,35.029,0.004,52.544
			c-0.001,1.056-0.107,2.113-0.181,3.485c-6.441,0-12.691,0-19.473,0c-0.011,4.608-0.026,8.91-0.031,13.211
			c-0.005,4.228-0.001,8.455-0.001,12.683c0,4.334,0,8.668,0,13.243c-1.146,0.131-2.062,0.319-2.979,0.327
			c-4.227,0.033-8.455-0.011-12.683,0.032c-1.183,0.012-2.365,0.226-3.541,0.354C151.977,138.032,152.04,138.1,152.04,138.1z"/>
		<path d="M308.923,334.097c0,13.009,0,26.019,0,39.32c6.512,0.749,12.87-0.053,19.348,0.503c0,6.446,0,12.659,0,19.243
			c-6.295,0-12.529,0-19.17,0c-0.362,3.646-0.168,6.987-0.181,10.307c-0.012,3.253,0.093,6.506,0.145,9.761
			c-0.002,0.002,0.092-0.098,0.092-0.098c-6.502,0-13.004,0-19.413,0c-0.811-3.16-0.896-74.974-0.114-78.672
			c6.413-0.091,12.901-0.182,19.391-0.272C309.023,334.191,308.923,334.097,308.923,334.097z"/>
		<path d="M92.079,137.978c-3.485-0.108-6.97-0.249-10.455-0.314c-2.756-0.052-5.514-0.01-8.695-0.01c0-13.162,0-26.015,0-39.331
			c-6.745,0-13.075,0-19.51,0c-0.125-1.146-0.267-1.841-0.268-2.535c-0.014-11.597-0.015-23.193,0.001-34.79
			c0.001-0.836,0.164-1.673,0.252-2.509l-0.115,0.104c4.933,0.096,9.866,0.198,14.8,0.285c1.423,0.025,2.847,0.004,4.673,0.004
			c0,13.181,0,26.024,0,39.354c6.717,0,13.039,0,19.423,0c0.096,1.318,0.207,2.15,0.208,2.982
			c0.012,11.221,0.019,22.442-0.01,33.663c-0.003,1.063-0.262,2.126-0.398,3.185C91.989,138.059,92.079,137.978,92.079,137.978z"/>
		<path d="M328.858,256.187c-0.126,1.297-0.362,2.595-0.363,3.892c-0.022,23.13-0.016,46.26-0.016,69.391c0,1.428,0,2.855,0,4.677
			c-6.681,0.279-13.112,0.387-19.554-0.047c-0.002-0.002,0.098,0.093,0.096,0.09c-0.038-4.094-0.104-8.186-0.106-12.278
			c-0.011-20.591-0.005-41.182-0.005-61.773c0-1.297,0-2.593,0-4.323c4.747,0,9.162-0.045,13.575,0.019
			c2.146,0.031,4.289,0.266,6.437,0.413C328.926,256.251,328.858,256.187,328.858,256.187z"/>
		<path d="M190.914,176.963c0-19.46,0-38.92,0-58.853c6.707,0.019,13.143-0.214,19.589,0.169c0,0-0.112-0.12-0.112-0.12
			c-0.024,19.36-0.047,38.719-0.079,58.079c0,0.098-0.113,0.199-0.184,0.291c-0.073,0.095-0.159,0.18-0.297,0.333
			c-6.299,0-12.656,0-19.012,0L190.914,176.963z"/>
		<path d="M309.353,551.289c-0.148-1.423-0.409-2.846-0.423-4.271c-0.052-5.176-0.02-10.352-0.02-15.899c6.522,0,12.758,0,19.479,0
			c0-6.665,0-12.975,0-19.411c6.835,0,13.173,0,19.646,0c0,6.378,0,12.511,0,19.059c-6.337,0.681-12.698-0.067-19.404,0.466
			c0,6.363,0,12.698,0,19.258c-1.294,0.149-2.208,0.338-3.125,0.345c-4.224,0.033-8.449-0.012-12.673,0.033
			c-1.184,0.012-2.365,0.231-3.548,0.356L309.353,551.289z"/>
		<path d="M191.191,708.602c-0.106-0.83-0.302-1.66-0.303-2.49c-0.019-11.685-0.015-23.371-0.004-35.056
			c0.001-0.593,0.108-1.186,0.19-2.029c6.374,0,12.689,0,19.18,0c0,13.01,0,25.839,0,39.131c-1.822,0-3.471-0.032-5.119,0.006
			c-4.675,0.107-9.349,0.243-14.033,0.359C191.093,708.515,191.191,708.602,191.191,708.602z"/>
		<path d="M328.28,39.615c0,6.422,0,12.631,0,19.052c-13.03,0-25.861,0-38.936,0c0-6.355,0-12.559,0-18.741
			C291.914,39.173,322.18,38.913,328.28,39.615z"/>
		<path d="M190.716,39.017c0.052-11.345,0.104-22.689,0.154-34.034c0.006-1.439,0.001-2.879,0.001-4.252
			c2.719-0.836,14.946-0.993,19.341-0.271c0,12.706,0,25.452,0,38.242c-0.131,0.118-0.306,0.414-0.48,0.413
			c-6.374-0.046-12.747-0.12-19.126-0.196C190.601,38.914,190.716,39.017,190.716,39.017z"/>
		<path d="M171.567,747.689c-0.129-0.82-0.369-1.639-0.371-2.459c-0.024-11.534-0.019-23.068-0.01-34.603
			c0.001-0.692,0.092-1.384,0.169-2.467c5.796,0,11.406-0.02,17.015,0.019c0.937,0.006,1.872,0.267,2.814,0.417
			c0.006,0.006-0.091-0.081-0.083-0.073c-0.072,1.319-0.221,2.631-0.224,3.942c-0.019,10.226-0.011,20.453-0.011,30.679
			c0,1.289,0,2.578,0,4.164c-6.743,0.088-13.08,0.17-19.41,0.259C171.463,747.573,171.567,747.689,171.567,747.689z"/>
		<path d="M53.187,196.536c-6.38,0-12.76,0-19.673,0c0-13.235,0-26.237,0-39.238c6.365,0,12.73,0,19.567,0
			C53.117,170.61,53.152,183.573,53.187,196.536z"/>
		<path d="M92.026,176.667c0.126-0.692,0.36-1.383,0.361-2.075c0.022-11.628,0.019-23.257,0.001-34.885
			c-0.001-0.581-0.193-1.162-0.303-1.736c-0.007,0.006-0.096,0.087-0.101,0.091c1.901-0.133,3.805-0.366,5.711-0.389
			c4.671-0.058,9.342-0.019,14.26-0.019c0,13.171,0,25.998,0,38.984c-0.512,0.121-1.073,0.365-1.635,0.368
			c-5.419,0.031-10.838,0.037-16.257,0.006c-0.7-0.004-1.399-0.262-2.102-0.406C91.958,176.603,92.026,176.667,92.026,176.667z"/>
		<path d="M309.282,433.069c-0.125,1.301-0.355,2.601-0.359,3.902c-0.03,10.241-0.017,20.483-0.017,30.724c0,1.302,0,2.604,0,4.136
			c-6.651,0-12.963,0-19.54,0c0-12.913,0-25.743,0-38.715c0.376-0.119,0.817-0.378,1.259-0.381
			c5.663-0.03,11.325-0.035,16.988-0.006c0.578,0.003,1.155,0.265,1.733,0.407L309.282,433.069z"/>
		<path d="M131.564,137.497c-6.544,0-12.652,0-18.716,0c-0.749-2.757-1.005-32.946-0.369-38.63
			c2.547-0.757,14.961-0.888,19.085-0.16C131.564,111.508,131.564,124.348,131.564,137.497z"/>
		<path d="M387.352,491.473c-6.354,0-12.707,0-19.269,0c0-6.421,0-12.632,0-19.12c6.281,0,12.485,0,18.966,0
			c0.81,3.048,0.304,6.282,0.363,9.466c0.06,3.248-0.094,6.5-0.155,9.75C387.257,491.568,387.352,491.473,387.352,491.473z"/>
		<path d="M309.282,138.032c-0.125,2.746-0.311,5.491-0.361,8.238c-0.063,3.48-0.015,6.961-0.015,10.367
			c-2.764,0.874-15.818,1.003-19.614,0.223c0-6.187,0-12.416,0-18.789c0.575-0.136,1.136-0.38,1.698-0.383
			c5.42-0.032,10.841-0.038,16.261-0.006c0.699,0.004,1.396,0.272,2.094,0.418L309.282,138.032z"/>
		<path d="M309.285,551.225c-0.126,2.506-0.321,5.01-0.363,7.517c-0.062,3.717-0.016,7.435-0.016,11.416c-6.627,0-12.945,0-19.535,0
			c0-6.279,0-12.493,0-18.804c0.242-0.118,0.553-0.4,0.866-0.402c5.909-0.041,11.819-0.057,17.729-0.046
			c0.46,0.001,0.92,0.245,1.383,0.38C309.353,551.289,309.285,551.225,309.285,551.225z"/>
		<path d="M309.345,138.1c-0.145-1.786-0.393-3.571-0.416-5.358c-0.059-4.694-0.02-9.39-0.02-14.025
			c2.74-0.771,15.102-0.915,19.343-0.243c0,6.175,0,12.391,0,18.869c-0.938,0.105-1.854,0.289-2.772,0.296
			c-4.223,0.032-8.446-0.011-12.668,0.032c-1.182,0.012-2.362,0.226-3.537,0.354C309.282,138.032,309.345,138.1,309.345,138.1z"/>
		<path d="M309.345,433.137c-0.145-1.532-0.418-3.064-0.412-4.595c0.02-5.135,0.139-10.27,0.222-15.407
			c0.002-0.002-0.092,0.098-0.09,0.096c6.343-0.002,12.684-0.002,19.216-0.002c0,6.517,0,12.719,0,19.462
			c-1.377,0-2.65-0.024-3.921,0.004c-5.03,0.111-10.059,0.238-15.083,0.367C309.282,433.069,309.345,433.137,309.345,433.137z"/>
		<path d="M249.397,609.534c0.105-3.726,0.235-7.451,0.305-11.177c0.047-2.526,0.009-5.053,0.009-7.508
			c2.654-0.88,13.126-1.107,19.141-0.479c0.822,2.56,0.98,14.974,0.2,19.086c-6.554,0-13.153,0-19.758-0.005
			C249.286,609.444,249.397,609.534,249.397,609.534z"/>
		<path d="M53.404,58.488c-2.506,0.13-5.01,0.334-7.518,0.374c-3.947,0.063-7.896,0.017-12.08,0.017c0-6.518,0-12.723,0-18.941
			c2.401-0.778,14.133-0.969,19.211-0.24c0.086,6.256,0.172,12.581,0.265,18.9C53.288,58.592,53.404,58.488,53.404,58.488z"/>
		<path d="M288.931,413.322c0,6.558,0,12.697,0,19.102c-6.359,0-12.569,0-19.17,0c-0.427-6.307-0.266-12.602-0.087-19.102
			C276.182,413.322,282.398,413.322,288.931,413.322z"/>
		<path d="M269.835,570.65c6.459,0,12.668,0,19.062,0c0,6.45,0,12.677,0,19.364c-3.172,0.035-6.261,0.082-9.351,0.099
			c-3.12,0.017-6.241,0.004-9.276,0.004C269.389,587.363,269.162,576.354,269.835,570.65z"/>
		<path d="M288.854,157.553c0,6.4,0,12.622,0,18.852c-2.461,0.793-14.452,0.963-19.086,0.224c0-6.265,0-12.568,0-19.076
			C276.208,157.553,282.415,157.553,288.854,157.553z"/>
		<path d="M288.892,491.495c-6.57,0-12.688,0-19.084,0c0-6.445,0-12.737,0-19.198c6.463,0,12.676,0,19.084,0
			C288.892,478.738,288.892,484.962,288.892,491.495z"/>
	</g>
	<g>
		<path d="M1810.188,1066.373c-0.111-1.564-0.318-3.128-0.318-4.692c-0.016-82.325-0.014-164.651-0.014-246.977
			c0-1.681,0-3.361,0-5.475c-6.209,0-12.137,0-18.387,0c0-12.451,0-24.477,0-36.955c-6.226,0-12.131,0-18.367,0
			c0-6.267,0-12.092,0-18.324c-6.239,0-12.156,0-18.278,0c0-12.333,0-24.254,0-36.621c2.897-0.33,5.908-0.119,8.898-0.155
			c2.924-0.035,5.849-0.008,9.225-0.008c0,6.091,0,11.995,0,18.223c6.264,0,12.085,0,18.312,0c0,6.232,0,12.149,0,18.273
			c6.33,0,12.249,0,18.385,0c0-12.12,0-24.148,0-36.43c-6.018,0-11.867,0-18.217,0c-0.065-6.237-0.128-12.249-0.194-18.604
			c-6.146,0-11.971,0-18.145,0c0-6.161,0-11.973,0-18.219c-6.257,0-12.173,0-18.459,0c0-12.453,0-24.471,0-36.821
			c-6.193,0-12.017,0-18.25,0c0-6.239,0-12.156,0-18.433c-18.529,0-36.649,0-55.263,0c-0.082-6.169-0.081-11.978,0.02-18.17
			c6.054-0.478,12.001,0.042,18.295-0.333c0.054-1.256,0.149-2.451,0.151-3.646c0.012-9.712,0-19.424,0.015-29.136
			c0.002-1.237,0.113-2.473,0.173-3.71l-0.083,0.082c5.946,0,11.891,0,18.17,0c0,6.045,0,11.871,0,18.096
			c12.344,0,24.359,0,36.666,0c0,6.231,0,12.061,0,18.329c6.182,0.288,12.114-0.021,18.363,0.2c0,6.004,0,11.82,0,17.521
			c2.714,0.851,13.836,1.007,18.231,0.326c0-11.893,0-23.822,0-36.205c-5.813,0-11.72,0-18.017,0c0-12.461,0-24.478,0-36.926
			c-6.306,0-12.225,0-18.512,0c0-12.451,0-24.471,0-36.827c-6.193,0-12.014,0-18.244,0c0-12.345,0-24.357,0-36.665
			c-6.233,0-12.06,0-18.366,0c-0.219-12.294,0.031-24.307-0.147-36.713c-12.223,0-24.238,0-36.667,0c0-6.315,0-12.239,0-18.529
			c-6.229,0-12.054,0-18.26,0c0-6.174,0-11.99,0-18.135c-3.337-0.47-6.354-0.213-9.348-0.255c-3.049-0.043-6.099-0.01-9.148-0.01
			s-6.099,0-9.148,0c-3.025,0-6.051,0-9.195,0c0-6.557,0-12.726,0-18.896l-0.108,0.097c1.227,0.09,2.455,0.254,3.682,0.257
			c9.696,0.021,19.391,0.012,29.087,0.012c1.207,0,2.414,0,3.942,0c0,6.238,0,12.067,0,18.253c3.251,0.493,6.259,0.216,9.24,0.263
			c2.905,0.046,5.811,0.01,9.066,0.01c0,6.157,0,11.974,0,18.267c6.268,0.053,12.183,0.063,18.472-0.018
			c0.054-1.452,0.136-2.648,0.137-3.845c0.01-9.808-0.001-19.617,0.015-29.425c0.002-1.235,0.12-2.469,0.185-3.703l-0.126,0.13
			c5.95,0,11.901,0,18.238,0c0,12.487,0,24.508,0,36.939c6.313,0,12.241,0,18.531,0c0,6.343,0,12.272,0,18.534
			c6.187,0,12.005,0,18.231,0c0,12.35,0,24.36,0,36.775c6.324,0,12.242,0,18.432,0c0,12.343,0,24.275,0,36.374
			c6.19,0,12.087,0,17.955,0c0.661-5.726,0.408-107.419-0.339-110.147c-5.737,0-11.575,0-17.76,0c0-12.518,0-24.694,0-36.871
			l-0.094,0.085c12.183,0,24.365,0,36.915,0c0-18.316,0-36.447,0-54.814c6.175,0,11.988,0,18.275,0
			c0.222,6.024,0.073,12.069,0.099,18.107c0.026,5.967,0.006,11.934,0.006,18.133c6.237,0,12.147,0,18.298,0
			c0-12.07,0-24.076,0-36.477c-6.049,0-11.978,0-18.087,0c0-18.512,0-36.632,0-55.176c6.11,0,12.031,0,18.325,0
			c0-4.34-0.047-8.266,0.018-12.191c0.037-2.237,0.259-4.471,0.398-6.706l-0.063,0.059c5.83,0,11.66,0,17.843,0
			c0-24.158,0-48.379,0-72.766c1.073-0.132,1.821-0.299,2.569-0.303c4.517-0.025,9.035-0.034,13.551,0.005
			c0.88,0.008,1.757,0.248,2.635,0.381l-0.082-0.102c-0.052,9.478-0.107,18.956-0.155,28.433c-0.012,2.474-0.002,4.947-0.002,7.206
			c0.292,0.292,0.366,0.378,0.453,0.45c0.083,0.069,0.178,0.178,0.268,0.178c11.962,0.056,23.923,0.103,35.885,0.151
			c0,6.101,0,12.201,0,18.302c-12.139,0.066-24.278,0.132-36.668,0.199c0,12.441,0,24.386,0,36.759c-6.172,0-12.094,0-18.428,0
			c0,36.957,0,73.485,0,110.341c-6.248,0-12.079,0-18.01,0c0,18.457,0,36.581,0,54.83c6.037,0,11.855,0,18.083,0
			c0-12.221,0-24.243,0-36.676c6.316,0,12.231,0,18.501,0c0-24.639,0-48.861,0-73.305c6.332,0,12.297,0,18.262,0
			c-0.013,48.265-0.028,96.531-0.03,144.796c0,0.64,0.144,1.281,0.27,2.338c6.121,0,12.071,0,18.02,0c0,18.302,0,36.604,0,54.906
			c-6.115,0.013-12.23,0.027-18.344,0.04c0-5.948,0-11.896,0-18.067c-6.221-0.422-12.154,0.106-18.205-0.333
			c-0.164-6.258,0.091-12.183-0.156-18.246c-3.419,0-6.347,0-9.274,0c-2.901,0-5.801,0-8.622,0
			c-0.759,4.598-0.55,107.798,0.251,110.467c5.867,0,11.833,0,17.798,0c-0.018,23-0.032,46.001-0.059,69.002
			c-0.002,1.349-0.095,2.698-0.139,4.054c-4.831,0.101-9.669,0.191-14.507,0.291c-1.19,0.025-2.379,0.086-3.763,0.138
			c0,3.335-0.01,6.262,0.003,9.188c0.013,3.002,0.049,6.004,0.075,8.986c6.295,0,12.122,0,18.103,0c0-6.378,0-12.545,0-18.713
			c0.314,0.113,0.628,0.324,0.942,0.325c5.52,0.016,11.041,0.012,16.561-0.017c0.288-0.002,0.574-0.271,1.167-0.571
			c0-5.708,0-11.516,0-17.752c6.277,0,12.224,0,18.17,0c0,12.427,0,24.855,0,37.282c-3.974-0.643-15.687-0.465-18.304,0.356
			c0,3.964,0,8.013,0,12.062c0,3.953,0.017,7.906-0.005,11.859c-0.023,4.008,0.101,8.025-0.102,12.353c-6.3,0-12.116,0-18.264,0
			c0,6.163,0,11.982,0,18.202c-6.25,0-12.166,0-18.015,0c-0.667,5.279-0.453,71,0.196,73.429c5.826,0,11.661,0,17.89,0
			c0-6.104,0-12.031,0-17.871c3.913-0.718,15.674-0.61,18.156,0.109c0,5.827,0,11.673,0,17.995c-6.042,0-11.956,0-18.259,0
			c0,18.585,0,36.698,0,55.218c-6.314,0-12.23,0-18.314,0c0,1.76,0,3.105,0,4.451c0,64.605-0.001,129.211,0.005,193.816
			c0,1.24,0.072,2.48,0.11,3.72C1846.792,1066.373,1828.49,1066.373,1810.188,1066.373z"/>
		<path d="M1920,312.601c-6.116,0.018-12.233,0.036-18.349,0.054c0-12.161,0-24.322,0-36.856c1.578-0.054,2.89-0.108,4.202-0.141
			c4.716-0.117,9.431-0.227,14.147-0.339C1920,287.747,1920,300.174,1920,312.601z"/>
		<path d="M1643.824,202.35c0.135-1.217,0.383-2.433,0.387-3.651c0.032-9.715,0.018-19.429,0.018-29.144c0-1.221,0-2.442,0-4.038
			c6.199,0,12.126,0,18.289,0c0-6.306,0-12.238,0-18.594c-5.997,0-11.93,0-18.071,0c0-6.231,0-12.047,0-18.113
			c5.941,0,11.868,0,18.182,0c0,5.855,0,11.676,0,17.376c2.754,0.803,13.163,0.977,18.199,0.352
			c0.074-1.206,0.223-2.503,0.224-3.801c0.015-21.688,0.011-43.377,0.011-65.065c0-1.326,0-2.651,0-4.368c6.312,0,12.239,0,18.479,0
			c0-24.641,0-48.882,0-73.29c6.252,0,12.174,0,18.173,0c0,30.589,0,60.933,0,91.629c-5.974,0-11.792,0-17.507,0
			c-0.755,2.805-1.044,103.735-0.372,110.299c6.106,0.138,12.261,0.277,18.416,0.417l-0.097-0.108
			c-0.09,0.89-0.259,1.781-0.259,2.671c-0.016,16.373-0.015,32.745-0.004,49.118c0.001,0.986,0.118,1.972,0.207,3.362
			c6.109,0,12.036,0,18.145,0c0,12.601,0,24.784,0,36.967l0.104-0.112c-6.051,0-12.101,0-18.505,0c0-12.515,0-24.53,0-36.473
			c-4.022-0.706-15.606-0.563-18.261,0.227c0,1.038,0,2.149,0,3.261c0,8.118-0.008,16.236,0.002,24.354
			c0.019,15.108,0.048,30.215,0.073,45.323l0.112-0.105c-6.086,0-12.171,0-18.608,0c0,6.13,0,11.965,0,18.155
			c-3.191,0.383-6.094,0.154-8.975,0.194c-2.922,0.041-5.845,0.009-8.686,0.009c-0.887-2.537-1.206-29.943-0.457-36.556
			c5.768,0,11.593,0,17.3,0c0.867-2.71,1.174-48.441,0.477-54.66c-2.343-0.783-14.011-0.93-18.057-0.143c0,18.03,0,36.146,0,54.45
			c-6.241,0-12.078,0-18.341,0c-0.399-3.496-0.139-7.071-0.183-10.624c-0.046-3.725-0.01-7.452-0.01-11.177
			c0-3.613,0-7.226,0-10.839c0-3.726,0-7.452,0-11.178c0-3.581,0-7.162,0-11.155c-6.314,0-12.241,0-18.358,0
			c0-18.695,0-36.972,0-55.249l-0.095,0.095c6.05,0.034,12.1,0.067,18.158,0.094c0.102,1.22,0.278,2.446,0.279,3.673
			c0.019,15.811,0.012,31.622,0.012,47.433c0,1.212,0,2.423,0,3.756c6.341,0,12.268,0,18.536,0c0-9.242,0-18.256,0-27.27
			c0-9.117,0-18.235,0-27.687c6.208,0,12.039,0,18.081,0c0-6.269,0-12.199,0-18.3c-5.992,0-11.825,0-18.08,0
			c0,6.02,0,11.946,0,18.243c-1.63,0-2.843-0.015-4.056,0.003C1653.746,202.186,1648.785,202.27,1643.824,202.35z M1681.564,220.653
			c-0.768,3.187-0.694,33.741,0.117,36.609c5.843,0.118,11.742,0.192,17.574-0.017c0.671-5.54,0.459-34.082-0.247-36.592
			C1693.207,220.653,1687.37,220.653,1681.564,220.653z"/>
		<path d="M1718.253,202.36c-0.121-0.996-0.348-1.991-0.349-2.987c-0.02-22.564-0.017-45.128-0.01-67.691
			c0-0.891,0.088-1.782,0.156-3.079c6.015,0,11.937,0,18.167,0c0-24.62,0-48.831,0-73.169c3.265-0.787,6.296-0.324,9.289-0.395
			c3.043-0.073,6.091,0.018,9.136,0.038l-0.095-0.096c0.017,23.818,0.034,47.636,0.043,71.455c0,0.556-0.104,1.111-0.194,2.014
			c-5.862,0-11.695,0-18.016,0c-0.152,4.333-0.06,8.346-0.077,12.353c-0.017,4.064-0.004,8.128-0.004,12.192s0,8.128,0,12.192
			c0,4.064,0,8.128,0,12.192c0,4.064,0,8.128,0,12.192c0,4.036,0,8.073,0,12.429c-6.276,0.084-12.216,0.163-18.151,0.248
			C1718.156,202.252,1718.253,202.36,1718.253,202.36z"/>
		<path d="M1790.967,294.536c-2.571-0.116-5.141-0.289-7.712-0.335c-3.248-0.058-6.498-0.014-10.127-0.014
			c0-12.294,0-24.296,0-36.733c-6.272,0-12.178,0-18.298,0c0-6.342,0-12.248,0-18.39c5.98,0,11.881,0,18.169,0
			c0,6.036,0,11.957,0,18.078c6.198,0,12.013,0,18.329,0c-0.039-12.288,0.077-24.533-0.09-36.782l-0.089,0.089
			c6.058,0,12.115,0,18.657,0c0.074,18.492,0.019,36.568,0.036,55.075c-6.188,0.345-12.209-0.069-18.522,0.264
			c0,4.958,0.034,9.552-0.019,14.145c-0.018,1.555-0.258,3.108-0.397,4.661C1790.904,294.595,1790.967,294.536,1790.967,294.536z"/>
		<path d="M1699.768,570.163c-6.069,0-12.138,0-18.655,0c0-6.346,0-12.264,0-18.556c-6.255,0-12.073,0-18.116,0
			c0-12.404,0-24.424,0-36.79c5.891,0,11.717,0,18.011,0c0-6.233,0-12.139,0-18.219c6.303,0,12.139,0,18.437,0
			c0.045,1.283,0.13,2.582,0.131,3.881c0.008,21.902,0.004,43.803,0.01,65.705c0,1.353,0.063,2.706,0.097,4.06
			C1699.685,570.245,1699.768,570.163,1699.768,570.163z"/>
		<path d="M1626.061,385.556c-2.352,0.122-4.703,0.311-7.056,0.349c-3.699,0.059-7.399,0.016-11.292,0.016
			c0-36.784,0-73.219,0-109.653c2.345-0.751,13.837-0.911,18.098-0.175c0,1.235,0,2.551,0,3.867
			c0,33.996-0.001,67.993,0.005,101.989c0,1.239,0.082,2.478,0.132,3.71C1625.953,385.653,1626.061,385.556,1626.061,385.556z"/>
		<path d="M1810.094,128.526c6.03,0,11.752,0,17.387,0c0.829,2.728,0.942,51.509,0.179,54.96c-5.779,0-11.588,0-17.818,0
			c0-18.312,0-36.42,0-54.938c-6.34,0-12.269,0-18.352,0c0-12.344,0-24.273,0-36.198c2.321-0.764,32.696-0.933,36.474-0.172
			c0,5.783,0,11.603,0,17.755c-5.97,0-11.797,0-17.87,0C1810.094,116.192,1810.094,122.124,1810.094,128.526z"/>
		<path d="M1625.871,202.073c-5.961,0-11.922,0-18.24,0c0-18.371,0-36.485,0-55.054c-6.23-0.353-12.16,0.021-18.291-0.245
			c0-12.214,0-24.227,0-36.49c5.901,0,11.809,0,18.116,0c0,12.101,0,24.114,0,36.588c6.295,0,12.21,0,18.318,0
			c0,18.743,0,37.019,0,55.296C1625.776,202.168,1625.871,202.073,1625.871,202.073z"/>
		<path d="M1699.78,385.724c-6.059,0-12.119,0-18.156,0c-0.668-2.505-0.883-31.436-0.239-36.413c5.859,0,11.782,0,18.057,0
			c0.114-6.395,0.221-12.43,0.328-18.465c0,0-0.112,0.105-0.112,0.105c5.95,0,11.901,0,17.998,0c0,12.367,0,24.374,0,36.716
			c-6.047,0-11.874,0-18.001,0c0,6.282,0,12.234,0,18.187L1699.78,385.724z"/>
		<path d="M1883.632,165.795c-0.078-1.008-0.224-2.016-0.225-3.024c-0.014-16.477-0.013-32.953-0.002-49.43
			c0.001-0.982,0.123-1.965,0.2-3.118c6.013,0,11.822,0,17.86,0c0,18.351,0,36.555,0,55.171c-2.129,0-4.129-0.03-6.127,0.006
			c-3.934,0.073-7.868,0.183-11.796,0.285C1883.551,165.693,1883.632,165.795,1883.632,165.795z"/>
		<path d="M1847.096,238.42c-1.556,0.136-3.112,0.371-4.67,0.389c-4.599,0.052-9.199,0.019-14.031,0.019c0-18.419,0-36.517,0-54.872
			c5.907,0,11.829,0,18.153,0c0.041,1.14,0.121,2.333,0.122,3.527c0.008,15.787-0.002,31.573,0.02,47.36
			c0.002,1.216,0.214,2.432,0.335,3.643C1847.033,238.479,1847.096,238.42,1847.096,238.42z"/>
		<path d="M1791.238,220.36c-5.941,0-11.881,0-18.017,0c0-18.287,0-36.377,0-54.716c5.891,0,11.699,0,17.726,0
			c0.102,0.479,0.35,1.102,0.35,1.726c0.016,17.36,0.009,34.72-0.003,52.079c0,0.333-0.094,0.667-0.145,1
			C1791.149,220.449,1791.238,220.36,1791.238,220.36z"/>
		<path d="M1681.05,496.212c-6.292,0-12.099,0-18.097,0c0-18.301,0-36.405,0-54.719c5.963,0,11.771,0,18.086,0
			C1681.061,459.675,1681.046,477.778,1681.05,496.212z"/>
		<path d="M1607.369,570.341c-1.229-0.09-2.458-0.254-3.688-0.257c-9.597-0.022-19.194-0.012-28.79-0.012c-1.217,0-2.435,0-3.87,0
			c0-6.247,0-12.172,0-18.315c12.076,0,24.098,0,36.24,0c0,6.344,0,12.512,0,18.681L1607.369,570.341z"/>
		<path d="M1607.261,570.438c0.767-0.121,1.533-0.345,2.3-0.347c10.787-0.023,21.573-0.017,32.36-0.009
			c0.647,0,1.294,0.086,2.32,0.159c-0.237,6.302,0.468,12.423-0.432,18.541l0.063-0.059c-1.213-0.116-2.425-0.33-3.638-0.334
			c-9.547-0.028-19.093-0.016-28.64-0.016c-1.209,0-2.419,0-3.972,0c-0.084-6.231-0.163-12.138-0.248-18.039
			C1607.369,570.341,1607.261,570.438,1607.261,570.438z"/>
		<path d="M1643.859,55.268c1.008-0.083,2.016-0.236,3.023-0.237c10.276-0.018,20.553-0.016,30.829-0.003
			c0.986,0.001,1.973,0.115,3.141,0.188c0,6.037,0,11.855,0,17.888c-12.161,0-24.179,0-36.623,0c0-1.903,0.026-3.676-0.005-5.448
			c-0.075-4.165-0.177-8.33-0.269-12.496C1643.955,55.16,1643.859,55.268,1643.859,55.268z"/>
		<path d="M1736.245,294.37c5.94,0,11.879,0,17.803,0c0.09,0.1,0.169,0.181,0.24,0.268c0.07,0.085,0.189,0.175,0.189,0.263
			c0.031,12.015,0.053,24.031,0.075,36.046c0,0,0.099-0.092,0.099-0.092c-3.042,0.015-6.084,0.038-9.126,0.043
			c-2.992,0.005-5.984-0.01-9.176-0.016c0-12.544,0-24.584,0-36.624L1736.245,294.37z"/>
		<path d="M1754.552,330.948c6.031,0,12.062,0,18.245,0c0.093,0.959,0.208,1.605,0.209,2.25c0.01,11.004,0.008,22.008-0.002,33.012
			c0,0.444-0.101,0.888-0.155,1.333c0,0,0.094-0.085,0.094-0.085c-3.046,0.054-6.093,0.194-9.137,0.136
			c-2.994-0.056-6.028,0.406-9.155-0.368c0-12.225,0-24.297,0-36.37L1754.552,330.948z"/>
		<path d="M1865.33,36.956c-0.117,1.219-0.332,2.438-0.336,3.658c-0.028,9.487-0.016,18.975-0.016,28.462c0,1.228,0,2.457,0,4.107
			c-6.156,0.097-12.082,0.19-18.008,0.284l0.103,0.083c-0.13-0.762-0.373-1.524-0.374-2.287
			c-0.025-10.786-0.019-21.571-0.011-32.357c0.001-0.647,0.086-1.294,0.159-2.317c6.303,0.234,12.423-0.468,18.541,0.429
			L1865.33,36.956z"/>
		<path d="M1643.809,588.783c0.767-0.135,1.534-0.385,2.302-0.386c10.939-0.025,21.879-0.018,32.818-0.01
			c0.545,0,1.09,0.082,1.871,0.145c0,6.045,0,11.943,0,18.05c-12.116,0-24.122,0-36.571,0c0-1.441,0.025-2.756-0.005-4.07
			c-0.103-4.6-0.224-9.199-0.346-13.793C1643.872,588.724,1643.809,588.783,1643.809,588.783z"/>
		<path d="M1625.918,477.866c-5.944,0-11.888,0-18.237,0c-0.058-1.234-0.16-2.418-0.162-3.601
			c-0.013-9.665-0.002-19.331-0.014-28.996c-0.002-1.232-0.093-2.464-0.143-3.697l-0.083,0.103c1.665-0.131,3.329-0.355,4.996-0.376
			c4.369-0.053,8.738-0.018,13.554-0.018c0,12.435,0,24.558-0.002,36.683C1625.825,477.967,1625.918,477.866,1625.918,477.866z"/>
		<path d="M1754.643,55.077c0-12.07,0-24.141,0-36.159c2.519-0.743,12.849-0.931,18.131-0.345c0,11.98,0,23.989,0,36.409
			c-6.11,0-12.168,0-18.226,0C1754.548,54.981,1754.643,55.077,1754.643,55.077z"/>
		<path d="M1607.362,441.572c-4.499-0.097-8.998-0.202-13.497-0.287c-1.444-0.027-2.889-0.004-4.544-0.004c0-6.25,0-12.175,0-18.316
			c5.981,0,11.906,0,17.968,0c0,6.355,0,12.527-0.005,18.705C1607.279,441.675,1607.362,441.572,1607.362,441.572z"/>
		<path d="M1883.696,18.716c0-6.162,0-12.324,0-18.716c5.857,0,11.759,0,17.816,0c0,6.083,0,11.984,0,18.3
			c-2.162,0-4.155-0.037-6.146,0.008c-3.915,0.089-7.83,0.224-11.753,0.333C1883.605,18.634,1883.696,18.716,1883.696,18.716z"/>
		<path d="M1644.127,496.24c-5.928,0-11.856,0-18.286,0c-0.027-6.14-0.105-12.252,0.075-18.372c0.002-0.002-0.091,0.099-0.089,0.097
			c5.959-0.002,11.917-0.002,18.009-0.002c0.75,3.227,0.316,6.254,0.365,9.244c0.05,3.036-0.097,6.076-0.157,9.114L1644.127,496.24z
			"/>
		<path d="M1644.044,496.322c6.057,0,12.114,0,18.499,0c0.351,6.257,0.253,12.131,0.07,18.2c-6.169,0-12.073,0-18.485,0
			c0-6.197,0-12.239,0-18.282C1644.127,496.24,1644.044,496.322,1644.044,496.322z"/>
		<path d="M1865.39,37.019c-0.136-1.549-0.371-3.097-0.389-4.647c-0.052-4.569-0.019-9.139-0.019-14.071
			c4.922,0,9.491-0.033,14.06,0.019c1.549,0.018,3.095,0.25,4.648,0.39c0.006,0.006-0.085-0.076-0.077-0.069
			c-0.067,4.624-0.147,9.242-0.216,13.859c-0.018,1.219-0.003,2.438-0.003,4.102c-1.634,0-2.949-0.025-4.262,0.004
			c-4.604,0.102-9.209,0.222-13.807,0.342C1865.33,36.956,1865.39,37.019,1865.39,37.019z"/>
		<path d="M1846.971,73.467c-0.098,4.157-0.208,8.313-0.288,12.47c-0.034,1.781-0.006,3.564-0.006,5.566c-6.224,0-12.13,0-18.279,0
			c0-5.986,0-11.881,0-17.962c6.335,0,12.499,0,18.67,0.005C1847.074,73.55,1846.971,73.467,1846.971,73.467z"/>
		<path d="M1643.955,55.16c-5.917-0.083-11.834-0.167-18.029-0.254c-0.09-6.182-0.176-12.097-0.262-18.013l-0.083,0.103
			c1.669-0.131,3.336-0.355,5.006-0.375c4.384-0.053,8.769-0.018,13.359-0.018c0.108,1.078,0.28,1.939,0.265,2.797
			c-0.091,5.286-0.224,10.571-0.347,15.862C1643.859,55.268,1643.955,55.16,1643.955,55.16z"/>
		<path d="M1790.904,294.595c1.557-0.136,3.114-0.371,4.673-0.389c4.601-0.052,9.203-0.019,14.032-0.019c0,6.135,0,11.943,0,17.742
			c-2.368,0.68-13.171,0.855-18.005,0.268c-0.089-0.798-0.26-1.655-0.267-2.514c-0.03-3.949,0.011-7.899-0.03-11.847
			c-0.011-1.105-0.213-2.208-0.334-3.307C1790.967,294.536,1790.904,294.595,1790.904,294.595z"/>
		<path d="M1625.664,36.893c-3.485-0.097-6.969-0.218-10.454-0.283c-2.362-0.044-4.725-0.008-7.021-0.008
			c-0.819-2.492-0.997-13.475-0.319-18.083c5.782,0,11.602,0,17.927,0c-0.06,6.155,0.234,12.304-0.211,18.471
			C1625.581,36.997,1625.664,36.893,1625.664,36.893z"/>
		<path d="M1883.349,588.542c0.016-23.1,0.032-46.201,0.048-69.301c0.001-1.337,0-2.675,0-4.388
			c6.278-0.104,12.313-0.205,18.347-0.305c-0.016,23.1-0.032,46.201-0.048,69.301c-0.001,1.337,0,2.675,0,4.388
			C1895.418,588.341,1889.384,588.441,1883.349,588.542z"/>
	</g>
	<g>
		<path d="M719.064,502.326c-0.142,1.347-0.392,2.694-0.406,4.043c-0.05,4.783-0.02,9.566-0.02,14.816c-6.202,0-12.175,0-18.331,0
			c0,18.91,0,37.351,0,55.976c6.089,0,11.974,0,18.237,0c0-6.136,0-12.14,0-18.57c6.359,0,12.357,0,18.742,0
			c0-12.591,0-24.755,0-37.201c6.295,0,12.198,0,18.518,0c0.272-4.32,0.103-8.39,0.134-12.449c0.031-4,0.007-8,0.007-12
			c0-4.098,0-8.196,0-12.712c6.243-0.098,12.241-0.192,18.239-0.286l-0.105-0.084c0.133,1.687,0.359,3.373,0.38,5.062
			c0.054,4.431,0.018,8.862,0.018,13.463c0.756,0.146,1.283,0.337,1.811,0.337c18.143-0.007,36.286-0.033,54.43-0.056
			c0,0-0.095-0.086-0.095-0.086c-0.054,6.132-0.108,12.264-0.165,18.769c-6.347,0-12.341,0-18.43,0c0,12.539,0,24.695,0,36.979
			c6.236,0,12.216,0,18.543,0c0-6.139,0-12.032,0-18.402c6.314,0,12.294,0,18.459,0c0.149-6.457-0.06-12.455,0.138-18.719
			c6.531,0,12.572,0,18.612,0l-0.106-0.113c0,6.165,0,12.329,0,18.917c-6.198,0-12.201,0-18.541,0c0,6.313,0,12.213,0,18.452
			c-6.245,0-12.157,0-18.457,0c0,6.336,0,12.343,0,18.651c-6.361,0.568-12.394-0.058-18.775,0.407
			c-0.273,9.277-0.087,18.496-0.121,27.71c-0.034,9.129-0.007,18.258-0.007,27.61c-6.238,0-12.124,0-18.432,0
			c0-37.079,0-74.07,0-111.31c-6.396,0-12.378,0-18.749,0c0,6.041,0,12.05,0,18.434c-6.272,0-12.173,0-18.564,0
			c-0.165,4.415-0.065,8.483-0.083,12.543c-0.018,4.004-0.004,8.007-0.004,12.011c0,4.109,0,8.217,0,12.733
			c-6.221,0-12.221,0-18.63,0c0,12.568,0,24.733,0,37.198c-6.316,0-12.217,0-18.613,0c-0.149,12.454,0.02,24.62-0.1,37.134
			c-6.132,0-12.022,0-17.794,0c-0.834,2.726-1.133,68.503-0.417,74.493c5.857,0,11.752,0,18.029,0
			c0.458-2.935,0.167-5.995,0.215-9.027c0.049-3.088,0.011-6.177,0.011-9.265c0-2.974,0-5.948,0-8.922c0-3.079,0-6.159,0-9.712
			c6.169-0.316,12.179,0.029,18.552-0.226c0-6.186,0-12.191,0-18.601c6.382,0,12.375,0,18.696,0c0-6.3,0-12.195,0-18.423
			c6.22,0,12.116,0,18.478,0c0.267-6.297-0.019-12.304,0.18-18.554c6.178,0,12.161,0,18.138,0
			c0.675,2.563,0.833,32.561,0.132,36.882c-5.922,0-11.921,0-18.292,0c0,6.398,0,12.405,0,18.77c-6.279,0-12.192,0-18.499,0
			c0,12.534,0,24.712,0,37.299c-6.387,0-12.38,0-18.708,0c0,6.304,0,12.199,0,18.503c-6.322,0-12.317,0-18.599,0
			c0,12.488,0,24.567,0,36.809c-3.271,0.814-6.341,0.333-9.368,0.417c-2.944,0.082-5.892,0.018-9.04,0.018
			c0,37.358,0,74.369,0,111.735c6.232,0.141,12.465,0.282,18.698,0.423l-0.098-0.109c-0.092,1.244-0.26,2.488-0.263,3.733
			c-0.022,9.716-0.012,19.432-0.012,29.148c0,1.233,0,2.467,0,4.047c-6.195,0-12.082,0-18.353,0
			c-0.07,1.639-0.176,2.958-0.176,4.276c-0.009,36.463-0.016,72.927-0.002,109.39c0.005,11.771,0.073,23.542,0.111,35.313
			c-18.765,0-37.53,0-56.296,0c0.039-1.255,0.112-2.51,0.112-3.765c0.006-46.86,0.005-93.72,0.005-140.58c0-1.353,0-2.705,0-4.396
			c-6.179,0-12.078,0-18.385,0c-0.059-1.519-0.123-2.722-0.148-3.925c-0.1-4.901-0.188-9.803-0.281-14.704l-0.098,0.109
			c4.56-0.084,9.12-0.175,13.68-0.248c1.58-0.025,3.16-0.004,4.982-0.004c0-24.865,0-49.453,0-74.511c-6.077,0-12.058,0-18.286,0
			c0-1.708,0-2.949,0-4.19c0-9.937,0.015-19.873-0.019-29.81c-0.004-1.233-0.264-2.465-0.402-3.694
			c4.664,0.14,9.324,0.287,13.985,0.406c1.559,0.04,3.12,0.006,4.606,0.006c0.73-5.304,0.499-53.318-0.185-55.6
			c-5.909,0-11.794,0-17.989,0c0,1.459,0,2.694,0,3.928c0,15.875,0.008,31.75-0.016,47.626c-0.002,1.23-0.222,2.461-0.341,3.691
			c-2.832,0.118-5.663,0.286-8.497,0.341c-3.077,0.059-6.156,0.013-9.715,0.013c-0.168-12.457-0.054-24.738-0.075-37.017
			c-0.021-12.307-0.005-24.614-0.005-37.262c-6.208,0-12.092,0-18.439,0c-0.189-6.436-0.072-12.553-0.093-18.664
			c-0.021-6.036-0.005-12.072-0.005-18.571c-6.199-0.379-12.203,0.028-18.643-0.271c0.059-6.408-0.206-12.627,0.188-18.857
			l-0.127,0.131c6.083,0,12.166,0,18.629,0c0-6.448,0-12.542,0-18.636c0,0-0.095,0.097-0.095,0.097
			c6.126,0.055,12.252,0.111,18.655,0.169c0,18.728,0,36.995,0,55.701c6.275,0,12.28,0,18.647,0c0,6.443,0,12.453,0,18.628
			c6.267,0,12.155,0,18.007,0c0.76-3.725,0.619-90.422-0.221-93.226c-5.779,0-11.671,0-17.851,0c0-4.448,0-8.544,0-12.641
			c0-4.004,0.026-8.008-0.007-12.012c-0.033-4.066,0.148-8.143-0.144-12.477c-12.466,0-24.549,0-36.99,0c0-6.315,0-12.343,0-18.371
			l-0.095,0.097c1.251-0.056,2.502-0.159,3.753-0.161c9.816-0.013,19.632-0.007,29.447-0.007c1.222,0,2.443,0,3.846,0
			c0-6.382,0-12.367,0-18.771c-6.169,0-12.16,0-18.486,0c0-6.298,0-12.185,0-18.536c-6.313,0-12.295,0-18.465,0
			c0-6.625,0-12.778,0-18.93l-0.095,0.097c6.096,0,12.192,0,18.632,0c0-12.648,0-24.905,0-37.161l-0.093,0.1
			c6.048,0,12.096,0,18.653,0c0.083,6.285,0.031,12.411,0.04,18.534c0.009,6.178,0.002,12.356,0.002,18.534s0,12.356,0,18.534
			c0,6.151,0,12.301,0,18.638c6.295,0,12.193,0,18.315,0c0-55.789,0-111.445,0-167.438c-5.981,0-11.888,0-18.285,0
			c-0.065-12.498,0.007-24.674-0.044-37.264c-6.26,0-12.253,0-18.543,0c0-12.497,0-24.577,0-37.023
			c-6.249-0.487-12.263,0.064-18.629-0.346c0-12.402,0-24.575,0-37.086c-6.311,0-12.218,0-18.576,0
			c-0.139-4.383-0.054-8.451-0.07-12.514c-0.016-4.004-0.003-8.009-0.003-12.013c0-4.103,0-8.205,0-12.714
			c-6.14-0.296-12.051,0.004-18.401-0.194c0-6.037,0-12.019,0-18.402c-12.625,0-24.799,0-37.198,0c0-6.387,0-12.365,0-18.697
			c6.089,0,11.991,0,18.198,0c0-12.441,0-24.537,0-37.04c3.312-0.304,6.363-0.131,9.399-0.161c2.967-0.029,5.934-0.006,9.348-0.006
			c0.223,4.251,0.083,8.325,0.108,12.389c0.025,4.004,0.006,8.009,0.006,12.013c0,4.102,0,8.204,0,12.544c6.159,0,12.054,0,18.401,0
			c0.35-5.921-0.025-11.935,0.212-18.106c0.901-0.112,1.658-0.284,2.416-0.289c4.576-0.026,9.153-0.035,13.729,0.004
			c0.891,0.008,1.78,0.251,2.67,0.385c0,0-0.083-0.103-0.083-0.103c-0.053,1.139-0.151,2.279-0.151,3.419
			c-0.01,16.015-0.007,32.031-0.007,48.046c0,1.228,0,2.455,0,4.025c6.255,0,12.148,0,18.458,0c0,12.508,0,24.676,0,37.283
			c6.404,0,12.403,0,18.65,0c0,12.54,0,24.638,0,37.224c6.203,0.335,12.207-0.015,18.587,0.225c0,6.187,0,12.178,0,18.364
			c6.411,0,12.404,0,18.6,0c0-24.704,0-49.25,0-74.232c-6.149,0-12.155,0-18.568,0c0-1.644,0-2.862,0-4.08
			c0-16.015,0.006-32.031-0.012-48.046c-0.001-1.245-0.173-2.49-0.265-3.735l-0.098,0.109c1.021-0.084,2.041-0.239,3.062-0.241
			c10.408-0.018,20.817-0.016,31.225-0.003c0.999,0.001,1.998,0.117,3.377,0.203c0,24.742,0,49.277,0,74.244
			c6.386,0,12.393,0,18.715,0c0,24.968,0,49.504,0,74.532c6.557-0.153,12.783,0.337,19.014-0.309
			c-0.086,6.292-0.167,12.579-0.247,18.866c-6.125,0-12.25,0-18.521,0c0,12.658,0,24.809,0,37.241
			c6.141,0.177,12.092,0.329,18.431-0.11c0-12.622,0-24.921,0-37.221c6.112,0.34,12.213,0.121,18.251,0.161
			c0.632-5.401,0.454-16.023-0.308-18.641c-1.632,0-3.332,0.021-5.032-0.004c-4.212-0.063-8.424-0.147-12.636-0.222
			c-0.118-2.832-0.285-5.664-0.34-8.498c-0.059-3.077-0.013-6.155-0.013-9.724c4.21-0.168,8.273-0.062,12.328-0.081
			c4.111-0.019,8.222-0.004,12.333-0.004c4.081,0,8.162,0,12.41,0c0.099-0.994,0.219-1.648,0.22-2.302
			c0.012-10.848,0.015-21.697-0.005-32.545c-0.001-0.662-0.22-1.324-0.338-1.986c0,0-0.061,0.065-0.061,0.065
			c0.891-0.139,1.782-0.398,2.674-0.4c10.864-0.027,21.727-0.019,32.591-0.01c0.664,0.001,1.327,0.086,2.21,0.148
			c0,12.336,0,24.489,0,37.048c-6.168,0-12.166,0-18.338,0c0,6.291,0,12.176,0,18.471c6.142,0,12.137,0,18.347,0
			c0,6.303,0,12.202,0,18.515c-5.942,0.464-11.964-0.068-18.443,0.344c-0.226,5.995,0.014,11.993-0.146,18.293
			c-6.152,0-12.045,0-18.384,0c-0.181,6.314-0.096,12.3-0.05,18.767c6.213,0,12.201,0,18.532,0c0,6.37,0,12.273,0,18.387
			c12.521,0,24.685,0,37.304,0c0-12.381,0-24.546,0-37.157c6.595,0,12.742,0,18.889,0l-0.09-0.09c0,12.31,0,24.619,0,37.368
			c6.153,0.192,12.113,0.111,18.408,0.056c0-6.251,0-12.152,0-18.47c6.311,0,12.305,0,18.687,0c0-6.404,0-12.393,0-18.599
			c6.397-0.159,12.401-0.308,18.405-0.457l-0.109-0.098c0.084,5.021,0.172,10.042,0.25,15.063c0.019,1.223,0.003,2.447,0.003,4.004
			c12.486,0,24.561,0,36.909,0c0,6.297,0,12.261,0,18.589c-24.6,0-49.13,0-74.052,0c0,6.345,0,12.342,0,18.7
			c-12.566,0-24.745,0-37.29,0c0,6.259,0,12.163,0,17.949c-2.733,0.801-13.004,0.977-18.343,0.368
			c-0.657-5.886,0.136-11.913-0.438-18.045c-12.343,0-24.515,0-37.02,0c0,6.043,0,11.946,0,18.061
			c-1.181,0.115-2.055,0.269-2.93,0.275c-4.23,0.026-8.46-0.015-12.689,0.031c-1.12,0.012-2.238,0.247-3.351,0.373
			c0.08-3.085,0.185-6.164,0.222-9.243c0.038-3.152,0.008-6.305,0.008-9.388c-5.415-0.601-16.102-0.417-18.423,0.24
			c0,5.903,0,11.791,0,18c1.796,0,3.373-0.025,4.95,0.005c4.441,0.084,8.882,0.189,13.323,0.287
			c0.026,11.987,0.053,23.975,0.067,35.962c0,0.201-0.163,0.402-0.44,1.045c-1.582,0-3.372,0.034-5.161-0.007
			c-4.203-0.097-8.406-0.229-12.615-0.342c-0.122-4.422-0.247-8.848-0.346-13.276c-0.035-1.561-0.006-3.124-0.006-4.6
			c-4.127-0.683-15.926-0.559-18.54,0.174c0,2.9-0.01,5.859,0.003,8.818c0.013,3.029,0.047,6.058,0.073,9.234
			c5.159,0,9.832,0.032,14.503-0.019C716.143,502.706,717.603,502.464,719.064,502.326z M737.548,409.779c0,6.329,0,12.203,0,18.309
			c6.236,0.032,12.211,0.176,18.151-0.074c0-6.376,0-12.258,0-18.234C749.552,409.779,743.651,409.779,737.548,409.779z"/>
		<path d="M737.577,241.401c-0.541,0.147-1.081,0.419-1.622,0.422c-5.593,0.031-11.187,0.019-17.285,0.019
			c-0.057-4.692-0.021-9.219-0.027-13.744c-0.007-4.69-0.001-9.38-0.001-14.071c0-4.576,0-9.152,0-13.727c0-4.562,0-9.124,0-13.84
			c-3.189-0.841-6.26-0.331-9.285-0.421c-2.944-0.087-5.893-0.019-9.228-0.019c0-18.707,0-37.061,0-55.818c-6.388,0-12.39,0-18.56,0
			c0-12.58,0-24.75,0-37.12c6.127,0,12.034,0,18.441,0c0.241,12.165-0.036,24.34,0.156,36.869c6.108,0.56,12.127-0.05,18.459,0.398
			c0,12.397,0,24.57,0,36.937c6.28,0,12.18,0,18.575,0c0.199-8.192,0.062-16.373,0.087-24.549
			c0.025-8.236,0.006-16.473,0.006-24.709c0-8.218,0-16.436,0-25.146c1.61,0,2.938,0.028,4.264-0.005
			c4.662-0.116,9.324-0.254,13.992-0.379c0.006,0.004-0.043-0.045-0.043-0.045c0.145,1.462,0.415,2.924,0.417,4.386
			c0.027,22.073,0.019,44.146,0.019,66.219c0,1.341,0,2.682,0,4.293c6.404,0.11,12.424,0.214,18.445,0.318l-0.083-0.084
			c0,6.016,0,12.032,0,18.444c-12.354,0-24.507,0-36.865,0c-0.063,1.156-0.141,1.928-0.142,2.7
			c-0.007,16.904-0.008,33.808,0.005,50.712c0,0.675,0.145,1.351,0.214,2.037C737.506,241.49,737.577,241.401,737.577,241.401z"/>
		<path d="M551.299,595.959c-6.138,0-12.276,0-18.921,0c-0.023-18.743,0.004-37.064-0.016-55.833
			c-12.538-0.222-24.802,0.059-37.385-0.162c0-6.557,0-12.706,0-18.855l-0.09,0.09c12.313,0,24.625,0,37.399,0
			c0.028-4.201,0.066-8.258,0.08-12.315c0.014-3.994,0.003-7.989,0.003-11.983c0-4.099,0-8.199,0-12.784
			c6.481-0.035,12.712-0.06,18.945,0.032c0,0-0.114-0.106-0.114-0.106c-0.022,24.207-0.045,48.414-0.053,72.62
			c0,0.54,0.177,1.08,0.336,1.99c12.254,0,24.42,0,36.783,0c0,6.551,0,12.706,0,18.861l0.095-0.097
			c-12.196,0.019-24.393,0.037-36.589,0.066c-0.085,0-0.172,0.133-0.254,0.208c-0.084,0.077-0.162,0.161-0.314,0.314
			c0,5.964,0,12.002,0,18.039L551.299,595.959z"/>
		<path d="M569.967,334.956c5.928,0,11.856,0,18.278,0c0.136,8.547,0.048,16.725,0.064,24.9c0.016,8.231,0.004,16.461,0.004,24.692
			c0,8.204,0,16.408,0,24.985c6.242,0,12.134,0,18.231,0c0.128,1.095,0.293,1.844,0.293,2.594c0,24.006-0.017,48.011-0.031,72.017
			c0,0,0.093-0.1,0.093-0.1c-6.21,0-12.421,0-18.631,0l0.1,0.093c-0.017-23.334-0.034-46.669-0.051-70.003
			c-0.001-1.348,0-2.697,0-4.476c-6.318,0-12.315,0-18.683,0c0-6.431,0-12.435,0-18.769c-6.267,0-12.162,0-18.312,0
			c-0.075-1.424-0.204-2.529-0.18-3.631c0.113-5.124,0.269-10.248,0.409-15.371l-0.064,0.06c5.901,0,11.801,0,18.179,0
			c0-1.133,0-2.347,0-3.56c0-9.94-0.014-19.879,0.018-29.819c0.004-1.232,0.253-2.463,0.388-3.694
			C570.07,334.874,569.967,334.956,569.967,334.956z"/>
		<path d="M569.86,670.054c-6.051,0-12.102,0-18.614,0c0-5.921,0-11.903,0-18.283c-6.445,0-12.444,0-18.638,0
			c0-6.385,0-12.361,0-18.631c6.143,0,12.058,0,18.352,0c0.064-1.484,0.16-2.695,0.161-3.906c0.012-9.838,0.001-19.677,0.015-29.515
			c0.002-1.254,0.106-2.507,0.163-3.76c0,0-0.095,0.086-0.095,0.086c6.021,0,12.042,0,18.473,0c0,6.186,0,12.174,0,18.568
			c6.389,0,12.374,0,18.589,0c0,12.622,0,24.828,0,37.033l0.095-0.097c-6.12,0.097-12.24,0.193-18.629,0.294
			c0,6.306,0,12.324,0,18.342L569.86,670.054z"/>
		<path d="M904.52,483.858c0.133,1.691,0.359,3.381,0.38,5.074c0.054,4.442,0.018,8.884,0.018,13.743c-6.228,0-12.22,0-18.55,0
			c0,6.297,0,12.189,0,18.585c-3.375,0.006-6.411,0.038-9.446,0.01c-3.083-0.028-6.165-0.116-9.248-0.178
			c0,0,0.106,0.113,0.106,0.113c-0.215-6.083,0.221-12.188-0.262-18.464c-3.563,0-6.741,0.014-9.918-0.003
			c-8.992-0.047-17.985-0.106-26.977-0.16c0,0,0.095,0.086,0.095,0.086c0-6.028,0-12.056,0-18.571c1.409,0,2.734,0,4.058,0
			c22.031,0,44.063,0.002,66.094-0.007c1.252,0,2.503-0.094,3.755-0.144L904.52,483.858z"/>
		<path d="M774.386,167.67c0-6.155,0-12.309,0-18.88c6.344,0,12.348,0,18.726,0c0-6.289,0-12.172,0-18.507
			c4.418-0.192,8.487-0.075,12.549-0.096c3.999-0.021,7.999-0.005,11.999-0.005c4.103,0,8.206,0,12.666,0
			c0.531-6.22-0.044-12.239,0.348-18.184c2.528-0.731,14.338-0.844,18.196-0.161c0,5.947,0,11.932,0,18.268
			c-6.032,0-11.936,0-18.177,0c0,6.231,0,12.126,0,18.31c-3.329,0.549-6.389,0.245-9.422,0.295
			c-3.085,0.051-6.171,0.011-9.256,0.011s-6.171,0-9.256,0c-3.056,0-6.112,0-9.591,0c0,6.435,0,12.428,0,18.863
			c-6.577,0-12.72,0-18.863,0C774.303,167.586,774.386,167.67,774.386,167.67z"/>
		<path d="M588.553,186.428c-0.079-1.018-0.225-2.037-0.227-3.055c-0.017-10.491-0.013-20.982-0.005-31.472
			c0.001-0.903,0.082-1.806,0.147-3.156c6.061,0,12.042,0,18.383,0c0-1.676,0-2.902,0-4.128c0-9.921-0.007-19.841,0.008-29.762
			c0.002-1.249,0.118-2.498,0.177-3.743c-0.004,0.004-0.116,0.111-0.116,0.111c6.074-0.052,12.149-0.105,18.223-0.157l-0.065-0.06
			c0.139,0.777,0.397,1.553,0.398,2.33c0.026,11.088,0.02,22.175,0.009,33.263c-0.001,0.56-0.113,1.12-0.219,2.092
			c-6.03,0-12.029,0-18.407,0c0,12.583,0,24.753,0,37.332c-2.401,0-4.426-0.031-6.45,0.007c-3.985,0.073-7.97,0.185-11.948,0.288
			C588.47,186.325,588.553,186.428,588.553,186.428z"/>
		<path d="M830.624,223.15c0,12.328,0,24.656,0,37.402c-6.325,0-12.33,0-18.76,0c0,12.571,0,24.735,0,37.132
			c-6.311,0-12.19,0-18.057,0c-0.668-2.512-0.892-31.676-0.237-37.031c5.903,0,11.888,0,18.286,0c0-12.646,0-24.811,0-37.414
			c6.57,0,12.714,0,18.858,0L830.624,223.15z"/>
		<path d="M551.3,465.518c-6.156,0-12.312,0-18.886,0c0,6.167,0,12.164,0,18.359c-6.299,0-12.179,0-18.031,0
			c-0.71-2.817-0.785-52.22-0.076-55.559c5.843,0,11.724,0,18.013,0c0,6.162,0,12.16,0,18.526c6.385,0,12.379,0,18.716,0
			c0.06,6.501,0.117,12.632,0.174,18.763L551.3,465.518z"/>
		<path d="M755.589,298.282c-2.372-0.119-4.743-0.301-7.116-0.341c-3.527-0.058-7.055-0.015-10.775-0.015
			c-0.154-0.927-0.386-1.672-0.387-2.418c-0.02-17.355-0.018-34.711-0.003-52.067c0.001-0.675,0.167-1.35,0.262-2.033
			c0.006-0.008-0.064,0.081-0.056,0.07c1.579,0.12,3.148,0.344,4.72,0.363c4.433,0.051,8.867,0.018,13.486,0.018
			c0.088,1.347,0.21,2.343,0.211,3.34c0.012,16.591,0.016,33.182-0.009,49.773c-0.002,1.123-0.253,2.245-0.391,3.371
			C755.528,298.347,755.589,298.282,755.589,298.282z"/>
		<path d="M886.123,390.561c0.049-2.049,0.139-4.099,0.14-6.148c0.012-15.061,0.007-30.122,0.007-45.183c0-1.226,0-2.453,0-3.994
			c6.346-0.094,12.35-0.182,18.355-0.271l-0.105-0.085c0.132,0.89,0.379,1.781,0.38,2.671c0.023,16.926,0.018,33.852,0.011,50.777
			c0,0.671-0.075,1.343-0.126,2.199c-0.719,0.109-1.363,0.287-2.007,0.29c-4.803,0.025-9.606,0.031-14.41-0.001
			c-0.782-0.005-1.562-0.224-2.349-0.349C886.014,390.464,886.123,390.561,886.123,390.561z"/>
		<path d="M774.303,37.145c0.047,0.223,0.134,0.446,0.134,0.67c0.013,17.794,0.021,35.589,0.019,53.383
			c0,0.433-0.116,0.865-0.233,1.683c-4.712,0-9.352,0.035-13.99-0.019c-1.575-0.018-3.147-0.262-4.724-0.406
			c-0.003-0.003,0.046,0.047,0.04,0.043c0.128-1.23,0.377-2.455,0.379-3.68c0.026-15.9,0.017-31.8,0.017-47.699
			c0-1.23,0-2.46,0-3.89c6.397,0,12.419,0,18.442,0L774.303,37.145z"/>
		<path d="M904.625,483.942c0.099-4.442,0.207-8.884,0.292-13.326c0.03-1.577,0.005-3.154,0.005-4.947c18.668,0,37.005,0,55.585,0
			c0,6.07,0,12.044,0,18.192c-1.057,0.085-1.943,0.217-2.83,0.217c-16.921,0.012-33.842,0.012-50.764-0.001
			c-0.794-0.001-1.587-0.137-2.387-0.216C904.52,483.858,904.625,483.942,904.625,483.942z"/>
		<path d="M923.441,298.162c0-12.324,0-24.648,0-37.263c3.215-0.508,6.278-0.215,9.315-0.265c2.955-0.048,5.911-0.011,8.788-0.011
			c0.845,2.706,0.952,33.627,0.137,37.194c-6.063,0.086-12.197,0.172-18.332,0.257C923.347,298.073,923.441,298.162,923.441,298.162
			z"/>
		<path d="M774.386,37.229c0.032-11.076,0.063-22.152,0.094-33.229c0.003-1.248,0-2.495,0-4.001c6.21,0,12.205,0,18.2,0
			c0.676,2.416,0.883,31.907,0.192,36.937c-6.134,0.069-12.352,0.138-18.569,0.208C774.303,37.145,774.386,37.229,774.386,37.229z"
			/>
		<path d="M830.74,335.183c-0.066,4.797-0.135,9.595-0.195,14.392c-0.015,1.226-0.002,2.453-0.002,3.871
			c-12.564,0-24.733,0-37.097,0c0-6.095,0-11.991,0-18.01c0.653-0.117,1.196-0.299,1.74-0.299
			c11.438-0.016,22.875-0.014,34.313-0.004c0.453,0,0.905,0.111,1.353,0.166C830.847,335.295,830.74,335.183,830.74,335.183z"/>
		<path d="M904.625,334.965c0.099-1.237,0.281-2.474,0.284-3.711c0.024-9.69,0.013-19.38,0.013-29.07c0-1.236,0-2.472,0-4.073
			c6.334-0.251,12.421-0.368,18.518,0.049c0.002,0.002-0.093-0.088-0.091-0.086c0.002,12.186,0.002,24.369,0.002,36.984
			c-6.378,0.016-12.593,0.264-18.824-0.172C904.52,334.881,904.625,334.965,904.625,334.965z"/>
		<path d="M551.549,371.887c-0.777,0.136-1.554,0.39-2.331,0.392c-11.079,0.025-22.159,0.019-33.238,0.01
			c-0.552,0-1.104-0.083-1.895-0.147c0-6.122,0-12.095,0-18.281c12.272,0,24.431,0,37.039,0c0,1.459-0.025,2.791,0.005,4.121
			c0.104,4.659,0.227,9.317,0.35,13.97C551.485,371.947,551.549,371.887,551.549,371.887z"/>
		<path d="M476.228,204.523c0.099-4.442,0.208-8.883,0.293-13.325c0.03-1.577,0.005-3.154,0.005-4.947c12.492,0,24.653,0,37.054,0
			c0,6.078,0,12.054,0,18.181c-0.815,0.089-1.476,0.225-2.137,0.225c-11.204,0.012-22.408,0.01-33.612-0.003
			c-0.565-0.001-1.13-0.134-1.701-0.211C476.124,204.439,476.228,204.523,476.228,204.523z"/>
		<path d="M569.753,484.143c6.204-0.002,12.409-0.004,18.613-0.006c0,0-0.1-0.093-0.1-0.093c0,12.387,0,24.774,0,37.161l0.095-0.097
			c-6.118,0-12.235,0-18.697,0c0-1.326,0-2.437,0-3.548c0-4.904-0.022-9.809,0.005-14.713c0.034-6.268,0.107-12.537,0.163-18.805
			C569.833,484.043,569.753,484.143,569.753,484.143z"/>
		<path d="M570.07,334.874c-6.146,0-12.292,0-18.69,0c0-12.19,0-24.347,0-36.726c5.936,0,11.83,0,18.147,0
			c0.044,1.184,0.126,2.39,0.127,3.596c0.011,9.834-0.004,19.668,0.019,29.502c0.003,1.242,0.181,2.483,0.285,3.718
			C569.967,334.956,570.07,334.874,570.07,334.874z"/>
		<path d="M643.762,204.818c-5.924,0-11.847,0-18.013,0c0-12.598,0-24.756,0-37.124c6.008,0,11.899,0,17.997,0
			c0.096,0.652,0.273,1.296,0.274,1.941c0.018,10.979,0.021,21.959-0.001,32.938c-0.002,0.781-0.224,1.563-0.349,2.349
			C643.664,204.927,643.762,204.818,643.762,204.818z"/>
		<path d="M588.277,74.289c6.017,0,12.034,0,18.511,0c0.042,12.45,0.084,24.696,0.129,36.938c0.004-0.004,0.116-0.111,0.12-0.116
			c-6.108-0.004-12.22-0.004-18.664-0.004c0-12.345,0-24.63,0-36.914L588.277,74.289z"/>
		<path d="M588.374,74.193c-6.05,0-12.1,0-18.328,0c-0.143-0.785-0.36-1.422-0.361-2.061c-0.02-11.213-0.016-22.426-0.006-33.64
			c0-0.452,0.11-0.904,0.169-1.356l-0.084,0.083c6.034,0,12.068,0,18.513,0c0,12.445,0,24.757,0,37.069
			C588.277,74.289,588.374,74.193,588.374,74.193z"/>
		<path d="M531.903,167.294c-5.837,0-11.713,0-17.83,0c0-12.335,0-24.486,0-36.875c5.932,0,11.809,0,17.687,0
			C532.505,132.819,532.655,163.499,531.903,167.294z"/>
		<path d="M867.986,298.3c0-6.235,0-12.47,0-18.918c6.033,0,12.01,0,18.073,0c0,6.204,0,12.184,0,18.375
			c-6.194,0.152-12.188,0.299-18.181,0.446L867.986,298.3z"/>
		<path d="M849.388,316.769c-0.103,4.645-0.212,9.29-0.305,13.935c-0.027,1.336-0.004,2.673-0.004,4.472
			c-6.368,0-12.358,0-18.343,0.004c0.004,0.004,0.111,0.116,0.116,0.12c0.004-6.125,0.004-12.254,0.004-18.663
			c1.061-0.056,2.164-0.184,3.264-0.161c5.118,0.106,10.236,0.254,15.349,0.382C849.464,316.854,849.388,316.769,849.388,316.769z"
			/>
		<path d="M569.848,37.137c-6.12,0-12.24,0-18.537,0c0-6.373,0-12.252,0-18.38c6.017,0,11.977,0,18.452,0c0,6.224,0,12.343,0,18.463
			C569.764,37.22,569.848,37.137,569.848,37.137z"/>
		<path d="M625.226,912.631c-5.93,0-11.861,0-17.682,0c-0.833-2.733-0.979-14.314-0.298-18.463c5.853,0,11.748,0,17.682,0
			c0.114,0.128,0.393,0.295,0.391,0.46c-0.044,6.034-0.115,12.068-0.187,18.107C625.128,912.74,625.226,912.631,625.226,912.631z"/>
		<path d="M719.011,894.202c-0.123-2.379-0.316-4.757-0.354-7.137c-0.06-3.754-0.016-7.509-0.016-11.512c6.21,0,12.192,0,18.412,0
			c0,6.007,0,11.985,0,18.288c-6.127,0.081-12.14,0.161-18.147,0.247C718.913,894.093,719.011,894.202,719.011,894.202z"/>
		<path d="M830.714,223.24c0-6.023,0-12.046,0-18.317c6.044,0,12.002,0,18.164,0c0,6.022,0,11.904,0,18.004
			c-2.96,0.802-6.02,0.311-9.033,0.369c-3.071,0.06-6.147-0.089-9.221-0.146C830.624,223.15,830.714,223.24,830.714,223.24z"/>
		<path d="M774.183,483.942c0.099-4.324,0.209-8.648,0.292-12.972c0.032-1.69,0.005-3.381,0.005-5.294c6.303,0,12.285,0,18.513,0
			c0,6.062,0,12.033,0,18.193c-6.415,0-12.659,0-18.908-0.005C774.079,483.858,774.183,483.942,774.183,483.942z"/>
		<path d="M551.21,465.609c6.011,0,12.023,0,18.543,0c0,6.293,0,12.414,0,18.534c0,0,0.08-0.1,0.08-0.1c-6.211,0-12.422,0-18.633,0
			c0,0,0.114,0.106,0.114,0.106c-0.005-6.21-0.009-12.421-0.014-18.631C551.3,465.518,551.21,465.609,551.21,465.609z"/>
		<path d="M625.144,111.066c0.12-2.373,0.304-4.745,0.344-7.119c0.059-3.52,0.015-7.042,0.015-10.812c6.168,0,12.046,0,17.94,0
			c0.727,2.297,0.914,13.204,0.234,18.282c-1.254,0-2.587,0.028-3.919-0.005c-4.891-0.122-9.781-0.265-14.676-0.404
			C625.08,111.005,625.144,111.066,625.144,111.066z"/>
		<path d="M830.713,390.754c0-6.018,0-12.035,0-18.251c6.079,0,11.961,0,18.105,0c0,6.04,0,12.004,0,18.161
			c-6.16,0-12.178,0-18.196,0C830.623,390.663,830.713,390.754,830.713,390.754z"/>
		<path d="M867.877,298.202c0,5.892,0,11.784,0,18.084c-1.52,0.069-2.714,0.146-3.91,0.173c-4.864,0.108-9.728,0.2-14.585,0.304
			c0.006,0.006,0.083,0.092,0.087,0.096c-0.126-1.79-0.346-3.582-0.368-5.377c-0.055-4.391-0.018-8.784-0.018-13.553
			c3.257,0,6.173-0.047,9.086,0.012c3.27,0.067,6.538,0.229,9.812,0.355C867.986,298.3,867.877,298.202,867.877,298.202z"/>
	</g>
	<g>
		<path d="M1342.607,495.748c-0.142,1.347-0.392,2.694-0.406,4.043c-0.05,4.783-0.02,9.566-0.02,14.816c-6.202,0-12.175,0-18.331,0
			c0,18.91,0,37.351,0,55.976c6.089,0,11.974,0,18.237,0c0-6.136,0-12.14,0-18.57c6.359,0,12.357,0,18.742,0
			c0-12.591,0-24.755,0-37.201c6.295,0,12.198,0,18.518,0c0.272-4.32,0.102-8.39,0.134-12.449c0.031-4,0.007-8,0.007-12
			c0-4.098,0-8.196,0-12.712c6.243-0.098,12.241-0.192,18.239-0.286l-0.105-0.084c0.133,1.687,0.359,3.373,0.38,5.062
			c0.054,4.431,0.018,8.862,0.018,13.463c0.756,0.146,1.283,0.337,1.811,0.337c18.143-0.007,36.286-0.033,54.43-0.056
			c0,0-0.095-0.086-0.095-0.086c-0.054,6.132-0.108,12.264-0.165,18.769c-6.347,0-12.341,0-18.43,0c0,12.539,0,24.695,0,36.979
			c6.236,0,12.216,0,18.543,0c0-6.139,0-12.032,0-18.402c6.314,0,12.294,0,18.459,0c0.149-6.457-0.06-12.455,0.138-18.719
			c6.531,0,12.572,0,18.613,0l-0.106-0.113c0,6.165,0,12.329,0,18.917c-6.198,0-12.201,0-18.541,0c0,6.313,0,12.213,0,18.452
			c-6.245,0-12.157,0-18.457,0c0,6.336,0,12.343,0,18.651c-6.36,0.568-12.394-0.058-18.775,0.408
			c-0.273,9.277-0.087,18.496-0.121,27.71c-0.034,9.129-0.007,18.258-0.007,27.61c-6.238,0-12.124,0-18.432,0
			c0-37.079,0-74.07,0-111.31c-6.396,0-12.378,0-18.749,0c0,6.041,0,12.05,0,18.434c-6.272,0-12.173,0-18.564,0
			c-0.165,4.415-0.065,8.483-0.083,12.543c-0.018,4.004-0.004,8.007-0.004,12.011c0,4.109,0,8.217,0,12.733
			c-6.221,0-12.221,0-18.63,0c0,12.568,0,24.733,0,37.198c-6.316,0-12.217,0-18.613,0c-0.149,12.454,0.02,24.62-0.1,37.134
			c-6.132,0-12.022,0-17.794,0c-0.834,2.726-1.133,68.503-0.417,74.493c5.857,0,11.752,0,18.029,0
			c0.458-2.935,0.167-5.995,0.215-9.027c0.049-3.088,0.011-6.177,0.011-9.265c0-2.974,0-5.948,0-8.922c0-3.079,0-6.159,0-9.712
			c6.169-0.316,12.179,0.029,18.552-0.226c0-6.186,0-12.191,0-18.601c6.382,0,12.375,0,18.696,0c0-6.3,0-12.195,0-18.423
			c6.22,0,12.116,0,18.478,0c0.267-6.297-0.018-12.304,0.181-18.554c6.178,0,12.161,0,18.138,0
			c0.675,2.564,0.833,32.561,0.132,36.882c-5.922,0-11.921,0-18.292,0c0,6.398,0,12.405,0,18.77c-6.279,0-12.192,0-18.499,0
			c0,12.534,0,24.712,0,37.299c-6.387,0-12.38,0-18.708,0c0,6.304,0,12.199,0,18.503c-6.322,0-12.317,0-18.599,0
			c0,12.488,0,24.567,0,36.809c-3.272,0.814-6.341,0.333-9.368,0.417c-2.944,0.082-5.892,0.018-9.04,0.018
			c0,37.358,0,74.369,0,111.735c6.232,0.141,12.465,0.282,18.698,0.423l-0.098-0.109c-0.092,1.244-0.26,2.488-0.263,3.733
			c-0.022,9.716-0.012,19.432-0.012,29.148c0,1.233,0,2.467,0,4.047c-6.195,0-12.082,0-18.353,0
			c-0.07,1.639-0.176,2.958-0.176,4.276c-0.009,36.463-0.016,72.927-0.002,109.39c0.005,11.771,0.073,23.542,0.111,35.313
			c-18.765,0-37.53,0-56.296,0c0.039-1.255,0.112-2.51,0.112-3.765c0.006-46.86,0.005-93.72,0.005-140.58c0-1.353,0-2.705,0-4.396
			c-6.179,0-12.078,0-18.385,0c-0.058-1.519-0.123-2.722-0.148-3.925c-0.1-4.901-0.188-9.803-0.281-14.704l-0.098,0.109
			c4.56-0.084,9.12-0.175,13.68-0.248c1.58-0.025,3.16-0.004,4.981-0.004c0-24.865,0-49.453,0-74.511c-6.077,0-12.058,0-18.286,0
			c0-1.708,0-2.949,0-4.19c0-9.937,0.015-19.873-0.019-29.81c-0.004-1.233-0.264-2.465-0.402-3.694
			c4.664,0.14,9.324,0.287,13.985,0.406c1.559,0.04,3.12,0.006,4.606,0.006c0.73-5.304,0.499-53.318-0.185-55.6
			c-5.909,0-11.794,0-17.989,0c0,1.459,0,2.694,0,3.928c0,15.875,0.008,31.75-0.016,47.626c-0.002,1.23-0.222,2.461-0.341,3.691
			c-2.832,0.118-5.663,0.286-8.497,0.341c-3.077,0.059-6.156,0.013-9.715,0.013c-0.168-12.457-0.054-24.738-0.075-37.017
			c-0.021-12.307-0.005-24.614-0.005-37.262c-6.208,0-12.092,0-18.439,0c-0.189-6.436-0.072-12.553-0.093-18.664
			c-0.021-6.036-0.005-12.072-0.005-18.571c-6.199-0.379-12.203,0.028-18.643-0.271c0.059-6.408-0.206-12.627,0.188-18.857
			l-0.127,0.131c6.083,0,12.166,0,18.629,0c0-6.448,0-12.542,0-18.636c0,0-0.095,0.097-0.095,0.097
			c6.126,0.055,12.252,0.111,18.655,0.169c0,18.728,0,36.995,0,55.701c6.275,0,12.28,0,18.647,0c0,6.443,0,12.453,0,18.628
			c6.267,0,12.155,0,18.007,0c0.76-3.725,0.619-90.421-0.221-93.226c-5.779,0-11.671,0-17.851,0c0-4.448,0-8.544,0-12.641
			c0-4.004,0.026-8.008-0.007-12.012c-0.033-4.066,0.148-8.143-0.144-12.477c-12.466,0-24.549,0-36.99,0c0-6.315,0-12.343,0-18.371
			l-0.095,0.097c1.251-0.056,2.502-0.159,3.753-0.161c9.816-0.013,19.632-0.007,29.447-0.007c1.222,0,2.443,0,3.846,0
			c0-6.382,0-12.367,0-18.771c-6.17,0-12.16,0-18.486,0c0-6.298,0-12.185,0-18.536c-6.313,0-12.295,0-18.465,0
			c0-6.625,0-12.778,0-18.93l-0.095,0.097c6.096,0,12.192,0,18.632,0c0-12.648,0-24.905,0-37.161l-0.093,0.1
			c6.048,0,12.096,0,18.653,0c0.083,6.285,0.031,12.411,0.04,18.534c0.009,6.178,0.002,12.356,0.002,18.534s0,12.356,0,18.534
			c0,6.151,0,12.301,0,18.638c6.296,0,12.193,0,18.316,0c0-55.789,0-111.445,0-167.438c-5.981,0-11.888,0-18.285,0
			c-0.065-12.498,0.007-24.674-0.044-37.264c-6.26,0-12.253,0-18.543,0c0-12.497,0-24.577,0-37.023
			c-6.249-0.487-12.263,0.064-18.629-0.346c0-12.402,0-24.575,0-37.086c-6.311,0-12.218,0-18.577,0
			c-0.139-4.383-0.054-8.451-0.07-12.514c-0.016-4.004-0.003-8.009-0.003-12.013c0-4.103,0-8.205,0-12.714
			c-6.14-0.296-12.051,0.004-18.401-0.194c0-6.037,0-12.019,0-18.402c-12.625,0-24.798,0-37.198,0c0-6.387,0-12.365,0-18.697
			c6.089,0,11.99,0,18.198,0c0-12.441,0-24.537,0-37.04c3.311-0.304,6.363-0.131,9.399-0.161c2.967-0.029,5.934-0.006,9.348-0.006
			c0.223,4.251,0.083,8.325,0.108,12.389c0.025,4.004,0.005,8.009,0.005,12.013c0,4.102,0,8.204,0,12.544c6.159,0,12.054,0,18.401,0
			c0.35-5.921-0.025-11.935,0.212-18.106c0.901-0.112,1.658-0.284,2.416-0.289c4.576-0.026,9.153-0.035,13.729,0.004
			c0.891,0.008,1.78,0.251,2.67,0.385c0,0-0.083-0.103-0.083-0.103c-0.053,1.139-0.151,2.279-0.151,3.419
			c-0.01,16.015-0.007,32.031-0.007,48.046c0,1.228,0,2.455,0,4.025c6.255,0,12.148,0,18.458,0c0,12.508,0,24.676,0,37.283
			c6.404,0,12.403,0,18.65,0c0,12.54,0,24.638,0,37.224c6.203,0.335,12.207-0.015,18.587,0.225c0,6.187,0,12.178,0,18.364
			c6.411,0,12.404,0,18.6,0c0-24.704,0-49.25,0-74.232c-6.149,0-12.155,0-18.568,0c0-1.644,0-2.862,0-4.08
			c0-16.015,0.006-32.031-0.012-48.046c-0.001-1.245-0.173-2.49-0.265-3.735l-0.098,0.109c1.021-0.084,2.041-0.239,3.062-0.241
			c10.408-0.018,20.817-0.016,31.225-0.003c0.999,0.001,1.998,0.117,3.377,0.203c0,24.742,0,49.277,0,74.244
			c6.386,0,12.393,0,18.715,0c0,24.968,0,49.505,0,74.532c6.557-0.153,12.783,0.337,19.014-0.309
			c-0.086,6.293-0.167,12.579-0.247,18.866c-6.125,0-12.25,0-18.521,0c0,12.658,0,24.809,0,37.241
			c6.141,0.177,12.092,0.329,18.431-0.11c0-12.622,0-24.921,0-37.221c6.112,0.34,12.213,0.121,18.251,0.161
			c0.632-5.401,0.454-16.023-0.308-18.641c-1.632,0-3.332,0.021-5.032-0.004c-4.212-0.063-8.424-0.147-12.636-0.222
			c-0.118-2.832-0.285-5.664-0.34-8.498c-0.059-3.077-0.013-6.155-0.013-9.724c4.21-0.168,8.273-0.062,12.328-0.081
			c4.111-0.019,8.222-0.004,12.333-0.004c4.081,0,8.162,0,12.41,0c0.099-0.994,0.219-1.648,0.22-2.302
			c0.012-10.848,0.015-21.697-0.005-32.545c-0.001-0.662-0.22-1.324-0.338-1.986c0,0-0.061,0.065-0.061,0.065
			c0.891-0.139,1.782-0.398,2.674-0.4c10.864-0.027,21.727-0.019,32.591-0.01c0.664,0.001,1.327,0.086,2.21,0.148
			c0,12.336,0,24.489,0,37.048c-6.168,0-12.166,0-18.338,0c0,6.291,0,12.176,0,18.471c6.142,0,12.138,0,18.347,0
			c0,6.303,0,12.202,0,18.515c-5.943,0.464-11.964-0.068-18.443,0.344c-0.226,5.995,0.014,11.993-0.146,18.293
			c-6.152,0-12.046,0-18.384,0c-0.181,6.314-0.096,12.3-0.05,18.767c6.213,0,12.201,0,18.532,0c0,6.37,0,12.273,0,18.387
			c12.521,0,24.685,0,37.304,0c0-12.381,0-24.546,0-37.157c6.595,0,12.742,0,18.889,0l-0.09-0.09c0,12.31,0,24.619,0,37.368
			c6.153,0.192,12.113,0.111,18.408,0.056c0-6.251,0-12.152,0-18.47c6.311,0,12.306,0,18.687,0c0-6.404,0-12.393,0-18.599
			c6.397-0.159,12.401-0.308,18.405-0.457l-0.109-0.098c0.084,5.021,0.172,10.042,0.25,15.063c0.019,1.223,0.003,2.447,0.003,4.004
			c12.486,0,24.561,0,36.909,0c0,6.297,0,12.261,0,18.589c-24.6,0-49.13,0-74.052,0c0,6.345,0,12.342,0,18.7
			c-12.566,0-24.745,0-37.29,0c0,6.259,0,12.163,0,17.949c-2.733,0.801-13.004,0.977-18.343,0.368
			c-0.657-5.886,0.136-11.913-0.438-18.045c-12.343,0-24.515,0-37.02,0c0,6.043,0,11.946,0,18.061
			c-1.181,0.115-2.055,0.269-2.93,0.275c-4.229,0.026-8.46-0.015-12.689,0.031c-1.12,0.012-2.238,0.247-3.351,0.373
			c0.08-3.085,0.185-6.164,0.222-9.243c0.037-3.152,0.008-6.306,0.008-9.388c-5.415-0.601-16.102-0.417-18.423,0.24
			c0,5.903,0,11.791,0,18c1.796,0,3.374-0.025,4.95,0.005c4.441,0.084,8.882,0.189,13.323,0.287
			c0.026,11.987,0.053,23.975,0.067,35.962c0,0.201-0.163,0.402-0.44,1.045c-1.582,0-3.372,0.034-5.161-0.007
			c-4.203-0.097-8.406-0.229-12.615-0.342c-0.122-4.422-0.247-8.848-0.346-13.276c-0.035-1.561-0.006-3.124-0.006-4.6
			c-4.127-0.683-15.926-0.559-18.54,0.174c0,2.9-0.01,5.859,0.003,8.818c0.013,3.029,0.047,6.058,0.073,9.234
			c5.159,0,9.832,0.032,14.503-0.019C1339.686,496.128,1341.146,495.886,1342.607,495.748z M1361.091,403.201
			c0,6.329,0,12.203,0,18.309c6.236,0.032,12.211,0.176,18.151-0.074c0-6.376,0-12.258,0-18.234
			C1373.095,403.201,1367.194,403.201,1361.091,403.201z"/>
		<path d="M1361.12,234.823c-0.541,0.147-1.081,0.419-1.622,0.422c-5.593,0.031-11.187,0.019-17.285,0.019
			c-0.057-4.692-0.021-9.219-0.027-13.744c-0.006-4.69-0.001-9.38-0.001-14.071c0-4.576,0-9.152,0-13.727c0-4.562,0-9.124,0-13.84
			c-3.189-0.841-6.26-0.331-9.285-0.421c-2.944-0.087-5.893-0.019-9.228-0.019c0-18.707,0-37.061,0-55.818c-6.388,0-12.39,0-18.56,0
			c0-12.58,0-24.75,0-37.12c6.127,0,12.034,0,18.441,0c0.241,12.165-0.036,24.34,0.156,36.869c6.108,0.56,12.127-0.05,18.459,0.398
			c0,12.397,0,24.57,0,36.937c6.281,0,12.18,0,18.575,0c0.199-8.192,0.062-16.373,0.087-24.549
			c0.025-8.236,0.005-16.473,0.005-24.709c0-8.218,0-16.436,0-25.146c1.61,0,2.938,0.028,4.264-0.005
			c4.662-0.116,9.324-0.254,13.991-0.379c0.006,0.004-0.043-0.045-0.043-0.045c0.145,1.462,0.415,2.924,0.417,4.386
			c0.027,22.073,0.019,44.146,0.019,66.219c0,1.341,0,2.682,0,4.293c6.404,0.11,12.424,0.214,18.445,0.318l-0.083-0.084
			c0,6.016,0,12.032,0,18.444c-12.354,0-24.506,0-36.865,0c-0.063,1.156-0.141,1.928-0.142,2.7
			c-0.007,16.904-0.008,33.808,0.005,50.712c0,0.675,0.145,1.351,0.214,2.037C1361.049,234.912,1361.12,234.823,1361.12,234.823z"/>
		<path d="M1174.842,589.381c-6.138,0-12.276,0-18.921,0c-0.023-18.743,0.004-37.064-0.016-55.833
			c-12.538-0.222-24.802,0.059-37.385-0.162c0-6.557,0-12.706,0-18.855l-0.09,0.09c12.312,0,24.625,0,37.399,0
			c0.028-4.201,0.066-8.258,0.08-12.315c0.014-3.994,0.003-7.989,0.003-11.983c0-4.099,0-8.199,0-12.784
			c6.481-0.035,12.712-0.06,18.945,0.032c0,0-0.114-0.106-0.114-0.106c-0.022,24.207-0.045,48.414-0.053,72.62
			c0,0.54,0.177,1.08,0.336,1.99c12.254,0,24.42,0,36.783,0c0,6.551,0,12.706,0,18.861l0.095-0.097
			c-12.196,0.019-24.393,0.037-36.589,0.066c-0.085,0-0.172,0.133-0.254,0.208c-0.084,0.077-0.162,0.161-0.314,0.314
			c0,5.964,0,12.002,0,18.039L1174.842,589.381z"/>
		<path d="M1193.51,328.378c5.928,0,11.856,0,18.278,0c0.136,8.547,0.048,16.725,0.064,24.9c0.016,8.231,0.004,16.461,0.004,24.692
			c0,8.204,0,16.408,0,24.985c6.242,0,12.134,0,18.231,0c0.128,1.095,0.293,1.844,0.293,2.594
			c-0.001,24.006-0.017,48.011-0.031,72.017c0,0,0.093-0.1,0.093-0.1c-6.21,0-12.421,0-18.631,0l0.1,0.093
			c-0.017-23.334-0.034-46.669-0.051-70.003c-0.001-1.348,0-2.697,0-4.476c-6.318,0-12.315,0-18.683,0c0-6.431,0-12.435,0-18.769
			c-6.267,0-12.162,0-18.312,0c-0.075-1.424-0.204-2.529-0.18-3.631c0.113-5.124,0.269-10.248,0.409-15.371l-0.064,0.06
			c5.901,0,11.801,0,18.179,0c0-1.133,0-2.347,0-3.56c0-9.94-0.014-19.879,0.018-29.819c0.004-1.232,0.253-2.463,0.388-3.694
			C1193.613,328.296,1193.51,328.378,1193.51,328.378z"/>
		<path d="M1193.403,663.476c-6.051,0-12.102,0-18.614,0c0-5.921,0-11.903,0-18.283c-6.445,0-12.444,0-18.638,0
			c0-6.385,0-12.361,0-18.631c6.143,0,12.058,0,18.352,0c0.064-1.484,0.16-2.695,0.161-3.906c0.012-9.838,0.001-19.677,0.015-29.515
			c0.002-1.254,0.106-2.507,0.163-3.76c0,0-0.095,0.086-0.095,0.086c6.021,0,12.042,0,18.473,0c0,6.186,0,12.174,0,18.568
			c6.389,0,12.375,0,18.589,0c0,12.622,0,24.828,0,37.033l0.095-0.097c-6.12,0.097-12.24,0.193-18.629,0.294
			c0,6.306,0,12.324,0,18.342L1193.403,663.476z"/>
		<path d="M1528.063,477.28c0.133,1.691,0.359,3.381,0.38,5.074c0.054,4.442,0.018,8.884,0.018,13.743c-6.228,0-12.22,0-18.551,0
			c0,6.297,0,12.189,0,18.585c-3.375,0.006-6.411,0.038-9.446,0.01c-3.083-0.028-6.165-0.116-9.248-0.178
			c0,0,0.106,0.113,0.106,0.113c-0.215-6.083,0.221-12.188-0.262-18.464c-3.563,0-6.741,0.014-9.918-0.003
			c-8.993-0.047-17.985-0.106-26.977-0.16c0,0,0.095,0.086,0.095,0.086c0-6.028,0-12.056,0-18.571c1.409,0,2.734,0,4.058,0
			c22.031,0,44.063,0.002,66.094-0.007c1.252,0,2.503-0.094,3.755-0.144L1528.063,477.28z"/>
		<path d="M1397.929,161.092c0-6.155,0-12.309,0-18.88c6.344,0,12.348,0,18.726,0c0-6.289,0-12.172,0-18.507
			c4.418-0.192,8.487-0.075,12.549-0.096c3.999-0.021,7.999-0.005,11.999-0.005c4.103,0,8.206,0,12.666,0
			c0.531-6.22-0.044-12.239,0.348-18.184c2.528-0.731,14.338-0.844,18.196-0.161c0,5.947,0,11.932,0,18.268
			c-6.032,0-11.936,0-18.177,0c0,6.231,0,12.126,0,18.31c-3.329,0.549-6.389,0.245-9.422,0.295
			c-3.085,0.051-6.171,0.011-9.256,0.011c-3.085,0-6.171,0-9.256,0c-3.056,0-6.112,0-9.591,0c0,6.435,0,12.428,0,18.863
			c-6.577,0-12.72,0-18.863,0C1397.845,161.008,1397.929,161.092,1397.929,161.092z"/>
		<path d="M1212.096,179.85c-0.079-1.018-0.225-2.037-0.227-3.055c-0.017-10.491-0.013-20.982-0.005-31.472
			c0.001-0.903,0.082-1.806,0.147-3.156c6.061,0,12.042,0,18.383,0c0-1.676,0-2.902,0-4.128c0-9.921-0.007-19.841,0.008-29.762
			c0.002-1.249,0.118-2.498,0.177-3.743c-0.004,0.004-0.116,0.111-0.116,0.111c6.074-0.052,12.149-0.105,18.223-0.157l-0.065-0.06
			c0.139,0.777,0.397,1.553,0.399,2.33c0.026,11.088,0.02,22.175,0.009,33.263c-0.001,0.56-0.114,1.12-0.219,2.092
			c-6.03,0-12.029,0-18.407,0c0,12.583,0,24.753,0,37.332c-2.401,0-4.426-0.031-6.45,0.007c-3.985,0.073-7.97,0.185-11.948,0.288
			C1212.013,179.746,1212.096,179.85,1212.096,179.85z"/>
		<path d="M1454.166,216.572c0,12.328,0,24.656,0,37.402c-6.325,0-12.33,0-18.76,0c0,12.571,0,24.735,0,37.132
			c-6.311,0-12.19,0-18.057,0c-0.668-2.512-0.892-31.676-0.237-37.031c5.903,0,11.888,0,18.286,0c0-12.646,0-24.811,0-37.414
			c6.57,0,12.714,0,18.858,0L1454.166,216.572z"/>
		<path d="M1174.843,458.94c-6.156,0-12.312,0-18.886,0c0,6.167,0,12.164,0,18.359c-6.299,0-12.179,0-18.031,0
			c-0.71-2.817-0.785-52.22-0.076-55.559c5.843,0,11.724,0,18.013,0c0,6.162,0,12.16,0,18.526c6.385,0,12.379,0,18.716,0
			c0.06,6.501,0.117,12.632,0.174,18.763L1174.843,458.94z"/>
		<path d="M1379.132,291.704c-2.372-0.119-4.743-0.301-7.116-0.341c-3.527-0.058-7.055-0.015-10.775-0.015
			c-0.155-0.927-0.386-1.672-0.387-2.418c-0.02-17.355-0.018-34.711-0.003-52.067c0-0.675,0.167-1.35,0.262-2.033
			c0.006-0.008-0.064,0.081-0.057,0.07c1.579,0.12,3.148,0.344,4.72,0.363c4.433,0.051,8.867,0.018,13.486,0.018
			c0.088,1.347,0.21,2.343,0.211,3.34c0.012,16.591,0.016,33.182-0.009,49.773c-0.002,1.123-0.253,2.245-0.391,3.371
			C1379.071,291.769,1379.132,291.704,1379.132,291.704z"/>
		<path d="M1509.666,383.983c0.049-2.049,0.139-4.099,0.141-6.148c0.012-15.061,0.006-30.122,0.006-45.183c0-1.227,0-2.453,0-3.994
			c6.346-0.094,12.35-0.182,18.355-0.271l-0.105-0.085c0.132,0.89,0.379,1.781,0.38,2.671c0.023,16.926,0.018,33.852,0.011,50.777
			c0,0.671-0.075,1.343-0.126,2.199c-0.719,0.109-1.363,0.287-2.007,0.29c-4.803,0.025-9.607,0.03-14.41-0.001
			c-0.782-0.005-1.562-0.224-2.349-0.349C1509.557,383.885,1509.666,383.983,1509.666,383.983z"/>
		<path d="M1397.846,30.567c0.047,0.223,0.134,0.446,0.134,0.67c0.013,17.794,0.021,35.589,0.019,53.383
			c0,0.433-0.116,0.865-0.233,1.683c-4.712,0-9.352,0.035-13.99-0.019c-1.575-0.018-3.147-0.262-4.724-0.406
			c-0.003-0.003,0.046,0.047,0.04,0.043c0.128-1.23,0.377-2.455,0.379-3.68c0.026-15.9,0.017-31.8,0.017-47.699
			c0-1.23,0-2.46,0-3.89c6.397,0,12.419,0,18.442,0L1397.846,30.567z"/>
		<path d="M1528.167,477.364c0.099-4.442,0.207-8.884,0.292-13.326c0.03-1.577,0.005-3.154,0.005-4.947c18.668,0,37.005,0,55.585,0
			c0,6.07,0,12.044,0,18.192c-1.057,0.085-1.943,0.217-2.83,0.217c-16.921,0.012-33.843,0.012-50.764-0.001
			c-0.794-0.001-1.587-0.137-2.387-0.216C1528.063,477.28,1528.167,477.364,1528.167,477.364z"/>
		<path d="M1546.984,291.584c0-12.324,0-24.648,0-37.263c3.215-0.508,6.278-0.215,9.315-0.265c2.955-0.048,5.911-0.011,8.788-0.011
			c0.844,2.706,0.952,33.627,0.137,37.194c-6.063,0.086-12.197,0.172-18.332,0.257
			C1546.89,291.495,1546.984,291.584,1546.984,291.584z"/>
		<path d="M1397.929,30.651c0.031-11.076,0.063-22.152,0.094-33.229c0.003-1.248,0-2.495,0-4.001c6.21,0,12.205,0,18.2,0
			c0.676,2.416,0.883,31.907,0.192,36.937c-6.134,0.069-12.352,0.138-18.569,0.208C1397.846,30.567,1397.929,30.651,1397.929,30.651
			z"/>
		<path d="M1454.283,328.605c-0.066,4.797-0.135,9.595-0.195,14.392c-0.015,1.226-0.002,2.453-0.002,3.871
			c-12.564,0-24.733,0-37.097,0c0-6.095,0-11.991,0-18.01c0.653-0.117,1.196-0.299,1.74-0.299
			c11.438-0.016,22.875-0.014,34.313-0.004c0.453,0,0.905,0.111,1.353,0.166C1454.39,328.717,1454.283,328.605,1454.283,328.605z"/>
		<path d="M1528.167,328.387c0.099-1.237,0.281-2.474,0.284-3.711c0.024-9.69,0.013-19.38,0.013-29.07c0-1.236,0-2.472,0-4.073
			c6.334-0.251,12.421-0.368,18.518,0.049c0.002,0.002-0.092-0.088-0.091-0.086c0.002,12.186,0.002,24.369,0.002,36.984
			c-6.378,0.016-12.593,0.264-18.824-0.172C1528.063,328.303,1528.167,328.387,1528.167,328.387z"/>
		<path d="M1175.092,365.309c-0.777,0.136-1.554,0.39-2.331,0.392c-11.079,0.025-22.159,0.019-33.238,0.01
			c-0.552,0-1.104-0.083-1.895-0.147c0-6.122,0-12.095,0-18.281c12.272,0,24.431,0,37.039,0c0,1.459-0.025,2.791,0.005,4.121
			c0.104,4.659,0.227,9.317,0.35,13.97C1175.028,365.369,1175.092,365.309,1175.092,365.309z"/>
		<path d="M1099.771,197.945c0.099-4.442,0.208-8.883,0.293-13.325c0.03-1.577,0.005-3.154,0.005-4.947c12.492,0,24.653,0,37.054,0
			c0,6.078,0,12.054,0,18.181c-0.815,0.09-1.476,0.225-2.137,0.225c-11.204,0.012-22.408,0.01-33.612-0.004
			c-0.565-0.001-1.13-0.134-1.701-0.211C1099.666,197.861,1099.771,197.945,1099.771,197.945z"/>
		<path d="M1193.296,477.565c6.204-0.002,12.409-0.004,18.613-0.006c0,0-0.1-0.093-0.1-0.093c0,12.387,0,24.774,0,37.161
			l0.095-0.097c-6.118,0-12.235,0-18.697,0c0-1.326,0-2.437,0-3.548c0-4.904-0.021-9.809,0.005-14.713
			c0.034-6.268,0.107-12.537,0.163-18.805C1193.376,477.465,1193.296,477.565,1193.296,477.565z"/>
		<path d="M1193.613,328.296c-6.146,0-12.292,0-18.69,0c0-12.19,0-24.347,0-36.726c5.936,0,11.83,0,18.147,0
			c0.044,1.184,0.126,2.39,0.127,3.596c0.01,9.834-0.004,19.668,0.019,29.502c0.003,1.242,0.181,2.483,0.285,3.718
			C1193.51,328.378,1193.613,328.296,1193.613,328.296z"/>
		<path d="M1267.305,198.239c-5.924,0-11.847,0-18.013,0c0-12.598,0-24.756,0-37.124c6.008,0,11.899,0,17.997,0
			c0.096,0.652,0.272,1.296,0.274,1.941c0.018,10.979,0.021,21.959-0.001,32.938c-0.002,0.781-0.224,1.563-0.349,2.349
			C1267.207,198.348,1267.305,198.239,1267.305,198.239z"/>
		<path d="M1211.82,67.711c6.017,0,12.034,0,18.511,0c0.042,12.45,0.084,24.696,0.129,36.938c0.004-0.004,0.116-0.111,0.12-0.116
			c-6.108-0.004-12.22-0.004-18.664-0.004c0-12.345,0-24.63,0-36.914L1211.82,67.711z"/>
		<path d="M1211.916,67.615c-6.05,0-12.1,0-18.328,0c-0.143-0.785-0.359-1.422-0.361-2.061c-0.02-11.213-0.016-22.426-0.006-33.64
			c0-0.452,0.11-0.904,0.169-1.356l-0.084,0.083c6.034,0,12.068,0,18.513,0c0,12.445,0,24.757,0,37.069
			C1211.82,67.711,1211.916,67.615,1211.916,67.615z"/>
		<path d="M1155.446,160.716c-5.837,0-11.713,0-17.83,0c0-12.335,0-24.486,0-36.875c5.932,0,11.809,0,17.687,0
			C1156.048,126.241,1156.198,156.92,1155.446,160.716z"/>
		<path d="M1491.529,291.722c0-6.235,0-12.47,0-18.918c6.033,0,12.01,0,18.073,0c0,6.204,0,12.184,0,18.375
			c-6.194,0.152-12.188,0.299-18.182,0.446L1491.529,291.722z"/>
		<path d="M1472.931,310.19c-0.103,4.645-0.212,9.29-0.305,13.935c-0.026,1.336-0.004,2.673-0.004,4.472
			c-6.368,0-12.358,0-18.343,0.004c0.004,0.004,0.111,0.116,0.116,0.12c0.004-6.125,0.004-12.254,0.004-18.663
			c1.061-0.056,2.164-0.184,3.264-0.161c5.118,0.106,10.236,0.254,15.349,0.382C1473.007,310.276,1472.931,310.19,1472.931,310.19z"
			/>
		<path d="M1193.39,30.559c-6.12,0-12.24,0-18.536,0c0-6.373,0-12.252,0-18.38c6.017,0,11.977,0,18.452,0c0,6.224,0,12.343,0,18.463
			C1193.307,30.642,1193.39,30.559,1193.39,30.559z"/>
		<path d="M1248.769,906.053c-5.93,0-11.861,0-17.682,0c-0.833-2.733-0.979-14.314-0.298-18.463c5.853,0,11.748,0,17.682,0
			c0.114,0.128,0.393,0.295,0.391,0.46c-0.044,6.034-0.115,12.068-0.187,18.107C1248.671,906.162,1248.769,906.053,1248.769,906.053
			z"/>
		<path d="M1342.554,887.624c-0.123-2.379-0.316-4.757-0.354-7.137c-0.06-3.754-0.016-7.509-0.016-11.512c6.21,0,12.192,0,18.412,0
			c0,6.007,0,11.985,0,18.288c-6.127,0.081-12.14,0.161-18.147,0.247C1342.456,887.515,1342.554,887.624,1342.554,887.624z"/>
		<path d="M1454.257,216.662c0-6.023,0-12.046,0-18.317c6.044,0,12.002,0,18.164,0c0,6.022,0,11.904,0,18.004
			c-2.96,0.802-6.02,0.311-9.033,0.369c-3.072,0.06-6.147-0.088-9.221-0.146C1454.166,216.572,1454.257,216.662,1454.257,216.662z"
			/>
		<path d="M1397.726,477.364c0.099-4.324,0.209-8.648,0.292-12.972c0.032-1.69,0.005-3.381,0.005-5.295c6.303,0,12.285,0,18.513,0
			c0,6.062,0,12.033,0,18.193c-6.415,0-12.659,0-18.908-0.005C1397.621,477.279,1397.726,477.364,1397.726,477.364z"/>
		<path d="M1174.753,459.03c6.011,0,12.023,0,18.543,0c0,6.293,0,12.414,0,18.534c0,0,0.08-0.1,0.08-0.1c-6.211,0-12.422,0-18.633,0
			c0,0,0.114,0.106,0.114,0.106c-0.005-6.21-0.009-12.421-0.013-18.631C1174.843,458.94,1174.753,459.03,1174.753,459.03z"/>
		<path d="M1248.687,104.487c0.12-2.373,0.304-4.745,0.344-7.119c0.059-3.52,0.015-7.042,0.015-10.812c6.168,0,12.046,0,17.94,0
			c0.727,2.297,0.914,13.204,0.234,18.282c-1.254,0-2.588,0.028-3.919-0.005c-4.891-0.122-9.781-0.265-14.676-0.404
			C1248.622,104.427,1248.687,104.487,1248.687,104.487z"/>
		<path d="M1454.256,384.175c0-6.018,0-12.035,0-18.251c6.079,0,11.961,0,18.105,0c0,6.04,0,12.004,0,18.161
			c-6.16,0-12.178,0-18.196,0C1454.166,384.085,1454.256,384.175,1454.256,384.175z"/>
		<path d="M1491.42,291.624c0,5.892,0,11.784,0,18.084c-1.52,0.069-2.714,0.146-3.91,0.173c-4.864,0.108-9.728,0.2-14.585,0.304
			c0.006,0.006,0.083,0.092,0.087,0.096c-0.126-1.79-0.346-3.582-0.368-5.377c-0.055-4.391-0.018-8.784-0.018-13.553
			c3.257,0,6.172-0.047,9.086,0.012c3.27,0.067,6.538,0.229,9.812,0.355C1491.529,291.722,1491.42,291.624,1491.42,291.624z"/>
	</g>
</g>
<g id="Layer_8">
	<g>
		<polygon style="fill:#999999;" points="1955.676,1080.815 1955.676,1068.516 1944.061,1068.516 1944.061,1020.004 
			1932.445,1020.004 1932.445,970.808 1919.804,970.808 1919.804,921.954 1907.505,921.954 1907.505,872.758 1931.591,872.758 
			1931.591,897.356 1944.402,897.356 1944.402,946.552 1957.385,946.552 1957.385,996.431 1967.975,996.431 1967.975,1043.918 
			1980.957,1043.918 1980.957,1080.815 		"/>
		<polygon style="fill:#B7B7B7;" points="1748.986,1080.815 1748.986,1056.9 1761.285,1056.9 1761.285,983.107 1773.242,983.107 
			1773.242,884.715 1785.541,884.715 1785.541,872.758 1797.84,872.758 1797.84,860.459 1809.797,860.459 1809.797,847.818 
			1895.548,847.818 1895.548,861.484 1907.505,861.484 1907.505,921.954 1919.804,921.954 1919.804,970.808 1932.445,970.808 
			1932.445,1020.004 1944.061,1020.004 1944.061,1068.516 1955.676,1068.516 1955.676,1080.815 		"/>
		<polygon style="fill:#808080;" points="1760.943,1068.516 1748.986,1068.516 1748.986,1080.815 1773.584,1080.815 
			1773.584,1068.516 1785.541,1068.516 1785.541,1056.559 1797.498,1056.559 1797.498,1068.687 1809.797,1068.687 
			1809.797,1056.559 1797.498,1056.559 1797.498,1043.918 1822.096,1043.918 1822.096,1031.619 1797.157,1031.619 
			1797.157,1019.662 1785.541,1019.662 1785.541,1056.559 1773.242,1056.559 1773.584,1068.516 		"/>
		<polygon style="fill:#808080;" points="1797.498,897.356 1797.498,909.313 1773.242,909.313 1773.242,920.929 1797.498,920.929 
			1797.498,909.313 1822.096,909.313 1822.096,897.356 		"/>
		<polygon style="fill:#808080;" points="1883.591,909.142 1907.505,909.142 1907.505,921.954 1883.591,921.954 1883.591,958.167 
			1870.95,958.167 1870.95,933.655 1859.335,933.655 1859.335,922.295 1883.591,921.954 		"/>
	</g>
	<g>
		<polygon style="fill:#999999;" points="0.186,1079.037 0.186,1042.021 12.404,1042.021 12.404,969.132 24.848,969.132 
			24.848,895.577 36.848,895.577 36.848,883.132 49.181,883.132 49.181,870.91 61.515,870.91 61.515,858.799 122.515,858.799 
			122.515,870.91 134.737,870.91 134.737,883.021 146.848,883.021 146.848,895.243 159.292,895.243 159.292,968.918 
			171.515,968.918 171.515,1042.354 183.737,1042.354 183.737,1079.037 		"/>
		<polygon style="fill:#808080;" points="24.626,1054.354 24.626,1066.799 0.186,1066.799 0.186,1079.037 24.626,1079.037 
			24.626,1066.799 48.959,1066.799 48.959,1054.354 61.515,1054.354 61.515,1066.696 73.848,1066.696 73.848,1054.354 
			61.515,1054.354 61.515,1042.132 49.292,1042.132 49.292,1029.91 37.017,1029.91 37.017,1054.474 		"/>
		<polygon style="fill:#808080;" points="146.848,1054.474 146.848,1079.037 134.737,1079.037 134.737,1054.474 122.626,1054.474 
			122.626,1042.354 134.737,1042.354 134.737,1017.91 146.848,1017.91 146.848,1042.354 134.737,1042.354 134.737,1054.474 		"/>
		<polygon style="fill:#333333;" points="85.959,932.021 85.959,981.021 98.07,981.021 98.07,932.021 122.626,932.021 
			122.626,920.021 97.848,920.021 97.848,895.132 85.959,895.132 85.959,920.132 61.515,920.132 61.515,932.021 		"/>
	</g>
	<g>
		<polygon style="fill:#808080;" points="176.181,1086.603 176.181,866.698 188.403,866.698 188.403,842.031 322.872,842.031 
			322.872,854.031 335.292,854.031 335.292,866.031 347.07,866.031 347.07,1086.603 		"/>
		<polygon style="fill:#666666;" points="151.514,1086.603 151.514,866.031 163.959,866.031 163.959,854.253 176.181,854.253 
			176.181,842.031 188.403,842.031 188.403,866.698 176.181,866.698 176.181,1086.603 		"/>
		<path style="fill:#333333;" d="M213.292,890.697v48.889h11.778v-11.778h11.778v11.778h12.444v-11.778h-12.444v-12.667h12.444
			v-11.556h-11.778c-0.037,3.852-0.074,7.704-0.111,11.556c-4.185,0-8.37,0-12.555,0V902.92h12.889v-12.222H213.292z"/>
		<rect x="261.626" y="890.698" style="fill:#333333;" width="12.111" height="48.889"/>
		<path style="fill:#333333;" d="M286.181,890.697v48.889h12.222v-12.222h11.778v-12.222h12.691V902.92h-12.691v12.222h-12
			c0-4.111,0-8.222,0-12.333c4,0.037,8,0.074,12,0.111v-12.222H286.181z"/>
		<polygon style="fill:#4D4D4D;" points="298.514,1074.253 298.514,1062.031 310.737,1062.031 310.737,1037.586 322.872,1037.586 
			322.872,1074.253 347.07,1074.253 347.07,1086.603 322.792,1086.603 322.872,1074.253 		"/>
	</g>
	<g>
		<polygon style="fill:#999999;" points="1524.823,1089.213 1524.823,1052.197 1537.04,1052.197 1537.04,979.308 1549.485,979.308 
			1549.485,905.753 1561.485,905.753 1561.485,893.308 1573.818,893.308 1573.818,881.086 1586.151,881.086 1586.151,868.975 
			1647.151,868.975 1647.151,881.086 1659.374,881.086 1659.374,893.197 1671.485,893.197 1671.485,905.419 1683.929,905.419 
			1683.929,979.094 1696.151,979.094 1696.151,1052.531 1708.374,1052.531 1708.374,1089.213 		"/>
		<polygon style="fill:#808080;" points="1549.262,1064.531 1549.262,1076.975 1524.823,1076.975 1524.823,1089.213 
			1549.262,1089.213 1549.262,1076.975 1573.596,1076.975 1573.596,1064.531 1586.151,1064.531 1586.151,1076.872 
			1598.485,1076.872 1598.485,1064.531 1586.151,1064.531 1586.151,1052.308 1573.929,1052.308 1573.929,1040.086 
			1561.654,1040.086 1561.654,1064.65 		"/>
		<polygon style="fill:#808080;" points="1671.485,1064.65 1671.485,1089.213 1659.374,1089.213 1659.374,1064.65 1647.262,1064.65 
			1647.262,1052.531 1659.374,1052.531 1659.374,1028.086 1671.485,1028.086 1671.485,1052.531 1659.374,1052.531 1659.374,1064.65 
					"/>
		<polygon style="fill:#333333;" points="1610.596,942.197 1610.596,991.197 1622.707,991.197 1622.707,942.197 1647.262,942.197 
			1647.262,930.197 1622.485,930.197 1622.485,905.308 1610.596,905.308 1610.596,930.308 1586.151,930.308 1586.151,942.197 		"/>
	</g>
	<g style="opacity:0.29;">
		<rect x="-0.014" y="825.014" style="fill:#020A26;" width="1980.972" height="278.776"/>
	</g>
</g>
<g id="Layer_7">
	<polygon style="fill:#999999;" points="456.496,1181.947 456.496,1121.859 518.146,1121.859 518.146,884.843 579.796,884.843 
		579.796,644.49 646.885,644.49 646.885,405.806 712.161,405.806 712.161,165.452 584.329,165.452 584.329,285.629 516.333,285.629 
		516.333,525.982 447.43,525.982 447.43,769.674 391.22,769.674 391.22,1001.682 322.317,1001.682 322.317,1181.947 	"/>
	<polygon style="fill:#B7B7B7;" points="1560.334,1082.018 1560.334,977.686 1487.989,977.686 1487.989,655.746 1417.654,655.746 
		1417.654,226.493 1345.309,226.493 1345.309,174.327 1272.964,174.327 1272.964,120.671 1202.629,120.671 1202.629,65.524 
		698.225,65.524 698.225,125.142 627.89,125.142 627.89,388.954 555.545,388.954 555.545,602.09 481.191,602.09 481.191,816.716 
		412.865,816.716 412.865,1028.362 344.539,1028.362 344.539,1082.018 	"/>
	<g>
		<polygon style="fill:#AAAAAA;" points="566.186,689.025 566.186,691.562 569.197,691.562 569.197,688.653 566.084,688.653 
			566.084,685.541 562.938,685.541 562.972,689.025 		"/>
		<rect x="500.575" y="623.149" style="fill:#AAAAAA;" width="3.095" height="3.14"/>
		<rect x="497.415" y="620.015" style="fill:#AAAAAA;" width="3.126" height="3.135"/>
		<rect x="506.851" y="613.807" style="fill:#AAAAAA;" width="9.269" height="3.146"/>
		<rect x="488.053" y="610.701" style="fill:#AAAAAA;" width="3.112" height="3.112"/>
		<rect x="547.276" y="670.047" style="fill:#AAAAAA;" width="3.146" height="3.045"/>
		<polygon style="fill:#AAAAAA;" points="528.625,682.485 525.535,682.485 525.535,685.484 522.378,685.484 522.378,691.765 
			525.49,691.765 525.49,688.653 528.636,688.653 528.636,685.608 531.715,685.608 531.715,682.395 534.819,682.395 
			534.819,679.327 528.625,679.327 		"/>
		<polygon style="fill:#AAAAAA;" points="519.288,701.158 516.199,701.158 516.199,694.911 513.064,694.911 513.064,685.574 
			509.929,685.574 509.929,676.215 506.794,676.215 506.794,685.574 509.895,685.574 509.895,694.911 513.024,694.911 
			513.024,698.057 491.188,698.057 491.188,701.169 484.93,701.169 484.93,673.058 488.076,673.041 488.076,669.963 
			491.188,669.963 491.188,666.867 503.654,666.867 503.654,676.215 506.794,676.215 506.794,666.833 509.906,666.833 
			509.906,660.605 512.974,660.605 512.974,657.497 506.783,657.497 506.783,663.704 503.654,663.704 503.654,660.66 
			500.525,660.66 500.525,663.704 488.076,663.704 488.076,666.867 484.907,666.867 484.907,663.704 481.851,663.704 
			481.851,669.946 478.701,669.946 478.701,673.159 481.885,673.159 481.885,701.203 478.701,701.203 478.701,704.282 
			484.964,704.282 484.964,719.877 488.042,719.877 488.042,707.394 491.188,707.394 491.188,704.248 494.3,704.248 494.3,701.136 
			509.861,701.136 509.861,704.282 516.086,704.282 516.086,710.54 519.333,710.54 519.333,716.764 522.378,716.764 
			522.378,691.765 519.288,691.765 		"/>
		<rect x="541.085" y="663.789" style="fill:#AAAAAA;" width="3.078" height="3.067"/>
		<rect x="544.164" y="666.867" style="fill:#AAAAAA;" width="3.112" height="3.056"/>
		<polygon style="fill:#AAAAAA;" points="516.137,654.317 512.991,654.317 512.991,657.497 519.243,657.497 519.243,654.362 
			528.625,654.362 528.625,657.497 534.819,657.497 534.819,660.605 537.973,660.605 537.973,654.351 534.819,654.351 
			534.819,648.115 531.76,648.115 531.76,638.733 528.602,638.733 528.602,648.115 525.507,648.115 525.507,651.289 
			516.137,651.289 		"/>
		<polygon style="fill:#AAAAAA;" points="572.275,694.945 572.275,691.562 569.197,691.562 569.264,694.945 		"/>
		<path style="fill:#AAAAAA;" d="M572.174,620.06v-3.157h3.157v-3.067h9.292v-3.247h6.315v-2.977h-9.292v-6.278h-6.224l0.09,3.139
			h3.067v3.139h-15.606l-0.068,3.101h9.404v3.112h-3.112v3.095h-3.112v18.713h-3.112v-3.101h-9.37v-6.258h-3.18v-3.123h-3.045
			v-9.325h3.045v-3.18h6.273v-3.033h6.277v-3.248h-6.277v-3.03h-6.262v3.03h-28.055v-3.03h-3.157v3.03h-9.472v-3.03h-21.47v3.03
			h-3.428v-3.03h-6.15v9.379h3.083v6.191h3.146v0.023l0.011-6.224h3.112v-3.112h3.112v-3.067h6.247v3.067h-6.247v3.112h3.135v3.112
			h-3.135v3.112h-6.236v3.056h-6.229v43.673h3.151v-15.539h3.123v-3.146h6.213v3.124l3.135,0.023v3.135h3.095v9.355h3.107v-9.4
			h-3.107v-3.09h3.174l-0.034-12.483v0.045h-3.146v6.191h-3.123v-9.337h-3.124v9.337h-9.348v-18.718h6.258v9.382h3.09v-12.517h6.247
			v-9.314h3.163v3.107h6.191v-3.107h-3.078v-6.247h6.208v3.112h9.354v9.387h-3.129v3.062h-3.061v3.135h-3.18v6.27h-3.095v-3.129
			h-3.112v6.219h-3.112v3.123h12.483v3.191h3.135v-6.247h-3.135v-6.303h3.078v-3.123h15.646l-0.006,3.123h6.213v-3.163h-6.208
			v-3.028h-6.258l-0.017-6.275h-3.112v-3.107h6.191v-3.135h18.809v3.121h-3.129v15.586h-6.275v3.146h-3.095v3.157h-3.118v6.112
			h3.059v-3.078h3.154v-3.078h15.595v3.101h9.371v3.056l6.224,0.135v2.977h-6.224v3.214h-3.078v3.101h-3.165v3.157h-3.127v3.112
			h-3.146v12.449h3.18v6.258h-3.18v3.146h-15.603v3.09h21.876v3.033h3.131v3.18h3.112v-6.213h-3.112v-6.236h-3.131v-9.37h-3.127
			v-6.224h3.127v-3.146h3.098v-3.112h3.146v-3.124h3.045v-3.033h18.775l0.045,3.033h6.134v-3.338h-6.224l0.09-2.706h-6.315v-3.157
			h-3.067v-3.157h-3.248v-3.067h-2.977V620.06H572.174z M484.941,607.588h-3.09v-3.067h3.09V607.588z"/>
		<polygon style="fill:#AAAAAA;" points="519.249,645.003 522.395,645.003 522.395,648.115 525.49,648.115 525.49,645.003 
			522.423,645.003 522.423,641.913 519.311,641.913 519.311,638.823 516.187,638.823 516.187,641.913 519.249,641.913 		"/>
		<rect x="537.973" y="660.605" style="fill:#AAAAAA;" width="3.112" height="3.099"/>
	</g>
	<g>
		<polygon style="fill:#AAAAAA;" points="1329.724,317.261 1329.724,319.798 1326.713,319.798 1326.713,316.889 1329.826,316.889 
			1329.826,313.777 1332.972,313.777 1332.938,317.261 		"/>
		<rect x="1392.239" y="251.385" style="fill:#AAAAAA;" width="3.095" height="3.14"/>
		<rect x="1395.368" y="248.251" style="fill:#AAAAAA;" width="3.126" height="3.135"/>
		<rect x="1379.79" y="242.043" style="fill:#AAAAAA;" width="9.269" height="3.146"/>
		<rect x="1404.745" y="238.936" style="fill:#AAAAAA;" width="3.112" height="3.112"/>
		<rect x="1345.488" y="298.283" style="fill:#AAAAAA;" width="3.146" height="3.045"/>
		<polygon style="fill:#AAAAAA;" points="1367.285,310.721 1370.375,310.721 1370.375,313.72 1373.532,313.72 1373.532,320.001 
			1370.42,320.001 1370.42,316.889 1367.274,316.889 1367.274,313.844 1364.195,313.844 1364.195,310.63 1361.091,310.63 
			1361.091,307.563 1367.285,307.563 		"/>
		<polygon style="fill:#AAAAAA;" points="1376.622,329.394 1379.711,329.394 1379.711,323.147 1382.846,323.147 1382.846,313.81 
			1385.981,313.81 1385.981,304.451 1389.116,304.451 1389.116,313.81 1386.015,313.81 1386.015,323.147 1382.886,323.147 
			1382.886,326.293 1404.722,326.293 1404.722,329.405 1410.98,329.405 1410.98,301.294 1407.834,301.277 1407.834,298.198 
			1404.722,298.198 1404.722,295.103 1392.256,295.103 1392.256,304.451 1389.116,304.451 1389.116,295.069 1386.004,295.069 
			1386.004,288.841 1382.936,288.841 1382.936,285.733 1389.127,285.733 1389.127,291.94 1392.256,291.94 1392.256,288.896 
			1395.385,288.896 1395.385,291.94 1407.834,291.94 1407.834,295.103 1411.003,295.103 1411.003,291.94 1414.059,291.94 
			1414.059,298.182 1417.209,298.182 1417.209,301.395 1414.025,301.395 1414.025,329.439 1417.209,329.439 1417.209,332.518 
			1410.946,332.518 1410.946,348.113 1407.868,348.113 1407.868,335.63 1404.722,335.63 1404.722,332.484 1401.61,332.484 
			1401.61,329.371 1386.049,329.371 1386.049,332.518 1379.824,332.518 1379.824,338.776 1376.577,338.776 1376.577,345 
			1373.532,345 1373.532,320.001 1376.622,320.001 		"/>
		<rect x="1351.746" y="292.025" style="fill:#AAAAAA;" width="3.078" height="3.067"/>
		<rect x="1348.634" y="295.103" style="fill:#AAAAAA;" width="3.112" height="3.056"/>
		<polygon style="fill:#AAAAAA;" points="1379.773,282.553 1382.919,282.553 1382.919,285.733 1376.667,285.733 1376.667,282.598 
			1367.285,282.598 1367.285,285.733 1361.091,285.733 1361.091,288.841 1357.937,288.841 1357.937,282.587 1361.091,282.587 
			1361.091,276.351 1364.15,276.351 1364.15,266.969 1367.308,266.969 1367.308,276.351 1370.403,276.351 1370.403,279.525 
			1379.773,279.525 		"/>
		<polygon style="fill:#AAAAAA;" points="1323.635,323.181 1323.635,319.798 1326.713,319.798 1326.646,323.181 		"/>
		<path style="fill:#AAAAAA;" d="M1326.713,248.296v12.629h-2.977v3.067h-3.248v3.157h-3.067v3.157h-6.315l0.09,2.706h-6.224v3.338
			h6.134l0.045-3.033h18.775v3.033h3.045v3.124h3.146v3.112h3.098v3.146h3.127v6.224h-3.127v9.371h-3.131v6.236h-3.112v6.213h3.112
			v-3.18h3.131v-3.033h21.876v-3.09h-15.603v-3.146h-3.18v-6.258h3.18V282.62h-3.146v-3.112h-3.127v-3.157h-3.165v-3.101h-3.078
			v-3.214h-6.224v-2.977l6.224-0.135v-3.056h9.37v-3.101h15.595v3.078h3.154v3.078h3.059v-6.112h-3.118v-3.157h-3.095v-3.146h-6.275
			v-15.587h-3.129v-3.121h18.809v3.135h6.191v3.107h-3.112l-0.017,6.275h-6.258v3.028h-6.208v3.163h6.213l-0.006-3.123h15.646v3.123
			h3.078v6.303h-3.135v6.247h3.135v-3.191h12.483v-3.124h-3.112v-6.219h-3.112v3.129h-3.095v-6.27h-3.18v-3.135h-3.062v-3.061
			h-3.129v-9.387h9.354v-3.112h6.208v6.247h-3.078v3.107h6.191v-3.107h3.163v9.314h6.247v12.517h3.09v-9.382h6.258v18.718h-9.348
			v-9.337h-3.124v9.337h-3.124v-6.191h-3.146v-0.045l-0.034,12.483h3.174v3.09h-3.107v9.4h3.107v-9.355h3.095v-3.135l3.135-0.023
			v-3.124h6.213v3.146h3.123v15.539h3.151v-43.673h-6.229v-3.056h-6.236v-3.112h-3.135v-3.112h3.135v-3.112h-6.247v-3.067h6.247
			v3.067h3.112v3.112h3.112l0.011,6.224v-0.023h3.146v-6.191h3.083v-9.378h-6.15v3.03h-3.428v-3.03h-21.47v3.03h-9.472v-3.03h-3.157
			v3.03h-28.055v-3.03h-6.262v3.03h-6.277v3.248h6.277v3.033h6.273v3.18h3.045v9.325h-3.045v3.123h-3.18v6.258h-9.37v3.101h-3.112
			v-18.713h-3.112v-3.095h-3.112v-3.112h9.404l-0.068-3.101h-15.606v-3.139h3.067l0.09-3.139h-6.224v6.278h-9.292v2.977h6.315v3.248
			h9.292v3.067h3.157v3.157H1326.713z M1410.969,232.757h3.09v3.067h-3.09V232.757z"/>
		<polygon style="fill:#AAAAAA;" points="1376.661,273.239 1373.515,273.239 1373.515,276.351 1370.42,276.351 1370.42,273.239 
			1373.487,273.239 1373.487,270.149 1376.599,270.149 1376.599,267.059 1379.723,267.059 1379.723,270.149 1376.661,270.149 		"/>
		<rect x="1354.825" y="288.841" style="fill:#AAAAAA;" width="3.112" height="3.099"/>
	</g>
</g>
</svg>
