<?xml version="1.0" encoding="UTF-8"?>
<svg xmlns="http://www.w3.org/2000/svg" viewBox="0 0 1678.89 1081.46">
  <defs>
    <style>
      .cls-1 {
        fill: #b7b7b7;
      }

      .cls-2 {
        letter-spacing: .08em;
      }

      .cls-3 {
        fill: #4d4d4d;
      }

      .cls-4 {
        opacity: .29;
      }

      .cls-5 {
        fill: #04102b;
      }

      .cls-6 {
        fill: #333;
      }

      .cls-7 {
        fill: gray;
      }

      .cls-8 {
        font-size: 60px;
      }

      .cls-8, .cls-9 {
        fill: #282828;
        font-family: LoRes12OT-BoldAltOakland, 'LoRes 12 OT';
        font-weight: 700;
      }

      .cls-10 {
        fill: #e2e093;
      }

      .cls-11 {
        fill: #aaa;
      }

      .cls-12 {
        fill: #999;
      }

      .cls-9 {
        font-size: 65px;
      }

      .cls-13 {
        letter-spacing: -.08em;
      }

      .cls-14 {
        fill: #091d3a;
      }

      .cls-15 {
        fill: #071833;
      }

      .cls-16 {
        fill: #666;
      }

      .cls-17 {
        fill: #020a26;
      }
    </style>
  </defs>
  <g id="Layer_6" data-name="Layer 6">
    <rect class="cls-17" x="0" y=".34" width="1676.48" height="1086.98"/>
    <polygon class="cls-5" points="0 997.25 72.25 997.25 72.25 921.64 133.4 921.64 133.4 892.42 176.48 892.42 176.48 832.28 237.63 832.28 237.63 799.63 261.26 799.63 261.26 765.26 287.67 765.26 336.31 765.26 458.61 765.26 458.61 742.92 592.02 742.92 592.02 720.58 621.21 720.58 621.21 696.52 729.61 696.52 729.61 651.84 933.9 651.84 933.9 631.22 1036.74 631.22 1036.74 603.62 1271.61 603.62 1271.61 553.89 1551.65 553.89 1548.18 297.84 1594.04 297.84 1594.04 156.92 1653.8 156.06 1653.8 .34 0 .34 0 997.25"/>
    <polygon class="cls-15" points="-.01 847.74 55.58 847.74 55.58 794.47 133.67 794.47 133.67 708.55 250.16 708.55 250.16 675.9 424.88 675.9 424.88 614.03 457.97 614.03 457.97 586.54 516.21 586.54 516.21 564.2 690.93 564.2 690.93 533.26 901.39 533.26 901.39 498.79 917.27 498.79 917.27 464.53 1001.99 464.53 1001.99 433.59 1164.8 433.59 1164.8 397.51 1244.21 397.51 1244.21 354.54 1364 354.54 1363.34 110.52 1422.91 108.8 1422.91 .34 0 .34 -.01 847.74"/>
    <polygon class="cls-14" points="-.01 669.02 43.19 669.02 43.19 617.47 177.9 617.47 177.9 588.26 246.53 588.26 246.53 550.45 364.71 550.45 364.71 486.87 557.88 486.87 557.88 424.04 738.34 424.04 738.34 357.98 829.84 357.98 829.84 280.65 946.75 280.65 946.75 196.45 970.9 196.45 970.9 124.27 1017.92 124.27 1017.92 58.97 1096.71 58.97 1096.71 .34 0 .34 -.01 669.02"/>
    <polygon class="cls-10" points="378.48 168.59 385.47 180.33 379.68 183.77 383.32 189.89 377.45 193.39 384.48 205.21 378.36 208.85 381.86 214.72 370.11 221.71 373.76 227.83 367.64 231.47 371.13 237.34 359.39 244.33 362.93 250.28 344.99 260.96 348.53 266.91 307.02 291.61 303.47 285.66 285.53 296.33 281.99 290.38 270.08 297.46 266.59 291.59 260.8 295.04 257.11 288.83 245.2 295.92 241.78 290.17 235.83 293.71 228.77 281.85 222.73 285.44 219.09 279.32 213.3 282.76 206.31 271.02 200.36 274.56 189.68 256.62 183.73 260.16 159.03 218.65 164.98 215.11 154.31 197.16 160.43 193.52 153.59 182.03 159.29 178.63 155.6 172.43 161.72 168.79 154.69 156.97 160.64 153.42 157.1 147.47 169.01 140.39 165.42 134.35 171.2 130.9 167.66 124.95 179.65 117.82 176.06 111.78 193.84 101.2 190.44 95.5 231.96 70.8 235.5 76.75 253.36 66.12 256.76 71.83 268.66 64.75 272.4 71.03 278.27 67.54 281.67 73.24 293.58 66.16 297.12 72.11 303.07 68.57 310.11 80.39 316.06 76.85 319.8 83.14 325.59 79.69 332.53 91.35 320.78 98.34 317.34 92.55 311.3 96.14 307.61 89.94 295.87 96.93 292.33 90.97 250.82 115.67 254.31 121.54 242.4 128.63 246.04 134.75 240.01 138.34 243.55 144.29 237.6 147.83 241.09 153.71 235.05 157.3 242.19 169.29 236.4 172.73 261.1 214.24 266.97 210.75 274.15 222.82 280.02 219.33 283.42 225.04 289.37 221.49 292.96 227.53 298.92 223.99 302.61 230.19 314.35 223.2 317.64 228.74 359.49 203.85 356.09 198.14 368 191.06 364.36 184.94 370.31 181.4 367.02 175.29 378.48 168.59"/>
    <g>
      <path d="m80.29,177.84c.13.83.37,1.65.37,2.48.02,11.78.02,23.57,0,35.35,0,.6-.1,1.19-.2,2.18h-16.76c-.31,13.56.04,26.75-.2,39.92-5.64-.11-11.29-.22-17.19-.34v-19.5h-16.72c-.59,5.23-.42,36.46.27,39.44h16.53v59.32h17.21v19.4h16.81c.62-6.57.37-56.16-.36-59.11h-16.48c0-1.56,0-2.75,0-3.94,0-5.47.02-10.94,0-16.41-.03-6.32-.1-12.63-.15-18.95h34.5v39.24h17.11v-19.62h17.31v-39.62h17.04v-59.3c6-.06,11.65-.11,17.31-.17l-.08-.1c.03,19.75.05,39.51.08,59.27h17.11v-39.57c5.93,0,11.49,0,17.05,0,.06,6.6.13,13.21.19,19.9h16.82v-19.81h-17.09c.06-3.87.17-7.75.16-11.62,0-22.42-.04-44.85-.06-67.27l-.12.14h17.21c.18,19.55-.03,39.16.12,59.17h17.04v39.58h-16.99c-.25,6.65.02,13.02-.17,19.75h-16.89v98.88c-5.78.31-11.32-.03-17.3.22-.07,5.34-.03,10.52-.03,15.7,0,5.23,0,10.46,0,15.69v47.71h-17.05v19.73h-33.77c-.69,2.98-.92,31.74-.39,39.15,2.18.73,28.61.99,34.04.28v-19.36h34.23c.27-5.21.1-10.15.13-15.06.03-4.86,0-9.73,0-14.59v-29.85h17.08c.02-16.74,0-33.11,0-49.48,0-16.29,0-32.57,0-48.79,2.33-.89,11.65-1.12,16.71-.47.71,2.53.92,93.9.15,98.62h-16.69v39.52c5.5.31,11.04-.03,16.51.2.73,2.67.91,14.65.27,19.67h-16.74v39.64h16.88v19.9h-16.88c-.38,3.52-.16,6.76-.2,9.98-.04,3.28,0,6.57,0,9.85v9.49c0,3.27,0,6.55,0,10.31h-17.07v19.73h-17.16v19.74c-5.77.27-11.3-.04-16.97.2v19.34c.69.1,1.29.27,1.89.27,15.93.01,31.86.01,47.78,0,.42,0,.84-.1,1.25-.15l-.1-.09c.12,1.8.33,3.59.35,5.39.05,4.72.02,9.44.02,14.55h-68.17c-.76,3.55-.31,6.81-.39,10.03-.08,3.13-.02,6.26-.02,9.75h-16.86v99.01c5.71.15,11.46.3,17.2.45l-.09-.12c-.08,1.32-.24,2.65-.24,3.97-.02,16.9-.01,33.8-.01,50.7,0,1.33,0,2.66,0,4.5h-16.89v79.27h16.71v39.5h-16.72c-.08,1.55-.19,2.62-.19,3.68,0,50.83,0,101.65,0,152.48,0,.73.07,1.45.1,2.18h-51.9c.04-.61.1-1.21.1-1.82,0-64.31,0-128.63,0-192.94,0-.92-.16-1.85-.28-3.11h-16.8v-35.66c0-4.01.02-8.02,0-12.04-.02-3.83.11-7.67-.12-11.8h-16.87v-39.28h17.11v39.15h16.61c.68-4.87.49-56.5-.28-59.4h-16.45v-13.43c0-4.26.02-8.51,0-12.77-.03-4.32.12-8.65-.12-13.26h-17.12v-19.72h-17.1v-19.47H11.58c0-6.81,0-13.62,0-20.43,5.65.06,11.3.12,16.95.16.16,0,.33-.25.82-.65v-19.27l-.09.1c4.46.03,8.92.08,13.37.06,1.33,0,2.65-.26,3.97-.4,0,6.64,0,13.28,0,20.1h16.78v-19.69c-1.66,0-3.11.03-4.56,0-4.09-.09-8.19-.2-12.28-.3-.07-12.96-.15-25.92-.23-39.27h-17.05l.09.1c-.04-6.49-.07-12.97-.11-19.75H11.58c0-13.14,0-26.27,0-39.41,5.84-.08,11.67-.16,17.49-.24v-19.47H11.58c0-6.81,0-13.62,0-20.43,5.66.05,11.33.11,16.99.14.16,0,.32-.27.63-.55.03-.55.09-1.27.09-1.98,0-32.06-.02-64.11-.03-96.17,5.64-.1,11.28-.15,17.13.02v19.75c0,3.28-.03,6.56,0,9.84.04,3.22-.2,6.47.22,9.96h17.01v19.34c4.4.7,14.78.51,16.81-.21v-58.89h-16.89v-19.91h-17.28v-39.62h-17v-39.49H11.58c0-26.52,0-53.03,0-79.55,5.65.06,11.3.13,16.95.17.16,0,.33-.24.8-.62v-18.98h17.01v-20.05h17.12c.26-3.12.09-6.35.12-9.56.03-3.13,0-6.26,0-9.77,1.35-.07,2.46-.15,3.58-.18,4.39-.13,8.79-.25,13.18-.38l-.06-.06Zm86.37,178.54v-19.86c0-3.28-.03-6.57,0-9.85.04-3.22-.19-6.47.22-10.02h16.56c.62-5.68.41-36.67-.21-39.11h-16.71v19.65h-34.23v19.64h-16.76c-.71,3.6-.64,75.93.08,79.06,5.45.09,10.97.35,16.82-.17v-19.5h17.04v-19.83h17.17Zm-17.14,237.62v-39.31c5.89-.24,11.43.09,17.16-.21v-19.78h33.82c.76-4.47.59-56.66-.11-59.17h-16.73v19.63h-17.08v19.59c-5.85.53-11.41-.16-17.22.45v19.49h-16.56c-.67,4.27-.55,56.51.11,59.31h16.62Zm-85.93-59.36v56.57c0,3.77-.03,7.54,0,11.3.03,3.71-.15,7.44.12,11.07h16.8v-98.68h-16.86c-.17-6.87.07-13.26-.14-19.56-5.11-.7-14.81-.49-16.94.3v38.99h17.02Zm85.69-39.37h-16.69v19.47h16.69v-19.47Zm.36-237.9h16.84v-19.5h-16.84v19.5Zm-85.86,435.37h16.7v-19.22h-16.7v19.22Z"/>
      <path d="m29.35,158.5c-5.92-.02-11.84-.03-17.77-.05v-39.41h17.77v39.46Z"/>
      <path d="m11.58,653.25v-39.41c5.92.02,11.84.03,17.77.05,0,0-.09-.1-.09-.1,0,13.17,0,26.34,0,39.5l.09-.1c-5.92.02-11.84.04-17.77.06Z"/>
      <path d="m29.35,416.12c-5.92-.02-11.84-.04-17.77-.06,0-6.81,0-13.62,0-20.43,2.51.12,5.01.3,7.52.35,3.24.06,6.49.01,10.13.01.04,6.92.08,13.53.11,20.13Z"/>
      <path d="m287.21,258.02c-.13-.95-.37-1.89-.37-2.84-.03-11.55-.02-23.09,0-34.64,0-.72.11-1.43.2-2.61h16.95v-59.35c5.87-.1,11.41-.2,16.96-.29l-.1-.09c.12,1.43.35,2.86.35,4.3.02,23.45.02,46.9.02,70.36v4.69h17.05c.08,10.17.03,19.95.04,29.73,0,9.81,0,19.61,0,29.85h17.11v19.46h-34.1v-78.21c-2.54-.87-13.07-1.05-17.22-.33v19.54c-1.59,0-2.82-.03-4.04,0-4.3.11-8.6.25-12.9.37,0,0,.06.06.06.06Z"/>
      <path d="m132.7,139.01c-.11,1.31-.31,2.63-.31,3.94-.02,16.9-.01,33.8-.01,50.7,0,1.31,0,2.62,0,4.32h-17.25v58.87c-2.53.92-13.73,1.05-16.98.26v-78.66h16.85c.16-6.87.06-13.38.08-19.88.02-6.44,0-12.87,0-19.12.35-.35.51-.63.67-.64,5.37-.04,10.74-.06,16.12-.06.3,0,.59.22.89.34l-.06-.07Z"/>
      <path d="m183.8,119.12v-39.79h34.21v-19.78h34.21v19.7h-34.13v19.64h-17c-.12,7-.23,13.62-.34,20.23,0,0,.12-.14.12-.14-5.73,0-11.45,0-17.18,0l.1.12Z"/>
      <path d="m132.75,139.07c-.13-.83-.36-1.65-.36-2.48-.02-11.79-.02-23.57,0-35.36,0-.6.1-1.19.2-2.16h16.71c.37-10.15.12-19.93.16-29.71.05-9.71.01-19.43.01-29.59,1.28-.06,2.39-.13,3.5-.15,4.52-.11,9.04-.2,13.56-.3,0,0-.1-.1-.1-.1.08,1.08.22,2.17.22,3.26.01,17.63.01,35.26,0,52.9,0,1.06-.09,2.13-.16,3.51h-17c0,4.64-.02,8.97-.03,13.3,0,4.26,0,8.51,0,12.77s0,8.73,0,13.33c-1,.13-1.8.32-2.6.33-3.69.03-7.38-.01-11.07.03-1.03.01-2.06.23-3.09.36,0,0,.06.08.06.08Z"/>
      <path d="m269.74,336.39v39.58c5.69.75,11.24-.05,16.89.51v19.37h-16.74c-.32,3.67-.15,7.03-.16,10.38-.01,3.27.08,6.55.13,9.83,0,0,.08-.1.08-.1h-16.95c-.71-3.18-.78-75.48-.1-79.2,5.6-.09,11.26-.18,16.93-.27,0,0-.09-.09-.09-.09Z"/>
      <path d="m80.4,138.95c-3.04-.11-6.09-.25-9.13-.32-2.41-.05-4.81-.01-7.59-.01v-39.6h-17.04c-.11-1.15-.23-1.85-.23-2.55-.01-11.67-.01-23.35,0-35.02,0-.84.14-1.68.22-2.53l-.1.1c4.31.1,8.61.2,12.92.29,1.24.03,2.49,0,4.08,0v39.62h16.96c.08,1.33.18,2.16.18,3,.01,11.3.02,22.59,0,33.89,0,1.07-.23,2.14-.35,3.21,0,0,.08-.09.08-.09Z"/>
      <path d="m287.15,257.96c-.11,1.31-.32,2.61-.32,3.92-.02,23.29-.01,46.57-.01,69.86v4.71c-5.83.28-11.45.39-17.07-.05,0,0,.09.09.08.09-.03-4.12-.09-8.24-.09-12.36,0-20.73,0-41.46,0-62.19,0-1.31,0-2.61,0-4.35,4.14,0,8-.05,11.85.02,1.87.03,3.75.27,5.62.42,0,0-.06-.06-.06-.06Z"/>
      <path d="m166.7,178.2v-59.25c5.86.02,11.48-.22,17.1.17,0,0-.1-.12-.1-.12-.02,19.49-.04,38.98-.07,58.47,0,.1-.1.2-.16.29-.06.1-.14.18-.26.34h-16.6l.08.1Z"/>
      <path d="m270.12,555.04c-.13-1.43-.36-2.87-.37-4.3-.04-5.21-.02-10.42-.02-16.01h17.01v-19.54h17.15v19.19c-5.53.69-11.09-.07-16.94.47v19.39c-1.13.15-1.93.34-2.73.35-3.69.03-7.38-.01-11.07.03-1.03.01-2.07.23-3.1.36l.06.06Z"/>
      <path d="m166.94,713.42c-.09-.84-.26-1.67-.26-2.51-.02-11.76-.01-23.53,0-35.29,0-.6.09-1.19.17-2.04h16.75v39.39c-1.59,0-3.03-.03-4.47,0-4.08.11-8.16.24-12.25.36,0,0,.08.08.08.08Z"/>
      <path d="m286.64,39.93v19.18h-34v-18.87c2.24-.76,28.67-1.02,34-.31Z"/>
      <path d="m166.53,39.32c.05-11.42.09-22.84.13-34.26,0-1.45,0-2.9,0-4.28,2.37-.84,13.05-1,16.89-.27v38.5c-.11.12-.27.42-.42.42-5.57-.05-11.13-.12-16.7-.2,0,0,.1.1.1.1Z"/>
      <path d="m149.81,752.77c-.11-.83-.32-1.65-.32-2.48-.02-11.61-.02-23.22,0-34.84,0-.7.08-1.39.15-2.48,5.06,0,9.96-.02,14.86.02.82,0,1.63.27,2.46.42,0,0-.08-.08-.07-.07-.06,1.33-.19,2.65-.2,3.97-.02,10.3,0,20.59,0,30.89,0,1.3,0,2.6,0,4.19-5.89.09-11.42.17-16.95.26,0,0,.1.12.1.12Z"/>
      <path d="m46.44,197.9h-17.18c0-13.32,0-26.41,0-39.5h17.09c.03,13.4.06,26.45.09,39.5Z"/>
      <path d="m80.35,177.9c.11-.7.31-1.39.32-2.09.02-11.71.02-23.41,0-35.12,0-.58-.17-1.17-.26-1.75,0,0-.08.09-.09.09,1.66-.13,3.32-.37,4.99-.39,4.08-.06,8.16-.02,12.45-.02v39.25c-.45.12-.94.37-1.43.37-4.73.03-9.46.04-14.19,0-.61,0-1.22-.26-1.84-.41,0,0,.06.06.06.06Z"/>
      <path d="m270.05,436.03c-.11,1.31-.31,2.62-.31,3.93-.03,10.31-.01,20.62-.01,30.93,0,1.31,0,2.62,0,4.16h-17.06v-38.98c.33-.12.71-.38,1.1-.38,4.94-.03,9.89-.03,14.83,0,.5,0,1.01.27,1.51.41l-.06-.07Z"/>
      <path d="m114.88,138.47h-16.34c-.65-2.78-.88-33.17-.32-38.89,2.22-.76,13.06-.89,16.66-.16v39.05Z"/>
      <path d="m338.22,494.83h-16.83v-19.25h16.56c.71,3.07.27,6.32.32,9.53.05,3.27-.08,6.54-.14,9.82,0,0,.08-.1.08-.1Z"/>
      <path d="m270.05,139.01c-.11,2.76-.27,5.53-.31,8.29-.05,3.5-.01,7.01-.01,10.44-2.41.88-13.81,1.01-17.13.22v-18.92c.5-.14.99-.38,1.48-.39,4.73-.03,9.47-.04,14.2,0,.61,0,1.22.27,1.83.42l-.06-.07Z"/>
      <path d="m270.06,554.98c-.11,2.52-.28,5.04-.32,7.57-.05,3.74-.01,7.49-.01,11.49h-17.06v-18.93c.21-.12.48-.4.76-.4,5.16-.04,10.32-.06,15.48-.05.4,0,.8.25,1.21.38,0,0-.06-.06-.06-.06Z"/>
      <path d="m270.11,139.07c-.13-1.8-.34-3.59-.36-5.39-.05-4.73-.02-9.45-.02-14.12,2.39-.78,13.19-.92,16.89-.24v19c-.82.11-1.62.29-2.42.3-3.69.03-7.37-.01-11.06.03-1.03.01-2.06.23-3.09.36,0,0,.06.08.06.08Z"/>
      <path d="m270.11,436.1c-.13-1.54-.37-3.08-.36-4.63.02-5.17.12-10.34.19-15.51,0,0-.08.1-.08.1,5.54,0,11.08,0,16.78,0v19.59c-1.2,0-2.31-.02-3.42,0-4.39.11-8.78.24-13.17.37,0,0,.06.08.06.08Z"/>
      <path d="m217.76,613.68c.09-3.75.21-7.5.27-11.25.04-2.54,0-5.09,0-7.56,2.32-.89,11.46-1.11,16.71-.48.72,2.58.86,15.08.17,19.21-5.72,0-11.48,0-17.25,0,0,0,.09.08.09.08Z"/>
      <path d="m46.63,58.93c-2.19.13-4.37.34-6.56.38-3.45.06-6.89.02-10.55.02v-19.07c2.1-.78,12.34-.98,16.77-.24.07,6.3.15,12.67.23,19.03,0,0,.11-.11.11-.11Z"/>
      <path d="m252.28,416.15v19.23h-16.74c-.37-6.35-.23-12.69-.08-19.23h16.82Z"/>
      <path d="m235.61,574.54h16.64v19.49c-2.77.04-5.47.08-8.16.1-2.72.02-5.45,0-8.1,0-.77-2.77-.97-13.85-.38-19.6Z"/>
      <path d="m252.22,158.66v18.98c-2.15.8-12.62.97-16.67.23v-19.2h16.67Z"/>
      <path d="m252.25,494.85h-16.66v-19.33h16.66v19.33Z"/>
    </g>
    <g>
      <path d="m1580.6,1073.6c-.1-1.57-.28-3.15-.28-4.72-.01-82.88-.01-165.76-.01-248.64,0-1.69,0-3.38,0-5.51h-16.06v-37.2h-16.04v-18.45h-15.96v-36.87c2.53-.33,5.16-.12,7.77-.16,2.55-.04,5.11,0,8.06,0v18.35h15.99v18.4h16.05v-36.67h-15.91c-.06-6.28-.11-12.33-.17-18.73h-15.84v-18.34h-16.12v-37.07h-15.94v-18.56h-48.25c-.07-6.21-.07-12.06.02-18.29,5.29-.48,10.48.04,15.97-.34.05-1.26.13-2.47.13-3.67.01-9.78,0-19.55.01-29.33,0-1.24.1-2.49.15-3.73l-.07.08h15.87v18.22h32.02v18.45c5.4.29,10.58-.02,16.03.2v17.64c2.37.86,12.08,1.01,15.92.33v-36.45h-15.73v-37.17h-16.16v-37.07h-15.93v-36.91h-16.04c-.19-12.38.03-24.47-.13-36.96h-32.02v-18.65h-15.94v-18.26c-2.91-.47-5.55-.21-8.16-.26-2.66-.04-5.33,0-7.99,0h-16.02v-19.02l-.09.1c1.07.09,2.14.26,3.22.26,8.47.02,16.93.01,25.4.01h3.44v18.38c2.84.5,5.47.22,8.07.27,2.54.05,5.07.01,7.92.01v18.39c5.47.05,10.64.06,16.13-.02.05-1.46.12-2.67.12-3.87,0-9.87,0-19.75.01-29.62,0-1.24.11-2.49.16-3.73l-.11.13h15.92v37.19h16.18v18.66h15.92v37.02h16.09v36.62h15.68c.58-5.76.36-108.14-.3-110.89h-15.51v-37.12l-.08.09h32.23v-55.18h15.96c.19,6.06.06,12.15.09,18.23.02,6.01,0,12.01,0,18.25h15.98v-36.72h-15.79v-55.55h16c0-4.37-.04-8.32.02-12.27.03-2.25.23-4.5.35-6.75l-.06.06h15.58v-73.26c.94-.13,1.59-.3,2.24-.31,3.94-.03,7.89-.03,11.83,0,.77,0,1.53.25,2.3.38l-.07-.1c-.05,9.54-.09,19.08-.13,28.62-.01,2.49,0,4.98,0,7.25.25.29.32.38.4.45.07.07.16.18.23.18,10.44.06,20.89.1,31.33.15v18.43c-10.6.07-21.2.13-32.02.2v37.01h-16.09v111.08h-15.73v55.2h15.79v-36.92h16.15v-73.8h15.95c-.01,48.59-.02,97.18-.03,145.77,0,.64.13,1.29.24,2.35h15.73v55.28c-5.34.01-10.68.03-16.02.04v-18.19c-5.43-.42-10.61.11-15.9-.34-.14-6.3.08-12.27-.14-18.37h-15.63c-.66,4.63-.48,108.52.22,111.21h15.54c-.02,23.16-.03,46.31-.05,69.47,0,1.36-.08,2.72-.12,4.08-4.22.1-8.44.19-12.67.29-1.04.02-2.08.09-3.29.14,0,3.36,0,6.3,0,9.25.01,3.02.04,6.04.07,9.05h15.81v-18.84c.27.11.55.33.82.33,4.82.02,9.64.01,14.46-.02.25,0,.5-.27,1.02-.57v-17.87h15.87v37.53c-3.47-.65-13.7-.47-15.98.36v12.14c0,3.98.02,7.96,0,11.94-.02,4.03.09,8.08-.09,12.44h-15.95v18.32h-15.73c-.58,5.31-.4,71.48.17,73.92h15.62v-17.99c3.42-.72,13.69-.61,15.85.11v18.12h-15.94v55.59h-15.99v4.48c0,65.04,0,130.08,0,195.12,0,1.25.06,2.5.1,3.75h-47.94Z"/>
      <path d="m1676.48,314.75c-5.34.02-10.68.04-16.02.05v-37.1c1.38-.05,2.52-.11,3.67-.14,4.12-.12,8.24-.23,12.35-.34v37.53Z"/>
      <path d="m1435.33,203.76c.12-1.23.33-2.45.34-3.68.03-9.78.02-19.56.02-29.34v-4.07h15.97v-18.72h-15.78v-18.23h15.88v17.49c2.4.81,11.49.98,15.89.35.06-1.21.19-2.52.2-3.83.01-21.83,0-43.67,0-65.5,0-1.33,0-2.67,0-4.4h16.14V.06h15.87v92.25h-15.29c-.66,2.82-.91,104.43-.32,111.04,5.33.14,10.71.28,16.08.42l-.08-.11c-.08.9-.23,1.79-.23,2.69-.01,16.48-.01,32.97,0,49.45,0,.99.1,1.99.18,3.38h15.84v37.22l.09-.11h-16.16v-36.72c-3.51-.71-13.63-.57-15.95.23,0,1.04,0,2.16,0,3.28,0,8.17,0,16.35,0,24.52.02,15.21.04,30.42.06,45.63l.1-.11h-16.25v18.28c-2.79.39-5.32.16-7.84.2-2.55.04-5.1,0-7.58,0-.77-2.55-1.05-30.14-.4-36.8h15.11c.76-2.73,1.03-48.77.42-55.03-2.05-.79-12.23-.94-15.77-.14v54.82h-16.01c-.35-3.52-.12-7.12-.16-10.7-.04-3.75,0-7.5,0-11.25v-33.39h-16.03v-55.62l-.08.1c5.28.03,10.57.07,15.86.09.09,1.23.24,2.46.24,3.7.02,15.92.01,31.83.01,47.75v3.78h16.19v-55.33h15.79v-18.42h-15.79v18.37c-1.42,0-2.48-.02-3.54,0-4.33.07-8.66.16-13,.24Zm32.95,18.43c-.67,3.21-.61,33.97.1,36.86,5.1.12,10.25.19,15.35-.02.59-5.58.4-34.31-.22-36.84h-15.23Z"/>
      <path d="m1500.32,203.77c-.11-1-.3-2-.3-3.01-.02-22.72-.01-45.43,0-68.15,0-.9.08-1.79.14-3.1h15.86V55.85c2.85-.79,5.5-.33,8.11-.4,2.66-.07,5.32.02,7.98.04l-.08-.1c.01,23.98.03,47.96.04,71.94,0,.56-.09,1.12-.17,2.03h-15.73c-.13,4.36-.05,8.4-.07,12.44-.01,4.09,0,8.18,0,12.27v36.82c0,4.06,0,8.13,0,12.51-5.48.08-10.67.16-15.85.25,0,0,.09.11.09.11Z"/>
      <path d="m1563.81,296.56c-2.24-.12-4.49-.29-6.73-.34-2.84-.06-5.67-.01-8.84-.01v-36.98h-15.98v-18.51h15.86v18.2h16c-.03-12.37.07-24.7-.08-37.03l-.08.09h16.29c.06,18.62.02,36.81.03,55.45-5.4.35-10.66-.07-16.17.27,0,4.99.03,9.62-.02,14.24-.02,1.57-.23,3.13-.35,4.69,0,0,.06-.06.06-.06Z"/>
      <path d="m1484.18,574.05h-16.29v-18.68h-15.82v-37.04h15.73v-18.34h16.1c.04,1.29.11,2.6.11,3.91,0,22.05,0,44.1,0,66.15,0,1.36.06,2.72.09,4.09,0,0,.07-.08.07-.08Z"/>
      <path d="m1419.82,388.2c-2.05.12-4.11.31-6.16.35-3.23.06-6.46.02-9.86.02,0-37.03,0-73.71,0-110.39,2.05-.76,12.08-.92,15.8-.18v3.89c0,34.23,0,68.45,0,102.68,0,1.25.07,2.49.11,3.74,0,0,.1-.1.1-.1Z"/>
      <path d="m1580.51,129.44h15.18c.72,2.75.82,51.86.16,55.33h-15.56v-55.31h-16.02v-36.44c2.03-.77,28.55-.94,31.85-.17v17.87h-15.6v18.72Z"/>
      <path d="m1419.66,203.48h-15.93v-55.42c-5.44-.36-10.62.02-15.97-.25v-36.74h15.82v36.83h16c0,18.87,0,37.27,0,55.67,0,0,.08-.1.08-.1Z"/>
      <path d="m1484.19,388.36h-15.85c-.58-2.52-.77-31.65-.21-36.66h15.77c.1-6.44.19-12.51.29-18.59,0,0-.1.11-.1.11h15.72v36.96h-15.72v18.31l.11-.13Z"/>
      <path d="m1644.73,166.96c-.07-1.01-.2-2.03-.2-3.04-.01-16.59-.01-33.18,0-49.76,0-.99.11-1.98.17-3.14h15.6v55.54c-1.86,0-3.61-.03-5.35,0-3.44.07-6.87.18-10.3.29,0,0,.08.11.08.11Z"/>
      <path d="m1612.82,240.07c-1.36.14-2.72.37-4.08.39-4.02.05-8.03.02-12.25.02v-55.24h15.85c.04,1.15.11,2.35.11,3.55,0,15.89,0,31.79.02,47.68,0,1.22.19,2.45.29,3.67,0,0,.06-.07.06-.07Z"/>
      <path d="m1564.05,221.89h-15.73v-55.08h15.48c.09.48.31,1.11.31,1.74.01,17.48,0,34.95,0,52.43,0,.34-.08.67-.13,1.01,0,0,.08-.09.08-.09Z"/>
      <path d="m1467.84,499.6h-15.8v-55.09h15.79c.02,18.3,0,36.53,0,55.09Z"/>
      <path d="m1403.5,574.23c-1.07-.09-2.15-.26-3.22-.26-8.38-.02-16.76-.01-25.14-.01h-3.38v-18.44h31.64v18.81l.09-.1Z"/>
      <path d="m1403.41,574.32c.67-.12,1.34-.35,2.01-.35,9.42-.02,18.84-.02,28.26,0,.57,0,1.13.09,2.03.16-.21,6.34.41,12.51-.38,18.67l.06-.06c-1.06-.12-2.12-.33-3.18-.34-8.34-.03-16.67-.02-25.01-.02h-3.47c-.07-6.27-.14-12.22-.22-18.16,0,0-.1.1-.1.1Z"/>
      <path d="m1435.36,55.68c.88-.08,1.76-.24,2.64-.24,8.97-.02,17.95-.02,26.92,0,.86,0,1.72.12,2.74.19v18.01h-31.98c0-1.92.02-3.7,0-5.48-.07-4.19-.15-8.39-.23-12.58,0,0-.08.11-.08.11Z"/>
      <path d="m1516.03,296.4h15.55c.08.1.15.18.21.27.06.09.17.18.17.27.03,12.1.05,24.19.07,36.29,0,0,.09-.09.09-.09-2.66.02-5.31.04-7.97.04-2.61,0-5.23,0-8.01-.02v-36.87l-.09.11Z"/>
      <path d="m1532.02,333.22h15.93c.08.97.18,1.62.18,2.27,0,11.08,0,22.16,0,33.23,0,.45-.09.89-.14,1.34,0,0,.08-.09.08-.09-2.66.05-5.32.19-7.98.14-2.61-.06-5.26.41-7.99-.37v-36.61l-.09.09Z"/>
      <path d="m1628.74,37.25c-.1,1.23-.29,2.45-.29,3.68-.02,9.55-.01,19.1-.01,28.65v4.13c-5.37.1-10.55.19-15.72.29l.09.08c-.11-.77-.33-1.53-.33-2.3-.02-10.86-.02-21.72,0-32.57,0-.65.08-1.3.14-2.33,5.5.24,10.85-.47,16.19.43l-.05-.06Z"/>
      <path d="m1435.32,592.79c.67-.14,1.34-.39,2.01-.39,9.55-.03,19.1-.02,28.66-.01.48,0,.95.08,1.63.15v18.17h-31.93c0-1.45.02-2.77,0-4.1-.09-4.63-.2-9.26-.3-13.89,0,0-.06.06-.06.06Z"/>
      <path d="m1419.7,481.13h-15.92c-.05-1.24-.14-2.43-.14-3.63-.01-9.73,0-19.46-.01-29.19,0-1.24-.08-2.48-.12-3.72l-.07.1c1.45-.13,2.91-.36,4.36-.38,3.81-.05,7.63-.02,11.84-.02,0,12.52,0,24.72,0,36.93,0,0,.08-.1.08-.1Z"/>
      <path d="m1532.1,55.49V19.09c2.2-.75,11.22-.94,15.83-.35v36.65c-5.34,0-10.62,0-15.91,0,0,0,.08.1.08.1Z"/>
      <path d="m1403.49,444.59c-3.93-.1-7.86-.2-11.79-.29-1.26-.03-2.52,0-3.97,0v-18.44h15.69c0,6.4,0,12.61,0,18.83,0,0,.07-.1.07-.1Z"/>
      <path d="m1644.78,18.89V.04h15.56v18.42c-1.89,0-3.63-.04-5.37,0-3.42.09-6.84.23-10.26.34,0,0,.07.07.07.07Z"/>
      <path d="m1435.6,499.62h-15.97c-.02-6.18-.09-12.33.07-18.5,0,0-.08.1-.08.1,5.2,0,10.41,0,15.72,0,.65,3.25.28,6.3.32,9.31.04,3.06-.08,6.12-.14,9.18l.07-.08Z"/>
      <path d="m1435.52,499.71h16.15c.31,6.3.22,12.21.06,18.32h-16.14c0-6.24,0-12.32,0-18.4,0,0-.07.08-.07.08Z"/>
      <path d="m1628.8,37.31c-.12-1.56-.32-3.12-.34-4.68-.05-4.6-.02-9.2-.02-14.17,4.3,0,8.29-.03,12.28.02,1.35.02,2.7.25,4.06.39,0,0-.07-.08-.07-.07-.06,4.66-.13,9.3-.19,13.95-.02,1.23,0,2.45,0,4.13-1.43,0-2.57-.02-3.72,0-4.02.1-8.04.22-12.06.34,0,0,.06.07.06.07Z"/>
      <path d="m1612.71,74.01c-.09,4.18-.18,8.37-.25,12.55-.03,1.79,0,3.59,0,5.6h-15.96v-18.08c5.53,0,10.91,0,16.3,0,0,0-.08-.08-.08-.08Z"/>
      <path d="m1435.45,55.58c-5.17-.08-10.33-.17-15.74-.26-.08-6.22-.15-12.18-.23-18.13l-.07.1c1.46-.13,2.91-.36,4.37-.38,3.83-.05,7.66-.02,11.66-.02.09,1.09.24,1.95.23,2.82-.08,5.32-.2,10.64-.3,15.97,0,0,.08-.1.08-.1Z"/>
      <path d="m1563.76,296.62c1.36-.14,2.72-.37,4.08-.39,4.02-.05,8.04-.02,12.25-.02v17.86c-2.07.68-11.5.86-15.72.27-.08-.8-.23-1.67-.23-2.53-.03-3.98,0-7.95-.03-11.93,0-1.11-.19-2.22-.29-3.33,0,0-.06.07-.06.07Z"/>
      <path d="m1419.48,37.19c-3.04-.1-6.09-.22-9.13-.28-2.06-.04-4.13,0-6.13,0-.72-2.51-.87-13.57-.28-18.2h15.65c-.05,6.2.2,12.39-.18,18.6,0,0,.07-.1.07-.1Z"/>
      <path d="m1644.48,592.55c.01-23.26.03-46.51.04-69.77,0-1.35,0-2.69,0-4.42,5.48-.11,10.75-.21,16.02-.31-.01,23.26-.03,46.51-.04,69.77,0,1.35,0,2.69,0,4.42-5.48.11-10.75.21-16.02.31Z"/>
    </g>
    <g>
      <path d="m627.86,505.75c-.12,1.36-.34,2.71-.35,4.07-.04,4.81-.02,9.63-.02,14.92h-16.01v56.35h15.92v-18.7h16.36v-37.45h16.17c.24-4.35.09-8.45.12-12.53.03-4.03,0-8.05,0-12.08v-12.8c5.45-.1,10.69-.19,15.93-.29l-.09-.09c.12,1.7.31,3.4.33,5.1.05,4.46.02,8.92.02,13.55.66.15,1.12.34,1.58.34,15.84,0,31.68-.03,47.53-.06,0,0-.08-.09-.08-.09-.05,6.17-.09,12.35-.14,18.9h-16.09v37.23h16.19v-18.53h16.12c.13-6.5-.05-12.54.12-18.84h16.25l-.09-.11v19.04h-16.19v18.58h-16.12v18.78c-5.55.57-10.82-.06-16.39.41-.24,9.34-.08,18.62-.11,27.9-.03,9.19,0,18.38,0,27.8h-16.09v-112.06h-16.37v18.56h-16.21c-.14,4.44-.06,8.54-.07,12.63-.02,4.03,0,8.06,0,12.09v12.82h-16.27v37.45h-16.25c-.13,12.54.02,24.79-.09,37.38h-15.54c-.73,2.74-.99,68.96-.36,74.99h15.74c.4-2.96.15-6.03.19-9.09.04-3.11,0-6.22,0-9.33v-18.76c5.39-.32,10.63.03,16.2-.23v-18.73h16.32v-18.55h16.13c.23-6.34-.02-12.39.16-18.68h15.84c.59,2.58.73,32.78.12,37.13h-15.97v18.9h-16.15v37.55h-16.34v18.63h-16.24v37.06c-2.86.82-5.54.34-8.18.42-2.57.08-5.14.02-7.89.02v112.49c5.44.14,10.88.28,16.33.43l-.09-.11c-.08,1.25-.23,2.51-.23,3.76-.02,9.78-.01,19.56-.01,29.34,0,1.24,0,2.48,0,4.07h-16.03c-.06,1.65-.15,2.98-.15,4.31,0,36.71-.01,73.42,0,110.13,0,11.85.06,23.7.1,35.55h-49.16c.03-1.26.1-2.53.1-3.79,0-47.18,0-94.35,0-141.53v-4.43h-16.05c-.05-1.53-.11-2.74-.13-3.95-.09-4.93-.16-9.87-.25-14.8l-.09.11c3.98-.08,7.96-.18,11.94-.25,1.38-.03,2.76,0,4.35,0v-75.01h-15.97v-4.22c0-10,.01-20.01-.02-30.01,0-1.24-.23-2.48-.35-3.72,4.07.14,8.14.29,12.21.41,1.36.04,2.72,0,4.02,0,.64-5.34.44-53.68-.16-55.97h-15.71v3.95c0,15.98,0,31.96-.01,47.95,0,1.24-.19,2.48-.3,3.72-2.47.12-4.95.29-7.42.34-2.69.06-5.38.01-8.48.01-.15-12.54-.05-24.9-.07-37.27-.02-12.39,0-24.78,0-37.51h-16.1c-.17-6.48-.06-12.64-.08-18.79-.02-6.08,0-12.15,0-18.7-5.41-.38-10.66.03-16.28-.27.05-6.45-.18-12.71.16-18.98l-.11.13h16.27v-18.76s-.08.1-.08.1c5.35.06,10.7.11,16.29.17v56.08h16.28v18.75h15.72c.66-3.75.54-91.03-.19-93.85h-15.59v-12.73c0-4.03.02-8.06,0-12.09-.03-4.09.13-8.2-.13-12.56h-32.3v-18.49l-.08.1c1.09-.06,2.18-.16,3.28-.16,8.57-.01,17.14,0,25.71,0,1.07,0,2.13,0,3.36,0v-18.9h-16.14v-18.66h-16.12v-19.06l-.08.1h16.27v-37.41l-.08.1h16.29c.07,6.33.03,12.49.04,18.66,0,6.22,0,12.44,0,18.66v37.42h15.99v-168.57h-15.97c-.06-12.58,0-24.84-.04-37.51h-16.19v-37.27c-5.46-.49-10.71.06-16.27-.35v-37.34h-16.22c-.12-4.41-.05-8.51-.06-12.6-.01-4.03,0-8.06,0-12.09v-12.8c-5.36-.3-10.52,0-16.07-.19v-18.53h-32.48v-18.82h15.89v-37.29c2.89-.31,5.56-.13,8.21-.16,2.59-.03,5.18,0,8.16,0,.19,4.28.07,8.38.09,12.47.02,4.03,0,8.06,0,12.09v12.63h16.07c.31-5.96-.02-12.02.19-18.23.79-.11,1.45-.29,2.11-.29,4-.03,7.99-.03,11.99,0,.78,0,1.55.25,2.33.39,0,0-.07-.1-.07-.1-.05,1.15-.13,2.29-.13,3.44,0,16.12,0,32.25,0,48.37v4.05h16.12v37.53h16.28v37.47c5.42.34,10.66-.01,16.23.23v18.49h16.24v-74.73h-16.21v-4.11c0-16.12,0-32.25-.01-48.37,0-1.25-.15-2.51-.23-3.76l-.09.11c.89-.08,1.78-.24,2.67-.24,9.09-.02,18.18-.02,27.26,0,.87,0,1.74.12,2.95.2v74.74h16.34v75.03c5.73-.15,11.16.34,16.6-.31-.08,6.33-.15,12.66-.22,18.99h-16.17v37.49c5.36.18,10.56.33,16.09-.11,0-12.71,0-25.09,0-37.47,5.34.34,10.66.12,15.94.16.55-5.44.4-16.13-.27-18.77-1.43,0-2.91.02-4.39,0-3.68-.06-7.36-.15-11.03-.22-.1-2.85-.25-5.7-.3-8.55-.05-3.1-.01-6.2-.01-9.79,3.68-.17,7.22-.06,10.76-.08,3.59-.02,7.18,0,10.77,0h10.84c.09-1,.19-1.66.19-2.32.01-10.92.01-21.84,0-32.76,0-.67-.19-1.33-.29-2,0,0-.05.07-.05.07.78-.14,1.56-.4,2.33-.4,9.49-.03,18.97-.02,28.46-.01.58,0,1.16.09,1.93.15v37.3h-16.01v18.6h16.02v18.64c-5.19.47-10.45-.07-16.1.35-.2,6.04.01,12.07-.13,18.42h-16.05c-.16,6.36-.08,12.38-.04,18.89h16.18v18.51h32.57v-37.41h16.49l-.08-.09v37.62c5.37.19,10.58.11,16.07.06v-18.59h16.32v-18.72c5.59-.16,10.83-.31,16.07-.46l-.1-.1c.07,5.05.15,10.11.22,15.16.02,1.23,0,2.46,0,4.03h32.23v18.71h-64.66v18.83h-32.56v18.07c-2.39.81-11.35.98-16.02.37-.57-5.93.12-11.99-.38-18.17h-32.32v18.18c-1.03.12-1.79.27-2.56.28-3.69.03-7.39-.01-11.08.03-.98.01-1.95.25-2.93.38.07-3.11.16-6.21.19-9.31.03-3.17,0-6.35,0-9.45-4.73-.61-14.06-.42-16.09.24v18.12c1.57,0,2.95-.03,4.32,0,3.88.08,7.76.19,11.63.29.02,12.07.05,24.14.06,36.2,0,.2-.14.4-.38,1.05-1.38,0-2.94.03-4.51,0-3.67-.1-7.34-.23-11.02-.34-.11-4.45-.22-8.91-.3-13.37-.03-1.57,0-3.14,0-4.63-3.6-.69-13.91-.56-16.19.17,0,2.92,0,5.9,0,8.88.01,3.05.04,6.1.06,9.3,4.5,0,8.58.03,12.66-.02,1.28-.02,2.55-.26,3.83-.4Zm16.14-93.17v18.43c5.45.03,10.66.18,15.85-.07v-18.36h-15.85Z"/>
      <path d="m644.03,243.07c-.47.15-.94.42-1.42.43-4.88.03-9.77.02-15.09.02-.05-4.72-.02-9.28-.02-13.84,0-4.72,0-9.44,0-14.17v-27.75c-2.78-.85-5.47-.33-8.11-.42-2.57-.09-5.15-.02-8.06-.02v-56.19h-16.21v-37.37h16.1c.21,12.25-.03,24.5.14,37.12,5.33.56,10.59-.05,16.12.4v37.19h16.22c.17-8.25.05-16.48.08-24.71.02-8.29,0-16.58,0-24.88v-25.32c1.41,0,2.57.03,3.72,0,4.07-.12,8.14-.26,12.22-.38,0,0-.04-.05-.04-.05.13,1.47.36,2.94.36,4.42.02,22.22.02,44.44.02,66.67,0,1.35,0,2.7,0,4.32,5.59.11,10.85.22,16.11.32l-.07-.08v18.57h-32.19c-.05,1.16-.12,1.94-.12,2.72,0,17.02,0,34.04,0,51.05,0,.68.13,1.36.19,2.05,0,.01.05-.08.05-.08Z"/>
      <path d="m481.37,600.01h-16.52c-.02-18.87,0-37.31-.01-56.21-10.95-.22-21.66.06-32.64-.16v-18.98l-.08.09h32.66c.02-4.23.06-8.31.07-12.4.01-4.02,0-8.04,0-12.06s0-8.25,0-12.87c5.66-.04,11.1-.06,16.54.03,0,0-.1-.11-.1-.11-.02,24.37-.04,48.74-.05,73.11,0,.54.15,1.09.29,2h32.12v18.99l.08-.1c-10.65.02-21.3.04-31.95.07-.07,0-.15.13-.22.21-.07.08-.14.16-.27.32v18.16l.08-.09Z"/>
      <path d="m497.67,337.26h15.96c.12,8.6.04,16.84.06,25.07.01,8.29,0,16.57,0,24.86v25.15h15.92c.11,1.1.26,1.86.26,2.61,0,24.17-.01,48.33-.03,72.5,0,0,.08-.1.08-.1-5.42,0-10.85,0-16.27,0l.09.09c-.01-23.49-.03-46.98-.04-70.47,0-1.36,0-2.71,0-4.51h-16.31v-18.89h-15.99c-.07-1.43-.18-2.55-.16-3.66.1-5.16.23-10.32.36-15.47l-.06.06h15.87c0-1.14,0-2.36,0-3.58,0-10.01-.01-20.01.02-30.02,0-1.24.22-2.48.34-3.72,0,0-.09.08-.09.08Z"/>
      <path d="m497.58,674.61h-16.25v-18.41h-16.27v-18.76h16.02c.06-1.49.14-2.71.14-3.93.01-9.9,0-19.81.01-29.71,0-1.26.09-2.52.14-3.79,0,0-.08.09-.08.09h16.13v18.69h16.23v37.28l.08-.1c-5.34.1-10.69.19-16.27.3v18.47l.11-.13Z"/>
      <path d="m789.8,487.16c.12,1.7.31,3.4.33,5.11.05,4.47.02,8.94.02,13.84h-16.2v18.71c-2.95,0-5.6.04-8.25.01-2.69-.03-5.38-.12-8.07-.18,0,0,.09.11.09.11-.19-6.12.19-12.27-.23-18.59-3.11,0-5.89.01-8.66,0-7.85-.05-15.7-.11-23.56-.16,0,0,.08.09.08.09v-18.7h3.54c19.24,0,38.47,0,57.71,0,1.09,0,2.19-.09,3.28-.14l-.09-.09Z"/>
      <path d="m676.17,168.84v-19.01h16.35v-18.63c3.86-.19,7.41-.08,10.96-.1,3.49-.02,6.98,0,10.48,0h11.06c.46-6.26-.04-12.32.3-18.31,2.21-.74,12.52-.85,15.89-.16v18.39h-15.87v18.43c-2.91.55-5.58.25-8.23.3-2.69.05-5.39.01-8.08.01h-16.46v18.99c-5.74,0-11.11,0-16.47,0,0,0,.07.08.07.08Z"/>
      <path d="m513.9,187.73c-.07-1.03-.2-2.05-.2-3.08-.01-10.56-.01-21.12,0-31.68,0-.91.07-1.82.13-3.18h16.05c0-1.69,0-2.92,0-4.16,0-9.99,0-19.97,0-29.96,0-1.26.1-2.52.15-3.77,0,0-.1.11-.1.11,5.3-.05,10.61-.11,15.91-.16l-.06-.06c.12.78.35,1.56.35,2.35.02,11.16.02,22.32,0,33.49,0,.56-.1,1.13-.19,2.11h-16.07v37.58c-2.1,0-3.86-.03-5.63,0-3.48.07-6.96.19-10.43.29,0,0,.08.11.08.11Z"/>
      <path d="m725.27,224.7v37.65h-16.38v37.38h-15.77c-.58-2.53-.78-31.89-.21-37.28h15.97v-37.67h16.47l-.08-.09Z"/>
      <path d="m481.38,468.7h-16.49v18.48h-15.74c-.62-2.84-.69-52.57-.07-55.93h15.73v18.65h16.34c.05,6.54.1,12.72.15,18.89l.08-.09Z"/>
      <path d="m659.75,300.33c-2.07-.12-4.14-.3-6.21-.34-3.08-.06-6.16-.02-9.41-.02-.13-.93-.34-1.68-.34-2.43-.02-17.47-.02-34.94,0-52.42,0-.68.15-1.36.23-2.05,0,0-.06.08-.05.07,1.38.12,2.75.35,4.12.37,3.87.05,7.74.02,11.78.02.08,1.36.18,2.36.18,3.36.01,16.7.01,33.41,0,50.11,0,1.13-.22,2.26-.34,3.39,0,0,.05-.06.05-.06Z"/>
      <path d="m773.73,393.23c.04-2.06.12-4.13.12-6.19.01-15.16,0-30.32,0-45.49v-4.02c5.54-.09,10.78-.18,16.03-.27l-.09-.09c.12.9.33,1.79.33,2.69.02,17.04.02,34.08,0,51.12,0,.68-.07,1.35-.11,2.21-.63.11-1.19.29-1.75.29-4.19.02-8.39.03-12.58,0-.68,0-1.36-.23-2.05-.35,0,0,.09.09.09.09Z"/>
      <path d="m676.09,37.44c.04.22.12.45.12.67.01,17.91.02,35.83.02,53.74,0,.44-.1.87-.2,1.69-4.11,0-8.17.04-12.22-.02-1.38-.02-2.75-.26-4.12-.41,0,0,.04.05.03.04.11-1.24.33-2.47.33-3.7.02-16.01.02-32.01.02-48.02v-3.92h16.1l-.07-.08Z"/>
      <path d="m789.89,487.24c.09-4.47.18-8.94.25-13.42.03-1.59,0-3.18,0-4.98h48.54v18.31c-.92.09-1.7.22-2.47.22-14.78.01-29.55.01-44.33,0-.69,0-1.39-.14-2.08-.22,0,0,.09.08.09.08Z"/>
      <path d="m806.32,300.21v-37.51c2.81-.51,5.48-.22,8.13-.27,2.58-.05,5.16-.01,7.67-.01.74,2.72.83,33.85.12,37.44-5.29.09-10.65.17-16.01.26,0,0,.08.09.08.09Z"/>
      <path d="m676.17,37.52c.03-11.15.06-22.3.08-33.45,0-1.26,0-2.51,0-4.03h15.89c.59,2.43.77,32.12.17,37.19-5.36.07-10.78.14-16.21.21,0,0,.07.08.07.08Z"/>
      <path d="m725.37,337.48c-.06,4.83-.12,9.66-.17,14.49-.01,1.23,0,2.47,0,3.9h-32.39v-18.13c.57-.12,1.04-.3,1.52-.3,9.99-.02,19.97-.01,29.96,0,.4,0,.79.11,1.18.17,0,0-.1-.12-.1-.12Z"/>
      <path d="m789.89,337.26c.09-1.25.24-2.49.25-3.74.02-9.76.01-19.51.01-29.27v-4.1c5.53-.25,10.85-.37,16.17.05,0,0-.08-.09-.08-.09,0,12.27,0,24.53,0,37.23-5.57.02-11,.27-16.44-.17,0,0,.09.08.09.08Z"/>
      <path d="m481.59,374.43c-.68.14-1.36.39-2.04.39-9.67.03-19.35.02-29.02.01-.48,0-.96-.08-1.65-.15v-18.4h32.34c0,1.47-.02,2.81,0,4.15.09,4.69.2,9.38.31,14.06,0,0,.06-.07.06-.07Z"/>
      <path d="m415.83,205.94c.09-4.47.18-8.94.26-13.41.03-1.59,0-3.18,0-4.98h32.35v18.3c-.71.09-1.29.23-1.87.23-9.78.01-19.57.01-29.35,0-.49,0-.99-.13-1.49-.21,0,0,.09.08.09.08Z"/>
      <path d="m497.49,487.45c5.42,0,10.84,0,16.25,0,0,0-.09-.09-.09-.09,0,12.47,0,24.94,0,37.41l.08-.1h-16.33c0-1.34,0-2.45,0-3.57,0-4.94-.02-9.87,0-14.81.03-6.31.09-12.62.14-18.93,0,0-.07.1-.07.1Z"/>
      <path d="m497.76,337.17h-16.32v-36.97h15.85c.04,1.19.11,2.41.11,3.62,0,9.9,0,19.8.02,29.7,0,1.25.16,2.5.25,3.74,0,0,.1-.09.1-.09Z"/>
      <path d="m562.11,206.24h-15.73v-37.37h15.71c.08.66.24,1.3.24,1.95.02,11.05.02,22.11,0,33.16,0,.79-.2,1.57-.3,2.36,0,0,.08-.1.08-.1Z"/>
      <path d="m513.66,74.83h16.16c.04,12.53.07,24.86.11,37.19,0,0,.1-.11.1-.12-5.33,0-10.67,0-16.3,0v-37.16l-.08.1Z"/>
      <path d="m513.75,74.74h-16c-.12-.79-.31-1.43-.31-2.07-.02-11.29-.01-22.58,0-33.87,0-.46.1-.91.15-1.37l-.07.08h16.16c0,12.53,0,24.92,0,37.32,0,0,.08-.1.08-.1Z"/>
      <path d="m464.44,168.46h-15.57v-37.12c5.18,0,10.31,0,15.44,0,.65,2.42.78,33.3.12,37.12Z"/>
      <path d="m757.9,300.35v-19.05h15.78v18.5c-5.41.15-10.64.3-15.88.45l.1.1Z"/>
      <path d="m741.66,318.95c-.09,4.68-.19,9.35-.27,14.03-.02,1.34,0,2.69,0,4.5-5.56,0-10.79,0-16.02,0,0,0,.1.12.1.12,0-6.17,0-12.34,0-18.79.93-.06,1.89-.18,2.85-.16,4.47.11,8.94.26,13.4.38,0,0-.07-.09-.07-.09Z"/>
      <path d="m497.57,37.43h-16.19v-18.5h16.11c0,6.27,0,12.43,0,18.59,0,0,.07-.08.07-.08Z"/>
      <path d="m545.93,918.82h-15.44c-.73-2.75-.86-14.41-.26-18.59h15.44c.1.13.34.3.34.46-.04,6.07-.1,12.15-.16,18.23,0,0,.08-.1.08-.1Z"/>
      <path d="m627.82,900.27c-.11-2.39-.28-4.79-.31-7.19-.05-3.78-.01-7.56-.01-11.59h16.08v18.41c-5.35.08-10.6.16-15.85.25,0,0,.09.12.09.12Z"/>
      <path d="m725.35,224.79v-18.44h15.86v18.12c-2.58.81-5.26.31-7.89.37-2.68.06-5.37-.09-8.05-.15,0,0,.08.09.08.09Z"/>
      <path d="m675.99,487.24c.09-4.35.18-8.71.25-13.06.03-1.7,0-3.4,0-5.33h16.16v18.32c-5.6,0-11.05,0-16.51,0,0,0,.09.08.09.08Z"/>
      <path d="m481.3,468.79h16.19c0,6.34,0,12.5,0,18.66,0,0,.07-.1.07-.1h-16.27s.1.11.1.11c0-6.25,0-12.5-.01-18.76,0,0-.08.09-.08.09Z"/>
      <path d="m545.85,111.86c.1-2.39.27-4.78.3-7.17.05-3.54.01-7.09.01-10.88h15.67c.63,2.31.8,13.29.2,18.41-1.1,0-2.26.03-3.42,0-4.27-.12-8.54-.27-12.81-.41,0,0,.05.06.05.06Z"/>
      <path d="m725.35,393.43v-18.37h15.81v18.28c-5.38,0-10.63,0-15.89,0,0,0,.08.09.08.09Z"/>
      <path d="m757.8,300.25v18.21c-1.33.07-2.37.15-3.41.17-4.25.11-8.49.2-12.74.31,0,0,.07.09.08.1-.11-1.8-.3-3.61-.32-5.41-.05-4.42-.02-8.84-.02-13.64,2.84,0,5.39-.05,7.93.01,2.86.07,5.71.23,8.57.36,0,0-.09-.09-.09-.09Z"/>
    </g>
    <g>
      <path d="m1172.32,499.13c-.12,1.36-.34,2.71-.35,4.07-.04,4.81-.02,9.63-.02,14.92h-16.01v56.35h15.92v-18.7h16.36v-37.45h16.17c.24-4.35.09-8.45.12-12.53.03-4.03,0-8.05,0-12.08v-12.8c5.45-.1,10.69-.19,15.93-.29l-.09-.09c.12,1.7.31,3.4.33,5.1.05,4.46.02,8.92.02,13.55.66.15,1.12.34,1.58.34,15.84,0,31.68-.03,47.53-.06,0,0-.08-.09-.08-.09-.05,6.17-.09,12.35-.14,18.9h-16.09v37.23h16.19v-18.53h16.12c.13-6.5-.05-12.54.12-18.84h16.25l-.09-.11v19.04h-16.19v18.58h-16.12v18.78c-5.55.57-10.82-.06-16.39.41-.24,9.34-.08,18.62-.11,27.9-.03,9.19,0,18.38,0,27.8h-16.09v-112.06h-16.37v18.56h-16.21c-.14,4.44-.06,8.54-.07,12.63-.02,4.03,0,8.06,0,12.09v12.82h-16.27v37.45h-16.25c-.13,12.54.02,24.79-.09,37.38h-15.54c-.73,2.74-.99,68.96-.36,74.99h15.74c.4-2.96.15-6.03.19-9.09.04-3.11,0-6.22,0-9.33v-18.76c5.39-.32,10.63.03,16.2-.23v-18.73h16.32v-18.55h16.13c.23-6.34-.02-12.39.16-18.68h15.84c.59,2.58.73,32.78.12,37.13h-15.97v18.9h-16.15v37.55h-16.34v18.63h-16.24v37.06c-2.86.82-5.54.34-8.18.42-2.57.08-5.14.02-7.89.02v112.49c5.44.14,10.88.28,16.33.43l-.09-.11c-.08,1.25-.23,2.51-.23,3.76-.02,9.78-.01,19.56-.01,29.34,0,1.24,0,2.48,0,4.07h-16.03c-.06,1.65-.15,2.98-.15,4.31,0,36.71-.01,73.42,0,110.13,0,11.85.06,23.7.1,35.55h-49.16c.03-1.26.1-2.53.1-3.79,0-47.18,0-94.35,0-141.53v-4.43h-16.05c-.05-1.53-.11-2.74-.13-3.95-.09-4.93-.16-9.87-.25-14.8l-.09.11c3.98-.08,7.96-.18,11.94-.25,1.38-.03,2.76,0,4.35,0v-75.01h-15.97v-4.22c0-10,.01-20.01-.02-30.01,0-1.24-.23-2.48-.35-3.72,4.07.14,8.14.29,12.21.41,1.36.04,2.72,0,4.02,0,.64-5.34.44-53.68-.16-55.97h-15.71v3.95c0,15.98,0,31.96-.01,47.95,0,1.24-.19,2.48-.3,3.72-2.47.12-4.95.29-7.42.34-2.69.06-5.38.01-8.48.01-.15-12.54-.05-24.9-.07-37.27-.02-12.39,0-24.78,0-37.51h-16.1c-.17-6.48-.06-12.64-.08-18.79-.02-6.08,0-12.15,0-18.7-5.41-.38-10.66.03-16.28-.27.05-6.45-.18-12.71.16-18.98l-.11.13h16.27v-18.76s-.08.1-.08.1c5.35.06,10.7.11,16.29.17v56.08h16.28v18.75h15.72c.66-3.75.54-91.03-.19-93.85h-15.59v-12.73c0-4.03.02-8.06,0-12.09-.03-4.09.13-8.2-.13-12.56h-32.3v-18.49l-.08.1c1.09-.06,2.18-.16,3.28-.16,8.57-.01,17.14,0,25.71,0,1.07,0,2.13,0,3.36,0v-18.9h-16.14v-18.66h-16.12v-19.06l-.08.1h16.27v-37.41l-.08.1h16.29c.07,6.33.03,12.49.04,18.66,0,6.22,0,12.44,0,18.66v37.42h15.99v-168.57h-15.97c-.06-12.58,0-24.84-.04-37.51h-16.19v-37.27c-5.46-.49-10.71.06-16.27-.35v-37.34h-16.22c-.12-4.41-.05-8.51-.06-12.6-.01-4.03,0-8.06,0-12.09v-12.8c-5.36-.3-10.52,0-16.07-.19v-18.53h-32.48v-18.82h15.89v-37.29c2.89-.31,5.56-.13,8.21-.16,2.59-.03,5.18,0,8.16,0,.19,4.28.07,8.38.09,12.47.02,4.03,0,8.06,0,12.09v12.63h16.07c.31-5.96-.02-12.02.19-18.23.79-.11,1.45-.29,2.11-.29,4-.03,7.99-.03,11.99,0,.78,0,1.55.25,2.33.39,0,0-.07-.1-.07-.1-.05,1.15-.13,2.29-.13,3.44,0,16.12,0,32.25,0,48.37v4.05h16.12v37.53h16.28v37.47c5.42.34,10.66-.01,16.23.23v18.49h16.24v-74.73h-16.21v-4.11c0-16.12,0-32.25-.01-48.37,0-1.25-.15-2.51-.23-3.76l-.09.11c.89-.08,1.78-.24,2.67-.24,9.09-.02,18.18-.02,27.26,0,.87,0,1.74.12,2.95.2v74.74h16.34v75.03c5.73-.15,11.16.34,16.6-.31-.08,6.33-.15,12.66-.22,18.99h-16.17v37.49c5.36.18,10.56.33,16.09-.11,0-12.71,0-25.09,0-37.47,5.34.34,10.66.12,15.94.16.55-5.44.4-16.13-.27-18.77-1.43,0-2.91.02-4.39,0-3.68-.06-7.36-.15-11.03-.22-.1-2.85-.25-5.7-.3-8.55-.05-3.1-.01-6.2-.01-9.79,3.68-.17,7.22-.06,10.76-.08,3.59-.02,7.18,0,10.77,0h10.84c.09-1,.19-1.66.19-2.32.01-10.92.01-21.84,0-32.76,0-.67-.19-1.33-.29-2,0,0-.05.07-.05.07.78-.14,1.56-.4,2.33-.4,9.49-.03,18.97-.02,28.46-.01.58,0,1.16.09,1.93.15v37.3h-16.01v18.6h16.02v18.64c-5.19.47-10.45-.07-16.1.35-.2,6.04.01,12.07-.13,18.42h-16.05c-.16,6.36-.08,12.38-.04,18.89h16.18v18.51h32.57v-37.41h16.49l-.08-.09v37.62c5.37.19,10.58.11,16.07.06v-18.59h16.32v-18.72c5.59-.16,10.83-.31,16.07-.46l-.1-.1c.07,5.05.15,10.11.22,15.16.02,1.23,0,2.46,0,4.03h32.23v18.71h-64.66v18.83h-32.56v18.07c-2.39.81-11.35.98-16.02.37-.57-5.93.12-11.99-.38-18.17h-32.32v18.18c-1.03.12-1.79.27-2.56.28-3.69.03-7.39-.01-11.08.03-.98.01-1.95.25-2.93.38.07-3.11.16-6.21.19-9.31.03-3.17,0-6.35,0-9.45-4.73-.61-14.06-.42-16.09.24v18.12c1.57,0,2.95-.03,4.32,0,3.88.08,7.76.19,11.63.29.02,12.07.05,24.14.06,36.2,0,.2-.14.4-.38,1.05-1.38,0-2.94.03-4.51,0-3.67-.1-7.34-.23-11.02-.34-.11-4.45-.22-8.91-.3-13.37-.03-1.57,0-3.14,0-4.63-3.6-.69-13.91-.56-16.19.17,0,2.92,0,5.9,0,8.88.01,3.05.04,6.1.06,9.3,4.5,0,8.58.03,12.66-.02,1.28-.02,2.55-.26,3.83-.4Zm16.14-93.17v18.43c5.45.03,10.66.18,15.85-.07v-18.36h-15.85Z"/>
      <path d="m1188.48,236.45c-.47.15-.94.42-1.42.43-4.88.03-9.77.02-15.09.02-.05-4.72-.02-9.28-.02-13.84,0-4.72,0-9.44,0-14.17v-27.75c-2.78-.85-5.47-.33-8.11-.42-2.57-.09-5.15-.02-8.06-.02v-56.19h-16.21v-37.37h16.1c.21,12.25-.03,24.5.14,37.12,5.33.56,10.59-.05,16.12.4v37.19h16.22c.17-8.25.05-16.48.08-24.71.02-8.29,0-16.58,0-24.88v-25.32c1.41,0,2.57.03,3.72,0,4.07-.12,8.14-.26,12.22-.38,0,0-.04-.05-.04-.05.13,1.47.36,2.94.36,4.42.02,22.22.02,44.44.02,66.67,0,1.35,0,2.7,0,4.32,5.59.11,10.85.22,16.11.32l-.07-.08v18.57h-32.19c-.05,1.16-.12,1.94-.12,2.72,0,17.02,0,34.04,0,51.05,0,.68.13,1.36.19,2.05,0,.01.05-.08.05-.08Z"/>
      <path d="m1025.83,593.39h-16.52c-.02-18.87,0-37.31-.01-56.21-10.95-.22-21.66.06-32.64-.16v-18.98l-.08.09h32.66c.02-4.23.06-8.31.07-12.4.01-4.02,0-8.04,0-12.06s0-8.25,0-12.87c5.66-.04,11.1-.06,16.54.03,0,0-.1-.11-.1-.11-.02,24.37-.04,48.74-.05,73.11,0,.54.15,1.09.29,2h32.12v18.99l.08-.1c-10.65.02-21.3.04-31.95.07-.07,0-.15.13-.22.21-.07.08-.14.16-.27.32v18.16l.08-.09Z"/>
      <path d="m1042.13,330.63h15.96c.12,8.6.04,16.84.06,25.07.01,8.29,0,16.57,0,24.86v25.15h15.92c.11,1.1.26,1.86.26,2.61,0,24.17-.01,48.33-.03,72.5,0,0,.08-.1.08-.1-5.42,0-10.85,0-16.27,0l.09.09c-.01-23.49-.03-46.98-.04-70.47,0-1.36,0-2.71,0-4.51h-16.31v-18.89h-15.99c-.07-1.43-.18-2.55-.16-3.66.1-5.16.23-10.32.36-15.47l-.06.06h15.87c0-1.14,0-2.36,0-3.58,0-10.01-.01-20.01.02-30.02,0-1.24.22-2.48.34-3.72,0,0-.09.08-.09.08Z"/>
      <path d="m1042.04,667.99h-16.25v-18.41h-16.27v-18.76h16.02c.06-1.49.14-2.71.14-3.93.01-9.9,0-19.81.01-29.71,0-1.26.09-2.52.14-3.79,0,0-.08.09-.08.09h16.13v18.69h16.23v37.28l.08-.1c-5.34.1-10.69.19-16.27.3v18.47l.11-.13Z"/>
      <path d="m1334.25,480.54c.12,1.7.31,3.4.33,5.11.05,4.47.02,8.94.02,13.84h-16.2v18.71c-2.95,0-5.6.04-8.25.01-2.69-.03-5.38-.12-8.07-.18,0,0,.09.11.09.11-.19-6.12.19-12.27-.23-18.59-3.11,0-5.89.01-8.66,0-7.85-.05-15.7-.11-23.56-.16,0,0,.08.09.08.09v-18.7h3.54c19.24,0,38.47,0,57.71,0,1.09,0,2.19-.09,3.28-.14l-.09-.09Z"/>
      <path d="m1220.62,162.22v-19.01h16.35v-18.63c3.86-.19,7.41-.08,10.96-.1,3.49-.02,6.98,0,10.48,0h11.06c.46-6.26-.04-12.32.3-18.31,2.21-.74,12.52-.85,15.89-.16v18.39h-15.87v18.43c-2.91.55-5.58.25-8.23.3-2.69.05-5.39.01-8.08.01h-16.46v18.99c-5.74,0-11.11,0-16.47,0,0,0,.07.08.07.08Z"/>
      <path d="m1058.36,181.1c-.07-1.03-.2-2.05-.2-3.08-.01-10.56-.01-21.12,0-31.68,0-.91.07-1.82.13-3.18h16.05c0-1.69,0-2.92,0-4.16,0-9.99,0-19.97,0-29.96,0-1.26.1-2.52.15-3.77,0,0-.1.11-.1.11,5.3-.05,10.61-.11,15.91-.16l-.06-.06c.12.78.35,1.56.35,2.35.02,11.16.02,22.32,0,33.49,0,.56-.1,1.13-.19,2.11h-16.07v37.58c-2.1,0-3.86-.03-5.63,0-3.48.07-6.96.19-10.43.29,0,0,.08.11.08.11Z"/>
      <path d="m1269.73,218.07v37.65h-16.38v37.38h-15.77c-.58-2.53-.78-31.89-.21-37.28h15.97v-37.67h16.47l-.08-.09Z"/>
      <path d="m1025.83,462.07h-16.49v18.48h-15.74c-.62-2.84-.69-52.57-.07-55.93h15.73v18.65h16.34c.05,6.54.1,12.72.15,18.89l.08-.09Z"/>
      <path d="m1204.21,293.71c-2.07-.12-4.14-.3-6.21-.34-3.08-.06-6.16-.02-9.41-.02-.13-.93-.34-1.68-.34-2.43-.02-17.47-.02-34.94,0-52.42,0-.68.15-1.36.23-2.05,0,0-.06.08-.05.07,1.38.12,2.75.35,4.12.37,3.87.05,7.74.02,11.78.02.08,1.36.18,2.36.18,3.36.01,16.7.01,33.41,0,50.11,0,1.13-.22,2.26-.34,3.39,0,0,.05-.06.05-.06Z"/>
      <path d="m1318.19,386.61c.04-2.06.12-4.13.12-6.19.01-15.16,0-30.32,0-45.49v-4.02c5.54-.09,10.78-.18,16.03-.27l-.09-.09c.12.9.33,1.79.33,2.69.02,17.04.02,34.08,0,51.12,0,.68-.07,1.35-.11,2.21-.63.11-1.19.29-1.75.29-4.19.02-8.39.03-12.58,0-.68,0-1.36-.23-2.05-.35,0,0,.09.09.09.09Z"/>
      <path d="m1220.55,30.82c.04.22.12.45.12.67.01,17.91.02,35.83.02,53.74,0,.44-.1.87-.2,1.69-4.11,0-8.17.04-12.22-.02-1.38-.02-2.75-.26-4.12-.41,0,0,.04.05.03.04.11-1.24.33-2.47.33-3.7.02-16.01.02-32.01.02-48.02v-3.92h16.1l-.07-.08Z"/>
      <path d="m1334.34,480.62c.09-4.47.18-8.94.25-13.42.03-1.59,0-3.18,0-4.98h48.54v18.31c-.92.09-1.7.22-2.47.22-14.78.01-29.55.01-44.33,0-.69,0-1.39-.14-2.08-.22,0,0,.09.08.09.08Z"/>
      <path d="m1350.77,293.59v-37.51c2.81-.51,5.48-.22,8.13-.27,2.58-.05,5.16-.01,7.67-.01.74,2.72.83,33.85.12,37.44-5.29.09-10.65.17-16.01.26,0,0,.08.09.08.09Z"/>
      <path d="m1220.62,30.9c.03-11.15.06-22.3.08-33.45,0-1.26,0-2.51,0-4.03h15.89c.59,2.43.77,32.12.17,37.19-5.36.07-10.78.14-16.21.21,0,0,.07.08.07.08Z"/>
      <path d="m1269.83,330.86c-.06,4.83-.12,9.66-.17,14.49-.01,1.23,0,2.47,0,3.9h-32.39v-18.13c.57-.12,1.04-.3,1.52-.3,9.99-.02,19.97-.01,29.96,0,.4,0,.79.11,1.18.17,0,0-.1-.12-.1-.12Z"/>
      <path d="m1334.34,330.64c.09-1.25.24-2.49.25-3.74.02-9.76.01-19.51.01-29.27v-4.1c5.53-.25,10.85-.37,16.17.05,0,0-.08-.09-.08-.09,0,12.27,0,24.53,0,37.23-5.57.02-11,.27-16.44-.17,0,0,.09.08.09.08Z"/>
      <path d="m1026.05,367.81c-.68.14-1.36.39-2.04.39-9.67.03-19.35.02-29.02.01-.48,0-.96-.08-1.65-.15v-18.4h32.34c0,1.47-.02,2.81,0,4.15.09,4.69.2,9.38.31,14.06,0,0,.06-.07.06-.07Z"/>
      <path d="m960.28,199.32c.09-4.47.18-8.94.26-13.41.03-1.59,0-3.18,0-4.98h32.35v18.3c-.71.09-1.29.23-1.87.23-9.78.01-19.57.01-29.35,0-.49,0-.99-.13-1.49-.21,0,0,.09.08.09.08Z"/>
      <path d="m1041.95,480.82c5.42,0,10.84,0,16.25,0,0,0-.09-.09-.09-.09,0,12.47,0,24.94,0,37.41l.08-.1h-16.33c0-1.34,0-2.45,0-3.57,0-4.94-.02-9.87,0-14.81.03-6.31.09-12.62.14-18.93,0,0-.07.1-.07.1Z"/>
      <path d="m1042.22,330.55h-16.32v-36.97h15.85c.04,1.19.11,2.41.11,3.62,0,9.9,0,19.8.02,29.7,0,1.25.16,2.5.25,3.74,0,0,.1-.09.1-.09Z"/>
      <path d="m1106.57,199.62h-15.73v-37.37h15.71c.08.66.24,1.3.24,1.95.02,11.05.02,22.11,0,33.16,0,.79-.2,1.57-.3,2.36,0,0,.08-.1.08-.1Z"/>
      <path d="m1058.12,68.21h16.16c.04,12.53.07,24.86.11,37.19,0,0,.1-.11.1-.12-5.33,0-10.67,0-16.3,0v-37.16l-.08.1Z"/>
      <path d="m1058.2,68.11h-16c-.12-.79-.31-1.43-.31-2.07-.02-11.29-.01-22.58,0-33.87,0-.46.1-.91.15-1.37l-.07.08h16.16c0,12.53,0,24.92,0,37.32,0,0,.08-.1.08-.1Z"/>
      <path d="m1008.9,161.84h-15.57v-37.12c5.18,0,10.31,0,15.44,0,.65,2.42.78,33.3.12,37.12Z"/>
      <path d="m1302.35,293.73v-19.05h15.78v18.5c-5.41.15-10.64.3-15.88.45l.1.1Z"/>
      <path d="m1286.11,312.32c-.09,4.68-.19,9.35-.27,14.03-.02,1.34,0,2.69,0,4.5-5.56,0-10.79,0-16.02,0,0,0,.1.12.1.12,0-6.17,0-12.34,0-18.79.93-.06,1.89-.18,2.85-.16,4.47.11,8.94.26,13.4.38,0,0-.07-.09-.07-.09Z"/>
      <path d="m1042.03,30.81h-16.19V12.31h16.11c0,6.27,0,12.43,0,18.59,0,0,.07-.08.07-.08Z"/>
      <path d="m1090.38,912.2h-15.44c-.73-2.75-.86-14.41-.26-18.59h15.44c.1.13.34.3.34.46-.04,6.07-.1,12.15-.16,18.23,0,0,.08-.1.08-.1Z"/>
      <path d="m1172.27,893.64c-.11-2.39-.28-4.79-.31-7.19-.05-3.78-.01-7.56-.01-11.59h16.08v18.41c-5.35.08-10.6.16-15.85.25,0,0,.09.12.09.12Z"/>
      <path d="m1269.81,218.17v-18.44h15.86v18.12c-2.58.81-5.26.31-7.89.37-2.68.06-5.37-.09-8.05-.15,0,0,.08.09.08.09Z"/>
      <path d="m1220.45,480.62c.09-4.35.18-8.71.25-13.06.03-1.7,0-3.4,0-5.33h16.16v18.32c-5.6,0-11.05,0-16.51,0,0,0,.09.08.09.08Z"/>
      <path d="m1025.75,462.16h16.19c0,6.34,0,12.5,0,18.66,0,0,.07-.1.07-.1h-16.27s.1.11.1.11c0-6.25,0-12.5-.01-18.76,0,0-.08.09-.08.09Z"/>
      <path d="m1090.31,105.24c.1-2.39.27-4.78.3-7.17.05-3.54.01-7.09.01-10.88h15.67c.63,2.31.8,13.29.2,18.41-1.1,0-2.26.03-3.42,0-4.27-.12-8.54-.27-12.81-.41,0,0,.05.06.05.06Z"/>
      <path d="m1269.81,386.81v-18.37h15.81v18.28c-5.38,0-10.63,0-15.89,0,0,0,.08.09.08.09Z"/>
      <path d="m1302.26,293.63v18.21c-1.33.07-2.37.15-3.41.17-4.25.11-8.49.2-12.74.31,0,0,.07.09.08.1-.11-1.8-.3-3.61-.32-5.41-.05-4.42-.02-8.84-.02-13.64,2.84,0,5.39-.05,7.93.01,2.86.07,5.71.23,8.57.36,0,0-.09-.09-.09-.09Z"/>
    </g>
  </g>
  <g id="Layer_8" data-name="Layer 8">
    <g>
      <polygon class="cls-12" points="1629.51 1086.28 1629.51 1077.12 1619.99 1077.12 1619.99 1041.02 1610.47 1041.02 1610.47 1004.42 1600.12 1004.42 1600.12 968.06 1590.04 968.06 1590.04 931.45 1609.77 931.45 1609.77 949.76 1620.27 949.76 1620.27 986.37 1630.91 986.37 1630.91 1023.48 1639.58 1023.48 1639.58 1058.82 1650.22 1058.82 1650.22 1086.28 1629.51 1086.28"/>
      <polygon class="cls-1" points="1460.16 1086.28 1460.16 1068.48 1470.24 1068.48 1470.24 1013.57 1480.03 1013.57 1480.03 940.35 1490.11 940.35 1490.11 931.45 1500.19 931.45 1500.19 922.3 1509.98 922.3 1509.98 912.9 1580.24 912.9 1580.24 923.07 1590.04 923.07 1590.04 968.06 1600.12 968.06 1600.12 1004.42 1610.47 1004.42 1610.47 1041.02 1619.99 1041.02 1619.99 1077.12 1629.51 1077.12 1629.51 1086.28 1460.16 1086.28"/>
      <polygon class="cls-7" points="1469.96 1077.12 1460.16 1077.12 1460.16 1086.28 1480.31 1086.28 1480.31 1077.12 1490.11 1077.12 1490.11 1068.23 1499.91 1068.23 1499.91 1077.25 1509.98 1077.25 1509.98 1068.23 1499.91 1068.23 1499.91 1058.82 1520.06 1058.82 1520.06 1049.67 1499.63 1049.67 1499.63 1040.77 1490.11 1040.77 1490.11 1068.23 1480.03 1068.23 1480.31 1077.12 1469.96 1077.12"/>
      <polygon class="cls-7" points="1499.91 949.76 1499.91 958.66 1480.03 958.66 1480.03 967.3 1499.91 967.3 1499.91 958.66 1520.06 958.66 1520.06 949.76 1499.91 949.76"/>
      <polygon class="cls-7" points="1570.44 958.53 1590.04 958.53 1590.04 968.06 1570.44 968.06 1570.44 995.01 1560.09 995.01 1560.09 976.77 1550.57 976.77 1550.57 968.32 1570.44 968.06 1570.44 958.53"/>
    </g>
    <g>
      <polygon class="cls-12" points="27.31 1084.95 27.31 1057.41 37.32 1057.41 37.32 1003.17 47.51 1003.17 47.51 948.44 57.35 948.44 57.35 939.17 67.45 939.17 67.45 930.08 77.56 930.08 77.56 921.07 127.53 921.07 127.53 930.08 137.55 930.08 137.55 939.09 147.47 939.09 147.47 948.19 157.67 948.19 157.67 1003.01 167.68 1003.01 167.68 1057.66 177.7 1057.66 177.7 1084.95 27.31 1084.95"/>
      <polygon class="cls-7" points="47.33 1066.59 47.33 1075.85 27.31 1075.85 27.31 1084.95 47.33 1084.95 47.33 1075.85 67.27 1075.85 67.27 1066.59 77.56 1066.59 77.56 1075.77 87.66 1075.77 87.66 1066.59 77.56 1066.59 77.56 1057.49 67.54 1057.49 67.54 1048.4 57.48 1048.4 57.48 1066.68 47.33 1066.59"/>
      <polygon class="cls-7" points="147.47 1066.68 147.47 1084.95 137.55 1084.95 137.55 1066.68 127.63 1066.68 127.63 1057.66 137.55 1057.66 137.55 1039.47 147.47 1039.47 147.47 1057.66 137.55 1057.66 137.55 1066.68 147.47 1066.68"/>
      <polygon class="cls-6" points="97.58 975.55 97.58 1012.02 107.51 1012.02 107.51 975.55 127.63 975.55 127.63 966.62 107.32 966.62 107.32 948.1 97.58 948.1 97.58 966.71 77.56 966.71 77.56 975.55 97.58 975.55"/>
    </g>
    <g>
      <polygon class="cls-7" points="171.51 1090.58 171.51 926.95 181.52 926.95 181.52 908.59 291.69 908.59 291.69 917.52 301.87 917.52 301.87 926.45 311.52 926.45 311.52 1090.58 171.51 1090.58"/>
      <polygon class="cls-16" points="151.3 1090.58 151.3 926.45 161.49 926.45 161.49 917.68 171.51 917.68 171.51 908.59 181.52 908.59 181.52 926.95 171.51 926.95 171.51 1090.58 151.3 1090.58"/>
      <path class="cls-6" d="m201.91,944.8v36.38h9.65v-8.76h9.65v8.76h10.2v-8.76h-10.2v-9.43h10.2v-8.6h-9.65c-.03,2.87-.06,5.73-.09,8.6h-10.29v-9.09h10.56v-9.1h-20.03Z"/>
      <rect class="cls-6" x="241.51" y="944.8" width="9.92" height="36.38"/>
      <path class="cls-6" d="m261.63,944.8v36.38h10.01v-9.09h9.65v-9.09h10.4v-9.09h-10.4v9.09h-9.83v-9.18c3.28.03,6.55.06,9.83.08v-9.1h-19.66Z"/>
      <polygon class="cls-3" points="271.74 1081.39 271.74 1072.3 281.75 1072.3 281.75 1054.11 291.69 1054.11 291.69 1081.39 311.52 1081.39 311.52 1090.58 291.63 1090.58 291.69 1081.39 271.74 1081.39"/>
    </g>
    <g>
      <polygon class="cls-12" points="1276.49 1092.53 1276.49 1064.98 1286.5 1064.98 1286.5 1010.74 1296.7 1010.74 1296.7 956.01 1306.53 956.01 1306.53 946.75 1316.64 946.75 1316.64 937.65 1326.74 937.65 1326.74 928.64 1376.72 928.64 1376.72 937.65 1386.74 937.65 1386.74 946.66 1396.66 946.66 1396.66 955.76 1406.86 955.76 1406.86 1010.58 1416.87 1010.58 1416.87 1065.23 1426.88 1065.23 1426.88 1092.53 1276.49 1092.53"/>
      <polygon class="cls-7" points="1296.52 1074.16 1296.52 1083.42 1276.49 1083.42 1276.49 1092.53 1296.52 1092.53 1296.52 1083.42 1316.46 1083.42 1316.46 1074.16 1326.74 1074.16 1326.74 1083.34 1336.85 1083.34 1336.85 1074.16 1326.74 1074.16 1326.74 1065.06 1316.73 1065.06 1316.73 1055.97 1306.67 1055.97 1306.67 1074.25 1296.52 1074.16"/>
      <polygon class="cls-7" points="1396.66 1074.25 1396.66 1092.53 1386.74 1092.53 1386.74 1074.25 1376.81 1074.25 1376.81 1065.23 1386.74 1065.23 1386.74 1047.04 1396.66 1047.04 1396.66 1065.23 1386.74 1065.23 1386.74 1074.25 1396.66 1074.25"/>
      <polygon class="cls-6" points="1346.77 983.13 1346.77 1019.59 1356.69 1019.59 1356.69 983.13 1376.81 983.13 1376.81 974.2 1356.51 974.2 1356.51 955.68 1346.77 955.68 1346.77 974.28 1326.74 974.28 1326.74 983.13 1346.77 983.13"/>
    </g>
    <g class="cls-4">
      <rect class="cls-17" x="27.14" y="895.93" width="1623.08" height="207.45"/>
    </g>
  </g>
  <g id="Layer_7" data-name="Layer 7">
    <g>
      <g>
        <polygon class="cls-12" points="411.28 1162.5 411.28 1119.76 459.56 1119.76 459.56 951.18 507.84 951.18 507.84 780.23 560.38 780.23 560.38 610.46 611.5 610.46 611.5 439.51 511.39 439.51 511.39 524.98 458.14 524.98 458.14 695.94 404.18 695.94 404.18 869.27 360.16 869.27 360.16 1034.28 306.2 1034.28 306.2 1162.5 411.28 1162.5"/>
        <polygon class="cls-1" points="1275.74 1091.42 1275.74 1017.22 1219.08 1017.22 1219.08 788.23 1164 788.23 1164 482.92 1107.34 482.92 1107.34 445.82 1050.69 445.82 1050.69 407.66 995.6 407.66 995.6 368.43 600.59 368.43 600.59 410.84 545.5 410.84 545.5 598.47 488.85 598.47 488.85 750.07 430.62 750.07 430.62 902.72 377.11 902.72 377.11 1053.26 323.6 1053.26 323.6 1091.42 1275.74 1091.42"/>
      </g>
      <g>
        <polygon class="cls-11" points="497.18 811.9 497.18 813.71 499.54 813.71 499.54 811.64 497.1 811.64 497.1 809.42 494.64 809.42 494.66 811.9 497.18 811.9"/>
        <rect class="cls-11" x="445.8" y="765.05" width="2.42" height="2.23"/>
        <rect class="cls-11" x="443.32" y="762.82" width="2.45" height="2.23"/>
        <rect class="cls-11" x="450.71" y="758.4" width="7.26" height="2.24"/>
        <rect class="cls-11" x="435.99" y="756.19" width="2.44" height="2.21"/>
        <rect class="cls-11" x="482.37" y="798.4" width="2.46" height="2.17"/>
        <polygon class="cls-11" points="467.77 807.25 465.35 807.25 465.35 809.38 462.87 809.38 462.87 813.85 465.31 813.85 465.31 811.64 467.77 811.64 467.77 809.47 470.19 809.47 470.19 807.19 472.62 807.19 472.62 805.01 467.77 805.01 467.77 807.25"/>
        <polygon class="cls-11" points="460.45 820.53 458.03 820.53 458.03 816.09 455.58 816.09 455.58 809.45 453.12 809.45 453.12 802.79 450.67 802.79 450.67 809.45 453.1 809.45 453.1 816.09 455.55 816.09 455.55 818.33 438.45 818.33 438.45 820.54 433.55 820.54 433.55 800.55 436.01 800.53 436.01 798.34 438.45 798.34 438.45 796.14 448.21 796.14 448.21 802.79 450.67 802.79 450.67 796.12 453.11 796.12 453.11 791.69 455.51 791.69 455.51 789.48 450.66 789.48 450.66 793.89 448.21 793.89 448.21 791.73 445.76 791.73 445.76 793.89 436.01 793.89 436.01 796.14 433.53 796.14 433.53 793.89 431.14 793.89 431.14 798.33 428.67 798.33 428.67 800.62 431.16 800.62 431.16 820.57 428.67 820.57 428.67 822.75 433.57 822.75 433.57 833.85 435.98 833.85 435.98 824.97 438.45 824.97 438.45 822.73 440.88 822.73 440.88 820.52 453.07 820.52 453.07 822.75 457.95 822.75 457.95 827.21 460.49 827.21 460.49 831.63 462.87 831.63 462.87 813.85 460.45 813.85 460.45 820.53"/>
        <rect class="cls-11" x="477.52" y="793.95" width="2.41" height="2.18"/>
        <rect class="cls-11" x="479.93" y="796.14" width="2.44" height="2.17"/>
        <polygon class="cls-11" points="457.99 787.22 455.52 787.22 455.52 789.48 460.42 789.48 460.42 787.25 467.77 787.25 467.77 789.48 472.62 789.48 472.62 791.69 475.09 791.69 475.09 787.24 472.62 787.24 472.62 782.81 470.22 782.81 470.22 776.13 467.75 776.13 467.75 782.81 465.32 782.81 465.32 785.06 457.99 785.06 457.99 787.22"/>
        <polygon class="cls-11" points="501.95 816.11 501.95 813.71 499.54 813.71 499.59 816.11 501.95 816.11"/>
        <path class="cls-11" d="m501.87,762.85v-2.25h2.47v-2.18h7.28v-2.31h4.95v-2.12h-7.28v-4.46h-4.87l.07,2.23h2.4v2.23h-12.22l-.05,2.21h7.36v2.21h-2.44v2.2h-2.44v13.31h-2.44v-2.21h-7.34v-4.45h-2.49v-2.22h-2.38v-6.63h2.38v-2.26h4.91v-2.16h4.92v-2.31h-4.92v-2.16h-4.9v2.16h-21.97v-2.16h-2.47v2.16h-7.42v-2.16h-16.81v2.16h-2.68v-2.16h-4.82v6.67h2.41v4.4h2.46v.02-4.43h2.45v-2.21h2.44v-2.18h4.89v2.18h-4.89v2.21h2.45v2.21h-2.45v2.21h-4.88v2.17h-4.88v31.06h2.47v-11.05h2.45v-2.24h4.87v2.22l2.45.02v2.23h2.42v6.65h2.43v-6.69h-2.43v-2.2h2.49l-.03-8.88v.03h-2.46v4.4h-2.45v-6.64h-2.45v6.64h-7.32v-13.31h4.9v6.67h2.42v-8.9h4.89v-6.62h2.48v2.21h4.85v-2.21h-2.41v-4.44h4.86v2.21h7.33v6.68h-2.45v2.18h-2.4v2.23h-2.49v4.46h-2.42v-2.23h-2.44v4.42h-2.44v2.22h9.78v2.27h2.46v-4.44h-2.46v-4.48h2.41v-2.22h12.25v2.22s4.86,0,4.86,0v-2.25h-4.86v-2.15h-4.9v-4.46h-2.45v-2.21h4.85v-2.23h14.73v2.22h-2.45v11.09h-4.91v2.24h-2.42v2.25h-2.44v4.35h2.4v-2.19h2.47v-2.19h12.21v2.21h7.34v2.17l4.87.1v2.12h-4.87v2.29h-2.41v2.21h-2.48v2.25h-2.45v2.21h-2.46v8.85h2.49v4.45h-2.49v2.24h-12.22v2.2h17.13v2.16h2.45v2.26h2.44v-4.42h-2.44v-4.44h-2.45v-6.66h-2.45v-4.43h2.45v-2.24h2.43v-2.21h2.46v-2.22h2.38v-2.16h14.7l.04,2.16h4.8v-2.37h-4.87l.07-1.92h-4.95v-2.25h-2.4v-2.25h-2.54v-2.18h-2.33v-8.98h2.33Zm-68.32-8.87h-2.42v-2.18h2.42v2.18Z"/>
        <polygon class="cls-11" points="460.42 780.59 462.89 780.59 462.89 782.81 465.31 782.81 465.31 780.59 462.91 780.59 462.91 778.39 460.47 778.39 460.47 776.2 458.03 776.2 458.03 778.39 460.42 778.39 460.42 780.59"/>
        <rect class="cls-11" x="475.09" y="791.69" width="2.44" height="2.2"/>
      </g>
      <g>
        <polygon class="cls-11" points="1095.14 547.48 1095.14 549.29 1092.78 549.29 1092.78 547.22 1095.22 547.22 1095.22 545 1097.68 545 1097.65 547.48 1095.14 547.48"/>
        <rect class="cls-11" x="1144.1" y="500.63" width="2.42" height="2.23"/>
        <rect class="cls-11" x="1146.55" y="498.4" width="2.45" height="2.23"/>
        <rect class="cls-11" x="1134.35" y="493.98" width="7.26" height="2.24"/>
        <rect class="cls-11" x="1153.89" y="491.77" width="2.44" height="2.21"/>
        <rect class="cls-11" x="1107.48" y="533.98" width="2.46" height="2.17"/>
        <polygon class="cls-11" points="1124.55 542.83 1126.97 542.83 1126.97 544.96 1129.45 544.96 1129.45 549.43 1127.01 549.43 1127.01 547.22 1124.54 547.22 1124.54 545.05 1122.13 545.05 1122.13 542.77 1119.7 542.77 1119.7 540.59 1124.55 540.59 1124.55 542.83"/>
        <polygon class="cls-11" points="1131.87 556.11 1134.28 556.11 1134.28 551.67 1136.74 551.67 1136.74 545.03 1139.19 545.03 1139.19 538.37 1141.65 538.37 1141.65 545.03 1139.22 545.03 1139.22 551.67 1136.77 551.67 1136.77 553.91 1153.87 553.91 1153.87 556.12 1158.77 556.12 1158.77 536.13 1156.31 536.11 1156.31 533.92 1153.87 533.92 1153.87 531.72 1144.11 531.72 1144.11 538.37 1141.65 538.37 1141.65 531.7 1139.21 531.7 1139.21 527.27 1136.81 527.27 1136.81 525.06 1141.66 525.06 1141.66 529.47 1144.11 529.47 1144.11 527.31 1146.56 527.31 1146.56 529.47 1156.31 529.47 1156.31 531.72 1158.79 531.72 1158.79 529.47 1161.18 529.47 1161.18 533.91 1163.65 533.91 1163.65 536.2 1161.16 536.2 1161.16 556.14 1163.65 556.14 1163.65 558.33 1158.75 558.33 1158.75 569.43 1156.34 569.43 1156.34 560.55 1153.87 560.55 1153.87 558.31 1151.43 558.31 1151.43 556.1 1139.25 556.1 1139.25 558.33 1134.37 558.33 1134.37 562.79 1131.83 562.79 1131.83 567.21 1129.45 567.21 1129.45 549.43 1131.87 549.43 1131.87 556.11"/>
        <rect class="cls-11" x="1112.38" y="529.53" width="2.41" height="2.18"/>
        <rect class="cls-11" x="1109.95" y="531.72" width="2.44" height="2.17"/>
        <polygon class="cls-11" points="1134.33 522.8 1136.8 522.8 1136.8 525.06 1131.9 525.06 1131.9 522.83 1124.55 522.83 1124.55 525.06 1119.7 525.06 1119.7 527.27 1117.23 527.27 1117.23 522.82 1119.7 522.82 1119.7 518.38 1122.1 518.38 1122.1 511.71 1124.57 511.71 1124.57 518.38 1126.99 518.38 1126.99 520.64 1134.33 520.64 1134.33 522.8"/>
        <polygon class="cls-11" points="1090.37 551.69 1090.37 549.29 1092.78 549.29 1092.73 551.69 1090.37 551.69"/>
        <path class="cls-11" d="m1092.78,498.43v8.98h-2.33s0,2.18,0,2.18h-2.54s0,2.25,0,2.25h-2.4s0,2.25,0,2.25h-4.95s.07,1.92.07,1.92h-4.87s0,2.37,0,2.37h4.8s.04-2.16.04-2.16h14.7v2.16s2.38,0,2.38,0v2.22s2.46,0,2.46,0v2.21s2.43,0,2.43,0v2.24s2.45,0,2.45,0v4.43h-2.45s0,6.66,0,6.66h-2.45s0,4.44,0,4.44h-2.44s0,4.42,0,4.42h2.44s0-2.26,0-2.26h2.45s0-2.16,0-2.16h17.13s0-2.2,0-2.2h-12.22v-2.24s-2.49,0-2.49,0v-4.45h2.49s0-8.85,0-8.85h-2.46v-2.21s-2.45,0-2.45,0v-2.25s-2.48,0-2.48,0v-2.21s-2.41,0-2.41,0v-2.29s-4.87,0-4.87,0v-2.12s4.87-.1,4.87-.1v-2.17h7.34s0-2.21,0-2.21h12.21v2.19s2.47,0,2.47,0v2.19s2.4,0,2.4,0v-4.35s-2.44,0-2.44,0v-2.25s-2.42,0-2.42,0v-2.24s-4.91,0-4.91,0v-11.09s-2.45,0-2.45,0v-2.22h14.73v2.23s4.85,0,4.85,0v2.21h-2.44s-.01,4.46-.01,4.46h-4.9s0,2.15,0,2.15h-4.86s0,2.25,0,2.25h4.87s0-2.22,0-2.22h12.25v2.22s2.41,0,2.41,0v4.48h-2.46s0,4.44,0,4.44h2.46s0-2.27,0-2.27h9.78s0-2.22,0-2.22h-2.44v-4.42s-2.44,0-2.44,0v2.23h-2.42v-4.46s-2.49,0-2.49,0v-2.23s-2.4,0-2.4,0v-2.18s-2.45,0-2.45,0v-6.68h7.33s0-2.21,0-2.21h4.86v4.44h-2.41s0,2.21,0,2.21h4.85s0-2.21,0-2.21h2.48v6.62s4.89,0,4.89,0v8.9s2.42,0,2.42,0v-6.67h4.9v13.31h-7.32v-6.64s-2.45,0-2.45,0v6.64h-2.45v-4.4s-2.46,0-2.46,0v-.03l-.03,8.88h2.49v2.2h-2.43s0,6.69,0,6.69h2.43s0-6.65,0-6.65h2.42s0-2.23,0-2.23l2.45-.02v-2.22h4.87v2.24s2.45,0,2.45,0v11.05s2.47,0,2.47,0v-31.06s-4.88,0-4.88,0v-2.17s-4.88,0-4.88,0v-2.21s-2.45,0-2.45,0v-2.21h2.45s0-2.21,0-2.21h-4.89v-2.18h4.89v2.18s2.44,0,2.44,0v2.21s2.44,0,2.44,0v4.43s0-.02,0-.02h2.46s0-4.4,0-4.4h2.41s0-6.67,0-6.67h-4.82s0,2.16,0,2.16h-2.68v-2.16s-16.81,0-16.81,0v2.16h-7.42v-2.16s-2.47,0-2.47,0v2.16h-21.97v-2.16s-4.9,0-4.9,0v2.16h-4.92s0,2.31,0,2.31h4.92v2.16s4.91,0,4.91,0v2.26s2.38,0,2.38,0v6.63h-2.38s0,2.22,0,2.22h-2.49s0,4.45,0,4.45h-7.34s0,2.21,0,2.21h-2.44v-13.31s-2.44,0-2.44,0v-2.2s-2.44,0-2.44,0v-2.21h7.36s-.05-2.21-.05-2.21h-12.22v-2.23h2.4s.07-2.23.07-2.23h-4.87s0,4.46,0,4.46h-7.28s0,2.12,0,2.12h4.95v2.31s7.28,0,7.28,0v2.18s2.47,0,2.47,0v2.25s2.33,0,2.33,0Zm65.98-11.05h2.42v2.18h-2.42v-2.18Z"/>
        <polygon class="cls-11" points="1131.9 516.17 1129.43 516.17 1129.43 518.38 1127.01 518.38 1127.01 516.17 1129.41 516.17 1129.41 513.97 1131.85 513.97 1131.85 511.78 1134.29 511.78 1134.29 513.97 1131.9 513.97 1131.9 516.17"/>
        <rect class="cls-11" x="1114.8" y="527.27" width="2.44" height="2.2"/>
      </g>
    </g>
    <text class="cls-9" transform="translate(564.49 647.33)"><tspan x="0" y="0">Allison Cravinho</tspan></text>
    <text class="cls-8" transform="translate(664.46 536.34)"><tspan x="0" y="0">Here Lies:</tspan></text>
    <text class="cls-8" transform="translate(619.46 725.37)"><tspan x="0" y="0">(</tspan><tspan class="cls-13" x="25.02" y="0"></tspan><tspan x="40.02" y="0">s Po</tspan><tspan class="cls-2" x="165.06" y="0">rt</tspan><tspan x="220.02" y="0">folio)</tspan></text>
  </g>
</svg>