<?xml version="1.0" encoding="UTF-8"?>
<svg xmlns="http://www.w3.org/2000/svg" viewBox="0 0 1463.11 1044.57">
  <defs>
    <style>
      .cls-1 {
        fill: #b7b7b7;
      }

      .cls-2 {
        fill: #4d4d4d;
      }

      .cls-3 {
        opacity: .29;
      }

      .cls-4 {
        fill: #04102b;
      }

      .cls-5 {
        fill: #333;
      }

      .cls-6 {
        fill: gray;
      }

      .cls-7 {
        fill: #e2e093;
      }

      .cls-8 {
        fill: #999;
      }

      .cls-9 {
        fill: #091d3a;
      }

      .cls-10 {
        fill: #071833;
      }

      .cls-11 {
        fill: #666;
      }

      .cls-12 {
        fill: #020a26;
      }
    </style>
  </defs>
  <g id="Layer_6" data-name="Layer 6">
    <rect class="cls-12" x="0" y=".07" width="1463.11" height="1044.51"/>
    <polygon class="cls-4" points="0 958.03 63.06 958.03 63.06 885.37 116.42 885.37 116.42 857.3 154.02 857.3 154.02 799.5 207.39 799.5 207.39 768.13 228.01 768.13 228.01 735.1 251.05 735.1 293.5 735.1 400.24 735.1 400.24 713.63 516.67 713.63 516.67 692.16 542.14 692.16 542.14 669.05 636.75 669.05 636.75 626.11 815.04 626.11 815.04 606.3 904.79 606.3 904.79 579.78 1109.77 579.78 1109.77 531.99 1354.17 531.99 1351.13 285.94 1391.16 285.94 1391.16 150.53 1443.31 149.71 1443.31 .07 0 .07 0 958.03"/>
    <polygon class="cls-10" points="-.01 814.36 48.5 814.36 48.5 763.17 116.66 763.17 116.66 680.61 218.32 680.61 218.32 649.23 370.8 649.23 370.8 589.78 399.68 589.78 399.68 563.36 450.51 563.36 450.51 541.89 602.99 541.89 602.99 512.17 786.67 512.17 786.67 479.05 800.53 479.05 800.53 446.12 874.46 446.12 874.46 416.39 1016.55 416.39 1016.55 381.72 1085.86 381.72 1085.86 340.43 1190.4 340.43 1189.83 105.95 1241.81 104.3 1241.81 .07 0 .07 -.01 814.36"/>
    <polygon class="cls-9" points="-.01 642.63 37.69 642.63 37.69 593.09 155.26 593.09 155.26 565.01 215.15 565.01 215.15 528.68 318.29 528.68 318.29 467.59 486.87 467.59 486.87 407.21 644.37 407.21 644.37 343.74 724.22 343.74 724.22 269.43 826.26 269.43 826.26 188.51 847.33 188.51 847.33 119.16 888.36 119.16 888.36 56.41 957.13 56.41 957.13 .07 0 .07 -.01 642.63"/>
    <polygon class="cls-7" points="314.28 147.66 321.26 159.4 315.47 162.84 319.11 168.96 313.24 172.46 320.28 184.28 314.16 187.92 317.65 193.79 305.91 200.78 309.55 206.9 303.43 210.54 306.92 216.41 295.18 223.4 298.72 229.35 280.78 240.03 284.32 245.98 242.81 270.68 239.27 264.73 221.32 275.4 217.78 269.45 205.87 276.53 202.38 270.66 196.59 274.11 192.9 267.91 180.99 274.99 177.58 269.24 171.62 272.79 164.56 260.92 158.52 264.51 154.88 258.39 149.1 261.84 142.11 250.09 136.16 253.64 125.48 235.69 119.52 239.23 94.83 197.72 100.78 194.18 90.1 176.23 96.22 172.59 89.38 161.1 95.09 157.7 91.4 151.5 97.52 147.86 90.48 136.04 96.44 132.49 92.9 126.54 104.8 119.46 101.21 113.42 107 109.98 103.46 104.02 115.45 96.89 111.86 90.85 129.64 80.27 126.24 74.57 167.75 49.87 171.29 55.82 189.16 45.2 192.55 50.9 204.46 43.82 208.2 50.1 214.07 46.61 217.46 52.31 229.37 45.23 232.91 51.18 238.87 47.64 245.9 59.47 251.86 55.92 255.6 62.21 261.39 58.76 268.32 70.42 256.58 77.41 253.14 71.62 247.1 75.21 243.41 69.01 231.67 76 228.12 70.04 186.61 94.74 190.11 100.61 178.2 107.7 181.84 113.82 175.8 117.41 179.34 123.36 173.39 126.9 176.88 132.78 170.85 136.37 177.98 148.36 172.19 151.8 196.89 193.31 202.76 189.82 209.95 201.89 215.82 198.4 219.21 204.11 225.17 200.56 228.76 206.6 234.71 203.06 238.4 209.26 250.14 202.27 253.44 207.81 295.28 182.92 291.89 177.21 303.8 170.13 300.16 164.01 306.11 160.47 302.81 154.36 314.28 147.66"/>
    <g>
      <path d="m70.07,170.63c.11.79.32,1.59.32,2.38.02,11.32.02,22.65,0,33.97,0,.57-.09,1.14-.17,2.1h-14.63c-.27,13.03.03,25.7-.17,38.36-4.92-.11-9.85-.21-15-.33v-18.74h-14.59c-.52,5.02-.37,35.03.23,37.9h14.43v57h15.02v18.64h14.67c.54-6.31.33-53.96-.32-56.8h-14.38c0-1.5,0-2.64,0-3.79,0-5.26.02-10.51,0-15.77-.03-6.07-.09-12.14-.13-18.21h30.11v37.71h14.93v-18.86h15.11v-38.07h14.87v-56.98c5.23-.06,10.17-.11,15.11-.16l-.07-.1c.02,18.98.05,37.97.07,56.96h14.93v-38.03c5.18,0,10.03,0,14.88,0,.06,6.35.11,12.69.17,19.12h14.68v-19.04h-14.92c.05-3.72.14-7.44.14-11.16,0-21.55-.03-43.1-.05-64.64l-.11.13h15.02c.15,18.79-.03,37.63.1,56.86h14.87v38.04h-14.82c-.21,6.39.01,12.51-.15,18.98h-14.74v95.02c-5.05.3-9.88-.03-15.09.22-.06,5.14-.02,10.11-.03,15.08,0,5.03,0,10.05,0,15.08v45.85h-14.88v18.96h-29.47c-.6,2.86-.8,30.5-.34,37.62,1.9.7,24.97.95,29.71.27v-18.61h29.87c.23-5.01.08-9.75.11-14.48.03-4.67,0-9.35,0-14.02v-28.69h14.91c.01-16.08,0-31.81,0-47.54,0-15.65,0-31.3,0-46.88,2.03-.86,10.17-1.07,14.58-.45.62,2.43.8,90.24.13,94.77h-14.57v37.98c4.8.3,9.63-.03,14.41.19.64,2.57.79,14.07.24,18.9h-14.61v38.09h14.73v19.12h-14.73c-.33,3.38-.14,6.5-.17,9.59-.03,3.15,0,6.31,0,9.47v9.12c0,3.15,0,6.29,0,9.9h-14.9v18.96h-14.97v18.97c-5.03.26-9.86-.04-14.81.19v18.58c.6.1,1.12.26,1.65.26,13.9.01,27.8.01,41.7,0,.37,0,.73-.09,1.1-.14l-.08-.09c.11,1.73.29,3.45.31,5.18.04,4.54.01,9.07.01,13.98h-59.49c-.66,3.41-.27,6.55-.34,9.64-.07,3.01-.01,6.01-.01,9.37h-14.71v95.14c4.99.14,10,.29,15.01.43l-.08-.11c-.07,1.27-.21,2.54-.21,3.82-.01,16.24,0,32.48,0,48.72,0,1.28,0,2.56,0,4.33h-14.74v76.17h14.58v37.95h-14.59c-.07,1.49-.16,2.51-.16,3.53,0,48.84,0,97.68,0,146.52,0,.7.06,1.4.09,2.1h-45.3c.03-.58.09-1.16.09-1.75,0-61.8,0-123.6,0-185.4,0-.89-.14-1.77-.25-2.99h-14.66v-34.26c0-3.86.02-7.71,0-11.57-.02-3.68.1-7.37-.1-11.34h-14.73v-37.74h14.93v37.62h14.5c.59-4.68.42-54.3-.25-57.08h-14.36v-12.91c0-4.09.02-8.18,0-12.27-.02-4.15.11-8.32-.1-12.74h-14.94v-18.95h-14.92v-18.71h-15.42c0-6.55,0-13.09,0-19.64,4.93.06,9.86.11,14.79.15.14,0,.29-.24.72-.62v-18.52l-.08.1c3.89.02,7.78.08,11.67.05,1.16,0,2.31-.25,3.47-.38,0,6.39,0,12.76,0,19.32h14.64v-18.92c-1.45,0-2.72.03-3.98,0-3.57-.09-7.15-.19-10.72-.29-.06-12.46-.13-24.91-.2-37.73h-14.88l.08.1c-.03-6.23-.06-12.47-.09-18.98h-15.41c0-12.62,0-25.25,0-37.87,5.09-.08,10.19-.15,15.26-.23v-18.71h-15.26c0-6.55,0-13.09,0-19.64,4.94.05,9.89.1,14.83.13.14,0,.28-.26.55-.53.02-.53.08-1.22.08-1.9,0-30.8-.02-61.61-.03-92.41,4.92-.1,9.85-.14,14.95.02v18.98c0,3.15-.03,6.31,0,9.46.03,3.1-.17,6.22.19,9.57h14.85v18.58c3.84.67,12.9.49,14.67-.21v-56.58h-14.74v-19.13h-15.08v-38.07h-14.84v-37.94h-15.44c0-25.48,0-50.96,0-76.44,4.93.06,9.86.13,14.79.17.14,0,.29-.23.7-.59v-18.24h14.85v-19.27h14.94c.23-3,.08-6.1.11-9.19.02-3.01,0-6.02,0-9.39,1.18-.07,2.15-.14,3.12-.17,3.83-.13,7.67-.24,11.5-.36l-.05-.06Zm75.38,171.57v-19.09c0-3.16-.03-6.31,0-9.46.03-3.1-.17-6.22.2-9.63h14.45c.54-5.46.36-35.24-.18-37.58h-14.58v18.88h-29.88v18.87h-14.63c-.62,3.46-.56,72.96.07,75.97,4.76.09,9.57.34,14.68-.17v-18.74h14.87v-19.05h14.98Zm-14.96,228.34v-37.78c5.14-.23,9.98.09,14.98-.21v-19.01h29.51c.66-4.3.51-54.45-.1-56.86h-14.6v18.86h-14.91v18.83c-5.11.51-9.95-.15-15.03.43v18.73h-14.45c-.58,4.11-.48,54.3.09,56.99h14.51Zm-74.99-57.04v54.36c0,3.62-.02,7.24,0,10.86.03,3.57-.13,7.15.1,10.64h14.66v-94.83h-14.71c-.15-6.6.06-12.74-.13-18.79-4.46-.67-12.92-.47-14.78.29v37.47h14.85Zm74.79-37.84h-14.57v18.71h14.57v-18.71Zm.31-228.6h14.69v-18.74h-14.69v18.74Zm-74.93,418.36h14.58v-18.47h-14.58v18.47Z"/>
      <path d="m25.61,152.05c-5.17-.02-10.34-.03-15.51-.05v-37.87h15.51v37.92Z"/>
      <path d="m10.11,627.47v-37.87c5.17.02,10.34.03,15.51.05,0,0-.08-.1-.08-.1,0,12.65,0,25.31,0,37.96l.08-.1c-5.17.02-10.34.04-15.51.06Z"/>
      <path d="m25.61,399.61c-5.17-.02-10.34-.04-15.51-.06,0-6.55,0-13.09,0-19.64,2.19.12,4.37.29,6.56.33,2.83.06,5.66.01,8.84.01.03,6.65.07,13,.1,19.34Z"/>
      <path d="m250.65,247.68c-.11-.91-.32-1.82-.32-2.73-.02-11.1-.02-22.19,0-33.29,0-.69.09-1.38.17-2.5h14.8v-57.03c5.12-.1,9.96-.19,14.8-.28l-.08-.09c.11,1.38.31,2.75.31,4.13.02,22.54.01,45.07.01,67.61v4.5h14.88c.07,9.77.02,19.17.03,28.57,0,9.42,0,18.85,0,28.69h14.93v18.69h-29.76v-75.15c-2.22-.83-11.41-1.01-15.03-.32v18.78c-1.39,0-2.46-.03-3.53,0-3.75.11-7.51.24-11.26.36,0,0,.05.06.05.06Z"/>
      <path d="m115.81,133.32c-.1,1.26-.27,2.52-.27,3.78-.02,16.24-.01,32.48-.01,48.72,0,1.26,0,2.51,0,4.15h-15.05v56.57c-2.21.89-11.98,1.01-14.82.25v-75.59h14.71c.14-6.6.05-12.85.07-19.1.02-6.19,0-12.37,0-18.37.31-.33.45-.61.59-.61,4.69-.04,9.38-.06,14.07-.06.26,0,.52.22.77.33l-.05-.07Z"/>
      <path d="m160.41,114.21v-38.23h29.85v-19.01h29.86v18.93h-29.79v18.87h-14.84c-.1,6.73-.2,13.09-.29,19.44,0,0,.11-.13.11-.13-5,0-9.99,0-14.99,0l.09.12Z"/>
      <path d="m115.86,133.38c-.11-.79-.31-1.59-.32-2.38-.02-11.33-.02-22.65,0-33.98,0-.57.09-1.14.17-2.08h14.58c.32-9.75.1-19.15.14-28.55.04-9.33,0-18.67,0-28.43,1.12-.06,2.09-.12,3.05-.15,3.94-.1,7.89-.19,11.83-.28,0,0-.09-.1-.09-.1.07,1.04.19,2.09.19,3.13.01,16.94.01,33.89,0,50.83,0,1.02-.08,2.04-.14,3.37h-14.84c0,4.46-.02,8.62-.02,12.78,0,4.09,0,8.18,0,12.27s0,8.39,0,12.81c-.87.13-1.57.31-2.27.32-3.22.03-6.44-.01-9.66.03-.9.01-1.8.22-2.7.34,0,0,.05.07.05.07Z"/>
      <path d="m235.41,322.99v38.04c4.96.72,9.81-.05,14.74.49v18.62h-14.61c-.28,3.53-.13,6.76-.14,9.97,0,3.15.07,6.29.11,9.44,0,0,.07-.09.07-.09h-14.79c-.62-3.06-.68-72.53-.09-76.11,4.89-.09,9.83-.18,14.78-.26,0,0-.07-.09-.07-.09Z"/>
      <path d="m70.16,133.26c-2.66-.1-5.31-.24-7.97-.3-2.1-.05-4.2-.01-6.63-.01v-38.05h-14.87c-.1-1.11-.2-1.78-.2-2.45-.01-11.22-.01-22.44,0-33.66,0-.81.13-1.62.19-2.43l-.09.1c3.76.09,7.52.19,11.28.28,1.08.02,2.17,0,3.56,0v38.07h14.8c.07,1.27.16,2.08.16,2.88,0,10.86.01,21.71,0,32.57,0,1.03-.2,2.06-.3,3.08,0,0,.07-.08.07-.08Z"/>
      <path d="m250.6,247.62c-.1,1.26-.28,2.51-.28,3.77-.02,22.38-.01,44.75-.01,67.13v4.52c-5.09.27-9.99.37-14.9-.05,0,0,.07.09.07.09-.03-3.96-.08-7.92-.08-11.88,0-19.92,0-39.84,0-59.76,0-1.25,0-2.51,0-4.18,3.62,0,6.98-.04,10.34.02,1.64.03,3.27.26,4.91.4,0,0-.05-.06-.05-.06Z"/>
      <path d="m145.48,170.98v-56.93c5.11.02,10.02-.21,14.93.16,0,0-.09-.12-.09-.12-.02,18.73-.04,37.46-.06,56.19,0,.09-.09.19-.14.28-.06.09-.12.17-.23.32h-14.49l.07.1Z"/>
      <path d="m235.74,533.1c-.11-1.38-.31-2.75-.32-4.13-.04-5.01-.02-10.01-.02-15.38h14.84v-18.78h14.97v18.44c-4.83.66-9.68-.06-14.79.45v18.63c-.99.14-1.68.33-2.38.33-3.22.03-6.44-.01-9.66.03-.9.01-1.8.22-2.7.34l.05.06Z"/>
      <path d="m145.69,685.28c-.08-.8-.23-1.61-.23-2.41-.01-11.3-.01-22.61,0-33.91,0-.57.08-1.15.15-1.96h14.62v37.85c-1.39,0-2.64-.03-3.9,0-3.56.1-7.12.23-10.69.35,0,0,.07.08.07.08Z"/>
      <path d="m250.16,38.11v18.43h-29.67v-18.13c1.96-.73,25.02-.98,29.67-.3Z"/>
      <path d="m145.33,37.53c.04-10.97.08-21.95.12-32.92,0-1.39,0-2.78,0-4.11,2.07-.81,11.39-.96,14.74-.26v37c-.1.11-.23.4-.37.4-4.86-.04-9.71-.12-14.57-.19,0,0,.08.09.08.09Z"/>
      <path d="m130.74,723.1c-.1-.79-.28-1.59-.28-2.38-.02-11.16-.01-22.32,0-33.47,0-.67.07-1.34.13-2.39,4.42,0,8.69-.02,12.97.02.71,0,1.43.26,2.14.4,0,0-.07-.08-.06-.07-.06,1.28-.17,2.54-.17,3.81-.01,9.89,0,19.79,0,29.68,0,1.25,0,2.49,0,4.03-5.14.08-9.97.16-14.79.25,0,0,.08.12.08.12Z"/>
      <path d="m40.53,189.91h-14.99c0-12.8,0-25.38,0-37.96h14.91c.03,12.88.05,25.42.08,37.96Z"/>
      <path d="m70.12,170.69c.1-.67.27-1.34.28-2.01.02-11.25.01-22.5,0-33.75,0-.56-.15-1.12-.23-1.68,0,0-.07.08-.08.09,1.45-.13,2.9-.35,4.35-.38,3.56-.06,7.12-.02,10.87-.02v37.71c-.39.12-.82.35-1.25.36-4.13.03-8.26.04-12.39,0-.53,0-1.07-.25-1.6-.39,0,0,.05.06.05.06Z"/>
      <path d="m235.68,418.73c-.1,1.26-.27,2.52-.27,3.78-.02,9.91-.01,19.81-.01,29.72,0,1.26,0,2.52,0,4h-14.89v-37.45c.29-.12.62-.37.96-.37,4.32-.03,8.63-.03,12.95,0,.44,0,.88.26,1.32.39l-.05-.07Z"/>
      <path d="m100.25,132.8h-14.26c-.57-2.67-.77-31.87-.28-37.37,1.94-.73,11.4-.86,14.54-.15v37.52Z"/>
      <path d="m295.17,475.23h-14.68v-18.5h14.45c.62,2.95.23,6.08.28,9.16.05,3.14-.07,6.29-.12,9.43,0,0,.07-.09.07-.09Z"/>
      <path d="m235.68,133.32c-.1,2.66-.24,5.31-.27,7.97-.05,3.37-.01,6.73-.01,10.03-2.11.85-12.05.97-14.95.22v-18.18c.44-.13.87-.37,1.29-.37,4.13-.03,8.26-.04,12.39,0,.53,0,1.06.26,1.6.4l-.05-.07Z"/>
      <path d="m235.68,533.04c-.1,2.42-.24,4.85-.28,7.27-.05,3.6-.01,7.19-.01,11.04h-14.89v-18.19c.18-.11.42-.39.66-.39,4.5-.04,9.01-.06,13.51-.04.35,0,.7.24,1.05.37,0,0-.05-.06-.05-.06Z"/>
      <path d="m235.73,133.38c-.11-1.73-.3-3.45-.32-5.18-.05-4.54-.02-9.08-.02-13.57,2.09-.75,11.51-.89,14.74-.23v18.25c-.71.1-1.41.28-2.11.29-3.22.03-6.44-.01-9.65.03-.9.01-1.8.22-2.7.34,0,0,.05.07.05.07Z"/>
      <path d="m235.73,418.8c-.11-1.48-.32-2.96-.31-4.44.02-4.97.11-9.94.17-14.9,0,0-.07.09-.07.09,4.83,0,9.67,0,14.64,0v18.83c-1.05,0-2.02-.02-2.99,0-3.83.11-7.67.23-11.49.35,0,0,.05.07.05.07Z"/>
      <path d="m190.05,589.45c.08-3.6.18-7.21.23-10.81.04-2.44,0-4.89,0-7.26,2.02-.85,10-1.07,14.59-.46.63,2.48.75,14.49.15,18.46-4.99,0-10.02,0-15.06,0,0,0,.08.08.08.08Z"/>
      <path d="m40.69,56.37c-1.91.13-3.82.32-5.73.36-3.01.06-6.02.02-9.21.02v-18.32c1.83-.75,10.77-.94,14.64-.23.07,6.05.13,12.17.2,18.28,0,0,.09-.11.09-.11Z"/>
      <path d="m220.17,399.63v18.48h-14.61c-.33-6.1-.2-12.19-.07-18.48h14.68Z"/>
      <path d="m205.62,551.83h14.53v18.73c-2.42.03-4.77.08-7.13.1-2.38.02-4.76,0-7.07,0-.67-2.66-.85-13.31-.33-18.83Z"/>
      <path d="m220.11,152.2v18.24c-1.88.77-11.01.93-14.54.22v-18.45h14.54Z"/>
      <path d="m220.14,475.26h-14.54v-18.57h14.54v18.57Z"/>
    </g>
    <g>
      <path d="m1379.43,1031.39c-.08-1.51-.24-3.03-.24-4.54-.01-79.64-.01-159.28-.01-238.92,0-1.63,0-3.25,0-5.3h-14.01v-35.75h-14v-17.73h-13.93v-35.43c2.21-.32,4.5-.12,6.78-.15,2.23-.03,4.46,0,7.03,0v17.63h13.95v17.68h14.01v-35.24h-13.88c-.05-6.03-.1-11.85-.15-18h-13.83v-17.63h-14.07v-35.62h-13.91v-17.83h-42.11c-.06-5.97-.06-11.59.01-17.58,4.61-.46,9.15.04,13.94-.32.04-1.22.11-2.37.11-3.53,0-9.4,0-18.79.01-28.19,0-1.2.09-2.39.13-3.59l-.06.08h13.85v17.51h27.94v17.73c4.71.28,9.23-.02,13.99.19v16.95c2.07.82,10.54.97,13.89.32v-35.02h-13.73v-35.72h-14.11v-35.63h-13.9v-35.47h-14c-.17-11.89.02-23.51-.11-35.52h-27.94v-17.92h-13.91v-17.54c-2.54-.46-4.84-.21-7.12-.25-2.32-.04-4.65,0-6.97,0h-13.98v-18.28l-.08.09c.94.09,1.87.25,2.81.25,7.39.02,14.78.01,22.17.01h3v17.66c2.48.48,4.77.21,7.04.25,2.21.04,4.43,0,6.91,0v17.67c4.78.05,9.28.06,14.08-.02.04-1.4.1-2.56.1-3.72,0-9.49,0-18.98.01-28.47,0-1.19.09-2.39.14-3.58l-.1.13h13.9v35.73h14.12v17.93h13.89v35.58h14.05v35.19h13.68c.5-5.54.31-103.92-.26-106.56h-13.53v-35.67l-.07.08h28.13v-53.03h13.93c.17,5.83.06,11.68.08,17.52.02,5.77,0,11.54,0,17.54h13.94v-35.29h-13.78v-53.38h13.96c0-4.2-.04-8,.01-11.79.03-2.16.2-4.33.3-6.49l-.05.06h13.6v-70.39c.82-.13,1.39-.29,1.96-.29,3.44-.02,6.88-.03,10.33,0,.67,0,1.34.24,2.01.37l-.06-.1c-.04,9.17-.08,18.34-.12,27.51,0,2.39,0,4.79,0,6.97.22.28.28.37.34.44.06.07.14.17.2.17,9.12.05,18.23.1,27.35.15v17.71c-9.25.06-18.5.13-27.94.19v35.56h-14.04v106.74h-13.72v53.04h13.78v-35.48h14.1v-70.92h13.92c-.01,46.69-.02,93.38-.02,140.07,0,.62.11,1.24.21,2.26h13.73v53.12c-4.66.01-9.32.03-13.98.04v-17.48c-4.74-.41-9.26.1-13.87-.32-.12-6.05.07-11.79-.12-17.65h-13.64c-.58,4.45-.42,104.28.19,106.87h13.56c-.01,22.25-.02,44.5-.04,66.75,0,1.3-.07,2.61-.11,3.92-3.68.1-7.37.18-11.05.28-.91.02-1.81.08-2.87.13,0,3.23,0,6.06,0,8.89.01,2.9.04,5.81.06,8.69h13.8v-18.1c.24.11.48.31.72.31,4.21.02,8.41.01,12.62-.02.22,0,.44-.26.89-.55v-17.17h13.85v36.07c-3.03-.62-11.95-.45-13.95.34v11.67c0,3.82.01,7.65,0,11.47-.02,3.88.08,7.76-.08,11.95h-13.92v17.61h-13.73c-.51,5.11-.35,68.68.15,71.03h13.63v-17.29c2.98-.69,11.94-.59,13.84.11v17.41h-13.91v53.42h-13.96v4.31c0,62.5,0,125,0,187.5,0,1.2.05,2.4.08,3.6h-41.84Z"/>
      <path d="m1463.11,302.19c-4.66.02-9.32.03-13.98.05v-35.65c1.2-.05,2.2-.1,3.2-.14,3.59-.11,7.19-.22,10.78-.33v36.07Z"/>
      <path d="m1252.65,195.54c.1-1.18.29-2.35.29-3.53.02-9.4.01-18.8.01-28.19v-3.91h13.94v-17.99h-13.77v-17.52h13.86v16.81c2.1.78,10.03.95,13.87.34.06-1.17.17-2.42.17-3.68.01-20.98,0-41.96,0-62.94,0-1.28,0-2.56,0-4.23h14.08V-.2h13.85v88.64h-13.34c-.58,2.71-.8,100.35-.28,106.7,4.65.13,9.34.27,14.03.4l-.07-.1c-.07.86-.2,1.72-.2,2.58-.01,15.84-.01,31.68,0,47.52,0,.95.09,1.91.16,3.25h13.83v35.76l.08-.11h-14.1v-35.28c-3.06-.68-11.89-.54-13.92.22,0,1,0,2.08,0,3.15,0,7.85,0,15.71,0,23.56.01,14.62.04,29.23.06,43.85l.09-.1h-14.18v17.56c-2.43.37-4.64.15-6.84.19-2.23.04-4.45,0-6.62,0-.68-2.45-.92-28.97-.35-35.36h13.18c.66-2.62.9-46.86.36-52.88-1.79-.76-10.68-.9-13.76-.14v52.67h-13.98c-.3-3.38-.11-6.84-.14-10.28-.03-3.6,0-7.21,0-10.81v-32.09h-13.99v-53.45l-.07.09c4.61.03,9.22.06,13.84.09.08,1.18.21,2.37.21,3.55.01,15.3,0,30.59,0,45.89v3.63h14.13v-53.17h13.78v-17.7h-13.78v17.65c-1.24,0-2.17-.01-3.09,0-3.78.07-7.56.15-11.34.23Zm28.76,17.71c-.59,3.08-.53,32.64.09,35.42,4.45.11,8.95.19,13.39-.02.51-5.36.35-32.97-.19-35.4h-13.29Z"/>
      <path d="m1309.37,195.55c-.09-.96-.27-1.93-.27-2.89-.02-21.83-.01-43.66,0-65.48,0-.86.07-1.72.12-2.98h13.84V53.41c2.49-.76,4.8-.31,7.08-.38,2.32-.07,4.64.02,6.96.04l-.07-.09c.01,23.04.03,46.08.03,69.12,0,.54-.08,1.07-.15,1.95h-13.73c-.12,4.19-.05,8.07-.06,11.95-.01,3.93,0,7.86,0,11.79v35.38c0,3.9,0,7.81,0,12.02-4.78.08-9.31.16-13.83.24,0,0,.08.11.08.11Z"/>
      <path d="m1364.78,284.72c-1.96-.11-3.92-.28-5.88-.32-2.48-.06-4.95-.01-7.72-.01v-35.53h-13.94v-17.79h13.85v17.49h13.97c-.03-11.89.06-23.73-.07-35.58l-.07.09h14.22c.06,17.89.01,35.38.03,53.28-4.72.33-9.3-.07-14.11.26,0,4.8.03,9.24-.01,13.68-.01,1.5-.2,3.01-.3,4.51,0,0,.05-.06.05-.06Z"/>
      <path d="m1295.28,551.36h-14.22v-17.95h-13.81v-35.59h13.73v-17.62h14.05c.03,1.24.1,2.5.1,3.75,0,21.19,0,42.38,0,63.56,0,1.31.05,2.62.07,3.93,0,0,.06-.08.06-.08Z"/>
      <path d="m1239.12,372.77c-1.79.12-3.58.3-5.38.34-2.82.06-5.64.02-8.6.02,0-35.58,0-70.83,0-106.08,1.79-.73,10.54-.88,13.79-.17v3.74c0,32.89,0,65.78,0,98.66,0,1.2.06,2.4.1,3.59,0,0,.09-.1.09-.1Z"/>
      <path d="m1379.36,124.12h13.25c.63,2.64.72,49.83.14,53.17h-13.58v-53.15h-13.98v-35.02c1.77-.74,24.92-.9,27.79-.17v17.18h-13.62v17.99Z"/>
      <path d="m1238.97,195.27h-13.9v-53.26c-4.75-.34-9.27.02-13.94-.24v-35.3h13.81v35.4h13.96c0,18.13,0,35.81,0,53.49,0,0,.07-.09.07-.09Z"/>
      <path d="m1295.29,372.93h-13.84c-.51-2.42-.67-30.41-.18-35.23h13.76c.09-6.19.17-12.02.25-17.86,0,0-.09.1-.09.1h13.72v35.52h-13.72v17.59l.1-.13Z"/>
      <path d="m1435.4,160.18c-.06-.98-.17-1.95-.17-2.93-.01-15.94-.01-31.88,0-47.82,0-.95.09-1.9.15-3.02h13.61v53.37c-1.62,0-3.15-.03-4.67,0-3,.07-6,.18-8.99.28,0,0,.07.11.07.11Z"/>
      <path d="m1407.55,230.43c-1.19.13-2.37.36-3.56.38-3.5.05-7.01.02-10.69.02v-53.08h13.83c.03,1.1.09,2.26.09,3.41,0,15.27,0,30.54.02,45.82,0,1.18.16,2.35.26,3.52,0,0,.05-.06.05-.06Z"/>
      <path d="m1364.99,212.96h-13.73v-52.93h13.51c.08.46.27,1.07.27,1.67.01,16.79,0,33.59,0,50.38,0,.32-.07.64-.11.97,0,0,.07-.09.07-.09Z"/>
      <path d="m1281.02,479.82h-13.79v-52.94h13.78c.02,17.59,0,35.1,0,52.94Z"/>
      <path d="m1224.87,551.53c-.94-.09-1.87-.25-2.81-.25-7.31-.02-14.63-.01-21.94-.01h-2.95v-17.72h27.62v18.07l.08-.09Z"/>
      <path d="m1224.79,551.62c.58-.12,1.17-.33,1.75-.34,8.22-.02,16.44-.02,24.66,0,.49,0,.99.08,1.77.15-.18,6.1.36,12.02-.33,17.94l.05-.06c-.92-.11-1.85-.32-2.77-.32-7.27-.03-14.55-.02-21.82-.02h-3.03c-.06-6.03-.12-11.74-.19-17.45,0,0-.09.1-.09.1Z"/>
      <path d="m1252.68,53.25c.77-.08,1.54-.23,2.3-.23,7.83-.02,15.66-.02,23.49,0,.75,0,1.5.11,2.39.18v17.3h-27.91c0-1.84.02-3.56,0-5.27-.06-4.03-.14-8.06-.2-12.09,0,0-.07.1-.07.1Z"/>
      <path d="m1323.08,284.56h13.57c.07.1.13.18.18.26.05.08.14.17.14.25.02,11.62.04,23.25.06,34.87,0,0,.08-.09.08-.09-2.32.01-4.64.04-6.95.04-2.28,0-4.56,0-6.99-.02v-35.43l-.08.11Z"/>
      <path d="m1337.03,319.94h13.9c.07.93.16,1.55.16,2.18,0,10.65,0,21.29,0,31.94,0,.43-.08.86-.12,1.29,0,0,.07-.08.07-.08-2.32.05-4.64.19-6.96.13-2.28-.05-4.59.39-6.98-.36v-35.18l-.08.09Z"/>
      <path d="m1421.45,35.54c-.09,1.18-.25,2.36-.26,3.54-.02,9.18-.01,18.36-.01,27.53v3.97c-4.69.09-9.21.18-13.72.27l.08.08c-.1-.74-.28-1.47-.29-2.21-.02-10.43-.01-20.87,0-31.3,0-.63.07-1.25.12-2.24,4.8.23,9.47-.45,14.13.42l-.05-.06Z"/>
      <path d="m1252.64,569.37c.58-.13,1.17-.37,1.75-.37,8.34-.02,16.67-.02,25.01-.01.42,0,.83.08,1.43.14v17.46h-27.87c0-1.39.02-2.67,0-3.94-.08-4.45-.17-8.9-.26-13.34,0,0-.05.06-.05.06Z"/>
      <path d="m1239.01,462.07h-13.9c-.04-1.19-.12-2.34-.12-3.48,0-9.35,0-18.7-.01-28.05,0-1.19-.07-2.38-.11-3.58l-.06.1c1.27-.13,2.54-.34,3.81-.36,3.33-.05,6.66-.02,10.33-.02,0,12.03,0,23.76,0,35.49,0,0,.07-.1.07-.1Z"/>
      <path d="m1337.1,53.07V18.09c1.92-.72,9.79-.9,13.82-.33v35.22c-4.66,0-9.27,0-13.89,0,0,0,.07.09.07.09Z"/>
      <path d="m1224.87,426.96c-3.43-.09-6.86-.2-10.29-.28-1.1-.03-2.2,0-3.46,0v-17.72h13.69c0,6.15,0,12.12,0,18.09,0,0,.06-.09.06-.09Z"/>
      <path d="m1435.45,17.89V-.21h13.58v17.7c-1.65,0-3.17-.04-4.68,0-2.98.09-5.97.22-8.96.32,0,0,.06.07.06.07Z"/>
      <path d="m1252.88,479.85h-13.93c-.02-5.94-.08-11.85.06-17.77,0,0-.07.1-.07.09,4.54,0,9.08,0,13.72,0,.57,3.12.24,6.05.28,8.94.04,2.94-.07,5.88-.12,8.82l.06-.08Z"/>
      <path d="m1252.82,479.92h14.1c.27,6.05.19,11.74.05,17.61h-14.09c0-5.99,0-11.84,0-17.69,0,0-.06.08-.06.08Z"/>
      <path d="m1421.49,35.6c-.1-1.5-.28-3-.3-4.5-.04-4.42-.01-8.84-.01-13.61,3.75,0,7.23-.03,10.71.02,1.18.02,2.36.24,3.54.38,0,0-.07-.07-.06-.07-.05,4.47-.11,8.94-.16,13.41-.01,1.18,0,2.36,0,3.97-1.25,0-2.25-.02-3.25,0-3.51.1-7.02.22-10.52.33,0,0,.05.07.05.07Z"/>
      <path d="m1407.46,70.86c-.07,4.02-.16,8.04-.22,12.06-.03,1.72,0,3.45,0,5.38h-13.93v-17.38c4.83,0,9.52,0,14.23,0,0,0-.07-.08-.07-.08Z"/>
      <path d="m1252.75,53.15c-4.51-.08-9.02-.16-13.74-.25-.07-5.98-.13-11.7-.2-17.43l-.06.1c1.27-.13,2.54-.34,3.82-.36,3.34-.05,6.68-.02,10.18-.02.08,1.04.21,1.88.2,2.71-.07,5.11-.17,10.23-.26,15.34,0,0,.07-.1.07-.1Z"/>
      <path d="m1364.73,284.78c1.19-.13,2.37-.36,3.56-.38,3.51-.05,7.01-.02,10.69-.02v17.16c-1.8.66-10.04.83-13.72.26-.07-.77-.2-1.6-.2-2.43-.02-3.82,0-7.64-.02-11.46,0-1.07-.16-2.14-.25-3.2,0,0-.05.06-.05.06Z"/>
      <path d="m1238.82,35.48c-2.66-.09-5.31-.21-7.97-.27-1.8-.04-3.6,0-5.35,0-.62-2.41-.76-13.04-.24-17.49h13.66c-.05,5.95.18,11.9-.16,17.87,0,0,.06-.09.06-.09Z"/>
      <path d="m1435.18,569.14c.01-22.35.02-44.69.04-67.04,0-1.29,0-2.59,0-4.24,4.78-.1,9.38-.2,13.98-.3-.01,22.35-.02,44.69-.04,67.04,0,1.29,0,2.59,0,4.25-4.78.1-9.38.2-13.98.3Z"/>
    </g>
    <g>
      <path d="m547.95,485.73c-.11,1.3-.3,2.61-.31,3.91-.04,4.63-.01,9.25-.01,14.33h-13.97v54.15h13.9v-17.96h14.28v-35.99h14.11c.21-4.18.08-8.12.1-12.04.02-3.87,0-7.74,0-11.61v-12.3c4.76-.09,9.33-.19,13.9-.28l-.08-.08c.1,1.63.27,3.26.29,4.9.04,4.29.01,8.57.01,13.02.58.14.98.33,1.38.33,13.83,0,27.65-.03,41.48-.05,0,0-.07-.08-.07-.08-.04,5.93-.08,11.86-.13,18.16h-14.04v35.77h14.13v-17.8h14.07c.11-6.25-.05-12.05.11-18.11h14.18l-.08-.11v18.3h-14.13v17.85h-14.06v18.04c-4.85.55-9.44-.06-14.31.39-.21,8.97-.07,17.89-.09,26.81-.03,8.83,0,17.66,0,26.71h-14.05v-107.68h-14.29v17.83h-14.15c-.13,4.27-.05,8.21-.06,12.13-.01,3.87,0,7.75,0,11.62v12.32h-14.2v35.99h-14.18c-.11,12.05.02,23.82-.08,35.92h-13.56c-.64,2.64-.86,66.27-.32,72.06h13.74c.35-2.84.13-5.8.16-8.73.04-2.99,0-5.98,0-8.96v-18.03c4.7-.31,9.28.03,14.14-.22v-17.99h14.25v-17.82h14.08c.2-6.09-.01-11.9.14-17.95h13.82c.51,2.48.63,31.5.1,35.68h-13.94v18.16h-14.1v36.08h-14.26v17.9h-14.17v35.61c-2.49.79-4.83.32-7.14.4-2.24.08-4.49.02-6.89.02v108.09c4.75.14,9.5.27,14.25.41l-.07-.11c-.07,1.2-.2,2.41-.2,3.61-.02,9.4,0,18.8,0,28.2,0,1.19,0,2.39,0,3.91h-13.99c-.05,1.59-.13,2.86-.13,4.14,0,35.27-.01,70.55,0,105.82,0,11.39.06,22.77.08,34.16h-42.9c.03-1.21.09-2.43.09-3.64,0-45.33,0-90.66,0-136v-4.25h-14.01c-.04-1.47-.09-2.63-.11-3.8-.08-4.74-.14-9.48-.21-14.22l-.07.11c3.47-.08,6.95-.17,10.42-.24,1.2-.02,2.41,0,3.8,0v-72.08h-13.93v-4.05c0-9.61.01-19.23-.01-28.84,0-1.19-.2-2.38-.31-3.57,3.55.14,7.11.28,10.66.39,1.19.04,2.38,0,3.51,0,.56-5.13.38-51.58-.14-53.79h-13.71v3.8c0,15.36,0,30.72-.01,46.07,0,1.19-.17,2.38-.26,3.57-2.16.11-4.32.28-6.47.33-2.34.06-4.69.01-7.4.01-.13-12.05-.04-23.93-.06-35.81-.02-11.91,0-23.81,0-36.05h-14.05c-.14-6.23-.05-12.14-.07-18.06-.02-5.84,0-11.68,0-17.97-4.72-.37-9.3.03-14.21-.26.04-6.2-.16-12.22.14-18.24l-.1.13h14.2v-18.03s-.07.09-.07.09c4.67.05,9.34.11,14.22.16v53.88h14.21v18.02h13.72c.58-3.6.47-87.47-.17-90.19h-13.6v-12.23c0-3.87.02-7.75,0-11.62-.03-3.93.11-7.88-.11-12.07h-28.19v-17.77l-.07.09c.95-.05,1.91-.15,2.86-.16,7.48-.01,14.96,0,22.44,0,.93,0,1.86,0,2.93,0v-18.16h-14.09v-17.93h-14.07v-18.31l-.07.09h14.2v-35.95l-.07.1h14.21c.06,6.08.02,12.01.03,17.93,0,5.98,0,11.95,0,17.93v35.96h13.96v-161.98h-13.93c-.05-12.09,0-23.87-.03-36.05h-14.13v-35.82c-4.76-.47-9.34.06-14.2-.33v-35.88h-14.16c-.11-4.24-.04-8.18-.05-12.11-.01-3.87,0-7.75,0-11.62v-12.3c-4.68-.29-9.18,0-14.02-.19v-17.8h-28.35v-18.09h13.87v-35.83c2.52-.29,4.85-.13,7.16-.16,2.26-.03,4.52,0,7.12,0,.17,4.11.06,8.05.08,11.98.02,3.87,0,7.75,0,11.62v12.13h14.02c.27-5.73-.02-11.55.16-17.52.69-.11,1.26-.28,1.84-.28,3.49-.03,6.97-.03,10.46,0,.68,0,1.36.24,2.03.37,0,0-.06-.1-.06-.1-.04,1.1-.11,2.2-.12,3.31,0,15.49,0,30.99,0,46.48v3.89h14.07v36.07h14.21v36.01c4.73.32,9.3-.01,14.16.22v17.76h14.17v-71.81h-14.15v-3.95c0-15.49,0-30.99,0-46.48,0-1.2-.13-2.41-.2-3.61l-.07.11c.78-.08,1.56-.23,2.33-.23,7.93-.02,15.86-.02,23.79,0,.76,0,1.52.11,2.57.2v71.82h14.26v72.1c5-.15,9.74.33,14.49-.3-.07,6.09-.13,12.17-.19,18.25h-14.11v36.03c4.68.17,9.21.32,14.05-.11,0-12.21,0-24.11,0-36.01,4.66.33,9.31.12,13.91.16.48-5.22.35-15.5-.23-18.03-1.24,0-2.54.02-3.83,0-3.21-.06-6.42-.14-9.63-.21-.09-2.74-.22-5.48-.26-8.22-.05-2.98-.01-5.95-.01-9.41,3.21-.16,6.3-.06,9.39-.08,3.13-.02,6.27,0,9.4,0h9.46c.08-.96.17-1.59.17-2.23,0-10.49.01-20.99,0-31.48,0-.64-.17-1.28-.26-1.92,0,0-.05.06-.05.06.68-.13,1.36-.38,2.04-.39,8.28-.03,16.56-.02,24.84-.01.51,0,1.01.08,1.68.14v35.84h-13.97v17.87h13.98v17.91c-4.53.45-9.12-.07-14.05.33-.17,5.8.01,11.6-.11,17.7h-14.01c-.14,6.11-.07,11.9-.04,18.16h14.12v17.79h28.43v-35.95h14.39l-.07-.09v36.15c4.69.19,9.23.11,14.03.05v-17.87h14.24v-17.99c4.87-.15,9.45-.3,14.03-.44l-.08-.09c.06,4.86.13,9.71.19,14.57.01,1.18,0,2.37,0,3.87h28.13v17.98h-56.43v18.09h-28.42v17.36c-2.08.77-9.91.94-13.98.36-.5-5.69.1-11.52-.33-17.46h-28.21v17.47c-.9.11-1.57.26-2.23.27-3.22.03-6.45-.01-9.67.03-.85.01-1.71.24-2.55.36.06-2.98.14-5.96.17-8.94.03-3.05,0-6.1,0-9.08-4.13-.58-12.27-.4-14.04.23v17.41c1.37,0,2.57-.02,3.77,0,3.38.08,6.77.18,10.15.28.02,11.6.04,23.19.05,34.79,0,.19-.12.39-.34,1.01-1.21,0-2.57.03-3.93,0-3.2-.09-6.41-.22-9.61-.33-.09-4.28-.19-8.56-.26-12.84-.03-1.51,0-3.02,0-4.45-3.14-.66-12.14-.54-14.13.17,0,2.81,0,5.67,0,8.53,0,2.93.04,5.86.06,8.93,3.93,0,7.49.03,11.05-.02,1.11-.02,2.23-.25,3.34-.38Zm14.09-89.53v17.71c4.75.03,9.31.17,13.83-.07v-17.64h-13.83Z"/>
      <path d="m562.06,233.32c-.41.14-.82.41-1.24.41-4.26.03-8.53.02-13.17.02-.04-4.54-.02-8.92-.02-13.3,0-4.54,0-9.07,0-13.61v-26.67c-2.43-.81-4.77-.32-7.08-.41-2.24-.08-4.49-.02-7.03-.02v-54h-14.14v-35.91h14.05c.18,11.77-.03,23.55.12,35.67,4.65.54,9.24-.05,14.07.38v35.73h14.16c.15-7.93.05-15.84.07-23.75.02-7.97,0-15.94,0-23.9v-24.33c1.23,0,2.24.03,3.25,0,3.55-.11,7.11-.25,10.66-.37,0,0-.03-.04-.03-.04.11,1.41.32,2.83.32,4.24.02,21.35.01,42.71.01,64.06,0,1.3,0,2.59,0,4.15,4.88.11,9.47.21,14.06.31l-.06-.08v17.84h-28.09c-.05,1.12-.11,1.87-.11,2.61,0,16.35,0,32.71,0,49.06,0,.65.11,1.31.16,1.97,0,.01.05-.08.05-.08Z"/>
      <path d="m420.11,576.31h-14.42c-.02-18.13,0-35.86-.01-54.01-9.55-.21-18.9.06-28.49-.16v-18.24l-.07.09h28.5c.02-4.06.05-7.99.06-11.91.01-3.86,0-7.73,0-11.59s0-7.93,0-12.37c4.94-.03,9.69-.06,14.44.03,0,0-.09-.1-.09-.1-.02,23.42-.03,46.84-.04,70.25,0,.52.13,1.04.26,1.93h28.03v18.25l.07-.09c-9.29.02-18.59.04-27.88.06-.06,0-.13.13-.19.2-.06.07-.12.16-.24.3v17.45l.07-.08Z"/>
      <path d="m434.33,323.82h13.93c.1,8.27.04,16.18.05,24.09.01,7.96,0,15.92,0,23.89v24.17h13.89c.1,1.06.22,1.78.22,2.51,0,23.22-.01,46.45-.02,69.67,0,0,.07-.1.07-.1-4.73,0-9.47,0-14.2,0l.08.09c-.01-22.57-.03-45.15-.04-67.72,0-1.3,0-2.61,0-4.33h-14.24v-18.16h-13.95c-.06-1.38-.16-2.45-.14-3.51.09-4.96.2-9.91.31-14.87l-.05.06h13.85c0-1.1,0-2.27,0-3.44,0-9.62-.01-19.23.01-28.85,0-1.19.19-2.38.3-3.57,0,0-.08.08-.08.08Z"/>
      <path d="m434.25,647.99h-14.18v-17.69h-14.2v-18.02h13.99c.05-1.44.12-2.61.12-3.78,0-9.52,0-19.04.01-28.55,0-1.21.08-2.43.12-3.64,0,0-.07.08-.07.08h14.08v17.96h14.17v35.83l.07-.09c-4.66.09-9.33.19-14.2.28v17.74l.1-.13Z"/>
      <path d="m689.28,467.87c.1,1.64.27,3.27.29,4.91.04,4.3.01,8.59.01,13.29h-14.14v17.98c-2.57,0-4.89.04-7.2.01-2.35-.03-4.7-.11-7.05-.17,0,0,.08.11.08.11-.16-5.88.17-11.79-.2-17.86-2.71,0-5.14.01-7.56,0-6.85-.05-13.71-.1-20.56-.15,0,0,.07.08.07.08v-17.97h3.09c16.79,0,33.58,0,50.37,0,.95,0,1.91-.09,2.86-.14l-.08-.08Z"/>
      <path d="m590.11,161.99v-18.26h14.27v-17.9c3.37-.19,6.47-.07,9.56-.09,3.05-.02,6.1,0,9.14,0h9.65c.4-6.02-.03-11.84.26-17.59,1.93-.71,10.93-.82,13.87-.16v17.67h-13.85v17.71c-2.54.53-4.87.24-7.18.29-2.35.05-4.7.01-7.05.01h-14.36v18.25c-5.01,0-9.69,0-14.37,0,0,0,.06.08.06.08Z"/>
      <path d="m448.5,180.13c-.06-.99-.17-1.97-.17-2.96-.01-10.15-.01-20.3,0-30.45,0-.87.06-1.75.11-3.05h14.01c0-1.62,0-2.81,0-3.99,0-9.6,0-19.19,0-28.79,0-1.21.09-2.42.13-3.62,0,0-.09.11-.09.11,4.63-.05,9.26-.1,13.89-.15l-.05-.06c.11.75.3,1.5.3,2.25.02,10.73.02,21.45,0,32.18,0,.54-.09,1.08-.17,2.02h-14.03v36.11c-1.83,0-3.37-.03-4.92,0-3.04.07-6.07.18-9.1.28,0,0,.07.11.07.11Z"/>
      <path d="m632.96,215.66v36.18h-14.3v35.92h-13.76c-.51-2.43-.68-30.64-.18-35.82h13.93v-36.19h14.37l-.07-.09Z"/>
      <path d="m420.11,450.13h-14.39v17.76h-13.74c-.54-2.73-.6-50.52-.06-53.75h13.73v17.92h14.26c.05,6.29.09,12.22.13,18.15l.07-.09Z"/>
      <path d="m575.78,288.34c-1.81-.11-3.61-.29-5.42-.33-2.69-.06-5.38-.01-8.21-.01-.12-.9-.29-1.62-.3-2.34-.02-16.79-.01-33.58,0-50.37,0-.65.13-1.31.2-1.97,0,0-.05.08-.04.07,1.2.12,2.4.33,3.6.35,3.38.05,6.76.02,10.28.02.07,1.3.16,2.27.16,3.23,0,16.05.01,32.1,0,48.15,0,1.09-.19,2.17-.3,3.26,0,0,.04-.06.04-.06Z"/>
      <path d="m675.26,377.61c.04-1.98.11-3.97.11-5.95,0-14.57,0-29.14,0-43.71v-3.86c4.84-.09,9.41-.18,13.99-.26l-.08-.08c.1.86.29,1.72.29,2.58.02,16.37.01,32.75,0,49.12,0,.65-.06,1.3-.1,2.13-.55.11-1.04.28-1.53.28-3.66.02-7.32.03-10.98,0-.6,0-1.19-.22-1.79-.34,0,0,.08.09.08.09Z"/>
      <path d="m590.04,35.72c.04.22.1.43.1.65.01,17.21.02,34.43.01,51.64,0,.42-.09.84-.18,1.63-3.59,0-7.13.03-10.66-.02-1.2-.02-2.4-.25-3.6-.39,0,0,.03.05.03.04.1-1.19.29-2.37.29-3.56.02-15.38.01-30.76.01-46.14v-3.76h14.05l-.06-.08Z"/>
      <path d="m689.36,467.95c.08-4.3.16-8.59.22-12.89.02-1.53,0-3.05,0-4.79h42.36v17.6c-.81.08-1.48.21-2.16.21-12.89.01-25.79.01-38.68,0-.6,0-1.21-.13-1.82-.21,0,0,.08.08.08.08Z"/>
      <path d="m703.69,288.23v-36.05c2.45-.49,4.78-.21,7.1-.26,2.25-.05,4.5-.01,6.7-.01.64,2.62.73,32.53.1,35.98-4.62.08-9.29.17-13.97.25,0,0,.07.08.07.08Z"/>
      <path d="m590.11,35.8c.02-10.72.05-21.43.07-32.15,0-1.21,0-2.41,0-3.87h13.87c.52,2.34.67,30.87.15,35.73-4.67.07-9.41.13-14.15.2,0,0,.06.08.06.08Z"/>
      <path d="m633.05,324.04c-.05,4.64-.1,9.28-.15,13.92-.01,1.19,0,2.37,0,3.75h-28.27v-17.42c.5-.11.91-.29,1.33-.29,8.72-.02,17.43-.01,26.15,0,.34,0,.69.11,1.03.16,0,0-.08-.11-.08-.11Z"/>
      <path d="m689.36,323.83c.08-1.2.21-2.39.22-3.59.02-9.37,0-18.75.01-28.12v-3.94c4.83-.24,9.47-.36,14.11.05,0,0-.07-.08-.07-.08,0,11.79,0,23.57,0,35.78-4.86.02-9.6.26-14.34-.17,0,0,.08.08.08.08Z"/>
      <path d="m420.3,359.55c-.59.13-1.18.38-1.78.38-8.44.02-16.89.02-25.33.01-.42,0-.84-.08-1.44-.14v-17.68h28.23c0,1.41-.02,2.7,0,3.99.08,4.51.17,9.01.27,13.51,0,0,.05-.06.05-.06Z"/>
      <path d="m362.9,197.64c.08-4.3.16-8.59.22-12.89.02-1.53,0-3.05,0-4.79h28.24v17.59c-.62.09-1.12.22-1.63.22-8.54.01-17.08,0-25.61,0-.43,0-.86-.13-1.3-.2,0,0,.07.08.07.08Z"/>
      <path d="m434.17,468.14c4.73,0,9.46,0,14.18,0,0,0-.08-.09-.08-.09,0,11.98,0,23.97,0,35.95l.07-.09h-14.25c0-1.28,0-2.36,0-3.43,0-4.74-.02-9.49,0-14.23.03-6.06.08-12.13.12-18.19,0,0-.06.1-.06.1Z"/>
      <path d="m434.41,323.74h-14.24v-35.53h13.83c.03,1.15.1,2.31.1,3.48,0,9.51,0,19.03.01,28.54,0,1.2.14,2.4.22,3.6,0,0,.08-.09.08-.09Z"/>
      <path d="m490.57,197.93h-13.73v-35.91h13.71c.07.63.21,1.25.21,1.88.01,10.62.02,21.24,0,31.86,0,.76-.17,1.51-.27,2.27,0,0,.07-.1.07-.1Z"/>
      <path d="m448.29,71.65h14.11c.03,12.04.06,23.89.1,35.73,0,0,.09-.11.09-.11-4.65,0-9.31,0-14.22,0v-35.71l-.07.09Z"/>
      <path d="m448.36,71.56h-13.97c-.11-.76-.27-1.38-.27-1.99-.02-10.85-.01-21.7,0-32.54,0-.44.08-.87.13-1.31l-.06.08h14.11c0,12.04,0,23.95,0,35.86,0,0,.07-.09.07-.09Z"/>
      <path d="m405.33,161.62h-13.59v-35.67c4.52,0,9,0,13.48,0,.57,2.32.68,32,.11,35.67Z"/>
      <path d="m661.44,288.36v-18.3h13.77v17.78c-4.72.15-9.29.29-13.86.43l.08.09Z"/>
      <path d="m647.26,306.23c-.08,4.49-.16,8.99-.23,13.48-.02,1.29,0,2.59,0,4.33-4.85,0-9.42,0-13.98,0,0,0,.08.11.09.12,0-5.92,0-11.85,0-18.05.81-.05,1.65-.18,2.49-.16,3.9.1,7.8.25,11.7.37,0,0-.06-.09-.06-.09Z"/>
      <path d="m434.24,35.71h-14.13v-17.78h14.06c0,6.02,0,11.94,0,17.86,0,0,.06-.08.06-.08Z"/>
      <path d="m476.44,882.66h-13.47c-.63-2.64-.75-13.85-.23-17.86h13.47c.09.12.3.29.3.44-.03,5.84-.09,11.67-.14,17.52,0,0,.07-.1.07-.1Z"/>
      <path d="m547.91,864.83c-.09-2.3-.24-4.6-.27-6.9-.05-3.63-.01-7.26-.01-11.14h14.03v17.69c-4.67.08-9.25.16-13.83.24,0,0,.08.11.08.11Z"/>
      <path d="m633.03,215.75v-17.72h13.84v17.42c-2.26.78-4.59.3-6.88.36-2.34.06-4.68-.09-7.03-.14,0,0,.07.09.07.09Z"/>
      <path d="m589.95,467.95c.08-4.18.16-8.37.22-12.55.02-1.63,0-3.27,0-5.12h14.11v17.6c-4.89,0-9.65,0-14.41,0,0,0,.07.08.07.08Z"/>
      <path d="m420.04,450.21h14.13c0,6.09,0,12.01,0,17.93,0,0,.06-.1.06-.1h-14.2s.09.1.09.1c0-6.01,0-12.02-.01-18.02,0,0-.07.09-.07.09Z"/>
      <path d="m476.38,107.23c.09-2.3.23-4.59.26-6.89.04-3.41.01-6.81.01-10.46h13.67c.55,2.22.7,12.77.18,17.69-.96,0-1.97.03-2.99,0-3.73-.12-7.45-.26-11.18-.39,0,0,.05.06.05.06Z"/>
      <path d="m633.03,377.8v-17.66h13.8v17.57c-4.69,0-9.28,0-13.87,0,0,0,.07.09.07.09Z"/>
      <path d="m661.35,288.27v17.49c-1.16.07-2.07.14-2.98.17-3.71.1-7.41.19-11.11.29,0,0,.06.09.07.09-.1-1.73-.26-3.47-.28-5.2-.04-4.25-.01-8.5-.01-13.11,2.48,0,4.7-.05,6.92.01,2.49.06,4.98.22,7.48.34,0,0-.08-.09-.08-.09Z"/>
    </g>
    <g>
      <path d="m1023.11,479.37c-.11,1.3-.3,2.61-.31,3.91-.04,4.63-.01,9.25-.01,14.33h-13.97v54.15h13.9v-17.96h14.28v-35.99h14.11c.21-4.18.08-8.12.1-12.04.02-3.87,0-7.74,0-11.61v-12.3c4.76-.09,9.33-.19,13.9-.28l-.08-.08c.1,1.63.27,3.26.29,4.9.04,4.29.01,8.57.01,13.02.58.14.98.33,1.38.33,13.83,0,27.65-.03,41.48-.05,0,0-.07-.08-.07-.08-.04,5.93-.08,11.86-.13,18.16h-14.04v35.77h14.13v-17.8h14.07c.11-6.25-.05-12.05.11-18.11h14.18l-.08-.11v18.3h-14.13v17.85h-14.06v18.04c-4.85.55-9.44-.06-14.31.39-.21,8.97-.07,17.89-.09,26.81-.03,8.83,0,17.66,0,26.71h-14.05v-107.68h-14.29v17.83h-14.15c-.13,4.27-.05,8.21-.06,12.13-.01,3.87,0,7.75,0,11.62v12.32h-14.2v35.99h-14.18c-.11,12.05.02,23.82-.08,35.92h-13.56c-.64,2.64-.86,66.27-.32,72.06h13.74c.35-2.84.13-5.8.16-8.73.04-2.99,0-5.98,0-8.96v-18.03c4.7-.31,9.28.03,14.14-.22v-17.99h14.25v-17.82h14.08c.2-6.09-.01-11.9.14-17.95h13.82c.51,2.48.63,31.5.1,35.68h-13.94v18.16h-14.1v36.08h-14.26v17.9h-14.17v35.61c-2.49.79-4.83.32-7.14.4-2.24.08-4.49.02-6.89.02v108.09c4.75.14,9.5.27,14.25.41l-.07-.11c-.07,1.2-.2,2.41-.2,3.61-.02,9.4,0,18.8,0,28.2,0,1.19,0,2.39,0,3.91h-13.99c-.05,1.59-.13,2.86-.13,4.14,0,35.27-.01,70.55,0,105.82,0,11.39.06,22.77.08,34.16h-42.9c.03-1.21.09-2.43.09-3.64,0-45.33,0-90.66,0-136v-4.25h-14.01c-.04-1.47-.09-2.63-.11-3.8-.08-4.74-.14-9.48-.21-14.22l-.07.11c3.47-.08,6.95-.17,10.42-.24,1.2-.02,2.41,0,3.8,0v-72.08h-13.93v-4.05c0-9.61.01-19.23-.01-28.84,0-1.19-.2-2.38-.31-3.57,3.55.14,7.11.28,10.66.39,1.19.04,2.38,0,3.51,0,.56-5.13.38-51.58-.14-53.79h-13.71v3.8c0,15.36,0,30.72-.01,46.07,0,1.19-.17,2.38-.26,3.57-2.16.11-4.32.28-6.47.33-2.34.06-4.69.01-7.4.01-.13-12.05-.04-23.93-.06-35.81-.02-11.91,0-23.81,0-36.05h-14.05c-.14-6.23-.05-12.14-.07-18.06-.02-5.84,0-11.68,0-17.97-4.72-.37-9.3.03-14.21-.26.04-6.2-.16-12.22.14-18.24l-.1.13h14.2v-18.03s-.07.09-.07.09c4.67.05,9.34.11,14.22.16v53.88h14.21v18.02h13.72c.58-3.6.47-87.47-.17-90.19h-13.6v-12.23c0-3.87.02-7.75,0-11.62-.03-3.93.11-7.88-.11-12.07h-28.19v-17.77l-.07.09c.95-.05,1.91-.15,2.86-.16,7.48-.01,14.96,0,22.44,0,.93,0,1.86,0,2.93,0v-18.16h-14.09v-17.93h-14.07v-18.31l-.07.09h14.2v-35.95l-.07.1h14.21c.06,6.08.02,12.01.03,17.93,0,5.98,0,11.95,0,17.93v35.96h13.96v-161.98h-13.93c-.05-12.09,0-23.87-.03-36.05h-14.13v-35.82c-4.76-.47-9.34.06-14.2-.33v-35.88h-14.16c-.11-4.24-.04-8.18-.05-12.11-.01-3.87,0-7.75,0-11.62v-12.3c-4.68-.29-9.18,0-14.02-.19v-17.8h-28.35v-18.09h13.87v-35.83c2.52-.29,4.85-.13,7.16-.16,2.26-.03,4.52,0,7.12,0,.17,4.11.06,8.05.08,11.98.02,3.87,0,7.75,0,11.62v12.13h14.02c.27-5.73-.02-11.55.16-17.52.69-.11,1.26-.28,1.84-.28,3.49-.03,6.97-.03,10.46,0,.68,0,1.36.24,2.03.37,0,0-.06-.1-.06-.1-.04,1.1-.11,2.2-.12,3.31,0,15.49,0,30.99,0,46.48v3.89h14.07v36.07h14.21v36.01c4.73.32,9.3-.01,14.16.22v17.76h14.17v-71.81h-14.15v-3.95c0-15.49,0-30.99,0-46.48,0-1.2-.13-2.41-.2-3.61l-.07.11c.78-.08,1.56-.23,2.33-.23,7.93-.02,15.86-.02,23.79,0,.76,0,1.52.11,2.57.2v71.82h14.26v72.1c5-.15,9.74.33,14.49-.3-.07,6.09-.13,12.17-.19,18.25h-14.11v36.03c4.68.17,9.21.32,14.05-.11,0-12.21,0-24.11,0-36.01,4.66.33,9.31.12,13.91.16.48-5.22.35-15.5-.23-18.03-1.24,0-2.54.02-3.83,0-3.21-.06-6.42-.14-9.63-.21-.09-2.74-.22-5.48-.26-8.22-.05-2.98-.01-5.95-.01-9.41,3.21-.16,6.3-.06,9.39-.08,3.13-.02,6.27,0,9.4,0h9.46c.08-.96.17-1.59.17-2.23,0-10.49.01-20.99,0-31.48,0-.64-.17-1.28-.26-1.92,0,0-.05.06-.05.06.68-.13,1.36-.38,2.04-.39,8.28-.03,16.56-.02,24.84-.01.51,0,1.01.08,1.68.14v35.84h-13.97v17.87h13.98v17.91c-4.53.45-9.12-.07-14.05.33-.17,5.8.01,11.6-.11,17.7h-14.01c-.14,6.11-.07,11.9-.04,18.16h14.12v17.79h28.43v-35.95h14.39l-.07-.09v36.15c4.69.19,9.23.11,14.03.05v-17.87h14.24v-17.99c4.87-.15,9.45-.3,14.03-.44l-.08-.09c.06,4.86.13,9.71.19,14.57.01,1.18,0,2.37,0,3.87h28.13v17.98h-56.43v18.09h-28.42v17.36c-2.08.77-9.91.94-13.98.36-.5-5.69.1-11.52-.33-17.46h-28.21v17.47c-.9.11-1.57.26-2.23.27-3.22.03-6.45-.01-9.67.03-.85.01-1.71.24-2.55.36.06-2.98.14-5.96.17-8.94.03-3.05,0-6.1,0-9.08-4.13-.58-12.27-.4-14.04.23v17.41c1.37,0,2.57-.02,3.77,0,3.38.08,6.77.18,10.15.28.02,11.6.04,23.19.05,34.79,0,.19-.12.39-.34,1.01-1.21,0-2.57.03-3.93,0-3.2-.09-6.41-.22-9.61-.33-.09-4.28-.19-8.56-.26-12.84-.03-1.51,0-3.02,0-4.45-3.14-.66-12.14-.54-14.13.17,0,2.81,0,5.67,0,8.53,0,2.93.04,5.86.06,8.93,3.93,0,7.49.03,11.05-.02,1.11-.02,2.23-.25,3.34-.38Zm14.09-89.53v17.71c4.75.03,9.31.17,13.83-.07v-17.64h-13.83Z"/>
      <path d="m1037.22,226.95c-.41.14-.82.41-1.24.41-4.26.03-8.53.02-13.17.02-.04-4.54-.02-8.92-.02-13.3,0-4.54,0-9.07,0-13.61v-26.67c-2.43-.81-4.77-.32-7.08-.41-2.24-.08-4.49-.02-7.03-.02v-54h-14.14v-35.91h14.05c.18,11.77-.03,23.55.12,35.67,4.65.54,9.24-.05,14.07.38v35.73h14.16c.15-7.93.05-15.84.07-23.75.02-7.97,0-15.94,0-23.9v-24.33c1.23,0,2.24.03,3.25,0,3.55-.11,7.11-.25,10.66-.37,0,0-.03-.04-.03-.04.11,1.41.32,2.83.32,4.24.02,21.35.01,42.71.01,64.06,0,1.3,0,2.59,0,4.15,4.88.11,9.47.21,14.06.31l-.06-.08v17.84h-28.09c-.05,1.12-.11,1.87-.11,2.61,0,16.35,0,32.71,0,49.06,0,.65.11,1.31.16,1.97,0,.01.05-.08.05-.08Z"/>
      <path d="m895.27,569.95h-14.42c-.02-18.13,0-35.86-.01-54.01-9.55-.21-18.9.06-28.49-.16v-18.24l-.07.09h28.5c.02-4.06.05-7.99.06-11.91.01-3.86,0-7.73,0-11.59s0-7.93,0-12.37c4.94-.03,9.69-.06,14.44.03,0,0-.09-.1-.09-.1-.02,23.42-.03,46.84-.04,70.25,0,.52.13,1.04.26,1.93h28.03v18.25l.07-.09c-9.29.02-18.59.04-27.88.06-.06,0-.13.13-.19.2-.06.07-.12.16-.24.3v17.45l.07-.08Z"/>
      <path d="m909.5,317.46h13.93c.1,8.27.04,16.18.05,24.09.01,7.96,0,15.92,0,23.89v24.17h13.89c.1,1.06.22,1.78.22,2.51,0,23.22-.01,46.45-.02,69.67,0,0,.07-.1.07-.1-4.73,0-9.47,0-14.2,0l.08.09c-.01-22.57-.03-45.15-.04-67.72,0-1.3,0-2.61,0-4.33h-14.24v-18.16h-13.95c-.06-1.38-.16-2.45-.14-3.51.09-4.96.2-9.91.31-14.87l-.05.06h13.85c0-1.1,0-2.27,0-3.44,0-9.62-.01-19.23.01-28.85,0-1.19.19-2.38.3-3.57,0,0-.08.08-.08.08Z"/>
      <path d="m909.42,641.63h-14.18v-17.69h-14.2v-18.02h13.99c.05-1.44.12-2.61.12-3.78,0-9.52,0-19.04.01-28.55,0-1.21.08-2.43.12-3.64,0,0-.07.08-.07.08h14.08v17.96h14.17v35.83l.07-.09c-4.66.09-9.33.19-14.2.28v17.74l.1-.13Z"/>
      <path d="m1164.44,461.5c.1,1.64.27,3.27.29,4.91.04,4.3.01,8.59.01,13.29h-14.14v17.98c-2.57,0-4.89.04-7.2.01-2.35-.03-4.7-.11-7.05-.17,0,0,.08.11.08.11-.16-5.88.17-11.79-.2-17.86-2.71,0-5.14.01-7.56,0-6.85-.05-13.71-.1-20.56-.15,0,0,.07.08.07.08v-17.97h3.09c16.79,0,33.58,0,50.37,0,.95,0,1.91-.09,2.86-.14l-.08-.08Z"/>
      <path d="m1065.27,155.63v-18.26h14.27v-17.9c3.37-.19,6.47-.07,9.56-.09,3.05-.02,6.1,0,9.14,0h9.65c.4-6.02-.03-11.84.26-17.59,1.93-.71,10.93-.82,13.87-.16v17.67h-13.85v17.71c-2.54.53-4.87.24-7.18.29-2.35.05-4.7.01-7.05.01h-14.36v18.25c-5.01,0-9.69,0-14.37,0,0,0,.06.08.06.08Z"/>
      <path d="m923.66,173.77c-.06-.99-.17-1.97-.17-2.96-.01-10.15-.01-20.3,0-30.45,0-.87.06-1.75.11-3.05h14.01c0-1.62,0-2.81,0-3.99,0-9.6,0-19.19,0-28.79,0-1.21.09-2.42.13-3.62,0,0-.09.11-.09.11,4.63-.05,9.26-.1,13.89-.15l-.05-.06c.11.75.3,1.5.3,2.25.02,10.73.02,21.45,0,32.18,0,.54-.09,1.08-.17,2.02h-14.03v36.11c-1.83,0-3.37-.03-4.92,0-3.04.07-6.07.18-9.1.28,0,0,.07.11.07.11Z"/>
      <path d="m1108.13,209.3v36.18h-14.3v35.92h-13.76c-.51-2.43-.68-30.64-.18-35.82h13.93v-36.19h14.37l-.07-.09Z"/>
      <path d="m895.27,443.76h-14.39v17.76h-13.74c-.54-2.73-.6-50.52-.06-53.75h13.73v17.92h14.26c.05,6.29.09,12.22.13,18.15l.07-.09Z"/>
      <path d="m1050.95,281.98c-1.81-.11-3.61-.29-5.42-.33-2.69-.06-5.38-.01-8.21-.01-.12-.9-.29-1.62-.3-2.34-.02-16.79-.01-33.58,0-50.37,0-.65.13-1.31.2-1.97,0,0-.05.08-.04.07,1.2.12,2.4.33,3.6.35,3.38.05,6.76.02,10.28.02.07,1.3.16,2.27.16,3.23,0,16.05.01,32.1,0,48.15,0,1.09-.19,2.17-.3,3.26,0,0,.04-.06.04-.06Z"/>
      <path d="m1150.42,371.25c.04-1.98.11-3.97.11-5.95,0-14.57,0-29.14,0-43.71v-3.86c4.84-.09,9.41-.18,13.99-.26l-.08-.08c.1.86.29,1.72.29,2.58.02,16.37.01,32.75,0,49.12,0,.65-.06,1.3-.1,2.13-.55.11-1.04.28-1.53.28-3.66.02-7.32.03-10.98,0-.6,0-1.19-.22-1.79-.34,0,0,.08.09.08.09Z"/>
      <path d="m1065.21,29.36c.04.22.1.43.1.65.01,17.21.02,34.43.01,51.64,0,.42-.09.84-.18,1.63-3.59,0-7.13.03-10.66-.02-1.2-.02-2.4-.25-3.6-.39,0,0,.03.05.03.04.1-1.19.29-2.37.29-3.56.02-15.38.01-30.76.01-46.14v-3.76h14.05l-.06-.08Z"/>
      <path d="m1164.52,461.59c.08-4.3.16-8.59.22-12.89.02-1.53,0-3.05,0-4.79h42.36v17.6c-.81.08-1.48.21-2.16.21-12.89.01-25.79.01-38.68,0-.6,0-1.21-.13-1.82-.21,0,0,.08.08.08.08Z"/>
      <path d="m1178.86,281.86v-36.05c2.45-.49,4.78-.21,7.1-.26,2.25-.05,4.5-.01,6.7-.01.64,2.62.73,32.53.1,35.98-4.62.08-9.29.17-13.97.25,0,0,.07.08.07.08Z"/>
      <path d="m1065.27,29.44c.02-10.72.05-21.43.07-32.15,0-1.21,0-2.41,0-3.87h13.87c.52,2.34.67,30.87.15,35.73-4.67.07-9.41.13-14.15.2,0,0,.06.08.06.08Z"/>
      <path d="m1108.22,317.68c-.05,4.64-.1,9.28-.15,13.92-.01,1.19,0,2.37,0,3.75h-28.27v-17.42c.5-.11.91-.29,1.33-.29,8.72-.02,17.43-.01,26.15,0,.34,0,.69.11,1.03.16,0,0-.08-.11-.08-.11Z"/>
      <path d="m1164.52,317.47c.08-1.2.21-2.39.22-3.59.02-9.37,0-18.75.01-28.12v-3.94c4.83-.24,9.47-.36,14.11.05,0,0-.07-.08-.07-.08,0,11.79,0,23.57,0,35.78-4.86.02-9.6.26-14.34-.17,0,0,.08.08.08.08Z"/>
      <path d="m895.46,353.18c-.59.13-1.18.38-1.78.38-8.44.02-16.89.02-25.33.01-.42,0-.84-.08-1.44-.14v-17.68h28.23c0,1.41-.02,2.7,0,3.99.08,4.51.17,9.01.27,13.51,0,0,.05-.06.05-.06Z"/>
      <path d="m838.06,191.28c.08-4.3.16-8.59.22-12.89.02-1.53,0-3.05,0-4.79h28.24v17.59c-.62.09-1.12.22-1.63.22-8.54.01-17.08,0-25.61,0-.43,0-.86-.13-1.3-.2,0,0,.07.08.07.08Z"/>
      <path d="m909.33,461.78c4.73,0,9.46,0,14.18,0,0,0-.08-.09-.08-.09,0,11.98,0,23.97,0,35.95l.07-.09h-14.25c0-1.28,0-2.36,0-3.43,0-4.74-.02-9.49,0-14.23.03-6.06.08-12.13.12-18.19,0,0-.06.1-.06.1Z"/>
      <path d="m909.58,317.38h-14.24v-35.53h13.83c.03,1.15.1,2.31.1,3.48,0,9.51,0,19.03.01,28.54,0,1.2.14,2.4.22,3.6,0,0,.08-.09.08-.09Z"/>
      <path d="m965.73,191.56h-13.73v-35.91h13.71c.07.63.21,1.25.21,1.88.01,10.62.02,21.24,0,31.86,0,.76-.17,1.51-.27,2.27,0,0,.07-.1.07-.1Z"/>
      <path d="m923.45,65.29h14.11c.03,12.04.06,23.89.1,35.73,0,0,.09-.11.09-.11-4.65,0-9.31,0-14.22,0v-35.71l-.07.09Z"/>
      <path d="m923.52,65.2h-13.97c-.11-.76-.27-1.38-.27-1.99-.02-10.85-.01-21.7,0-32.54,0-.44.08-.87.13-1.31l-.06.08h14.11c0,12.04,0,23.95,0,35.86,0,0,.07-.09.07-.09Z"/>
      <path d="m880.49,155.26h-13.59v-35.67c4.52,0,9,0,13.48,0,.57,2.32.68,32,.11,35.67Z"/>
      <path d="m1136.6,282v-18.3h13.77v17.78c-4.72.15-9.29.29-13.86.43l.08.09Z"/>
      <path d="m1122.43,299.86c-.08,4.49-.16,8.99-.23,13.48-.02,1.29,0,2.59,0,4.33-4.85,0-9.42,0-13.98,0,0,0,.08.11.09.12,0-5.92,0-11.85,0-18.05.81-.05,1.65-.18,2.49-.16,3.9.1,7.8.25,11.7.37,0,0-.06-.09-.06-.09Z"/>
      <path d="m909.41,29.35h-14.13V11.57h14.06c0,6.02,0,11.94,0,17.86,0,0,.06-.08.06-.08Z"/>
      <path d="m951.61,876.3h-13.47c-.63-2.64-.75-13.85-.23-17.86h13.47c.09.12.3.29.3.44-.03,5.84-.09,11.67-.14,17.52,0,0,.07-.1.07-.1Z"/>
      <path d="m1023.07,858.47c-.09-2.3-.24-4.6-.27-6.9-.05-3.63-.01-7.26-.01-11.14h14.03v17.69c-4.67.08-9.25.16-13.83.24,0,0,.08.11.08.11Z"/>
      <path d="m1108.2,209.38v-17.72h13.84v17.42c-2.26.78-4.59.3-6.88.36-2.34.06-4.68-.09-7.03-.14,0,0,.07.09.07.09Z"/>
      <path d="m1065.12,461.59c.08-4.18.16-8.37.22-12.55.02-1.63,0-3.27,0-5.12h14.11v17.6c-4.89,0-9.65,0-14.41,0,0,0,.07.08.07.08Z"/>
      <path d="m895.2,443.85h14.13c0,6.09,0,12.01,0,17.93,0,0,.06-.1.06-.1h-14.2s.09.1.09.1c0-6.01,0-12.02-.01-18.02,0,0-.07.09-.07.09Z"/>
      <path d="m951.54,100.87c.09-2.3.23-4.59.26-6.89.04-3.41.01-6.81.01-10.46h13.67c.55,2.22.7,12.77.18,17.69-.96,0-1.97.03-2.99,0-3.73-.12-7.45-.26-11.18-.39,0,0,.05.06.05.06Z"/>
      <path d="m1108.2,371.43v-17.66h13.8v17.57c-4.69,0-9.28,0-13.87,0,0,0,.07.09.07.09Z"/>
      <path d="m1136.52,281.9v17.49c-1.16.07-2.07.14-2.98.17-3.71.1-7.41.19-11.11.29,0,0,.06.09.07.09-.1-1.73-.26-3.47-.28-5.2-.04-4.25-.01-8.5-.01-13.11,2.48,0,4.7-.05,6.92.01,2.49.06,4.98.22,7.48.34,0,0-.08-.09-.08-.09Z"/>
    </g>
  </g>
  <g id="Layer_8" data-name="Layer 8">
    <g>
      <polygon class="cls-8" points="1422.12 1043.57 1422.12 1034.78 1413.81 1034.78 1413.81 1000.09 1405.5 1000.09 1405.5 964.91 1396.46 964.91 1396.46 929.98 1387.67 929.98 1387.67 894.8 1404.89 894.8 1404.89 912.39 1414.05 912.39 1414.05 947.57 1423.34 947.57 1423.34 983.24 1430.91 983.24 1430.91 1017.19 1440.19 1017.19 1440.19 1043.57 1422.12 1043.57"/>
      <polygon class="cls-1" points="1274.32 1043.57 1274.32 1026.47 1283.11 1026.47 1283.11 973.71 1291.66 973.71 1291.66 903.35 1300.46 903.35 1300.46 894.8 1309.25 894.8 1309.25 886.01 1317.8 886.01 1317.8 876.97 1379.12 876.97 1379.12 886.74 1387.67 886.74 1387.67 929.98 1396.46 929.98 1396.46 964.91 1405.5 964.91 1405.5 1000.09 1413.81 1000.09 1413.81 1034.78 1422.12 1034.78 1422.12 1043.57 1274.32 1043.57"/>
      <polygon class="cls-6" points="1282.87 1034.78 1274.32 1034.78 1274.32 1043.57 1291.91 1043.57 1291.91 1034.78 1300.46 1034.78 1300.46 1026.23 1309.01 1026.23 1309.01 1034.9 1317.8 1034.9 1317.8 1026.23 1309.01 1026.23 1309.01 1017.19 1326.6 1017.19 1326.6 1008.4 1308.76 1008.4 1308.76 999.85 1300.46 999.85 1300.46 1026.23 1291.66 1026.23 1291.91 1034.78 1282.87 1034.78"/>
      <polygon class="cls-6" points="1309.01 912.39 1309.01 920.94 1291.66 920.94 1291.66 929.25 1309.01 929.25 1309.01 920.94 1326.6 920.94 1326.6 912.39 1309.01 912.39"/>
      <polygon class="cls-6" points="1370.57 920.82 1387.67 920.82 1387.67 929.98 1370.57 929.98 1370.57 955.87 1361.53 955.87 1361.53 938.35 1353.23 938.35 1353.23 930.22 1370.57 929.98 1370.57 920.82"/>
    </g>
    <g>
      <polygon class="cls-8" points="23.83 1042.3 23.83 1015.84 32.57 1015.84 32.57 963.72 41.46 963.72 41.46 911.12 50.05 911.12 50.05 902.22 58.86 902.22 58.86 893.48 67.68 893.48 67.68 884.82 111.3 884.82 111.3 893.48 120.04 893.48 120.04 902.14 128.7 902.14 128.7 910.88 137.6 910.88 137.6 963.56 146.34 963.56 146.34 1016.07 155.08 1016.07 155.08 1042.3 23.83 1042.3"/>
      <polygon class="cls-6" points="41.31 1024.65 41.31 1033.55 23.83 1033.55 23.83 1042.3 41.31 1042.3 41.31 1033.55 58.71 1033.55 58.71 1024.65 67.68 1024.65 67.68 1033.48 76.5 1033.48 76.5 1024.65 67.68 1024.65 67.68 1015.91 58.94 1015.91 58.94 1007.18 50.17 1007.18 50.17 1024.74 41.31 1024.65"/>
      <polygon class="cls-6" points="128.7 1024.74 128.7 1042.3 120.04 1042.3 120.04 1024.74 111.38 1024.74 111.38 1016.07 120.04 1016.07 120.04 998.59 128.7 998.59 128.7 1016.07 120.04 1016.07 120.04 1024.74 128.7 1024.74"/>
      <polygon class="cls-5" points="85.16 937.18 85.16 972.22 93.82 972.22 93.82 937.18 111.38 937.18 111.38 928.6 93.66 928.6 93.66 910.8 85.16 910.8 85.16 928.68 67.68 928.68 67.68 937.18 85.16 937.18"/>
    </g>
    <g>
      <polygon class="cls-6" points="149.68 1047.71 149.68 890.47 158.42 890.47 158.42 872.83 254.57 872.83 254.57 881.41 263.45 881.41 263.45 889.99 271.87 889.99 271.87 1047.71 149.68 1047.71"/>
      <polygon class="cls-11" points="132.04 1047.71 132.04 889.99 140.94 889.99 140.94 881.57 149.68 881.57 149.68 872.83 158.42 872.83 158.42 890.47 149.68 890.47 149.68 1047.71 132.04 1047.71"/>
      <path class="cls-5" d="m176.21,907.63v34.96h8.42v-8.42h8.42v8.42h8.9v-8.42h-8.9v-9.06h8.9v-8.26h-8.42c-.03,2.75-.05,5.51-.08,8.26h-8.98v-8.74h9.22v-8.74h-17.48Z"/>
      <rect class="cls-5" x="210.77" y="907.63" width="8.66" height="34.96"/>
      <path class="cls-5" d="m228.33,907.63v34.96h8.74v-8.74h8.42v-8.74h9.07v-8.74h-9.07v8.74h-8.58v-8.82c2.86.03,5.72.05,8.58.08v-8.74h-17.16Z"/>
      <polygon class="cls-2" points="237.15 1038.88 237.15 1030.14 245.89 1030.14 245.89 1012.66 254.57 1012.66 254.57 1038.88 271.87 1038.88 271.87 1047.71 254.51 1047.71 254.57 1038.88 237.15 1038.88"/>
    </g>
    <g>
      <polygon class="cls-8" points="1114.03 1049.58 1114.03 1023.11 1122.77 1023.11 1122.77 970.99 1131.67 970.99 1131.67 918.4 1140.25 918.4 1140.25 909.5 1149.06 909.5 1149.06 900.76 1157.88 900.76 1157.88 892.1 1201.5 892.1 1201.5 900.76 1210.24 900.76 1210.24 909.42 1218.9 909.42 1218.9 918.16 1227.8 918.16 1227.8 970.84 1236.54 970.84 1236.54 1023.35 1245.28 1023.35 1245.28 1049.58 1114.03 1049.58"/>
      <polygon class="cls-6" points="1131.51 1031.93 1131.51 1040.83 1114.03 1040.83 1114.03 1049.58 1131.51 1049.58 1131.51 1040.83 1148.91 1040.83 1148.91 1031.93 1157.88 1031.93 1157.88 1040.76 1166.7 1040.76 1166.7 1031.93 1157.88 1031.93 1157.88 1023.19 1149.14 1023.19 1149.14 1014.45 1140.37 1014.45 1140.37 1032.02 1131.51 1031.93"/>
      <polygon class="cls-6" points="1218.9 1032.02 1218.9 1049.58 1210.24 1049.58 1210.24 1032.02 1201.58 1032.02 1201.58 1023.35 1210.24 1023.35 1210.24 1005.87 1218.9 1005.87 1218.9 1023.35 1210.24 1023.35 1210.24 1032.02 1218.9 1032.02"/>
      <polygon class="cls-5" points="1175.36 944.46 1175.36 979.49 1184.02 979.49 1184.02 944.46 1201.58 944.46 1201.58 935.87 1183.86 935.87 1183.86 918.08 1175.36 918.08 1175.36 935.95 1157.88 935.95 1157.88 944.46 1175.36 944.46"/>
    </g>
    <g class="cls-3">
      <rect class="cls-12" x="23.69" y="860.66" width="1416.51" height="199.34"/>
    </g>
  </g>
</svg>