<?xml version="1.0" encoding="utf-8"?>
<!-- Generator: Adobe Illustrator 27.4.1, SVG Export Plug-In . SVG Version: 6.00 Build 0)  -->
<svg version="1.1" id="Layer_1" xmlns="http://www.w3.org/2000/svg" xmlns:xlink="http://www.w3.org/1999/xlink" x="0px" y="0px"
	 viewBox="0 0 720 1280" style="enable-background:new 0 0 720 1280;" xml:space="preserve">
<style type="text/css">
	.st0{fill:#0E1326;}
	.st1{fill:#0C152B;}
	.st2{fill:#0A1A33;}
	.st3{fill:#0C1E3A;}
	.st4{fill:#E3E092;}
	.st5{fill:#989898;}
	.st6{fill:#B7B7B8;}
	.st7{fill:#818181;}
	.st8{fill:#333333;}
	.st9{fill:#676767;}
	.st10{fill:#4E4E4E;}
	.st11{opacity:0.29;}
	.st12{fill:#ABABAB;}
	.st13{fill:none;}
	.st14{fill:#282828;}
	.st15{font-family:'LoRes12OT-BoldAltOakland';}
	.st16{font-size:65px;}
	.st17{font-size:60px;}
</style>
<g>
	<rect x="-343.3" y="135.9" class="st0" width="1463.1" height="1144.5"/>
</g>
<polygon class="st1" points="-333.1,1047.7 -270.1,1047.7 -270.1,968.1 -216.7,968.1 -216.7,937.4 -179.1,937.4 -179.1,874 
	-125.7,874 -125.7,839.7 -105.1,839.7 -105.1,803.5 -82.1,803.5 -39.6,803.5 67.1,803.5 67.1,780 183.5,780 183.5,756.4 209,756.4 
	209,731.1 303.6,731.1 303.6,684.1 481.9,684.1 481.9,662.3 571.7,662.3 571.7,633.3 776.6,633.3 776.6,580.9 1021,580.9 
	1018,311.3 1058,311.3 1058,162.9 1110.2,162 1110.2,-1.9 -333.1,-1.9 "/>
<polygon class="st2" points="-333.1,890.3 -284.6,890.3 -284.6,834.2 -216.5,834.2 -216.5,743.8 -114.8,743.8 -114.8,709.4 
	37.7,709.4 37.7,644.2 66.5,644.2 66.5,615.3 117.4,615.3 117.4,591.8 269.9,591.8 269.9,559.2 453.5,559.2 453.5,522.9 
	467.4,522.9 467.4,486.8 541.3,486.8 541.3,454.3 683.4,454.3 683.4,416.3 752.7,416.3 752.7,371 857.3,371 856.7,114.1 
	908.7,112.3 908.7,-1.9 -333.1,-1.9 "/>
<polygon class="st3" points="-333.1,702.1 -295.4,702.1 -295.4,647.9 -177.9,647.9 -177.9,617.1 -118,617.1 -118,577.3 -14.8,577.3 
	-14.8,510.4 153.7,510.4 153.7,444.2 311.2,444.2 311.2,374.6 391.1,374.6 391.1,293.2 493.1,293.2 493.1,204.6 514.2,204.6 
	514.2,128.6 555.2,128.6 555.2,59.8 624,59.8 624,-1.9 -333.1,-1.9 "/>
<polygon class="st4" points="263.7,155.5 270.3,167.7 264.8,171.3 268.3,177.7 262.7,181.4 269.4,193.7 263.6,197.5 266.9,203.7 
	255.7,211 259.2,217.4 253.3,221.2 256.7,227.3 245.5,234.6 248.8,240.8 231.7,252 235.1,258.2 195.5,284 192.2,277.8 175.1,288.9 
	171.7,282.7 160.3,290.1 157,284 151.5,287.6 148,281.1 136.6,288.5 133.3,282.5 127.7,286.2 120.9,273.8 115.2,277.5 111.7,271.1 
	106.2,274.7 99.5,262.5 93.9,266.2 83.7,247.4 78,251.1 54.5,207.8 60.1,204.1 50,185.3 55.8,181.5 49.3,169.5 54.7,166 51.2,159.5 
	57,155.7 50.3,143.3 56,139.6 52.6,133.4 64,126 60.6,119.7 66.1,116.1 62.7,109.9 74.1,102.4 70.7,96.1 87.6,85.1 84.4,79.1 
	124,53.3 127.4,59.6 144.4,48.5 147.6,54.4 159,47 162.5,53.6 168.1,49.9 171.4,55.9 182.7,48.5 186.1,54.7 191.8,51 198.5,63.4 
	204.2,59.7 207.7,66.2 213.2,62.6 219.9,74.8 208.7,82.1 205.4,76.1 199.6,79.8 196.1,73.3 184.9,80.6 181.5,74.4 142,100.2 
	145.3,106.3 133.9,113.7 137.4,120.1 131.7,123.9 135,130.1 129.4,133.8 132.7,139.9 126.9,143.7 133.7,156.2 128.2,159.8 
	151.8,203.2 157.4,199.5 164.2,212.1 169.8,208.5 173,214.4 178.7,210.7 182.1,217 187.8,213.3 191.3,219.8 202.5,212.5 
	205.7,218.3 245.6,192.3 242.3,186.4 253.7,179 250.2,172.6 255.9,168.9 252.7,162.5 "/>
<g>
	<path d="M-263.1,185c0.1,0.9,0.3,1.7,0.3,2.6c0,12.4,0,24.8,0,37.2c0,0.6-0.1,1.3-0.2,2.3c-4.8,0-9.5,0-14.6,0
		c-0.3,14.3,0,28.2-0.2,42c-4.9-0.1-9.8-0.2-15-0.4c0-7.1,0-13.7,0-20.5c-5,0-9.8,0-14.6,0c-0.5,5.5-0.4,38.4,0.2,41.5
		c4.7,0,9.4,0,14.4,0c0,20.9,0,41.5,0,62.5c5.1,0,9.9,0,15,0c0,7.1,0,13.7,0,20.4c5.1,0,9.9,0,14.7,0c0.5-6.9,0.3-59.1-0.3-62.2
		c-4.7,0-9.4,0-14.4,0c0-1.6,0-2.9,0-4.1c0-5.8,0-11.5,0-17.3c0-6.7-0.1-13.3-0.1-20c9.9,0,19.8,0,30.1,0c0,13.9,0,27.5,0,41.3
		c5.1,0,9.8,0,14.9,0c0-6.8,0-13.5,0-20.7c5.2,0,10,0,15.1,0c0-14.1,0-27.7,0-41.7c5.1,0,9.8,0,14.9,0c0-20.9,0-41.5,0-62.4
		c5.2-0.1,10.2-0.1,15.1-0.2l-0.1-0.1c0,20.8,0,41.6,0.1,62.4c5.1,0,9.9,0,14.9,0c0-13.9,0-27.5,0-41.7c5.2,0,10,0,14.9,0
		c0.1,7,0.1,13.9,0.2,21c5.1,0,9.8,0,14.7,0c0-6.9,0-13.6,0-20.9c-5.1,0-10,0-14.9,0c0.1-4.1,0.1-8.2,0.1-12.2
		c0-23.6,0-47.2-0.1-70.8l-0.1,0.1c4.9,0,9.7,0,15,0c0.2,20.6,0,41.2,0.1,62.3c5.1,0,9.9,0,14.9,0c0,14.1,0,27.7,0,41.7
		c-4.9,0-9.7,0-14.8,0c-0.2,7,0,13.7-0.1,20.8c-5,0-9.7,0-14.7,0c0,34.8,0,69.2,0,104.1c-5,0.3-9.9,0-15.1,0.2
		c-0.1,5.6,0,11.1,0,16.5c0,5.5,0,11,0,16.5c0,5.6,0,11.3,0,16.9c0,5.5,0,11,0,16.5c0,5.5,0,11,0,16.8c-5,0-9.8,0-14.9,0
		c0,7.1,0,13.8,0,20.8c-10.1,0-19.8,0-29.5,0c-0.6,3.1-0.8,33.4-0.3,41.2c1.9,0.8,25,1,29.7,0.3c0-6.6,0-13.3,0-20.4
		c10.1,0,19.8,0,29.9,0c0.2-5.5,0.1-10.7,0.1-15.9c0-5.1,0-10.2,0-15.4c0-5.3,0-10.5,0-15.8c0-5.1,0-10.2,0-15.7c5,0,9.7,0,14.9,0
		c0-17.6,0-34.9,0-52.1c0-17.1,0-34.3,0-51.4c2-0.9,10.2-1.2,14.6-0.5c0.6,2.7,0.8,98.9,0.1,103.8c-4.8,0-9.6,0-14.6,0
		c0,14,0,27.5,0,41.6c4.8,0.3,9.6,0,14.4,0.2c0.6,2.8,0.8,15.4,0.2,20.7c-4.8,0-9.6,0-14.6,0c0,14.1,0,27.7,0,41.7c5,0,9.8,0,14.7,0
		c0,7.2,0,13.9,0,21c-4.9,0-9.7,0-14.7,0c-0.3,3.7-0.1,7.1-0.2,10.5c0,3.5,0,6.9,0,10.4c0,3.3,0,6.7,0,10c0,3.4,0,6.9,0,10.9
		c-5,0-9.8,0-14.9,0c0,7.1,0,13.7,0,20.8c-5.1,0-9.9,0-15,0c0,7.1,0,13.7,0,20.8c-5,0.3-9.9,0-14.8,0.2c0,6.9,0,13.5,0,20.4
		c0.6,0.1,1.1,0.3,1.6,0.3c13.9,0,27.8,0,41.7,0c0.4,0,0.7-0.1,1.1-0.2l-0.1-0.1c0.1,1.9,0.3,3.8,0.3,5.7c0,5,0,9.9,0,15.3
		c-19.9,0-39.7,0-59.5,0c-0.7,3.7-0.3,7.2-0.3,10.6c-0.1,3.3,0,6.6,0,10.3c-5,0-9.8,0-14.7,0c0,34.9,0,69.4,0,104.2
		c5,0.2,10,0.3,15,0.5l-0.1-0.1c-0.1,1.4-0.2,2.8-0.2,4.2c0,17.8,0,35.6,0,53.4c0,1.4,0,2.8,0,4.7c-4.9,0-9.8,0-14.7,0
		c0,28,0,55.5,0,83.5c4.8,0,9.6,0,14.6,0c0,14,0,27.5,0,41.6c-4.8,0-9.6,0-14.6,0c-0.1,1.6-0.2,2.8-0.2,3.9c0,53.5,0,107,0,160.5
		c0,0.8,0.1,1.5,0.1,2.3c-15.1,0-30.2,0-45.3,0c0-0.6,0.1-1.3,0.1-1.9c0-67.7,0-135.4,0-203.2c0-1-0.1-1.9-0.2-3.3
		c-4.9,0-9.6,0-14.7,0c0-4.4,0-8.5,0-12.6c0-4.2,0-8.4,0-12.7c0-4.1,0-8.2,0-12.3c0-4.2,0-8.4,0-12.7c0-4,0.1-8.1-0.1-12.4
		c-5.1,0-9.9,0-14.7,0c0-14,0-27.6,0-41.4c5,0,9.8,0,14.9,0c0,13.9,0,27.5,0,41.2c5.1,0,9.8,0,14.5,0c0.6-5.1,0.4-59.5-0.2-62.5
		c-4.6,0-9.4,0-14.4,0c0-5,0-9.6,0-14.1c0-4.5,0-9,0-13.4c0-4.5,0.1-9.1-0.1-14c-5.1,0-9.8,0-14.9,0c0-7,0-13.7,0-20.8
		c-5.1,0-9.9,0-14.9,0c0-7.1,0-13.8,0-20.5c-5.4,0-10.4,0-15.4,0c0-7.2,0-14.3,0-21.5c4.9,0.1,9.9,0.1,14.8,0.2
		c0.1,0,0.3-0.3,0.7-0.7c0-6.6,0-13.4,0-20.3l-0.1,0.1c3.9,0,7.8,0.1,11.7,0.1c1.2,0,2.3-0.3,3.5-0.4c0,7,0,14,0,21.2
		c5,0,9.8,0,14.6,0c0-7,0-13.7,0-20.7c-1.4,0-2.7,0-4,0c-3.6-0.1-7.1-0.2-10.7-0.3c-0.1-13.6-0.1-27.3-0.2-41.3c-5.2,0-10,0-14.9,0
		l0.1,0.1c0-6.8-0.1-13.7-0.1-20.8c-5.4,0-10.4,0-15.4,0c0-13.8,0-27.7,0-41.5c5.1-0.1,10.2-0.2,15.3-0.2c0-7.2,0-13.9,0-20.5
		c-5.2,0-10.2,0-15.3,0c0-7.2,0-14.3,0-21.5c4.9,0.1,9.9,0.1,14.8,0.1c0.1,0,0.3-0.3,0.6-0.6c0-0.6,0.1-1.3,0.1-2.1
		c0-33.8,0-67.5,0-101.3c4.9-0.1,9.8-0.2,14.9,0c0,3.9,0,7.4,0,10.8c0,3.3,0,6.7,0,10c0,3.5,0,6.9,0,10.4c0,3.4-0.2,6.8,0.2,10.5
		c5,0,9.8,0,14.8,0c0,7,0,13.7,0,20.4c3.8,0.7,12.9,0.5,14.7-0.2c0-20.6,0-41.1,0-62c-4.9,0-9.7,0-14.7,0c0-7.1,0-13.8,0-21
		c-5.1,0-10,0-15.1,0c0-14.1,0-27.7,0-41.7c-5,0-9.8,0-14.8,0c0-14,0-27.6,0-41.6c-5.4,0-10.4,0-15.4,0c0-27.9,0-55.8,0-83.8
		c4.9,0.1,9.9,0.1,14.8,0.2c0.1,0,0.3-0.3,0.7-0.6c0-6.3,0-12.9,0-20c5.1,0,9.9,0,14.8,0c0-7.4,0-14.3,0-21.1c4.9,0,9.7,0,14.9,0
		c0.2-3.3,0.1-6.7,0.1-10.1c0-3.3,0-6.6,0-10.3c1.2-0.1,2.2-0.2,3.1-0.2C-270.7,185.3-266.8,185.2-263.1,185L-263.1,185z
		 M-187.7,373c0-4.1,0-7.5,0-10.9c0-3.3,0-6.7,0-10c0-3.5,0-6.9,0-10.4c0-3.4-0.2-6.8,0.2-10.6c5,0,9.8,0,14.5,0
		c0.5-6,0.4-38.6-0.2-41.2c-4.8,0-9.5,0-14.6,0c0,7,0,13.7,0,20.7c-10.1,0-19.8,0-29.9,0c0,7,0,13.7,0,20.7c-5.1,0-9.9,0-14.6,0
		c-0.6,3.8-0.6,79.9,0.1,83.2c4.8,0.1,9.6,0.4,14.7-0.2c0-6.9,0-13.5,0-20.5c5.1,0,9.8,0,14.9,0c0-7.1,0-13.8,0-20.9
		C-197.6,373-192.8,373-187.7,373z M-202.6,623.2c0-14,0-27.6,0-41.4c5.1-0.3,10,0.1,15-0.2c0-7.1,0-13.7,0-20.8c10,0,19.8,0,29.5,0
		c0.7-4.7,0.5-59.7-0.1-62.3c-4.7,0-9.5,0-14.6,0c0,6.9,0,13.6,0,20.7c-5.1,0-9.9,0-14.9,0c0,7.1,0,13.8,0,20.6
		c-5.1,0.6-10-0.2-15,0.5c0,7,0,13.5,0,20.5c-5,0-9.8,0-14.5,0c-0.6,4.5-0.5,59.5,0.1,62.4C-212.5,623.2-207.8,623.2-202.6,623.2z
		 M-277.6,560.7c0,4.4,0,8.4,0,12.3c0,4,0,7.9,0,11.9c0,4,0,7.9,0,11.9c0,3.8,0,7.7,0,11.5c0,4,0,7.9,0,11.9c0,4,0,7.9,0,11.9
		c0,3.9-0.1,7.8,0.1,11.7c5.1,0,9.8,0,14.7,0c0-34.6,0-69,0-103.9c-5,0-9.8,0-14.7,0c-0.2-7.2,0.1-14-0.1-20.6
		c-4.5-0.7-12.9-0.5-14.8,0.3c0,13.5,0,27,0,41.1C-287.5,560.7-282.7,560.7-277.6,560.7z M-202.9,519.2c-5,0-9.8,0-14.6,0
		c0,7,0,13.7,0,20.5c4.9,0,9.7,0,14.6,0C-202.9,532.8-202.9,526.1-202.9,519.2z M-202.5,268.7c5.1,0,9.8,0,14.7,0
		c0-6.9,0-13.6,0-20.5c-4.9,0-9.7,0-14.7,0C-202.5,255.1-202.5,261.8-202.5,268.7z M-277.5,727.1c4.9,0,9.7,0,14.6,0
		c0-6.9,0-13.5,0-20.2c-4.9,0-9.7,0-14.6,0C-277.5,713.7-277.5,720.3-277.5,727.1z"/>
	<path d="M-307.5,164.6c-5.2,0-10.3,0-15.5-0.1c0-13.8,0-27.7,0-41.5c5,0,10.1,0,15.5,0C-307.5,137.1-307.5,150.8-307.5,164.6z"/>
	<path d="M-323,685.5c0-13.8,0-27.7,0-41.5c5.2,0,10.3,0,15.5,0.1c0,0-0.1-0.1-0.1-0.1c0,13.9,0,27.7,0,41.6l0.1-0.1
		C-312.7,685.5-317.9,685.5-323,685.5z"/>
	<path d="M-307.5,435.9c-5.2,0-10.3,0-15.5-0.1c0-7.2,0-14.3,0-21.5c2.2,0.1,4.4,0.3,6.6,0.4c2.8,0.1,5.7,0,8.8,0
		C-307.6,422-307.6,428.9-307.5,435.9z"/>
	<path d="M-82.5,269.4c-0.1-1-0.3-2-0.3-3c0-12.2,0-24.3,0-36.5c0-0.8,0.1-1.5,0.2-2.7c4.9,0,9.7,0,14.8,0c0-21,0-41.6,0-62.5
		c5.1-0.1,10-0.2,14.8-0.3l-0.1-0.1c0.1,1.5,0.3,3,0.3,4.5c0,24.7,0,49.4,0,74.1c0,1.5,0,3,0,4.9c5,0,9.8,0,14.9,0
		c0.1,10.7,0,21,0,31.3c0,10.3,0,20.7,0,31.4c5.1,0,10,0,14.9,0c0,7.1,0,13.6,0,20.5c-9.9,0-19.7,0-29.8,0c0-27.6,0-55,0-82.3
		c-2.2-0.9-11.4-1.1-15-0.3c0,6.6,0,13.3,0,20.6c-1.4,0-2.5,0-3.5,0C-75,269.1-78.8,269.2-82.5,269.4
		C-82.5,269.3-82.5,269.4-82.5,269.4z"/>
	<path d="M-217.3,144.1c-0.1,1.4-0.3,2.8-0.3,4.1c0,17.8,0,35.6,0,53.4c0,1.4,0,2.8,0,4.5c-5.1,0-9.9,0-15.1,0c0,21,0,41.5,0,62
		c-2.2,1-12,1.1-14.8,0.3c0-27.4,0-54.9,0-82.8c4.8,0,9.6,0,14.7,0c0.1-7.2,0.1-14.1,0.1-20.9c0-6.8,0-13.6,0-20.1
		c0.3-0.4,0.4-0.7,0.6-0.7c4.7,0,9.4-0.1,14.1-0.1C-217.8,143.8-217.5,144-217.3,144.1L-217.3,144.1z"/>
	<path d="M-172.7,123.1c0-13.8,0-27.6,0-41.9c9.9,0,19.7,0,29.9,0c0-7.2,0-13.9,0-20.8c10.1,0,19.9,0,29.9,0c0,6.9,0,13.6,0,20.7
		c-9.9,0-19.7,0-29.8,0c0,7,0,13.7,0,20.7c-5,0-9.8,0-14.8,0c-0.1,7.4-0.2,14.3-0.3,21.3c0,0,0.1-0.1,0.1-0.1c-5,0-10,0-15,0
		L-172.7,123.1z"/>
	<path d="M-217.3,144.2c-0.1-0.9-0.3-1.7-0.3-2.6c0-12.4,0-24.8,0-37.2c0-0.6,0.1-1.3,0.2-2.3c4.8,0,9.5,0,14.6,0
		c0.3-10.7,0.1-21,0.1-31.3c0-10.2,0-20.5,0-31.2c1.1-0.1,2.1-0.1,3.1-0.2c3.9-0.1,7.9-0.2,11.8-0.3c0,0-0.1-0.1-0.1-0.1
		c0.1,1.1,0.2,2.3,0.2,3.4c0,18.6,0,37.1,0,55.7c0,1.1-0.1,2.2-0.1,3.7c-4.9,0-9.7,0-14.8,0c0,4.9,0,9.4,0,14c0,4.5,0,9,0,13.4
		c0,4.6,0,9.2,0,14c-0.9,0.1-1.6,0.3-2.3,0.3c-3.2,0-6.4,0-9.7,0C-215.5,143.7-216.4,143.9-217.3,144.2
		C-217.3,144.1-217.3,144.2-217.3,144.2z"/>
	<path d="M-97.7,351.9c0,13.8,0,27.6,0,41.7c5,0.8,9.8-0.1,14.7,0.5c0,6.8,0,13.4,0,20.4c-4.8,0-9.5,0-14.6,0
		c-0.3,3.9-0.1,7.4-0.1,10.9c0,3.4,0.1,6.9,0.1,10.3c0,0,0.1-0.1,0.1-0.1c-5,0-9.9,0-14.8,0c-0.6-3.3-0.7-79.5-0.1-83.4
		C-107.5,352.2-102.6,352.1-97.7,351.9C-97.6,352-97.7,351.9-97.7,351.9z"/>
	<path d="M-263,144c-2.7-0.1-5.3-0.3-8-0.3c-2.1-0.1-4.2,0-6.6,0c0-14,0-27.6,0-41.7c-5.1,0-10,0-14.9,0c-0.1-1.2-0.2-2-0.2-2.7
		c0-12.3,0-24.6,0-36.9c0-0.9,0.1-1.8,0.2-2.7l-0.1,0.1c3.8,0.1,7.5,0.2,11.3,0.3c1.1,0,2.2,0,3.6,0c0,14,0,27.6,0,41.7
		c5.1,0,9.9,0,14.8,0c0.1,1.4,0.2,2.3,0.2,3.2c0,11.9,0,23.8,0,35.7C-262.7,141.9-262.9,143-263,144C-263,144.1-263,144-263,144z"/>
	<path d="M-82.5,269.3c-0.1,1.4-0.3,2.8-0.3,4.1c0,24.5,0,49,0,73.6c0,1.5,0,3,0,5c-5.1,0.3-10,0.4-14.9-0.1c0,0,0.1,0.1,0.1,0.1
		c0-4.3-0.1-8.7-0.1-13c0-21.8,0-43.7,0-65.5c0-1.4,0-2.7,0-4.6c3.6,0,7,0,10.3,0C-85.8,269-84.1,269.2-82.5,269.3
		C-82.5,269.4-82.5,269.3-82.5,269.3z"/>
	<path d="M-187.7,185.4c0-20.6,0-41.3,0-62.4c5.1,0,10-0.2,14.9,0.2c0,0-0.1-0.1-0.1-0.1c0,20.5,0,41-0.1,61.6
		c0,0.1-0.1,0.2-0.1,0.3c-0.1,0.1-0.1,0.2-0.2,0.4c-4.8,0-9.6,0-14.5,0L-187.7,185.4z"/>
	<path d="M-97.4,582.1c-0.1-1.5-0.3-3-0.3-4.5c0-5.5,0-11,0-16.9c5,0,9.7,0,14.8,0c0-7.1,0-13.8,0-20.6c5.2,0,10,0,15,0
		c0,6.8,0,13.3,0,20.2c-4.8,0.7-9.7-0.1-14.8,0.5c0,6.7,0,13.5,0,20.4c-1,0.2-1.7,0.4-2.4,0.4c-3.2,0-6.4,0-9.7,0
		C-95.6,581.7-96.5,581.9-97.4,582.1L-97.4,582.1z"/>
	<path d="M-187.4,748.9c-0.1-0.9-0.2-1.8-0.2-2.6c0-12.4,0-24.8,0-37.2c0-0.6,0.1-1.3,0.1-2.2c4.9,0,9.7,0,14.6,0
		c0,13.8,0,27.4,0,41.5c-1.4,0-2.6,0-3.9,0C-180.4,748.5-183.9,748.7-187.4,748.9C-187.5,748.8-187.4,748.9-187.4,748.9z"/>
	<path d="M-83,39.8c0,6.8,0,13.4,0,20.2c-9.9,0-19.7,0-29.7,0c0-6.7,0-13.3,0-19.9C-110.7,39.3-87.6,39-83,39.8z"/>
	<path d="M-187.8,39.1c0-12,0.1-24.1,0.1-36.1c0-1.5,0-3.1,0-4.5c2.1-0.9,11.4-1.1,14.7-0.3c0,13.5,0,27,0,40.5
		c-0.1,0.1-0.2,0.4-0.4,0.4c-4.9,0-9.7-0.1-14.6-0.2C-187.9,39-187.8,39.1-187.8,39.1z"/>
	<path d="M-202.4,790.3c-0.1-0.9-0.3-1.7-0.3-2.6c0-12.2,0-24.5,0-36.7c0-0.7,0.1-1.5,0.1-2.6c4.4,0,8.7,0,13,0
		c0.7,0,1.4,0.3,2.1,0.4c0,0-0.1-0.1-0.1-0.1c-0.1,1.4-0.2,2.8-0.2,4.2c0,10.8,0,21.7,0,32.5c0,1.4,0,2.7,0,4.4
		c-5.1,0.1-10,0.2-14.8,0.3C-202.5,790.2-202.4,790.3-202.4,790.3z"/>
	<path d="M-292.6,206.1c-4.9,0-9.7,0-15,0c0-14,0-27.8,0-41.6c4.9,0,9.7,0,14.9,0C-292.7,178.6-292.6,192.4-292.6,206.1z"/>
	<path d="M-263,185c0.1-0.7,0.3-1.5,0.3-2.2c0-12.3,0-24.7,0-37c0-0.6-0.1-1.2-0.2-1.8c0,0-0.1,0.1-0.1,0.1c1.4-0.1,2.9-0.4,4.4-0.4
		c3.6-0.1,7.1,0,10.9,0c0,14,0,27.6,0,41.3c-0.4,0.1-0.8,0.4-1.2,0.4c-4.1,0-8.3,0-12.4,0C-262,185.4-262.5,185.1-263,185
		C-263.1,185-263,185-263,185z"/>
	<path d="M-97.5,456.8c-0.1,1.4-0.3,2.8-0.3,4.1c0,10.9,0,21.7,0,32.6c0,1.4,0,2.8,0,4.4c-5.1,0-9.9,0-14.9,0c0-13.7,0-27.3,0-41
		c0.3-0.1,0.6-0.4,1-0.4c4.3,0,8.6,0,12.9,0C-98.3,456.5-97.8,456.7-97.5,456.8L-97.5,456.8z"/>
	<path d="M-232.9,143.5c-5,0-9.6,0-14.3,0c-0.6-2.9-0.8-34.9-0.3-40.9c1.9-0.8,11.4-0.9,14.5-0.2
		C-232.9,116-232.9,129.6-232.9,143.5z"/>
	<path d="M-38,518.7c-4.8,0-9.7,0-14.7,0c0-6.8,0-13.4,0-20.3c4.8,0,9.5,0,14.5,0c0.6,3.2,0.2,6.7,0.3,10c0,3.4-0.1,6.9-0.1,10.3
		C-38,518.8-38,518.7-38,518.7z"/>
	<path d="M-97.5,144.1c-0.1,2.9-0.2,5.8-0.3,8.7c0,3.7,0,7.4,0,11c-2.1,0.9-12.1,1.1-14.9,0.2c0-6.6,0-13.2,0-19.9
		c0.4-0.1,0.9-0.4,1.3-0.4c4.1,0,8.3,0,12.4,0C-98.5,143.7-97.9,144-97.5,144.1L-97.5,144.1z"/>
	<path d="M-97.4,582.1c-0.1,2.7-0.2,5.3-0.3,8c0,3.9,0,7.9,0,12.1c-5.1,0-9.9,0-14.9,0c0-6.7,0-13.2,0-19.9c0.2-0.1,0.4-0.4,0.7-0.4
		c4.5,0,9-0.1,13.5,0C-98.1,581.7-97.8,582-97.4,582.1C-97.4,582.1-97.4,582.1-97.4,582.1z"/>
	<path d="M-97.4,144.2c-0.1-1.9-0.3-3.8-0.3-5.7c0-5,0-10,0-14.9c2.1-0.8,11.5-1,14.7-0.3c0,6.5,0,13.1,0,20
		c-0.7,0.1-1.4,0.3-2.1,0.3c-3.2,0-6.4,0-9.7,0C-95.7,143.7-96.6,143.9-97.4,144.2C-97.5,144.1-97.4,144.2-97.4,144.2z"/>
	<path d="M-97.4,456.9c-0.1-1.6-0.3-3.2-0.3-4.9c0-5.4,0.1-10.9,0.2-16.3c0,0-0.1,0.1-0.1,0.1c4.8,0,9.7,0,14.6,0
		c0,6.9,0,13.5,0,20.6c-1,0-2,0-3,0C-89.8,456.5-93.6,456.7-97.4,456.9C-97.5,456.8-97.4,456.9-97.4,456.9z"/>
	<path d="M-143.1,643.9c0.1-3.9,0.2-7.9,0.2-11.8c0-2.7,0-5.4,0-8c2-0.9,10-1.2,14.6-0.5c0.6,2.7,0.7,15.9,0.2,20.2
		C-133.1,643.8-138.1,643.8-143.1,643.9C-143.2,643.8-143.1,643.9-143.1,643.9z"/>
	<path d="M-292.4,59.8c-1.9,0.1-3.8,0.4-5.7,0.4c-3,0.1-6,0-9.2,0c0-6.9,0-13.5,0-20.1c1.8-0.8,10.8-1,14.6-0.3
		c0.1,6.6,0.1,13.3,0.2,20C-292.5,59.9-292.4,59.8-292.4,59.8z"/>
	<path d="M-113,435.9c0,7,0,13.5,0,20.2c-4.8,0-9.6,0-14.6,0c-0.3-6.7-0.2-13.4-0.1-20.2C-122.7,435.9-117.9,435.9-113,435.9z"/>
	<path d="M-127.5,602.7c4.9,0,9.7,0,14.5,0c0,6.8,0,13.4,0,20.5c-2.4,0-4.8,0.1-7.1,0.1c-2.4,0-4.8,0-7.1,0
		C-127.9,620.4-128,608.7-127.5,602.7z"/>
	<path d="M-113,164.8c0,6.8,0,13.4,0,20c-1.9,0.8-11,1-14.5,0.2c0-6.6,0-13.3,0-20.2C-122.7,164.8-117.9,164.8-113,164.8z"/>
	<path d="M-113,518.8c-5,0-9.7,0-14.5,0c0-6.8,0-13.5,0-20.4c4.9,0,9.7,0,14.5,0C-113,505.2-113,511.8-113,518.8z"/>
</g>
<g>
	<path d="M1046.3,1128.1c-0.1-1.7-0.2-3.3-0.2-5c0-87.3,0-174.5,0-261.8c0-1.8,0-3.6,0-5.8c-4.7,0-9.2,0-14,0c0-13.2,0-25.9,0-39.2
		c-4.7,0-9.2,0-14,0c0-6.6,0-12.8,0-19.4c-4.8,0-9.3,0-13.9,0c0-13.1,0-25.7,0-38.8c2.2-0.3,4.5-0.1,6.8-0.2c2.2,0,4.5,0,7,0
		c0,6.5,0,12.7,0,19.3c4.8,0,9.2,0,14,0c0,6.6,0,12.9,0,19.4c4.8,0,9.3,0,14,0c0-12.8,0-25.6,0-38.6c-4.6,0-9,0-13.9,0
		c0-6.6-0.1-13-0.1-19.7c-4.7,0-9.1,0-13.8,0c0-6.5,0-12.7,0-19.3c-4.8,0-9.3,0-14.1,0c0-13.2,0-25.9,0-39c-4.7,0-9.2,0-13.9,0
		c0-6.6,0-12.9,0-19.5c-14.1,0-27.9,0-42.1,0c-0.1-6.5-0.1-12.7,0-19.3c4.6-0.5,9.1,0,13.9-0.4c0-1.3,0.1-2.6,0.1-3.9
		c0-10.3,0-20.6,0-30.9c0-1.3,0.1-2.6,0.1-3.9l-0.1,0.1c4.5,0,9.1,0,13.8,0c0,6.4,0,12.6,0,19.2c9.4,0,18.6,0,27.9,0
		c0,6.6,0,12.8,0,19.4c4.7,0.3,9.2,0,14,0.2c0,6.4,0,12.5,0,18.6c2.1,0.9,10.5,1.1,13.9,0.3c0-12.6,0-25.3,0-38.4
		c-4.4,0-8.9,0-13.7,0c0-13.2,0-25.9,0-39.1c-4.8,0-9.3,0-14.1,0c0-13.2,0-25.9,0-39c-4.7,0-9.2,0-13.9,0c0-13.1,0-25.8,0-38.9
		c-4.7,0-9.2,0-14,0c-0.2-13,0-25.8-0.1-38.9c-9.3,0-18.5,0-27.9,0c0-6.7,0-13,0-19.6c-4.7,0-9.2,0-13.9,0c0-6.5,0-12.7,0-19.2
		c-2.5-0.5-4.8-0.2-7.1-0.3c-2.3,0-4.6,0-7,0s-4.6,0-7,0c-2.3,0-4.6,0-7,0c0-7,0-13.5,0-20l-0.1,0.1c0.9,0.1,1.9,0.3,2.8,0.3
		c7.4,0,14.8,0,22.2,0c0.9,0,1.8,0,3,0c0,6.6,0,12.8,0,19.3c2.5,0.5,4.8,0.2,7,0.3c2.2,0,4.4,0,6.9,0c0,6.5,0,12.7,0,19.4
		c4.8,0.1,9.3,0.1,14.1,0c0-1.5,0.1-2.8,0.1-4.1c0-10.4,0-20.8,0-31.2c0-1.3,0.1-2.6,0.1-3.9l-0.1,0.1c4.5,0,9.1,0,13.9,0
		c0,13.2,0,26,0,39.2c4.8,0,9.3,0,14.1,0c0,6.7,0,13,0,19.6c4.7,0,9.1,0,13.9,0c0,13.1,0,25.8,0,39c4.8,0,9.3,0,14,0
		c0,13.1,0,25.7,0,38.6c4.7,0,9.2,0,13.7,0c0.5-6.1,0.3-113.9-0.3-116.8c-4.4,0-8.8,0-13.5,0c0-13.3,0-26.2,0-39.1l-0.1,0.1
		c9.3,0,18.6,0,28.1,0c0-19.4,0-38.6,0-58.1c4.7,0,9.1,0,13.9,0c0.2,6.4,0.1,12.8,0.1,19.2c0,6.3,0,12.7,0,19.2c4.8,0,9.3,0,13.9,0
		c0-12.8,0-25.5,0-38.7c-4.6,0-9.1,0-13.8,0c0-19.6,0-38.8,0-58.5c4.7,0,9.2,0,14,0c0-4.6,0-8.8,0-12.9c0-2.4,0.2-4.7,0.3-7.1l0,0.1
		c4.4,0,8.9,0,13.6,0c0-25.6,0-51.3,0-77.1c0.8-0.1,1.4-0.3,2-0.3c3.4,0,6.9,0,10.3,0c0.7,0,1.3,0.3,2,0.4l-0.1-0.1
		c0,10-0.1,20.1-0.1,30.1c0,2.6,0,5.2,0,7.6c0.2,0.3,0.3,0.4,0.3,0.5c0.1,0.1,0.1,0.2,0.2,0.2c9.1,0.1,18.2,0.1,27.3,0.2
		c0,6.5,0,12.9,0,19.4c-9.3,0.1-18.5,0.1-27.9,0.2c0,13.2,0,25.8,0,39c-4.7,0-9.2,0-14,0c0,39.2,0,77.9,0,117c-4.8,0-9.2,0-13.7,0
		c0,19.6,0,38.8,0,58.1c4.6,0,9,0,13.8,0c0-13,0-25.7,0-38.9c4.8,0,9.3,0,14.1,0c0-26.1,0-51.8,0-77.7c4.8,0,9.4,0,13.9,0
		c0,51.2,0,102.3,0,153.5c0,0.7,0.1,1.4,0.2,2.5c4.7,0,9.2,0,13.7,0c0,19.4,0,38.8,0,58.2c-4.7,0-9.3,0-14,0c0-6.3,0-12.6,0-19.2
		c-4.7-0.4-9.3,0.1-13.9-0.4c-0.1-6.6,0.1-12.9-0.1-19.3c-2.6,0-4.8,0-7.1,0c-2.2,0-4.4,0-6.6,0c-0.6,4.9-0.4,114.3,0.2,117.1
		c4.5,0,9,0,13.6,0c0,24.4,0,48.8,0,73.1c0,1.4-0.1,2.9-0.1,4.3c-3.7,0.1-7.4,0.2-11.1,0.3c-0.9,0-1.8,0.1-2.9,0.1
		c0,3.5,0,6.6,0,9.7c0,3.2,0,6.4,0.1,9.5c4.8,0,9.2,0,13.8,0c0-6.8,0-13.3,0-19.8c0.2,0.1,0.5,0.3,0.7,0.3c4.2,0,8.4,0,12.6,0
		c0.2,0,0.4-0.3,0.9-0.6c0-6.1,0-12.2,0-18.8c4.8,0,9.3,0,13.8,0c0,13.2,0,26.3,0,39.5c-3-0.7-12-0.5-13.9,0.4c0,4.2,0,8.5,0,12.8
		c0,4.2,0,8.4,0,12.6c0,4.2,0.1,8.5-0.1,13.1c-4.8,0-9.2,0-13.9,0c0,6.5,0,12.7,0,19.3c-4.8,0-9.3,0-13.7,0
		c-0.5,5.6-0.3,75.3,0.1,77.8c4.4,0,8.9,0,13.6,0c0-6.5,0-12.8,0-18.9c3-0.8,11.9-0.6,13.8,0.1c0,6.2,0,12.4,0,19.1
		c-4.6,0-9.1,0-13.9,0c0,19.7,0,38.9,0,58.5c-4.8,0-9.3,0-14,0c0,1.9,0,3.3,0,4.7c0,68.5,0,137,0,205.4c0,1.3,0.1,2.6,0.1,3.9
		C1074.2,1128.1,1060.2,1128.1,1046.3,1128.1z"/>
	<path d="M1130,329.1c-4.7,0-9.3,0-14,0.1c0-12.9,0-25.8,0-39.1c1.2-0.1,2.2-0.1,3.2-0.1c3.6-0.1,7.2-0.2,10.8-0.4
		C1130,302.8,1130,316,1130,329.1z"/>
	<path d="M919.5,212.3c0.1-1.3,0.3-2.6,0.3-3.9c0-10.3,0-20.6,0-30.9c0-1.3,0-2.6,0-4.3c4.7,0,9.2,0,13.9,0c0-6.7,0-13,0-19.7
		c-4.6,0-9.1,0-13.8,0c0-6.6,0-12.8,0-19.2c4.5,0,9,0,13.9,0c0,6.2,0,12.4,0,18.4c2.1,0.9,10,1,13.9,0.4c0.1-1.3,0.2-2.7,0.2-4
		c0-23,0-46,0-69c0-1.4,0-2.8,0-4.6c4.8,0,9.3,0,14.1,0c0-26.1,0-51.8,0-77.7c4.8,0,9.3,0,13.8,0c0,32.4,0,64.6,0,97.1
		c-4.6,0-9,0-13.3,0c-0.6,3-0.8,110-0.3,116.9c4.7,0.1,9.3,0.3,14,0.4l-0.1-0.1c-0.1,0.9-0.2,1.9-0.2,2.8c0,17.4,0,34.7,0,52.1
		c0,1,0.1,2.1,0.2,3.6c4.7,0,9.2,0,13.8,0c0,13.4,0,26.3,0,39.2l0.1-0.1c-4.6,0-9.2,0-14.1,0c0-13.3,0-26,0-38.7
		c-3.1-0.7-11.9-0.6-13.9,0.2c0,1.1,0,2.3,0,3.5c0,8.6,0,17.2,0,25.8c0,16,0,32,0.1,48l0.1-0.1c-4.6,0-9.3,0-14.2,0
		c0,6.5,0,12.7,0,19.2c-2.4,0.4-4.6,0.2-6.8,0.2c-2.2,0-4.5,0-6.6,0c-0.7-2.7-0.9-31.7-0.3-38.7c4.4,0,8.8,0,13.2,0
		c0.7-2.9,0.9-51.3,0.4-57.9c-1.8-0.8-10.7-1-13.8-0.2c0,19.1,0,38.3,0,57.7c-4.8,0-9.2,0-14,0c-0.3-3.7-0.1-7.5-0.1-11.3
		c0-3.9,0-7.9,0-11.8c0-3.8,0-7.7,0-11.5c0-3.9,0-7.9,0-11.8c0-3.8,0-7.6,0-11.8c-4.8,0-9.3,0-14,0c0-19.8,0-39.2,0-58.6l-0.1,0.1
		C910.4,212.1,915,212.1,919.5,212.3c0.2,1.2,0.3,2.5,0.3,3.8c0,16.8,0,33.5,0,50.3c0,1.3,0,2.6,0,4c4.8,0,9.3,0,14.1,0
		c0-9.8,0-19.4,0-28.9c0-9.7,0-19.3,0-29.3c4.7,0,9.2,0,13.8,0c0-6.6,0-12.9,0-19.4c-4.6,0-9,0-13.8,0c0,6.4,0,12.7,0,19.3
		c-1.2,0-2.2,0-3.1,0C927.1,212.1,923.3,212.2,919.5,212.3z M948.3,231.7c-0.6,3.4-0.5,35.8,0.1,38.8c4.5,0.1,8.9,0.2,13.4,0
		c0.5-5.9,0.3-36.1-0.2-38.8C957.2,231.7,952.7,231.7,948.3,231.7z"/>
	<path d="M976.2,212.3c-0.1-1.1-0.3-2.1-0.3-3.2c0-23.9,0-47.8,0-71.8c0-0.9,0.1-1.9,0.1-3.3c4.6,0,9.1,0,13.8,0
		c0-26.1,0-51.8,0-77.6c2.5-0.8,4.8-0.3,7.1-0.4c2.3-0.1,4.6,0,7,0l-0.1-0.1c0,25.2,0,50.5,0,75.7c0,0.6-0.1,1.2-0.1,2.1
		c-4.5,0-8.9,0-13.7,0c-0.1,4.6,0,8.8-0.1,13.1c0,4.3,0,8.6,0,12.9s0,8.6,0,12.9s0,8.6,0,12.9s0,8.6,0,12.9c0,4.3,0,8.6,0,13.2
		c-4.8,0.1-9.3,0.2-13.8,0.3C976.2,212.2,976.2,212.3,976.2,212.3z"/>
	<path d="M1031.6,310c-2-0.1-3.9-0.3-5.9-0.4c-2.5-0.1-5,0-7.7,0c0-13,0-25.8,0-38.9c-4.8,0-9.3,0-13.9,0c0-6.7,0-13,0-19.5
		c4.6,0,9.1,0,13.8,0c0,6.4,0,12.7,0,19.2c4.7,0,9.2,0,14,0c0-13,0.1-26-0.1-39l-0.1,0.1c4.6,0,9.2,0,14.2,0c0.1,19.6,0,38.8,0,58.4
		c-4.7,0.4-9.3-0.1-14.1,0.3c0,5.3,0,10.1,0,15C1031.9,306.8,1031.7,308.4,1031.6,310C1031.6,310,1031.6,310,1031.6,310z"/>
	<path d="M962.2,602.1c-4.6,0-9.2,0-14.2,0c0-6.7,0-13,0-19.7c-4.8,0-9.2,0-13.8,0c0-13.1,0-25.9,0-39c4.5,0,8.9,0,13.7,0
		c0-6.6,0-12.9,0-19.3c4.8,0,9.3,0,14,0c0,1.4,0.1,2.7,0.1,4.1c0,23.2,0,46.4,0,69.6C962,599.4,962.1,600.8,962.2,602.1
		C962.1,602.2,962.2,602.1,962.2,602.1z"/>
	<path d="M906,406.5c-1.8,0.1-3.6,0.3-5.4,0.4c-2.8,0.1-5.6,0-8.6,0c0-39,0-77.6,0-116.2c1.8-0.8,10.5-1,13.8-0.2c0,1.3,0,2.7,0,4.1
		c0,36,0,72.1,0,108.1c0,1.3,0.1,2.6,0.1,3.9C905.9,406.6,906,406.5,906,406.5z"/>
	<path d="M1046.2,134c4.6,0,9,0,13.2,0c0.6,2.9,0.7,54.6,0.1,58.3c-4.4,0-8.8,0-13.6,0c0-19.4,0-38.6,0-58.2c-4.8,0-9.3,0-14,0
		c0-13.1,0-25.7,0-38.4c1.8-0.8,24.9-1,27.8-0.2c0,6.1,0,12.3,0,18.8c-4.5,0-9,0-13.6,0C1046.2,120.9,1046.2,127.2,1046.2,134z"/>
	<path d="M905.8,212c-4.5,0-9.1,0-13.9,0c0-19.5,0-38.7,0-58.4c-4.7-0.4-9.3,0-13.9-0.3c0-12.9,0-25.7,0-38.7c4.5,0,9,0,13.8,0
		c0,12.8,0,25.6,0,38.8c4.8,0,9.3,0,14,0c0,19.9,0,39.2,0,58.6C905.8,212.1,905.8,212,905.8,212z"/>
	<path d="M962.2,406.6c-4.6,0-9.2,0-13.8,0c-0.5-2.7-0.7-33.3-0.2-38.6c4.5,0,9,0,13.8,0c0.1-6.8,0.2-13.2,0.2-19.6
		c0,0-0.1,0.1-0.1,0.1c4.5,0,9.1,0,13.7,0c0,13.1,0,25.8,0,38.9c-4.6,0-9,0-13.7,0c0,6.7,0,13,0,19.3L962.2,406.6z"/>
	<path d="M1102.3,173.5c-0.1-1.1-0.2-2.1-0.2-3.2c0-17.5,0-34.9,0-52.4c0-1,0.1-2.1,0.2-3.3c4.6,0,9,0,13.6,0c0,19.5,0,38.7,0,58.5
		c-1.6,0-3.1,0-4.7,0c-3,0.1-6,0.2-9,0.3C1102.2,173.4,1102.3,173.5,1102.3,173.5z"/>
	<path d="M1074.4,250.5c-1.2,0.1-2.4,0.4-3.6,0.4c-3.5,0.1-7,0-10.7,0c0-19.5,0-38.7,0-58.2c4.5,0,9,0,13.8,0c0,1.2,0.1,2.5,0.1,3.7
		c0,16.7,0,33.5,0,50.2C1074.1,248,1074.3,249.3,1074.4,250.5C1074.4,250.6,1074.4,250.5,1074.4,250.5z"/>
	<path d="M1031.9,231.4c-4.5,0-9.1,0-13.7,0c0-19.4,0-38.6,0-58c4.5,0,8.9,0,13.5,0c0.1,0.5,0.3,1.2,0.3,1.8c0,18.4,0,36.8,0,55.2
		C1031.9,230.7,1031.8,231.1,1031.9,231.4C1031.8,231.4,1031.9,231.4,1031.9,231.4z"/>
	<path d="M947.9,523.8c-4.8,0-9.2,0-13.8,0c0-19.4,0-38.6,0-58c4.5,0,9,0,13.8,0C947.9,485,947.9,504.2,947.9,523.8z"/>
	<path d="M891.7,602.3c-0.9-0.1-1.9-0.3-2.8-0.3c-7.3,0-14.6,0-21.9,0c-0.9,0-1.9,0-2.9,0c0-6.6,0-12.9,0-19.4c9.2,0,18.4,0,27.6,0
		c0,6.7,0,13.3,0,19.8L891.7,602.3z"/>
	<path d="M891.7,602.4c0.6-0.1,1.2-0.4,1.8-0.4c8.2,0,16.4,0,24.7,0c0.5,0,1,0.1,1.8,0.2c-0.2,6.7,0.4,13.2-0.3,19.7l0-0.1
		c-0.9-0.1-1.8-0.4-2.8-0.4c-7.3,0-14.5,0-21.8,0c-0.9,0-1.8,0-3,0c-0.1-6.6-0.1-12.9-0.2-19.1C891.7,602.3,891.7,602.4,891.7,602.4
		z"/>
	<path d="M919.5,56.4c0.8-0.1,1.5-0.2,2.3-0.3c7.8,0,15.7,0,23.5,0c0.8,0,1.5,0.1,2.4,0.2c0,6.4,0,12.6,0,19c-9.3,0-18.4,0-27.9,0
		c0-2,0-3.9,0-5.8c-0.1-4.4-0.1-8.8-0.2-13.2C919.6,56.2,919.5,56.4,919.5,56.4z"/>
	<path d="M989.9,309.8c4.5,0,9.1,0,13.6,0c0.1,0.1,0.1,0.2,0.2,0.3c0.1,0.1,0.1,0.2,0.1,0.3c0,12.7,0,25.5,0.1,38.2
		c0,0,0.1-0.1,0.1-0.1c-2.3,0-4.6,0-7,0c-2.3,0-4.6,0-7,0c0-13.3,0-26.1,0-38.8L989.9,309.8z"/>
	<path d="M1003.9,348.6c4.6,0,9.2,0,13.9,0c0.1,1,0.2,1.7,0.2,2.4c0,11.7,0,23.3,0,35c0,0.5-0.1,0.9-0.1,1.4c0,0,0.1-0.1,0.1-0.1
		c-2.3,0.1-4.6,0.2-7,0.1c-2.3-0.1-4.6,0.4-7-0.4C1004,374.1,1004,361.3,1003.9,348.6L1003.9,348.6z"/>
	<path d="M1088.3,36.9c-0.1,1.3-0.3,2.6-0.3,3.9c0,10.1,0,20.1,0,30.2c0,1.3,0,2.6,0,4.4c-4.7,0.1-9.2,0.2-13.7,0.3l0.1,0.1
		c-0.1-0.8-0.3-1.6-0.3-2.4c0-11.4,0-22.9,0-34.3c0-0.7,0.1-1.4,0.1-2.5C1079,36.8,1083.7,36.1,1088.3,36.9L1088.3,36.9z"/>
	<path d="M919.5,621.9c0.6-0.1,1.2-0.4,1.8-0.4c8.3,0,16.7,0,25,0c0.4,0,0.8,0.1,1.4,0.2c0,6.4,0,12.7,0,19.1c-9.2,0-18.4,0-27.9,0
		c0-1.5,0-2.9,0-4.3C919.7,631.6,919.7,626.7,919.5,621.9C919.6,621.8,919.5,621.9,919.5,621.9z"/>
	<path d="M905.9,504.3c-4.5,0-9.1,0-13.9,0c0-1.3-0.1-2.6-0.1-3.8c0-10.2,0-20.5,0-30.7c0-1.3-0.1-2.6-0.1-3.9l-0.1,0.1
		c1.3-0.1,2.5-0.4,3.8-0.4c3.3-0.1,6.7,0,10.3,0c0,13.2,0,26,0,38.9C905.8,504.4,905.9,504.3,905.9,504.3z"/>
	<path d="M1004,56.2c0-12.8,0-25.6,0-38.3c1.9-0.8,9.8-1,13.8-0.4c0,12.7,0,25.4,0,38.6c-4.7,0-9.3,0-13.9,0
		C1003.9,56.1,1004,56.2,1004,56.2z"/>
	<path d="M891.7,465.8c-3.4-0.1-6.9-0.2-10.3-0.3c-1.1,0-2.2,0-3.5,0c0-6.6,0-12.9,0-19.4c4.6,0,9.1,0,13.7,0c0,6.7,0,13.3,0,19.8
		C891.7,465.9,891.7,465.8,891.7,465.8z"/>
	<path d="M1102.3,17.6c0-6.5,0-13.1,0-19.8c4.5,0,9,0,13.6,0c0,6.4,0,12.7,0,19.4c-1.6,0-3.2,0-4.7,0
		C1108.2,17.3,1105.2,17.4,1102.3,17.6C1102.2,17.5,1102.3,17.6,1102.3,17.6z"/>
	<path d="M919.8,523.8c-4.5,0-9,0-13.9,0c0-6.5-0.1-13,0.1-19.5c0,0-0.1,0.1-0.1,0.1c4.5,0,9.1,0,13.7,0c0.6,3.4,0.2,6.6,0.3,9.8
		C919.8,517.4,919.7,520.7,919.8,523.8L919.8,523.8z"/>
	<path d="M919.7,523.9c4.6,0,9.2,0,14.1,0c0.3,6.6,0.2,12.9,0.1,19.3c-4.7,0-9.2,0-14.1,0C919.8,536.6,919.8,530.2,919.7,523.9
		C919.8,523.8,919.7,523.9,919.7,523.9z"/>
	<path d="M1088.4,37c-0.1-1.6-0.3-3.3-0.3-4.9c0-4.8,0-9.7,0-14.9c3.8,0,7.2,0,10.7,0c1.2,0,2.4,0.3,3.5,0.4c0,0-0.1-0.1-0.1-0.1
		c-0.1,4.9-0.1,9.8-0.2,14.7c0,1.3,0,2.6,0,4.3c-1.2,0-2.2,0-3.2,0C1095.3,36.7,1091.8,36.8,1088.4,37
		C1088.3,36.9,1088.4,37,1088.4,37z"/>
	<path d="M1074.3,75.6c-0.1,4.4-0.2,8.8-0.2,13.2c0,1.9,0,3.8,0,5.9c-4.7,0-9.2,0-13.9,0c0-6.3,0-12.6,0-19
		C1065,75.7,1069.7,75.7,1074.3,75.6C1074.4,75.7,1074.3,75.6,1074.3,75.6z"/>
	<path d="M919.6,56.2c-4.5-0.1-9-0.2-13.7-0.3c-0.1-6.6-0.1-12.8-0.2-19.1l-0.1,0.1c1.3-0.1,2.5-0.4,3.8-0.4c3.3-0.1,6.7,0,10.2,0
		c0.1,1.1,0.2,2.1,0.2,3c-0.1,5.6-0.2,11.2-0.3,16.8C919.5,56.4,919.6,56.2,919.6,56.2z"/>
	<path d="M1031.6,310c1.2-0.1,2.4-0.4,3.6-0.4c3.5-0.1,7,0,10.7,0c0,6.5,0,12.7,0,18.8c-1.8,0.7-10,0.9-13.7,0.3
		c-0.1-0.8-0.2-1.8-0.2-2.7c0-4.2,0-8.4,0-12.6C1031.9,312.3,1031.7,311.1,1031.6,310C1031.6,310,1031.6,310,1031.6,310z"/>
	<path d="M905.7,36.9c-2.7-0.1-5.3-0.2-8-0.3c-1.8,0-3.6,0-5.3,0c-0.6-2.6-0.8-14.3-0.2-19.2c4.4,0,8.8,0,13.7,0
		c0,6.5,0.2,13-0.2,19.6C905.6,37,905.7,36.9,905.7,36.9z"/>
	<path d="M1102,621.6c0-24.5,0-49,0-73.5c0-1.4,0-2.8,0-4.7c4.8-0.1,9.4-0.2,14-0.3c0,24.5,0,49,0,73.5c0,1.4,0,2.8,0,4.7
		C1111.2,621.4,1106.6,621.5,1102,621.6z"/>
</g>
<g>
	<path d="M214.8,530.2c-0.1,1.4-0.3,2.9-0.3,4.3c0,5.1,0,10.1,0,15.7c-4.7,0-9.3,0-14,0c0,20,0,39.6,0,59.3c4.6,0,9.1,0,13.9,0
		c0-6.5,0-12.9,0-19.7c4.8,0,9.4,0,14.3,0c0-13.3,0-26.2,0-39.4c4.8,0,9.3,0,14.1,0c0.2-4.6,0.1-8.9,0.1-13.2c0-4.2,0-8.5,0-12.7
		c0-4.3,0-8.7,0-13.5c4.8-0.1,9.3-0.2,13.9-0.3l-0.1-0.1c0.1,1.8,0.3,3.6,0.3,5.4c0,4.7,0,9.4,0,14.3c0.6,0.2,1,0.4,1.4,0.4
		c13.8,0,27.7,0,41.5-0.1c0,0-0.1-0.1-0.1-0.1c0,6.5-0.1,13-0.1,19.9c-4.8,0-9.4,0-14,0c0,13.3,0,26.2,0,39.2c4.8,0,9.3,0,14.1,0
		c0-6.5,0-12.8,0-19.5c4.8,0,9.4,0,14.1,0c0.1-6.8,0-13.2,0.1-19.8c5,0,9.6,0,14.2,0l-0.1-0.1c0,6.5,0,13.1,0,20.1
		c-4.7,0-9.3,0-14.1,0c0,6.7,0,12.9,0,19.6c-4.8,0-9.3,0-14.1,0c0,6.7,0,13.1,0,19.8c-4.8,0.6-9.4-0.1-14.3,0.4
		c-0.2,9.8-0.1,19.6-0.1,29.4c0,9.7,0,19.4,0,29.3c-4.8,0-9.2,0-14,0c0-39.3,0-78.5,0-118c-4.9,0-9.4,0-14.3,0c0,6.4,0,12.8,0,19.5
		c-4.8,0-9.3,0-14.1,0c-0.1,4.7,0,9-0.1,13.3c0,4.2,0,8.5,0,12.7c0,4.4,0,8.7,0,13.5c-4.7,0-9.3,0-14.2,0c0,13.3,0,26.2,0,39.4
		c-4.8,0-9.3,0-14.2,0c-0.1,13.2,0,26.1-0.1,39.4c-4.7,0-9.2,0-13.6,0c-0.6,2.9-0.9,72.6-0.3,79c4.5,0,9,0,13.7,0
		c0.3-3.1,0.1-6.4,0.2-9.6c0-3.3,0-6.5,0-9.8c0-3.2,0-6.3,0-9.5c0-3.3,0-6.5,0-10.3c4.7-0.3,9.3,0,14.1-0.2c0-6.6,0-12.9,0-19.7
		c4.9,0,9.4,0,14.2,0c0-6.7,0-12.9,0-19.5c4.7,0,9.2,0,14.1,0c0.2-6.7,0-13,0.1-19.7c4.7,0,9.3,0,13.8,0c0.5,2.7,0.6,34.5,0.1,39.1
		c-4.5,0-9.1,0-13.9,0c0,6.8,0,13.1,0,19.9c-4.8,0-9.3,0-14.1,0c0,13.3,0,26.2,0,39.5c-4.9,0-9.4,0-14.3,0c0,6.7,0,12.9,0,19.6
		c-4.8,0-9.4,0-14.2,0c0,13.2,0,26,0,39c-2.5,0.9-4.8,0.4-7.1,0.4c-2.2,0.1-4.5,0-6.9,0c0,39.6,0,78.8,0,118.4
		c4.7,0.1,9.5,0.3,14.2,0.4l-0.1-0.1c-0.1,1.3-0.2,2.6-0.2,4c0,10.3,0,20.6,0,30.9c0,1.3,0,2.6,0,4.3c-4.7,0-9.2,0-14,0
		c-0.1,1.7-0.1,3.1-0.1,4.5c0,38.7,0,77.3,0,116c0,12.5,0.1,25,0.1,37.4c-14.3,0-28.6,0-42.9,0c0-1.3,0.1-2.7,0.1-4
		c0-49.7,0-99.3,0-149c0-1.4,0-2.9,0-4.7c-4.7,0-9.2,0-14,0c0-1.6-0.1-2.9-0.1-4.2c-0.1-5.2-0.1-10.4-0.2-15.6l-0.1,0.1
		c3.5-0.1,6.9-0.2,10.4-0.3c1.2,0,2.4,0,3.8,0c0-26.4,0-52.4,0-79c-4.6,0-9.2,0-13.9,0c0-1.8,0-3.1,0-4.4c0-10.5,0-21.1,0-31.6
		c0-1.3-0.2-2.6-0.3-3.9c3.6,0.1,7.1,0.3,10.7,0.4c1.2,0,2.4,0,3.5,0c0.6-5.6,0.4-56.5-0.1-58.9c-4.5,0-9,0-13.7,0
		c0,1.5,0,2.9,0,4.2c0,16.8,0,33.7,0,50.5c0,1.3-0.2,2.6-0.3,3.9c-2.2,0.1-4.3,0.3-6.5,0.4c-2.3,0.1-4.7,0-7.4,0
		c-0.1-13.2,0-26.2-0.1-39.2c0-13,0-26.1,0-39.5c-4.7,0-9.2,0-14.1,0c-0.1-6.8-0.1-13.3-0.1-19.8c0-6.4,0-12.8,0-19.7
		c-4.7-0.4-9.3,0-14.2-0.3c0-6.8-0.2-13.4,0.1-20l-0.1,0.1c4.6,0,9.3,0,14.2,0c0-6.8,0-13.3,0-19.8c0,0-0.1,0.1-0.1,0.1
		c4.7,0.1,9.3,0.1,14.2,0.2c0,19.9,0,39.2,0,59c4.8,0,9.4,0,14.2,0c0,6.8,0,13.2,0,19.7c4.8,0,9.3,0,13.7,0
		c0.6-3.9,0.5-95.8-0.2-98.8c-4.4,0-8.9,0-13.6,0c0-4.7,0-9.1,0-13.4c0-4.2,0-8.5,0-12.7c0-4.3,0.1-8.6-0.1-13.2
		c-9.5,0-18.7,0-28.2,0c0-6.7,0-13.1,0-19.5l-0.1,0.1c1-0.1,1.9-0.2,2.9-0.2c7.5,0,15,0,22.4,0c0.9,0,1.9,0,2.9,0
		c0-6.8,0-13.1,0-19.9c-4.7,0-9.3,0-14.1,0c0-6.7,0-12.9,0-19.6c-4.8,0-9.4,0-14.1,0c0-7,0-13.5,0-20.1l-0.1,0.1c4.6,0,9.3,0,14.2,0
		c0-13.4,0-26.4,0-39.4l-0.1,0.1c4.6,0,9.2,0,14.2,0c0.1,6.7,0,13.2,0,19.6c0,6.5,0,13.1,0,19.6s0,13.1,0,19.6c0,6.5,0,13,0,19.8
		c4.8,0,9.3,0,14,0c0-59.1,0-118.1,0-177.5c-4.6,0-9.1,0-13.9,0c0-13.2,0-26.2,0-39.5c-4.8,0-9.3,0-14.1,0c0-13.2,0-26.1,0-39.2
		c-4.8-0.5-9.3,0.1-14.2-0.4c0-13.1,0-26,0-39.3c-4.8,0-9.3,0-14.2,0c-0.1-4.6,0-9-0.1-13.3c0-4.2,0-8.5,0-12.7c0-4.3,0-8.7,0-13.5
		c-4.7-0.3-9.2,0-14-0.2c0-6.4,0-12.7,0-19.5c-9.6,0-18.9,0-28.3,0c0-6.8,0-13.1,0-19.8c4.6,0,9.1,0,13.9,0c0-13.2,0-26,0-39.3
		c2.5-0.3,4.8-0.1,7.2-0.2c2.3,0,4.5,0,7.1,0c0.2,4.5,0.1,8.8,0.1,13.1c0,4.2,0,8.5,0,12.7c0,4.3,0,8.7,0,13.3c4.7,0,9.2,0,14,0
		c0.3-6.3,0-12.7,0.2-19.2c0.7-0.1,1.3-0.3,1.8-0.3c3.5,0,7,0,10.5,0c0.7,0,1.4,0.3,2,0.4c0,0-0.1-0.1-0.1-0.1
		c0,1.2-0.1,2.4-0.1,3.6c0,17,0,34,0,50.9c0,1.3,0,2.6,0,4.3c4.8,0,9.3,0,14.1,0c0,13.3,0,26.2,0,39.5c4.9,0,9.5,0,14.2,0
		c0,13.3,0,26.1,0,39.5c4.7,0.4,9.3,0,14.2,0.2c0,6.6,0,12.9,0,19.5c4.9,0,9.5,0,14.2,0c0-26.2,0-52.2,0-78.7c-4.7,0-9.3,0-14.1,0
		c0-1.7,0-3,0-4.3c0-17,0-34,0-50.9c0-1.3-0.1-2.6-0.2-4l-0.1,0.1c0.8-0.1,1.6-0.3,2.3-0.3c7.9,0,15.9,0,23.8,0
		c0.8,0,1.5,0.1,2.6,0.2c0,26.2,0,52.2,0,78.7c4.9,0,9.4,0,14.3,0c0,26.5,0,52.5,0,79c5-0.2,9.7,0.4,14.5-0.3
		c-0.1,6.7-0.1,13.3-0.2,20c-4.7,0-9.3,0-14.1,0c0,13.4,0,26.3,0,39.5c4.7,0.2,9.2,0.3,14-0.1c0-13.4,0-26.4,0-39.5
		c4.7,0.4,9.3,0.1,13.9,0.2c0.5-5.7,0.3-17-0.2-19.8c-1.2,0-2.5,0-3.8,0c-3.2-0.1-6.4-0.2-9.6-0.2c-0.1-3-0.2-6-0.3-9
		c0-3.3,0-6.5,0-10.3c3.2-0.2,6.3-0.1,9.4-0.1c3.1,0,6.3,0,9.4,0c3.1,0,6.2,0,9.5,0c0.1-1.1,0.2-1.7,0.2-2.4c0-11.5,0-23,0-34.5
		c0-0.7-0.2-1.4-0.3-2.1c0,0,0,0.1,0,0.1c0.7-0.1,1.4-0.4,2-0.4c8.3,0,16.6,0,24.8,0c0.5,0,1,0.1,1.7,0.2c0,13.1,0,26,0,39.3
		c-4.7,0-9.3,0-14,0c0,6.7,0,12.9,0,19.6c4.7,0,9.2,0,14,0c0,6.7,0,12.9,0,19.6c-4.5,0.5-9.1-0.1-14.1,0.4c-0.2,6.4,0,12.7-0.1,19.4
		c-4.7,0-9.2,0-14,0c-0.1,6.7-0.1,13,0,19.9c4.7,0,9.3,0,14.1,0c0,6.8,0,13,0,19.5c9.5,0,18.8,0,28.4,0c0-13.1,0-26,0-39.4
		c5,0,9.7,0,14.4,0l-0.1-0.1c0,13,0,26.1,0,39.6c4.7,0.2,9.2,0.1,14,0.1c0-6.6,0-12.9,0-19.6c4.8,0,9.4,0,14.2,0
		c0-6.8,0-13.1,0-19.7c4.9-0.2,9.5-0.3,14-0.5l-0.1-0.1c0.1,5.3,0.1,10.6,0.2,16c0,1.3,0,2.6,0,4.2c9.5,0,18.7,0,28.1,0
		c0,6.7,0,13,0,19.7c-18.7,0-37.4,0-56.4,0c0,6.7,0,13.1,0,19.8c-9.6,0-18.9,0-28.4,0c0,6.6,0,12.9,0,19c-2.1,0.8-9.9,1-14,0.4
		c-0.5-6.2,0.1-12.6-0.3-19.1c-9.4,0-18.7,0-28.2,0c0,6.4,0,12.7,0,19.1c-0.9,0.1-1.6,0.3-2.2,0.3c-3.2,0-6.4,0-9.7,0
		c-0.9,0-1.7,0.3-2.6,0.4c0.1-3.3,0.1-6.5,0.2-9.8c0-3.3,0-6.7,0-10c-4.1-0.6-12.3-0.4-14,0.3c0,6.3,0,12.5,0,19.1
		c1.4,0,2.6,0,3.8,0c3.4,0.1,6.8,0.2,10.2,0.3c0,12.7,0,25.4,0.1,38.1c0,0.2-0.1,0.4-0.3,1.1c-1.2,0-2.6,0-3.9,0
		C221.2,530.6,218,530.4,214.8,530.2c-0.1-4.6-0.2-9.3-0.3-14c0-1.7,0-3.3,0-4.9c-3.1-0.7-12.1-0.6-14.1,0.2c0,3.1,0,6.2,0,9.3
		c0,3.2,0,6.4,0.1,9.8c3.9,0,7.5,0,11.1,0C212.6,530.6,213.7,530.4,214.8,530.2z M228.9,432.1c0,6.7,0,12.9,0,19.4
		c4.8,0,9.3,0.2,13.8-0.1c0-6.8,0-13,0-19.3C238.1,432.1,233.6,432.1,228.9,432.1z"/>
	<path d="M228.9,253.7c-0.4,0.2-0.8,0.4-1.2,0.4c-4.3,0-8.5,0-13.2,0c0-5,0-9.8,0-14.6c0-5,0-9.9,0-14.9c0-4.9,0-9.7,0-14.6
		c0-4.8,0-9.7,0-14.7c-2.4-0.9-4.8-0.4-7.1-0.4c-2.2-0.1-4.5,0-7,0c0-19.8,0-39.3,0-59.2c-4.9,0-9.4,0-14.1,0c0-13.3,0-26.2,0-39.3
		c4.7,0,9.2,0,14.1,0c0.2,12.9,0,25.8,0.1,39.1c4.7,0.6,9.2-0.1,14.1,0.4c0,13.1,0,26,0,39.2c4.8,0,9.3,0,14.2,0
		c0.2-8.7,0-17.4,0.1-26c0-8.7,0-17.5,0-26.2c0-8.7,0-17.4,0-26.7c1.2,0,2.2,0,3.2,0c3.6-0.1,7.1-0.3,10.7-0.4c0,0,0,0,0,0
		c0.1,1.5,0.3,3.1,0.3,4.6c0,23.4,0,46.8,0,70.2c0,1.4,0,2.8,0,4.6c4.9,0.1,9.5,0.2,14.1,0.3l-0.1-0.1c0,6.4,0,12.8,0,19.6
		c-9.4,0-18.7,0-28.1,0c0,1.2-0.1,2-0.1,2.9c0,17.9,0,35.8,0,53.8C228.7,252.3,228.8,253,228.9,253.7
		C228.9,253.8,228.9,253.7,228.9,253.7z"/>
	<path d="M87,629.5c-4.7,0-9.4,0-14.4,0c0-19.9,0-39.3,0-59.2c-9.6-0.2-18.9,0.1-28.5-0.2c0-7,0-13.5,0-20l-0.1,0.1
		c9.4,0,18.8,0,28.5,0c0-4.5,0.1-8.8,0.1-13.1c0-4.2,0-8.5,0-12.7c0-4.3,0-8.7,0-13.6c4.9,0,9.7-0.1,14.4,0c0,0-0.1-0.1-0.1-0.1
		c0,25.7,0,51.3,0,77c0,0.6,0.1,1.1,0.3,2.1c9.3,0,18.6,0,28,0c0,6.9,0,13.5,0,20l0.1-0.1c-9.3,0-18.6,0-27.9,0.1
		c-0.1,0-0.1,0.1-0.2,0.2c-0.1,0.1-0.1,0.2-0.2,0.3C86.9,616.8,86.9,623.2,87,629.5L87,629.5z"/>
	<path d="M101.2,352.8c4.5,0,9,0,13.9,0c0.1,9.1,0,17.7,0,26.4c0,8.7,0,17.4,0,26.2c0,8.7,0,17.4,0,26.5c4.8,0,9.2,0,13.9,0
		c0.1,1.2,0.2,2,0.2,2.7c0,25.4,0,50.9,0,76.3c0,0,0.1-0.1,0.1-0.1c-4.7,0-9.5,0-14.2,0l0.1,0.1c0-24.7,0-49.5,0-74.2
		c0-1.4,0-2.9,0-4.7c-4.8,0-9.4,0-14.2,0c0-6.8,0-13.2,0-19.9c-4.8,0-9.3,0-14,0c-0.1-1.5-0.2-2.7-0.1-3.8
		c0.1-5.4,0.2-10.9,0.3-16.3l0,0.1c4.5,0,9,0,13.9,0c0-1.2,0-2.5,0-3.8c0-10.5,0-21.1,0-31.6C101,355.3,101.2,354,101.2,352.8
		C101.3,352.7,101.2,352.8,101.2,352.8z"/>
	<path d="M101.1,708c-4.6,0-9.2,0-14.2,0c0-6.3,0-12.6,0-19.4c-4.9,0-9.5,0-14.2,0c0-6.8,0-13.1,0-19.7c4.7,0,9.2,0,14,0
		c0-1.6,0.1-2.9,0.1-4.1c0-10.4,0-20.9,0-31.3c0-1.3,0.1-2.7,0.1-4c0,0-0.1,0.1-0.1,0.1c4.6,0,9.2,0,14.1,0c0,6.6,0,12.9,0,19.7
		c4.9,0,9.4,0,14.2,0c0,13.4,0,26.3,0,39.3l0.1-0.1c-4.7,0.1-9.3,0.2-14.2,0.3c0,6.7,0,13.1,0,19.4L101.1,708z"/>
	<path d="M356.1,510.7c0.1,1.8,0.3,3.6,0.3,5.4c0,4.7,0,9.4,0,14.6c-4.7,0-9.3,0-14.1,0c0,6.7,0,12.9,0,19.7c-2.6,0-4.9,0-7.2,0
		c-2.3,0-4.7-0.1-7-0.2c0,0,0.1,0.1,0.1,0.1c-0.2-6.4,0.2-12.9-0.2-19.6c-2.7,0-5.1,0-7.6,0c-6.9,0-13.7-0.1-20.6-0.2
		c0,0,0.1,0.1,0.1,0.1c0-6.4,0-12.8,0-19.7c1.1,0,2.1,0,3.1,0c16.8,0,33.6,0,50.4,0C354.3,510.9,355.3,510.8,356.1,510.7
		L356.1,510.7z"/>
	<path d="M257,175.5c0-6.5,0-13,0-20c4.8,0,9.4,0,14.3,0c0-6.7,0-12.9,0-19.6c3.4-0.2,6.5-0.1,9.6-0.1c3,0,6.1,0,9.1,0
		c3.1,0,6.3,0,9.7,0c0.4-6.6,0-13,0.3-19.3c1.9-0.8,10.9-0.9,13.9-0.2c0,6.3,0,12.6,0,19.4c-4.6,0-9.1,0-13.9,0c0,6.6,0,12.9,0,19.4
		c-2.5,0.6-4.9,0.3-7.2,0.3c-2.4,0.1-4.7,0-7.1,0s-4.7,0-7.1,0c-2.3,0-4.7,0-7.3,0c0,6.8,0,13.2,0,20
		C266.3,175.4,261.6,175.4,257,175.5C256.9,175.4,257,175.5,257,175.5z"/>
	<path d="M115.4,195.4c-0.1-1.1-0.2-2.2-0.2-3.2c0-11.1,0-22.2,0-33.4c0-1,0.1-1.9,0.1-3.3c4.6,0,9.2,0,14,0c0-1.8,0-3.1,0-4.4
		c0-10.5,0-21,0-31.5c0-1.3,0.1-2.6,0.1-4c0,0-0.1,0.1-0.1,0.1c4.6-0.1,9.3-0.1,13.9-0.2l0-0.1c0.1,0.8,0.3,1.6,0.3,2.5
		c0,11.8,0,23.5,0,35.3c0,0.6-0.1,1.2-0.2,2.2c-4.6,0-9.2,0-14,0c0,13.3,0,26.2,0,39.6c-1.8,0-3.4,0-4.9,0c-3,0.1-6.1,0.2-9.1,0.3
		C115.3,195.3,115.4,195.4,115.4,195.4z"/>
	<path d="M299.8,234.3c0,13.1,0,26.1,0,39.6c-4.8,0-9.4,0-14.3,0c0,13.3,0,26.2,0,39.4c-4.8,0-9.3,0-13.8,0
		c-0.5-2.7-0.7-33.6-0.2-39.3c4.5,0,9.1,0,13.9,0c0-13.4,0-26.3,0-39.7C290.5,234.4,295.2,234.4,299.8,234.3L299.8,234.3z"/>
	<path d="M87,491.2c-4.7,0-9.4,0-14.4,0c0,6.5,0,12.9,0,19.5c-4.8,0-9.3,0-13.7,0c-0.5-3-0.6-55.4-0.1-58.9c4.5,0,8.9,0,13.7,0
		c0,6.5,0,12.9,0,19.6c4.9,0,9.4,0,14.3,0C86.8,478.3,86.9,484.8,87,491.2L87,491.2z"/>
	<path d="M242.7,314c-1.8-0.1-3.6-0.3-5.4-0.4c-2.7-0.1-5.4,0-8.2,0c-0.1-1-0.3-1.8-0.3-2.6c0-18.4,0-36.8,0-55.2
		c0-0.7,0.1-1.4,0.2-2.2c0,0,0,0.1,0,0.1c1.2,0.1,2.4,0.4,3.6,0.4c3.4,0.1,6.8,0,10.3,0c0.1,1.4,0.2,2.5,0.2,3.5
		c0,17.6,0,35.2,0,52.8C242.9,311.6,242.7,312.8,242.7,314C242.6,314,242.7,314,242.7,314z"/>
	<path d="M342.1,411.8c0-2.2,0.1-4.3,0.1-6.5c0-16,0-31.9,0-47.9c0-1.3,0-2.6,0-4.2c4.8-0.1,9.4-0.2,14-0.3l-0.1-0.1
		c0.1,0.9,0.3,1.9,0.3,2.8c0,17.9,0,35.9,0,53.8c0,0.7-0.1,1.4-0.1,2.3c-0.5,0.1-1,0.3-1.5,0.3c-3.7,0-7.3,0-11,0
		C343.2,412,342.6,411.8,342.1,411.8C342,411.7,342.1,411.8,342.1,411.8z"/>
	<path d="M256.9,37.1c0,0.2,0.1,0.5,0.1,0.7c0,18.9,0,37.7,0,56.6c0,0.5-0.1,0.9-0.2,1.8c-3.6,0-7.1,0-10.7,0
		c-1.2,0-2.4-0.3-3.6-0.4c0,0,0,0,0,0c0.1-1.3,0.3-2.6,0.3-3.9c0-16.9,0-33.7,0-50.6c0-1.3,0-2.6,0-4.1
		C247.8,37.2,252.4,37.2,256.9,37.1L256.9,37.1z"/>
	<path d="M356.2,510.8c0.1-4.7,0.2-9.4,0.2-14.1c0-1.7,0-3.3,0-5.2c14.2,0,28.2,0,42.4,0c0,6.4,0,12.8,0,19.3
		c-0.8,0.1-1.5,0.2-2.2,0.2c-12.9,0-25.8,0-38.7,0C357.4,510.9,356.8,510.8,356.2,510.8C356.1,510.7,356.2,510.8,356.2,510.8z"/>
	<path d="M370.6,313.8c0-13.1,0-26.1,0-39.5c2.5-0.5,4.8-0.2,7.1-0.3c2.3-0.1,4.5,0,6.7,0c0.6,2.9,0.7,35.6,0.1,39.4
		C379.8,313.5,375.2,313.6,370.6,313.8C370.5,313.7,370.6,313.8,370.6,313.8z"/>
	<path d="M257,37.2c0-11.7,0-23.5,0.1-35.2c0-1.3,0-2.6,0-4.2c4.7,0,9.3,0,13.9,0c0.5,2.6,0.7,33.8,0.1,39.2
		C266.4,37,261.7,37.1,257,37.2C256.9,37.1,257,37.2,257,37.2z"/>
	<path d="M299.9,353.1c-0.1,5.1-0.1,10.2-0.1,15.3c0,1.3,0,2.6,0,4.1c-9.6,0-18.8,0-28.3,0c0-6.5,0-12.7,0-19.1
		c0.5-0.1,0.9-0.3,1.3-0.3c8.7,0,17.4,0,26.1,0c0.3,0,0.7,0.1,1,0.2C300,353.2,299.9,353.1,299.9,353.1z"/>
	<path d="M356.2,352.8c0.1-1.3,0.2-2.6,0.2-3.9c0-10.3,0-20.5,0-30.8c0-1.3,0-2.6,0-4.3c4.8-0.3,9.5-0.4,14.1,0.1
		c0,0-0.1-0.1-0.1-0.1c0,12.9,0,25.8,0,39.2C365.6,353,360.9,353.2,356.2,352.8C356.1,352.7,356.2,352.8,356.2,352.8z"/>
	<path d="M87.2,392c-0.6,0.1-1.2,0.4-1.8,0.4c-8.4,0-16.9,0-25.3,0c-0.4,0-0.8-0.1-1.4-0.2c0-6.5,0-12.8,0-19.4c9.4,0,18.6,0,28.2,0
		c0,1.5,0,3,0,4.4C86.9,382.2,87,387.1,87.2,392C87.1,392,87.2,392,87.2,392z"/>
	<path d="M29.8,214.6c0.1-4.7,0.2-9.4,0.2-14.1c0-1.7,0-3.3,0-5.2c9.5,0,18.8,0,28.2,0c0,6.4,0,12.8,0,19.3
		c-0.6,0.1-1.1,0.2-1.6,0.2c-8.5,0-17.1,0-25.6,0C30.6,214.7,30.1,214.6,29.8,214.6C29.7,214.5,29.8,214.6,29.8,214.6z"/>
	<path d="M101,511c4.7,0,9.5,0,14.2,0c0,0-0.1-0.1-0.1-0.1c0,13.1,0,26.3,0,39.4l0.1-0.1c-4.7,0-9.3,0-14.2,0c0-1.4,0-2.6,0-3.8
		c0-5.2,0-10.4,0-15.6c0-6.6,0.1-13.3,0.1-19.9C101.1,510.9,101,511,101,511z"/>
	<path d="M101.3,352.7c-4.7,0-9.4,0-14.2,0c0-12.9,0-25.8,0-38.9c4.5,0,9,0,13.8,0c0,1.3,0.1,2.5,0.1,3.8c0,10.4,0,20.8,0,31.3
		C101,350.2,101.1,351.5,101.3,352.7C101.2,352.8,101.3,352.7,101.3,352.7z"/>
	<path d="M157.4,214.9c-4.5,0-9,0-13.7,0c0-13.4,0-26.2,0-39.4c4.6,0,9.1,0,13.7,0c0.1,0.7,0.2,1.4,0.2,2.1c0,11.6,0,23.3,0,34.9
		c0,0.8-0.2,1.7-0.3,2.5C157.4,215,157.4,214.9,157.4,214.9z"/>
	<path d="M115.2,76.5c4.6,0,9.2,0,14.1,0c0,13.2,0.1,26.2,0.1,39.2c0,0,0.1-0.1,0.1-0.1c-4.7,0-9.3,0-14.2,0c0-13.1,0-26.1,0-39.1
		L115.2,76.5z"/>
	<path d="M115.2,76.4c-4.6,0-9.2,0-14,0c-0.1-0.8-0.3-1.5-0.3-2.2c0-11.9,0-23.8,0-35.7c0-0.5,0.1-1,0.1-1.4l-0.1,0.1
		c4.6,0,9.2,0,14.1,0c0,13.2,0,26.2,0,39.3C115.2,76.5,115.2,76.4,115.2,76.4z"/>
	<path d="M72.2,175.1c-4.4,0-8.9,0-13.6,0c0-13.1,0-26,0-39.1c4.5,0,9,0,13.5,0C72.7,138.6,72.8,171.1,72.2,175.1z"/>
	<path d="M328.3,314c0-6.6,0-13.2,0-20.1c4.6,0,9.2,0,13.8,0c0,6.6,0,12.9,0,19.5c-4.7,0.2-9.3,0.3-13.9,0.5L328.3,314z"/>
	<path d="M314.1,333.5c-0.1,4.9-0.2,9.8-0.2,14.8c0,1.4,0,2.8,0,4.7c-4.9,0-9.4,0-14,0c0,0,0.1,0.1,0.1,0.1c0-6.5,0-13,0-19.8
		c0.8-0.1,1.6-0.2,2.5-0.2C306.4,333.3,310.3,333.5,314.1,333.5C314.2,333.6,314.1,333.5,314.1,333.5z"/>
	<path d="M101.1,37.1c-4.7,0-9.3,0-14.1,0c0-6.8,0-13,0-19.5c4.6,0,9.1,0,14.1,0C101,24.3,101,30.7,101.1,37.1
		C101,37.2,101.1,37.1,101.1,37.1z"/>
	<path d="M143.3,965.2c-4.5,0-9,0-13.5,0c-0.6-2.9-0.7-15.2-0.2-19.6c4.5,0,9,0,13.5,0c0.1,0.1,0.3,0.3,0.3,0.5
		c0,6.4-0.1,12.8-0.1,19.2C143.2,965.3,143.3,965.2,143.3,965.2z"/>
	<path d="M214.8,945.6c-0.1-2.5-0.2-5-0.3-7.6c0-4,0-8,0-12.2c4.7,0,9.3,0,14,0c0,6.4,0,12.7,0,19.4c-4.7,0.1-9.3,0.2-13.8,0.3
		C214.7,945.5,214.8,945.6,214.8,945.6z"/>
	<path d="M299.9,234.4c0-6.4,0-12.8,0-19.4c4.6,0,9.1,0,13.8,0c0,6.4,0,12.6,0,19.1c-2.3,0.9-4.6,0.3-6.9,0.4
		C304.5,234.5,302.2,234.4,299.9,234.4C299.8,234.3,299.9,234.4,299.9,234.4z"/>
	<path d="M256.8,510.8c0.1-4.6,0.2-9.2,0.2-13.8c0-1.8,0-3.6,0-5.6c4.8,0,9.4,0,14.1,0c0,6.4,0,12.8,0,19.3
		C266.3,510.7,261.5,510.7,256.8,510.8C256.7,510.7,256.8,510.8,256.8,510.8z"/>
	<path d="M86.9,491.3c4.6,0,9.2,0,14.1,0c0,6.7,0,13.2,0,19.6c0,0,0.1-0.1,0.1-0.1c-4.7,0-9.5,0-14.2,0c0,0,0.1,0.1,0.1,0.1
		C87,504.4,87,497.8,86.9,491.3C87,491.2,86.9,491.3,86.9,491.3z"/>
	<path d="M143.2,115.5c0.1-2.5,0.2-5,0.3-7.5c0-3.7,0-7.5,0-11.5c4.7,0,9.2,0,13.7,0c0.6,2.4,0.7,14,0.2,19.4c-1,0-2,0-3,0
		C150.7,115.7,146.9,115.6,143.2,115.5C143.2,115.4,143.2,115.5,143.2,115.5z"/>
	<path d="M299.9,412c0-6.4,0-12.8,0-19.3c4.6,0,9.1,0,13.8,0c0,6.4,0,12.7,0,19.3C309,411.9,304.4,411.9,299.9,412
		C299.8,411.9,299.9,412,299.9,412z"/>
	<path d="M328.2,313.9c0,6.2,0,12.5,0,19.2c-1.2,0.1-2.1,0.2-3,0.2c-3.7,0.1-7.4,0.2-11.1,0.3c0,0,0.1,0.1,0.1,0.1
		c-0.1-1.9-0.3-3.8-0.3-5.7c0-4.7,0-9.3,0-14.4c2.5,0,4.7,0,6.9,0C323.3,313.7,325.8,313.8,328.2,313.9
		C328.3,314,328.2,313.9,328.2,313.9z"/>
</g>
<g>
	<path d="M690,523.3c-0.1,1.4-0.3,2.9-0.3,4.3c0,5.1,0,10.1,0,15.7c-4.7,0-9.3,0-14,0c0,20,0,39.6,0,59.3c4.6,0,9.1,0,13.9,0
		c0-6.5,0-12.9,0-19.7c4.8,0,9.4,0,14.3,0c0-13.3,0-26.2,0-39.4c4.8,0,9.3,0,14.1,0c0.2-4.6,0.1-8.9,0.1-13.2c0-4.2,0-8.5,0-12.7
		c0-4.3,0-8.7,0-13.5c4.8-0.1,9.3-0.2,13.9-0.3l-0.1-0.1c0.1,1.8,0.3,3.6,0.3,5.4c0,4.7,0,9.4,0,14.3c0.6,0.2,1,0.4,1.4,0.4
		c13.8,0,27.7,0,41.5-0.1c0,0-0.1-0.1-0.1-0.1c0,6.5-0.1,13-0.1,19.9c-4.8,0-9.4,0-14,0c0,13.3,0,26.2,0,39.2c4.8,0,9.3,0,14.1,0
		c0-6.5,0-12.8,0-19.5c4.8,0,9.4,0,14.1,0c0.1-6.8,0-13.2,0.1-19.8c5,0,9.6,0,14.2,0l-0.1-0.1c0,6.5,0,13.1,0,20.1
		c-4.7,0-9.3,0-14.1,0c0,6.7,0,12.9,0,19.6c-4.8,0-9.3,0-14.1,0c0,6.7,0,13.1,0,19.8c-4.8,0.6-9.4-0.1-14.3,0.4
		c-0.2,9.8-0.1,19.6-0.1,29.4c0,9.7,0,19.4,0,29.3c-4.8,0-9.2,0-14,0c0-39.3,0-78.5,0-118c-4.9,0-9.4,0-14.3,0c0,6.4,0,12.8,0,19.5
		c-4.8,0-9.3,0-14.1,0c-0.1,4.7,0,9-0.1,13.3c0,4.2,0,8.5,0,12.7c0,4.4,0,8.7,0,13.5c-4.7,0-9.3,0-14.2,0c0,13.3,0,26.2,0,39.4
		c-4.8,0-9.3,0-14.2,0c-0.1,13.2,0,26.1-0.1,39.4c-4.7,0-9.2,0-13.6,0c-0.6,2.9-0.9,72.6-0.3,79c4.5,0,9,0,13.7,0
		c0.3-3.1,0.1-6.4,0.2-9.6c0-3.3,0-6.5,0-9.8c0-3.2,0-6.3,0-9.5c0-3.3,0-6.5,0-10.3c4.7-0.3,9.3,0,14.1-0.2c0-6.6,0-12.9,0-19.7
		c4.9,0,9.4,0,14.2,0c0-6.7,0-12.9,0-19.5c4.7,0,9.2,0,14.1,0c0.2-6.7,0-13,0.1-19.7c4.7,0,9.3,0,13.8,0c0.5,2.7,0.6,34.5,0.1,39.1
		c-4.5,0-9.1,0-13.9,0c0,6.8,0,13.1,0,19.9c-4.8,0-9.3,0-14.1,0c0,13.3,0,26.2,0,39.5c-4.9,0-9.4,0-14.3,0c0,6.7,0,12.9,0,19.6
		c-4.8,0-9.4,0-14.2,0c0,13.2,0,26,0,39c-2.5,0.9-4.8,0.4-7.1,0.4c-2.2,0.1-4.5,0-6.9,0c0,39.6,0,78.8,0,118.4
		c4.7,0.1,9.5,0.3,14.2,0.4l-0.1-0.1c-0.1,1.3-0.2,2.6-0.2,4c0,10.3,0,20.6,0,30.9c0,1.3,0,2.6,0,4.3c-4.7,0-9.2,0-14,0
		c-0.1,1.7-0.1,3.1-0.1,4.5c0,38.7,0,77.3,0,116c0,12.5,0.1,25,0.1,37.4c-14.3,0-28.6,0-42.9,0c0-1.3,0.1-2.7,0.1-4
		c0-49.7,0-99.3,0-149c0-1.4,0-2.9,0-4.7c-4.7,0-9.2,0-14,0c0-1.6-0.1-2.9-0.1-4.2c-0.1-5.2-0.1-10.4-0.2-15.6l-0.1,0.1
		c3.5-0.1,6.9-0.2,10.4-0.3c1.2,0,2.4,0,3.8,0c0-26.4,0-52.4,0-79c-4.6,0-9.2,0-13.9,0c0-1.8,0-3.1,0-4.4c0-10.5,0-21.1,0-31.6
		c0-1.3-0.2-2.6-0.3-3.9c3.6,0.1,7.1,0.3,10.7,0.4c1.2,0,2.4,0,3.5,0c0.6-5.6,0.4-56.5-0.1-58.9c-4.5,0-9,0-13.7,0
		c0,1.5,0,2.9,0,4.2c0,16.8,0,33.7,0,50.5c0,1.3-0.2,2.6-0.3,3.9c-2.2,0.1-4.3,0.3-6.5,0.4c-2.3,0.1-4.7,0-7.4,0
		c-0.1-13.2,0-26.2-0.1-39.2c0-13,0-26.1,0-39.5c-4.7,0-9.2,0-14.1,0c-0.1-6.8-0.1-13.3-0.1-19.8c0-6.4,0-12.8,0-19.7
		c-4.7-0.4-9.3,0-14.2-0.3c0-6.8-0.2-13.4,0.1-20l-0.1,0.1c4.6,0,9.3,0,14.2,0c0-6.8,0-13.3,0-19.8c0,0-0.1,0.1-0.1,0.1
		c4.7,0.1,9.3,0.1,14.2,0.2c0,19.9,0,39.2,0,59c4.8,0,9.4,0,14.2,0c0,6.8,0,13.2,0,19.7c4.8,0,9.3,0,13.7,0
		c0.6-3.9,0.5-95.8-0.2-98.8c-4.4,0-8.9,0-13.6,0c0-4.7,0-9.1,0-13.4c0-4.2,0-8.5,0-12.7c0-4.3,0.1-8.6-0.1-13.2
		c-9.5,0-18.7,0-28.2,0c0-6.7,0-13.1,0-19.5l-0.1,0.1c1-0.1,1.9-0.2,2.9-0.2c7.5,0,15,0,22.4,0c0.9,0,1.9,0,2.9,0
		c0-6.8,0-13.1,0-19.9c-4.7,0-9.3,0-14.1,0c0-6.7,0-12.9,0-19.6c-4.8,0-9.4,0-14.1,0c0-7,0-13.5,0-20.1l-0.1,0.1c4.6,0,9.3,0,14.2,0
		c0-13.4,0-26.4,0-39.4l-0.1,0.1c4.6,0,9.2,0,14.2,0c0.1,6.7,0,13.2,0,19.6c0,6.5,0,13.1,0,19.6s0,13.1,0,19.6c0,6.5,0,13,0,19.8
		c4.8,0,9.3,0,14,0c0-59.1,0-118.1,0-177.5c-4.6,0-9.1,0-13.9,0c0-13.2,0-26.2,0-39.5c-4.8,0-9.3,0-14.1,0c0-13.2,0-26.1,0-39.2
		c-4.8-0.5-9.3,0.1-14.2-0.4c0-13.1,0-26,0-39.3c-4.8,0-9.3,0-14.2,0c-0.1-4.6,0-9-0.1-13.3c0-4.2,0-8.5,0-12.7c0-4.3,0-8.7,0-13.5
		c-4.7-0.3-9.2,0-14-0.2c0-6.4,0-12.7,0-19.5c-9.6,0-18.9,0-28.3,0c0-6.8,0-13.1,0-19.8c4.6,0,9.1,0,13.9,0c0-13.2,0-26,0-39.3
		c2.5-0.3,4.8-0.1,7.2-0.2c2.3,0,4.5,0,7.1,0c0.2,4.5,0.1,8.8,0.1,13.1c0,4.2,0,8.5,0,12.7c0,4.3,0,8.7,0,13.3c4.7,0,9.2,0,14,0
		c0.3-6.3,0-12.7,0.2-19.2c0.7-0.1,1.3-0.3,1.8-0.3c3.5,0,7,0,10.5,0c0.7,0,1.4,0.3,2,0.4c0,0-0.1-0.1-0.1-0.1
		c0,1.2-0.1,2.4-0.1,3.6c0,17,0,34,0,50.9c0,1.3,0,2.6,0,4.3c4.8,0,9.3,0,14.1,0c0,13.3,0,26.2,0,39.5c4.9,0,9.5,0,14.2,0
		c0,13.3,0,26.1,0,39.5c4.7,0.4,9.3,0,14.2,0.2c0,6.6,0,12.9,0,19.5c4.9,0,9.5,0,14.2,0c0-26.2,0-52.2,0-78.7c-4.7,0-9.3,0-14.1,0
		c0-1.7,0-3,0-4.3c0-17,0-34,0-50.9c0-1.3-0.1-2.6-0.2-4l-0.1,0.1c0.8-0.1,1.6-0.3,2.3-0.3c7.9,0,15.9,0,23.8,0
		c0.8,0,1.5,0.1,2.6,0.2c0,26.2,0,52.2,0,78.7c4.9,0,9.4,0,14.3,0c0,26.5,0,52.5,0,79c5-0.2,9.7,0.4,14.5-0.3
		c-0.1,6.7-0.1,13.3-0.2,20c-4.7,0-9.3,0-14.1,0c0,13.4,0,26.3,0,39.5c4.7,0.2,9.2,0.3,14-0.1c0-13.4,0-26.4,0-39.5
		c4.7,0.4,9.3,0.1,13.9,0.2c0.5-5.7,0.3-17-0.2-19.8c-1.2,0-2.5,0-3.8,0c-3.2-0.1-6.4-0.2-9.6-0.2c-0.1-3-0.2-6-0.3-9
		c0-3.3,0-6.5,0-10.3c3.2-0.2,6.3-0.1,9.4-0.1c3.1,0,6.3,0,9.4,0c3.1,0,6.2,0,9.5,0c0.1-1.1,0.2-1.7,0.2-2.4c0-11.5,0-23,0-34.5
		c0-0.7-0.2-1.4-0.3-2.1c0,0,0,0.1,0,0.1c0.7-0.1,1.4-0.4,2-0.4c8.3,0,16.6,0,24.8,0c0.5,0,1,0.1,1.7,0.2c0,13.1,0,26,0,39.3
		c-4.7,0-9.3,0-14,0c0,6.7,0,12.9,0,19.6c4.7,0,9.2,0,14,0c0,6.7,0,12.9,0,19.6c-4.5,0.5-9.1-0.1-14.1,0.4c-0.2,6.4,0,12.7-0.1,19.4
		c-4.7,0-9.2,0-14,0c-0.1,6.7-0.1,13,0,19.9c4.7,0,9.3,0,14.1,0c0,6.8,0,13,0,19.5c9.5,0,18.8,0,28.4,0c0-13.1,0-26,0-39.4
		c5,0,9.7,0,14.4,0l-0.1-0.1c0,13,0,26.1,0,39.6c4.7,0.2,9.2,0.1,14,0.1c0-6.6,0-12.9,0-19.6c4.8,0,9.4,0,14.2,0
		c0-6.8,0-13.1,0-19.7c4.9-0.2,9.5-0.3,14-0.5l-0.1-0.1c0.1,5.3,0.1,10.6,0.2,16c0,1.3,0,2.6,0,4.2c9.5,0,18.7,0,28.1,0
		c0,6.7,0,13,0,19.7c-18.7,0-37.4,0-56.4,0c0,6.7,0,13.1,0,19.8c-9.6,0-18.9,0-28.4,0c0,6.6,0,12.9,0,19c-2.1,0.8-9.9,1-14,0.4
		c-0.5-6.2,0.1-12.6-0.3-19.1c-9.4,0-18.7,0-28.2,0c0,6.4,0,12.7,0,19.1c-0.9,0.1-1.6,0.3-2.2,0.3c-3.2,0-6.4,0-9.7,0
		c-0.9,0-1.7,0.3-2.6,0.4c0.1-3.3,0.1-6.5,0.2-9.8c0-3.3,0-6.7,0-10c-4.1-0.6-12.3-0.4-14,0.3c0,6.3,0,12.5,0,19.1
		c1.4,0,2.6,0,3.8,0c3.4,0.1,6.8,0.2,10.2,0.3c0,12.7,0,25.4,0.1,38.1c0,0.2-0.1,0.4-0.3,1.1c-1.2,0-2.6,0-3.9,0
		C696.3,523.6,693.1,523.5,690,523.3c-0.1-4.6-0.2-9.3-0.3-14c0-1.7,0-3.3,0-4.9c-3.1-0.7-12.1-0.6-14.1,0.2c0,3.1,0,6.2,0,9.3
		c0,3.2,0,6.4,0.1,9.8c3.9,0,7.5,0,11.1,0C687.8,523.7,688.9,523.4,690,523.3z M704.1,425.2c0,6.7,0,12.9,0,19.4
		c4.8,0,9.3,0.2,13.8-0.1c0-6.8,0-13,0-19.3C713.2,425.2,708.7,425.2,704.1,425.2z"/>
	<path d="M704.1,246.7c-0.4,0.2-0.8,0.4-1.2,0.4c-4.3,0-8.5,0-13.2,0c0-5,0-9.8,0-14.6c0-5,0-9.9,0-14.9c0-4.9,0-9.7,0-14.6
		c0-4.8,0-9.7,0-14.7c-2.4-0.9-4.8-0.4-7.1-0.4c-2.2-0.1-4.5,0-7,0c0-19.8,0-39.3,0-59.2c-4.9,0-9.4,0-14.1,0c0-13.3,0-26.2,0-39.3
		c4.7,0,9.2,0,14.1,0c0.2,12.9,0,25.8,0.1,39.1c4.7,0.6,9.2-0.1,14.1,0.4c0,13.1,0,26,0,39.2c4.8,0,9.3,0,14.2,0
		c0.2-8.7,0-17.4,0.1-26c0-8.7,0-17.5,0-26.2c0-8.7,0-17.4,0-26.7c1.2,0,2.2,0,3.2,0c3.6-0.1,7.1-0.3,10.7-0.4c0,0,0,0,0,0
		c0.1,1.5,0.3,3.1,0.3,4.6c0,23.4,0,46.8,0,70.2c0,1.4,0,2.8,0,4.6c4.9,0.1,9.5,0.2,14.1,0.3l-0.1-0.1c0,6.4,0,12.8,0,19.6
		c-9.4,0-18.7,0-28.1,0c0,1.2-0.1,2-0.1,2.9c0,17.9,0,35.8,0,53.8C703.9,245.3,704,246,704.1,246.7
		C704,246.8,704.1,246.7,704.1,246.7z"/>
	<path d="M562.1,622.5c-4.7,0-9.4,0-14.4,0c0-19.9,0-39.3,0-59.2c-9.6-0.2-18.9,0.1-28.5-0.2c0-7,0-13.5,0-20l-0.1,0.1
		c9.4,0,18.8,0,28.5,0c0-4.5,0.1-8.8,0.1-13.1c0-4.2,0-8.5,0-12.7c0-4.3,0-8.7,0-13.6c4.9,0,9.7-0.1,14.4,0c0,0-0.1-0.1-0.1-0.1
		c0,25.7,0,51.3,0,77c0,0.6,0.1,1.1,0.3,2.1c9.3,0,18.6,0,28,0c0,6.9,0,13.5,0,20l0.1-0.1c-9.3,0-18.6,0-27.9,0.1
		c-0.1,0-0.1,0.1-0.2,0.2c-0.1,0.1-0.1,0.2-0.2,0.3C562.1,609.8,562.1,616.2,562.1,622.5L562.1,622.5z"/>
	<path d="M576.4,345.9c4.5,0,9,0,13.9,0c0.1,9.1,0,17.7,0,26.4c0,8.7,0,17.4,0,26.2c0,8.7,0,17.4,0,26.5c4.8,0,9.2,0,13.9,0
		c0.1,1.2,0.2,2,0.2,2.7c0,25.4,0,50.9,0,76.3c0,0,0.1-0.1,0.1-0.1c-4.7,0-9.5,0-14.2,0l0.1,0.1c0-24.7,0-49.5,0-74.2
		c0-1.4,0-2.9,0-4.7c-4.8,0-9.4,0-14.2,0c0-6.8,0-13.2,0-19.9c-4.8,0-9.3,0-14,0c-0.1-1.5-0.2-2.7-0.1-3.8
		c0.1-5.4,0.2-10.9,0.3-16.3l0,0.1c4.5,0,9,0,13.9,0c0-1.2,0-2.5,0-3.8c0-10.5,0-21.1,0-31.6C576.1,348.4,576.3,347.1,576.4,345.9
		C576.4,345.8,576.4,345.9,576.4,345.9z"/>
	<path d="M576.3,701.1c-4.6,0-9.2,0-14.2,0c0-6.3,0-12.6,0-19.4c-4.9,0-9.5,0-14.2,0c0-6.8,0-13.1,0-19.7c4.7,0,9.2,0,14,0
		c0-1.6,0.1-2.9,0.1-4.1c0-10.4,0-20.9,0-31.3c0-1.3,0.1-2.7,0.1-4c0,0-0.1,0.1-0.1,0.1c4.6,0,9.2,0,14.1,0c0,6.6,0,12.9,0,19.7
		c4.9,0,9.4,0,14.2,0c0,13.4,0,26.3,0,39.3l0.1-0.1c-4.7,0.1-9.3,0.2-14.2,0.3c0,6.7,0,13.1,0,19.4L576.3,701.1z"/>
	<path d="M831.3,503.7c0.1,1.8,0.3,3.6,0.3,5.4c0,4.7,0,9.4,0,14.6c-4.7,0-9.3,0-14.1,0c0,6.7,0,12.9,0,19.7c-2.6,0-4.9,0-7.2,0
		c-2.3,0-4.7-0.1-7-0.2c0,0,0.1,0.1,0.1,0.1c-0.2-6.4,0.2-12.9-0.2-19.6c-2.7,0-5.1,0-7.6,0c-6.9,0-13.7-0.1-20.6-0.2
		c0,0,0.1,0.1,0.1,0.1c0-6.4,0-12.8,0-19.7c1.1,0,2.1,0,3.1,0c16.8,0,33.6,0,50.4,0C829.5,503.9,830.4,503.8,831.3,503.7
		L831.3,503.7z"/>
	<path d="M732.1,168.5c0-6.5,0-13,0-20c4.8,0,9.4,0,14.3,0c0-6.7,0-12.9,0-19.6c3.4-0.2,6.5-0.1,9.6-0.1c3,0,6.1,0,9.1,0
		c3.1,0,6.3,0,9.7,0c0.4-6.6,0-13,0.3-19.3c1.9-0.8,10.9-0.9,13.9-0.2c0,6.3,0,12.6,0,19.4c-4.6,0-9.1,0-13.9,0c0,6.6,0,12.9,0,19.4
		c-2.5,0.6-4.9,0.3-7.2,0.3c-2.4,0.1-4.7,0-7.1,0c-2.4,0-4.7,0-7.1,0c-2.3,0-4.7,0-7.3,0c0,6.8,0,13.2,0,20
		C741.4,168.4,736.8,168.4,732.1,168.5C732.1,168.4,732.1,168.5,732.1,168.5z"/>
	<path d="M590.5,188.4c-0.1-1.1-0.2-2.2-0.2-3.2c0-11.1,0-22.2,0-33.4c0-1,0.1-1.9,0.1-3.3c4.6,0,9.2,0,14,0c0-1.8,0-3.1,0-4.4
		c0-10.5,0-21,0-31.5c0-1.3,0.1-2.6,0.1-4c0,0-0.1,0.1-0.1,0.1c4.6-0.1,9.3-0.1,13.9-0.2l0-0.1c0.1,0.8,0.3,1.6,0.3,2.5
		c0,11.8,0,23.5,0,35.3c0,0.6-0.1,1.2-0.2,2.2c-4.6,0-9.2,0-14,0c0,13.3,0,26.2,0,39.6c-1.8,0-3.4,0-4.9,0c-3,0.1-6.1,0.2-9.1,0.3
		C590.5,188.3,590.5,188.4,590.5,188.4z"/>
	<path d="M775,227.3c0,13.1,0,26.1,0,39.6c-4.8,0-9.4,0-14.3,0c0,13.3,0,26.2,0,39.4c-4.8,0-9.3,0-13.8,0
		c-0.5-2.7-0.7-33.6-0.2-39.3c4.5,0,9.1,0,13.9,0c0-13.4,0-26.3,0-39.7C765.7,227.4,770.4,227.4,775,227.3L775,227.3z"/>
	<path d="M562.1,484.2c-4.7,0-9.4,0-14.4,0c0,6.5,0,12.9,0,19.5c-4.8,0-9.3,0-13.7,0c-0.5-3-0.6-55.4-0.1-58.9c4.5,0,8.9,0,13.7,0
		c0,6.5,0,12.9,0,19.6c4.9,0,9.4,0,14.3,0C562,471.3,562,477.8,562.1,484.2L562.1,484.2z"/>
	<path d="M717.8,307c-1.8-0.1-3.6-0.3-5.4-0.4c-2.7-0.1-5.4,0-8.2,0c-0.1-1-0.3-1.8-0.3-2.6c0-18.4,0-36.8,0-55.2
		c0-0.7,0.1-1.4,0.2-2.2c0,0,0,0.1,0,0.1c1.2,0.1,2.4,0.4,3.6,0.4c3.4,0.1,6.8,0,10.3,0c0.1,1.4,0.2,2.5,0.2,3.5
		c0,17.6,0,35.2,0,52.8C718.1,304.7,717.9,305.9,717.8,307C717.8,307,717.8,307,717.8,307z"/>
	<path d="M817.3,404.8c0-2.2,0.1-4.3,0.1-6.5c0-16,0-31.9,0-47.9c0-1.3,0-2.6,0-4.2c4.8-0.1,9.4-0.2,14-0.3l-0.1-0.1
		c0.1,0.9,0.3,1.9,0.3,2.8c0,17.9,0,35.9,0,53.8c0,0.7-0.1,1.4-0.1,2.3c-0.5,0.1-1,0.3-1.5,0.3c-3.7,0-7.3,0-11,0
		C818.4,405.1,817.8,404.8,817.3,404.8C817.2,404.7,817.3,404.8,817.3,404.8z"/>
	<path d="M732.1,30.2c0,0.2,0.1,0.5,0.1,0.7c0,18.9,0,37.7,0,56.6c0,0.5-0.1,0.9-0.2,1.8c-3.6,0-7.1,0-10.7,0
		c-1.2,0-2.4-0.3-3.6-0.4c0,0,0,0,0,0c0.1-1.3,0.3-2.6,0.3-3.9c0-16.9,0-33.7,0-50.6c0-1.3,0-2.6,0-4.1
		C723,30.3,727.5,30.3,732.1,30.2L732.1,30.2z"/>
	<path d="M831.4,503.8c0.1-4.7,0.2-9.4,0.2-14.1c0-1.7,0-3.3,0-5.2c14.2,0,28.2,0,42.4,0c0,6.4,0,12.8,0,19.3
		c-0.8,0.1-1.5,0.2-2.2,0.2c-12.9,0-25.8,0-38.7,0C832.5,503.9,831.9,503.8,831.4,503.8C831.3,503.7,831.4,503.8,831.4,503.8z"/>
	<path d="M845.7,306.9c0-13.1,0-26.1,0-39.5c2.5-0.5,4.8-0.2,7.1-0.3c2.3-0.1,4.5,0,6.7,0c0.6,2.9,0.7,35.6,0.1,39.4
		C855,306.6,850.3,306.7,845.7,306.9C845.7,306.8,845.7,306.9,845.7,306.9z"/>
	<path d="M732.1,30.3c0-11.7,0-23.5,0.1-35.2c0-1.3,0-2.6,0-4.2c4.7,0,9.3,0,13.9,0c0.5,2.6,0.7,33.8,0.1,39.2
		C741.6,30,736.8,30.1,732.1,30.3C732.1,30.2,732.1,30.3,732.1,30.3z"/>
	<path d="M775.1,346.1c-0.1,5.1-0.1,10.2-0.1,15.3c0,1.3,0,2.6,0,4.1c-9.6,0-18.8,0-28.3,0c0-6.5,0-12.7,0-19.1
		c0.5-0.1,0.9-0.3,1.3-0.3c8.7,0,17.4,0,26.1,0c0.3,0,0.7,0.1,1,0.2C775.2,346.2,775.1,346.1,775.1,346.1z"/>
	<path d="M831.4,345.9c0.1-1.3,0.2-2.6,0.2-3.9c0-10.3,0-20.5,0-30.8c0-1.3,0-2.6,0-4.3c4.8-0.3,9.5-0.4,14.1,0.1
		c0,0-0.1-0.1-0.1-0.1c0,12.9,0,25.8,0,39.2C840.8,346,836.1,346.2,831.4,345.9C831.3,345.8,831.4,345.9,831.4,345.9z"/>
	<path d="M562.3,385c-0.6,0.1-1.2,0.4-1.8,0.4c-8.4,0-16.9,0-25.3,0c-0.4,0-0.8-0.1-1.4-0.2c0-6.5,0-12.8,0-19.4
		c9.4,0,18.6,0,28.2,0c0,1.5,0,3,0,4.4C562.1,375.2,562.2,380.1,562.3,385C562.3,385.1,562.3,385,562.3,385z"/>
	<path d="M504.9,207.6c0.1-4.7,0.2-9.4,0.2-14.1c0-1.7,0-3.3,0-5.2c9.5,0,18.8,0,28.2,0c0,6.4,0,12.8,0,19.3
		c-0.6,0.1-1.1,0.2-1.6,0.2c-8.5,0-17.1,0-25.6,0C505.7,207.7,505.3,207.6,504.9,207.6C504.9,207.5,504.9,207.6,504.9,207.6z"/>
	<path d="M576.2,504c4.7,0,9.5,0,14.2,0c0,0-0.1-0.1-0.1-0.1c0,13.1,0,26.3,0,39.4l0.1-0.1c-4.7,0-9.3,0-14.2,0c0-1.4,0-2.6,0-3.8
		c0-5.2,0-10.4,0-15.6c0-6.6,0.1-13.3,0.1-19.9C576.3,503.9,576.2,504,576.2,504z"/>
	<path d="M576.4,345.8c-4.7,0-9.4,0-14.2,0c0-12.9,0-25.8,0-38.9c4.5,0,9,0,13.8,0c0,1.3,0.1,2.5,0.1,3.8c0,10.4,0,20.8,0,31.3
		C576.1,343.2,576.3,344.6,576.4,345.8C576.4,345.9,576.4,345.8,576.4,345.8z"/>
	<path d="M632.6,207.9c-4.5,0-9,0-13.7,0c0-13.4,0-26.2,0-39.4c4.6,0,9.1,0,13.7,0c0.1,0.7,0.2,1.4,0.2,2.1c0,11.6,0,23.3,0,34.9
		c0,0.8-0.2,1.7-0.3,2.5C632.5,208,632.6,207.9,632.6,207.9z"/>
	<path d="M590.3,69.5c4.6,0,9.2,0,14.1,0c0,13.2,0.1,26.2,0.1,39.2c0,0,0.1-0.1,0.1-0.1c-4.7,0-9.3,0-14.2,0c0-13.1,0-26.1,0-39.1
		L590.3,69.5z"/>
	<path d="M590.4,69.4c-4.6,0-9.2,0-14,0c-0.1-0.8-0.3-1.5-0.3-2.2c0-11.9,0-23.8,0-35.7c0-0.5,0.1-1,0.1-1.4l-0.1,0.1
		c4.6,0,9.2,0,14.1,0c0,13.2,0,26.2,0,39.3C590.3,69.5,590.4,69.4,590.4,69.4z"/>
	<path d="M547.4,168.1c-4.4,0-8.9,0-13.6,0c0-13.1,0-26,0-39.1c4.5,0,9,0,13.5,0C547.8,131.6,547.9,164.1,547.4,168.1z"/>
	<path d="M803.5,307c0-6.6,0-13.2,0-20.1c4.6,0,9.2,0,13.8,0c0,6.6,0,12.9,0,19.5c-4.7,0.2-9.3,0.3-13.9,0.5L803.5,307z"/>
	<path d="M789.3,326.6c-0.1,4.9-0.2,9.8-0.2,14.8c0,1.4,0,2.8,0,4.7c-4.9,0-9.4,0-14,0c0,0,0.1,0.1,0.1,0.1c0-6.5,0-13,0-19.8
		c0.8-0.1,1.6-0.2,2.5-0.2C781.6,326.4,785.5,326.5,789.3,326.6C789.4,326.7,789.3,326.6,789.3,326.6z"/>
	<path d="M576.3,30.2c-4.7,0-9.3,0-14.1,0c0-6.8,0-13,0-19.5c4.6,0,9.1,0,14.1,0C576.2,17.3,576.2,23.8,576.3,30.2
		C576.2,30.3,576.3,30.2,576.3,30.2z"/>
	<path d="M618.5,958.2c-4.5,0-9,0-13.5,0c-0.6-2.9-0.7-15.2-0.2-19.6c4.5,0,9,0,13.5,0c0.1,0.1,0.3,0.3,0.3,0.5
		c0,6.4-0.1,12.8-0.1,19.2C618.4,958.3,618.5,958.2,618.5,958.2z"/>
	<path d="M689.9,938.7c-0.1-2.5-0.2-5-0.3-7.6c0-4,0-8,0-12.2c4.7,0,9.3,0,14,0c0,6.4,0,12.7,0,19.4c-4.7,0.1-9.3,0.2-13.8,0.3
		C689.9,938.5,689.9,938.7,689.9,938.7z"/>
	<path d="M775.1,227.4c0-6.4,0-12.8,0-19.4c4.6,0,9.1,0,13.8,0c0,6.4,0,12.6,0,19.1c-2.3,0.9-4.6,0.3-6.9,0.4
		C779.7,227.6,777.3,227.4,775.1,227.4C775,227.3,775.1,227.4,775.1,227.4z"/>
	<path d="M732,503.8c0.1-4.6,0.2-9.2,0.2-13.8c0-1.8,0-3.6,0-5.6c4.8,0,9.4,0,14.1,0c0,6.4,0,12.8,0,19.3
		C741.4,503.7,736.7,503.7,732,503.8C731.9,503.7,732,503.8,732,503.8z"/>
	<path d="M562.1,484.3c4.6,0,9.2,0,14.1,0c0,6.7,0,13.2,0,19.6c0,0,0.1-0.1,0.1-0.1c-4.7,0-9.5,0-14.2,0c0,0,0.1,0.1,0.1,0.1
		C562.1,497.4,562.1,490.8,562.1,484.3C562.1,484.2,562.1,484.3,562.1,484.3z"/>
	<path d="M618.4,108.5c0.1-2.5,0.2-5,0.3-7.5c0-3.7,0-7.5,0-11.5c4.7,0,9.2,0,13.7,0c0.6,2.4,0.7,14,0.2,19.4c-1,0-2,0-3,0
		C625.8,108.8,622.1,108.6,618.4,108.5C618.4,108.5,618.4,108.5,618.4,108.5z"/>
	<path d="M775.1,405c0-6.4,0-12.8,0-19.3c4.6,0,9.1,0,13.8,0c0,6.4,0,12.7,0,19.3C784.2,404.9,779.6,404.9,775.1,405
		C775,404.9,775.1,405,775.1,405z"/>
	<path d="M803.4,306.9c0,6.2,0,12.5,0,19.2c-1.2,0.1-2.1,0.2-3,0.2c-3.7,0.1-7.4,0.2-11.1,0.3c0,0,0.1,0.1,0.1,0.1
		c-0.1-1.9-0.3-3.8-0.3-5.7c0-4.7,0-9.3,0-14.4c2.5,0,4.7,0,6.9,0C798.5,306.7,801,306.9,803.4,306.9
		C803.5,307,803.4,306.9,803.4,306.9z"/>
</g>
<g>
	<polygon class="st5" points="1083.5,1264 1083.5,1255.2 1075.2,1255.2 1075.2,1220.5 1066.9,1220.5 1066.9,1185.3 1057.9,1185.3 
		1057.9,1150.4 1049.1,1150.4 1049.1,1115.2 1066.3,1115.2 1066.3,1132.8 1075.5,1132.8 1075.5,1168 1084.8,1168 1084.8,1203.7 
		1092.3,1203.7 1092.3,1237.6 1101.6,1237.6 1101.6,1264 	"/>
	<polygon class="st6" points="935.7,1264 935.7,1246.9 944.5,1246.9 944.5,1194.1 953.1,1194.1 953.1,1123.8 961.9,1123.8 
		961.9,1115.2 970.7,1115.2 970.7,1106.4 979.2,1106.4 979.2,1097.4 1040.5,1097.4 1040.5,1107.2 1049.1,1107.2 1049.1,1150.4 
		1057.9,1150.4 1057.9,1185.3 1066.9,1185.3 1066.9,1220.5 1075.2,1220.5 1075.2,1255.2 1083.5,1255.2 1083.5,1264 	"/>
	<polygon class="st7" points="944.3,1255.2 935.7,1255.2 935.7,1264 953.3,1264 953.3,1255.2 961.9,1255.2 961.9,1246.6 
		970.4,1246.6 970.4,1255.3 979.2,1255.3 979.2,1246.6 970.4,1246.6 970.4,1237.6 988,1237.6 988,1228.8 970.2,1228.8 970.2,1220.3 
		961.9,1220.3 961.9,1246.6 953.1,1246.6 953.3,1255.2 	"/>
	<polygon class="st7" points="970.4,1132.8 970.4,1141.4 953.1,1141.4 953.1,1149.7 970.4,1149.7 970.4,1141.4 988,1141.4 
		988,1132.8 	"/>
	<polygon class="st7" points="1032,1141.2 1049.1,1141.2 1049.1,1150.4 1032,1150.4 1032,1176.3 1023,1176.3 1023,1158.8 
		1014.6,1158.8 1014.6,1150.6 1032,1150.4 	"/>
</g>
<g>
	<polygon class="st5" points="-314.7,1262.7 -314.7,1236.3 -306,1236.3 -306,1184.1 -297.1,1184.1 -297.1,1131.5 -288.5,1131.5 
		-288.5,1122.6 -279.7,1122.6 -279.7,1113.9 -270.9,1113.9 -270.9,1105.2 -227.3,1105.2 -227.3,1113.9 -218.5,1113.9 -218.5,1122.6 
		-209.9,1122.6 -209.9,1131.3 -201,1131.3 -201,1184 -192.2,1184 -192.2,1236.5 -183.5,1236.5 -183.5,1262.7 	"/>
	<polygon class="st7" points="-297.3,1245.1 -297.3,1254 -314.7,1254 -314.7,1262.7 -297.3,1262.7 -297.3,1254 -279.9,1254 
		-279.9,1245.1 -270.9,1245.1 -270.9,1253.9 -262.1,1253.9 -262.1,1245.1 -270.9,1245.1 -270.9,1236.3 -279.6,1236.3 -279.6,1227.6 
		-288.4,1227.6 -288.4,1245.2 	"/>
	<polygon class="st7" points="-209.9,1245.2 -209.9,1262.7 -218.5,1262.7 -218.5,1245.2 -227.2,1245.2 -227.2,1236.5 -218.5,1236.5 
		-218.5,1219 -209.9,1219 -209.9,1236.5 -218.5,1236.5 -218.5,1245.2 	"/>
	<polygon class="st8" points="-253.4,1157.6 -253.4,1192.6 -244.8,1192.6 -244.8,1157.6 -227.2,1157.6 -227.2,1149 -244.9,1149 
		-244.9,1131.2 -253.4,1131.2 -253.4,1149.1 -270.9,1149.1 -270.9,1157.6 	"/>
</g>
<g>
	<polygon class="st7" points="-188.9,1268.1 -188.9,1110.9 -180.2,1110.9 -180.2,1093.2 -84,1093.2 -84,1101.8 -75.1,1101.8 
		-75.1,1110.4 -66.7,1110.4 -66.7,1268.1 	"/>
	<polygon class="st9" points="-206.5,1268.1 -206.5,1110.4 -197.6,1110.4 -197.6,1102 -188.9,1102 -188.9,1093.2 -180.2,1093.2 
		-180.2,1110.9 -188.9,1110.9 -188.9,1268.1 	"/>
	<path class="st8" d="M-162.4,1128v35h8.4v-8.4h8.4v8.4h8.9v-8.4h-8.9v-9.1h8.9v-8.3h-8.4c0,2.8-0.1,5.5-0.1,8.3c-3,0-6,0-9,0v-8.7
		h9.2v-8.7H-162.4z"/>
	<rect x="-127.8" y="1128" class="st8" width="8.7" height="35"/>
	<path class="st8" d="M-110.2,1128v35h8.7v-8.7h8.4v-8.7h9.1v-8.7h-9.1v8.7h-8.6c0-2.9,0-5.9,0-8.8c2.9,0,5.7,0.1,8.6,0.1v-8.7
		H-110.2z"/>
	<polygon class="st10" points="-101.4,1259.3 -101.4,1250.6 -92.7,1250.6 -92.7,1233.1 -84,1233.1 -84,1259.3 -66.7,1259.3 
		-66.7,1268.1 -84.1,1268.1 -84,1259.3 	"/>
</g>
<g>
	<polygon class="st5" points="775.5,1270 775.5,1243.5 784.2,1243.5 784.2,1191.4 793.1,1191.4 793.1,1138.8 801.7,1138.8 
		801.7,1129.9 810.5,1129.9 810.5,1121.2 819.3,1121.2 819.3,1112.5 862.9,1112.5 862.9,1121.2 871.7,1121.2 871.7,1129.8 
		880.3,1129.8 880.3,1138.6 889.2,1138.6 889.2,1191.3 898,1191.3 898,1243.8 906.7,1243.8 906.7,1270 	"/>
	<polygon class="st7" points="792.9,1252.3 792.9,1261.2 775.5,1261.2 775.5,1270 792.9,1270 792.9,1261.2 810.3,1261.2 
		810.3,1252.3 819.3,1252.3 819.3,1261.2 828.1,1261.2 828.1,1252.3 819.3,1252.3 819.3,1243.6 810.6,1243.6 810.6,1234.9 
		801.8,1234.9 801.8,1252.4 	"/>
	<polygon class="st7" points="880.3,1252.4 880.3,1270 871.7,1270 871.7,1252.4 863,1252.4 863,1243.8 871.7,1243.8 871.7,1226.3 
		880.3,1226.3 880.3,1243.8 871.7,1243.8 871.7,1252.4 	"/>
	<polygon class="st8" points="836.8,1164.9 836.8,1199.9 845.4,1199.9 845.4,1164.9 863,1164.9 863,1156.3 845.3,1156.3 
		845.3,1138.5 836.8,1138.5 836.8,1156.4 819.3,1156.4 819.3,1164.9 	"/>
</g>
<g class="st11">
	<rect x="-314.9" y="1081.1" class="st0" width="1416.5" height="199.3"/>
</g>
<g>
	<g>
		<polygon class="st5" points="20.4,1337.2 20.4,1296.2 62.5,1296.2 62.5,1134.2 104.6,1134.2 104.6,969.9 150.5,969.9 150.5,806.8 
			195.1,806.8 195.1,642.5 107.7,642.5 107.7,724.6 61.3,724.6 61.3,888.9 14.2,888.9 14.2,1055.5 -24.3,1055.5 -24.3,1214 
			-71.4,1214 -71.4,1337.2 		"/>
		<polygon class="st6" points="774.8,1268.9 774.8,1197.6 725.3,1197.6 725.3,977.6 677.3,977.6 677.3,684.2 627.8,684.2 
			627.8,648.6 578.4,648.6 578.4,611.9 530.3,611.9 530.3,574.2 185.6,574.2 185.6,614.9 137.5,614.9 137.5,795.2 88.1,795.2 
			88.1,940.9 37.2,940.9 37.2,1087.6 -9.5,1087.6 -9.5,1232.3 -56.2,1232.3 -56.2,1268.9 		"/>
	</g>
	<g>
		<polygon class="st12" points="95.3,1000.3 95.3,1002.1 97.4,1002.1 97.4,1000.1 95.3,1000.1 95.3,998 93.1,998 93.1,1000.3 		"/>
		<rect x="50.5" y="955.3" class="st12" width="2.1" height="2.1"/>
		<rect x="48.3" y="953.2" class="st12" width="2.1" height="2.1"/>
		<rect x="54.8" y="948.9" class="st12" width="6.3" height="2.2"/>
		<rect x="41.9" y="946.8" class="st12" width="2.1" height="2.1"/>
		<rect x="82.4" y="987.4" class="st12" width="2.2" height="2.1"/>
		<polygon class="st12" points="69.7,995.9 67.5,995.9 67.5,997.9 65.4,997.9 65.4,1002.2 67.5,1002.2 67.5,1000.1 69.7,1000.1 
			69.7,998 71.8,998 71.8,995.8 73.9,995.8 73.9,993.7 69.7,993.7 		"/>
		<polygon class="st12" points="63.3,1008.6 61.2,1008.6 61.2,1004.4 59,1004.4 59,998 56.9,998 56.9,991.6 54.7,991.6 54.7,998 
			56.9,998 56.9,1004.4 59,1004.4 59,1006.5 44.1,1006.5 44.1,1008.6 39.8,1008.6 39.8,989.4 41.9,989.4 41.9,987.3 44.1,987.3 
			44.1,985.2 52.6,985.2 52.6,991.6 54.7,991.6 54.7,985.2 56.9,985.2 56.9,980.9 59,980.9 59,978.8 54.7,978.8 54.7,983 52.6,983 
			52.6,981 50.4,981 50.4,983 41.9,983 41.9,985.2 39.8,985.2 39.8,983 37.7,983 37.7,987.3 35.5,987.3 35.5,989.5 37.7,989.5 
			37.7,1008.7 35.5,1008.7 35.5,1010.8 39.8,1010.8 39.8,1021.4 41.9,1021.4 41.9,1012.9 44.1,1012.9 44.1,1010.7 46.2,1010.7 
			46.2,1008.6 56.8,1008.6 56.8,1010.8 61.1,1010.8 61.1,1015 63.3,1015 63.3,1019.3 65.4,1019.3 65.4,1002.2 63.3,1002.2 		"/>
		<rect x="78.2" y="983.1" class="st12" width="2.1" height="2.1"/>
		<rect x="80.3" y="985.2" class="st12" width="2.1" height="2.1"/>
		<polygon class="st12" points="61.1,976.6 59,976.6 59,978.8 63.2,978.8 63.2,976.6 69.7,976.6 69.7,978.8 73.9,978.8 73.9,980.9 
			76,980.9 76,976.6 73.9,976.6 73.9,972.4 71.8,972.4 71.8,966 69.6,966 69.6,972.4 67.5,972.4 67.5,974.5 61.1,974.5 		"/>
		<polygon class="st12" points="99.5,1004.4 99.5,1002.1 97.4,1002.1 97.4,1004.4 		"/>
		<path class="st12" d="M99.4,953.2V951h2.2v-2.1h6.4v-2.2h4.3v-2h-6.4v-4.3h-4.3l0.1,2.1h2.1v2.1H93.1l0,2.1h6.4v2.1h-2.1v2.1h-2.1
			v12.8h-2.1v-2.1h-6.4v-4.3h-2.2v-2.1h-2.1v-6.4h2.1v-2.2h4.3v-2.1h4.3v-2.2h-4.3v-2.1h-4.3v2.1H65.4v-2.1h-2.2v2.1h-6.5v-2.1H42.1
			v2.1h-2.3v-2.1h-4.2v6.4h2.1v4.2h2.2v0l0-4.3h2.1v-2.1H44v-2.1h4.3v2.1H44v2.1h2.1v2.1H44v2.1h-4.3v2.1h-4.3V983h2.2v-10.6h2.1
			v-2.2h4.2v2.1l2.1,0v2.1h2.1v6.4h2.1v-6.4h-2.1v-2.1h2.2l0-8.5v0h-2.2v4.2h-2.1v-6.4H44v6.4h-6.4v-12.8h4.3v6.4H44v-8.6h4.3v-6.4
			h2.2v2.1h4.2v-2.1h-2.1v-4.3h4.2v2.1h6.4v6.4h-2.1v2.1H59v2.1h-2.2v4.3h-2.1v-2.1h-2.1v4.3h-2.1v2.1H59v2.2h2.1v-4.3H59v-4.3h2.1
			v-2.1h10.7l0,2.1H76v-2.2h-4.2v-2.1h-4.3l0-4.3h-2.1v-2.1h4.2v-2.1h12.9v2.1h-2.1v10.7H76v2.2h-2.1v2.2h-2.1v4.2h2.1v-2.1H76v-2.1
			h10.7v2.1h6.4v2.1l4.3,0.1v2h-4.3v2.2H91v2.1h-2.2v2.2h-2.1v2.1h-2.2v8.5h2.2v4.3h-2.2v2.2H73.9v2.1h15v2.1H91v2.2h2.1v-4.2H91
			v-4.3h-2.1V983h-2.1v-4.3h2.1v-2.2H91v-2.1h2.2v-2.1h2.1v-2.1H108l0,2.1h4.2v-2.3H108l0.1-1.8h-4.3v-2.2h-2.1v-2.2h-2.2v-2.1h-2
			v-8.6H99.4z M39.8,944.7h-2.1v-2.1h2.1V944.7z"/>
		<polygon class="st12" points="63.2,970.2 65.4,970.2 65.4,972.4 67.5,972.4 67.5,970.2 65.4,970.2 65.4,968.1 63.3,968.1 
			63.3,966 61.2,966 61.2,968.1 63.2,968.1 		"/>
		<rect x="76" y="980.9" class="st12" width="2.1" height="2.1"/>
	</g>
	<g>
		<polygon class="st12" points="617.2,746.2 617.2,748 615.1,748 615.1,746 617.2,746 617.2,743.9 619.4,743.9 619.4,746.2 		"/>
		<rect x="659.9" y="701.2" class="st12" width="2.1" height="2.1"/>
		<rect x="662" y="699.1" class="st12" width="2.1" height="2.1"/>
		<rect x="651.4" y="694.8" class="st12" width="6.3" height="2.2"/>
		<rect x="668.5" y="692.7" class="st12" width="2.1" height="2.1"/>
		<rect x="628" y="733.3" class="st12" width="2.2" height="2.1"/>
		<polygon class="st12" points="642.8,741.8 645,741.8 645,743.8 647.1,743.8 647.1,748.1 645,748.1 645,746 642.8,746 642.8,743.9 
			640.7,743.9 640.7,741.7 638.6,741.7 638.6,739.6 642.8,739.6 		"/>
		<polygon class="st12" points="649.2,754.5 651.3,754.5 651.3,750.3 653.5,750.3 653.5,743.9 655.6,743.9 655.6,737.5 657.8,737.5 
			657.8,743.9 655.6,743.9 655.6,750.3 653.5,750.3 653.5,752.4 668.4,752.4 668.4,754.5 672.7,754.5 672.7,735.3 670.6,735.3 
			670.6,733.2 668.4,733.2 668.4,731.1 659.9,731.1 659.9,737.5 657.8,737.5 657.8,731.1 655.6,731.1 655.6,726.8 653.5,726.8 
			653.5,724.7 657.8,724.7 657.8,728.9 659.9,728.9 659.9,726.9 662.1,726.9 662.1,728.9 670.6,728.9 670.6,731.1 672.7,731.1 
			672.7,728.9 674.8,728.9 674.8,733.2 677,733.2 677,735.4 674.8,735.4 674.8,754.6 677,754.6 677,756.7 672.7,756.7 672.7,767.3 
			670.6,767.3 670.6,758.8 668.4,758.8 668.4,756.7 666.3,756.7 666.3,754.5 655.7,754.5 655.7,756.7 651.4,756.7 651.4,761 
			649.2,761 649.2,765.2 647.1,765.2 647.1,748.1 649.2,748.1 		"/>
		<rect x="632.2" y="729" class="st12" width="2.1" height="2.1"/>
		<rect x="630.1" y="731.1" class="st12" width="2.1" height="2.1"/>
		<polygon class="st12" points="651.4,722.5 653.5,722.5 653.5,724.7 649.3,724.7 649.3,722.6 642.8,722.6 642.8,724.7 638.6,724.7 
			638.6,726.8 636.5,726.8 636.5,722.6 638.6,722.6 638.6,718.3 640.7,718.3 640.7,711.9 642.9,711.9 642.9,718.3 645,718.3 
			645,720.5 651.4,720.5 		"/>
		<polygon class="st12" points="613,750.3 613,748 615.1,748 615.1,750.3 		"/>
		<path class="st12" d="M615.1,699.1v8.6h-2v2.1h-2.2v2.2h-2.1v2.2h-4.3l0.1,1.8h-4.3v2.3h4.2l0-2.1h12.8v2.1h2.1v2.1h2.2v2.1h2.1
			v2.2h2.1v4.3h-2.1v6.4h-2.1v4.3h-2.1v4.2h2.1v-2.2h2.1v-2.1h15v-2.1H628v-2.2h-2.2v-4.3h2.2v-8.5h-2.2v-2.1h-2.1v-2.2h-2.2v-2.1
			h-2.1V714h-4.3v-2l4.3-0.1v-2.1h6.4v-2.1h10.7v2.1h2.2v2.1h2.1v-4.2h-2.1v-2.2h-2.1v-2.2h-4.3v-10.7H630v-2.1h12.9v2.1h4.2v2.1
			H645l0,4.3h-4.3v2.1h-4.2v2.2h4.2l0-2.1h10.7v2.1h2.1v4.3h-2.1v4.3h2.1v-2.2h8.5v-2.1h-2.1v-4.3h-2.1v2.1h-2.1v-4.3h-2.2v-2.1
			h-2.1V697h-2.1v-6.4h6.4v-2.1h4.2v4.3h-2.1v2.1h4.2v-2.1h2.2v6.4h4.3v8.6h2.1v-6.4h4.3V714h-6.4v-6.4h-2.1v6.4h-2.1v-4.2H662v0
			l0,8.5h2.2v2.1h-2.1v6.4h2.1v-6.4h2.1v-2.1l2.1,0v-2.1h4.2v2.2h2.1v10.6h2.2v-29.8h-4.3V697h-4.3v-2.1h-2.1v-2.1h2.1v-2.1h-4.3
			v-2.1h4.3v2.1h2.1v2.1h2.1l0,4.3v0h2.2v-4.2h2.1v-6.4h-4.2v2.1h-2.3v-2.1h-14.7v2.1h-6.5v-2.1h-2.2v2.1h-19.2v-2.1h-4.3v2.1h-4.3
			v2.2h4.3v2.1h4.3v2.2h2.1v6.4H628v2.1h-2.2v4.3h-6.4v2.1h-2.1V697h-2.1v-2.1H613v-2.1h6.4l0-2.1h-10.7v-2.1h2.1l0.1-2.1h-4.3v4.3
			h-6.4v2h4.3v2.2h6.4v2.1h2.2v2.2H615.1z M672.7,688.5h2.1v2.1h-2.1V688.5z"/>
		<polygon class="st12" points="649.3,716.2 647.1,716.2 647.1,718.3 645,718.3 645,716.2 647.1,716.2 647.1,714 649.2,714 
			649.2,711.9 651.3,711.9 651.3,714 649.3,714 		"/>
		<rect x="634.3" y="726.8" class="st12" width="2.1" height="2.1"/>
	</g>
</g>
<rect x="67.6" y="809.5" class="st13" width="630.9" height="163.7"/>
<text transform="matrix(1 0 0 1 114.9219 852.9495)" class="st14 st15 st16">Allison Cravinho</text>
<g>
	<rect x="48.2" y="713.9" class="st13" width="633.4" height="194.7"/>
	<text transform="matrix(1 0 0 1 214.8835 753.9623)" class="st14 st15 st17">Here Lies:</text>
</g>
<g>
	<rect x="9.3" y="910.9" class="st13" width="711.3" height="125"/>
	<text transform="matrix(1 0 0 1 172.375 950.9992)" class="st14 st15 st17">(s Portfolio)</text>
</g>
</svg>
