<?xml version="1.0" encoding="iso-8859-1"?>
<!-- Generator: Adobe Illustrator 27.4.0, SVG Export Plug-In . SVG Version: 6.00 Build 0)  -->
<svg version="1.1" id="Layer_2_00000043416444524194555040000009618693299254676893_"
	 xmlns="http://www.w3.org/2000/svg" xmlns:xlink="http://www.w3.org/1999/xlink" x="0px" y="0px" viewBox="0 0 299.53 413.56"
	 style="enable-background:new 0 0 299.53 413.56;" xml:space="preserve">
<polygon style="fill:#A0A0A0;" points="88.31,0 88.31,25.95 79.2,25.95 79.2,44.06 70.2,44.06 70.2,61.31 61.2,61.31 61.2,87.56 
	52.95,87.56 52.95,105.46 43.95,105.46 43.95,131.82 34.94,131.82 34.94,149.82 26.25,149.82 26.25,185.08 35.05,185.08 
	35.05,202.33 44.05,202.33 44.05,229.34 53.05,229.34 53.05,246.59 61.2,246.59 61.2,272.84 70.3,272.84 70.3,290.84 79.2,290.84 
	79.2,308.1 88.31,308.1 88.31,335.1 96.45,335.1 96.45,352.35 105.45,352.35 105.45,378.61 114.56,378.61 114.56,396.61 
	123.56,396.61 123.56,413.56 193.96,413.56 193.96,396.61 202.96,396.61 202.96,378.5 211.22,378.5 211.22,361.35 220.22,361.35 
	220.22,335 229.22,335 229.22,316.99 238.22,316.99 238.22,290.74 246.48,290.74 246.48,272.84 255.48,272.84 255.48,255.48 
	264.47,255.48 264.47,229.23 273.47,229.23 273.47,211.23 281.73,211.23 281.73,193.33 290.73,193.33 290.73,175.97 299.53,175.97 
	299.53,158.08 290.73,158.08 290.73,140.72 281.83,140.72 281.83,122.82 273.58,122.82 273.58,96.57 264.48,96.57 264.48,79.31 
	255.58,79.31 255.58,52.32 246.48,52.32 246.48,35.06 238.22,35.06 238.22,17.06 229.33,17.06 229.33,8.8 220.33,8.8 220.33,0 "/>
<polygon style="fill:#6C6C6C;" points="105.56,413.56 123.56,413.56 123.56,396.61 114.56,396.61 114.56,378.61 105.45,378.61 
	105.45,352.35 96.45,352.35 96.45,335.1 88.31,335.1 88.31,308.1 79.2,308.1 79.2,290.84 70.3,290.84 70.3,272.84 61.2,272.84 
	61.2,246.59 53.05,246.59 53.05,229.34 44.05,229.34 44.05,202.33 35.05,202.33 35.05,185.08 26.25,185.08 26.25,149.82 
	34.94,149.82 34.94,131.82 43.95,131.82 43.95,105.46 52.95,105.46 52.95,87.56 61.2,87.56 61.2,61.31 70.2,61.31 70.2,44.06 
	79.2,44.06 79.2,25.95 88.31,25.95 88.31,0 70.31,0 70.31,17.05 61.31,17.05 61.31,35.06 53.05,35.06 53.05,52.32 44.06,52.32 
	44.06,79.31 35.05,79.31 35.05,96.46 26.05,96.46 26.05,122.82 17.79,122.82 17.79,140.72 8.79,140.72 8.79,158.08 0,158.08 
	0,175.97 8.69,175.97 8.69,193.22 17.79,193.22 17.79,211.23 26.05,211.23 26.05,229.23 34.94,229.23 34.94,255.48 44.05,255.48 
	44.05,272.73 52.95,272.73 52.95,290.74 61.31,290.74 61.31,316.99 70.3,316.99 70.3,335 79.2,335 79.2,361.24 88.2,361.24 
	88.2,378.5 96.56,378.5 96.56,396.51 105.45,396.51 "/>
<path d="M176.97,105.25h26.38v17.58h-26.37v52.78h-17.59v-52.7h-26.36v-17.64h26.26V78.93h17.68V105.25L176.97,105.25z"/>
</svg>
