<?xml version="1.0" encoding="iso-8859-1"?>
<!-- Generator: Adobe Illustrator 27.4.0, SVG Export Plug-In . SVG Version: 6.00 Build 0)  -->
<svg version="1.1" id="Layer_1" xmlns="http://www.w3.org/2000/svg" xmlns:xlink="http://www.w3.org/1999/xlink" x="0px" y="0px"
	 viewBox="0 0 299.53 413.56" style="enable-background:new 0 0 299.53 413.56;" xml:space="preserve">
<g id="Layer_1_00000033343683095295733380000002069727834776999577_">
	<polygon style="fill:#8C8C8C;" points="88.3,0 88.3,25.96 79.2,25.96 79.2,44.06 70.2,44.06 70.2,61.32 61.2,61.32 61.2,87.57 
		52.94,87.57 52.94,105.47 43.94,105.47 43.94,131.83 34.94,131.83 34.94,149.83 26.24,149.83 26.24,185.08 35.05,185.08 
		35.05,202.34 44.05,202.34 44.05,229.34 53.05,229.34 53.05,246.59 61.2,246.59 61.2,272.85 70.3,272.85 70.3,290.85 79.2,290.85 
		79.2,308.1 88.3,308.1 88.3,335.11 96.45,335.11 96.45,352.36 105.45,352.36 105.45,378.61 114.56,378.61 114.56,396.62 
		123.56,396.62 123.56,413.56 193.96,413.56 193.96,396.62 202.96,396.62 202.96,378.51 211.22,378.51 211.22,361.36 220.21,361.36 
		220.21,335 229.22,335 229.22,316.99 238.22,316.99 238.22,290.75 246.47,290.75 246.47,272.85 255.48,272.85 255.48,255.48 
		264.47,255.48 264.47,229.24 273.47,229.24 273.47,211.24 281.73,211.24 281.73,193.34 290.73,193.34 290.73,175.97 299.53,175.97 
		299.53,158.09 290.73,158.09 290.73,140.72 281.83,140.72 281.83,122.82 273.58,122.82 273.58,96.58 264.48,96.58 264.48,79.32 
		255.58,79.32 255.58,52.32 246.47,52.32 246.47,35.06 238.22,35.06 238.22,17.07 229.32,17.07 229.32,8.81 220.32,8.81 220.32,0 	
		"/>
	<polygon style="fill:#6C6C6C;" points="105.56,413.56 123.56,413.56 123.56,396.62 114.56,396.62 114.56,378.61 105.45,378.61 
		105.45,352.36 96.45,352.36 96.45,335.11 88.3,335.11 88.3,308.1 79.2,308.1 79.2,290.85 70.3,290.85 70.3,272.85 61.2,272.85 
		61.2,246.59 53.05,246.59 53.05,229.34 44.05,229.34 44.05,202.34 35.05,202.34 35.05,185.08 26.24,185.08 26.24,149.83 
		34.94,149.83 34.94,131.83 43.94,131.83 43.94,105.47 52.94,105.47 52.94,87.57 61.2,87.57 61.2,61.32 70.2,61.32 70.2,44.06 
		79.2,44.06 79.2,25.96 88.3,25.96 88.3,0 70.31,0 70.31,17.06 61.31,17.06 61.31,35.06 53.05,35.06 53.05,52.32 44.05,52.32 
		44.05,79.32 35.04,79.32 35.04,96.47 26.05,96.47 26.05,122.82 17.79,122.82 17.79,140.72 8.79,140.72 8.79,158.09 -0.01,158.09 
		-0.01,175.97 8.69,175.97 8.69,193.23 17.79,193.23 17.79,211.24 26.05,211.24 26.05,229.23 34.94,229.23 34.94,255.48 
		44.05,255.48 44.05,272.74 52.94,272.74 52.94,290.75 61.31,290.75 61.31,316.99 70.3,316.99 70.3,335 79.2,335 79.2,361.25 
		88.2,361.25 88.2,378.51 96.56,378.51 96.56,396.51 105.45,396.51 	"/>
</g>
<g id="Layer_3">
	<polygon style="fill:#DBDBDB;" points="109.7,259.72 100.89,259.72 100.89,250.77 83.55,250.77 83.55,242.37 74.75,242.37 
		74.75,224.46 83.55,224.46 83.55,189.21 92.56,189.21 92.56,100.7 100.8,100.7 100.8,92.44 109.81,92.44 109.81,83.44 118.7,83.44 
		118.7,74.34 136.06,74.34 136.06,65.64 180.2,65.64 180.2,74.34 198.32,74.34 198.32,83.44 207.32,83.44 207.32,92.44 
		215.46,92.44 215.46,100.59 224.46,100.59 224.46,189.11 233.46,189.11 233.46,224.36 242.26,224.36 242.26,242.37 233.57,242.37 
		233.57,250.52 215.64,250.52 215.64,259.62 207.32,259.62 207.32,268.42 163.07,268.42 163.07,259.62 154.06,259.62 154.06,268.42 
		110,268.42 	"/>
	<polygon style="fill:#262626;" points="144.95,153.85 144.95,162.65 118.81,162.65 118.81,153.85 110,153.85 110,127.7 
		118.81,127.7 118.81,118.9 144.95,118.9 144.95,127.7 153.75,127.7 153.75,153.96 	"/>
	<polygon style="fill:#262626;" points="198.21,127.71 198.21,118.9 171.96,118.9 171.96,127.6 163.26,127.6 163.26,153.85 
		172.07,153.85 172.07,162.65 198.21,162.65 198.21,153.96 207.01,153.96 207.01,127.71 	"/>
</g>
</svg>
