<?xml version="1.0" encoding="UTF-8"?>
<svg id="Layer_10" data-name="Layer 10" xmlns="http://www.w3.org/2000/svg" viewBox="0 0 216 144">
  <defs>
    <style>
      .cls-1 {
        stroke: #000;
        stroke-miterlimit: 10;
        stroke-width: .5px;
      }
    </style>
  </defs>
  <g>
    <polygon class="cls-1" points="120.92 8.63 121.09 10.7 135.1 10.7 135.1 8.63 120.92 8.63"/>
    <polygon class="cls-1" points="116.19 6.54 116.19 -1.84 125.61 -1.84 125.61 -6.03 116.23 -6.03 116.23 -12.33 106.87 -12.33 106.87 -6.03 97.38 -6.03 97.38 -1.84 106.87 -1.84 106.87 6.54 102.01 6.54 102.01 8.61 120.92 8.63 120.92 6.54 116.19 6.54"/>
    <rect class="cls-1" x="88.03" y="8.61" width="13.98" height="1.99"/>
    <rect class="cls-1" x="92.83" y="12.82" width="37.44" height="2.1"/>
    <path class="cls-1" d="M228.19,14.92v-2.1h-3.6v-4.2h-4.73v4.2h-4.62v2.04h4.62v10.52h-14.05V10.65h4.59v-1.99h-4.73V4.43h-4.62v4.2h-4.62v2.05h4.8v12.62h-4.8v-2.09h-9.53V6.54h4.73v-2.15h-4.8V.26h-4.66V4.38h-4.73v2.12h4.73v12.57h-9.42v2.19h9.56v4.12h-4.8l.1,2.13h-9.39v-2.13h9.28v-2.13h-9.28v-4.19h4.52v-2.04h-4.73V2.33h4.73V.24h-4.76V-3.96h-4.59V.23h-4.87V2.34h4.87V14.87h-4.83v2.09h4.87v4.31h-4.8v-2.19h-4.64v2.19h-9.44v-2.19h9.44v-2.07l-9.44-.05v-2.04l14.01-.05v-2.05h-14.08V-1.84h4.59V-3.96h-4.59v-4.2h-4.66V-4.01h-4.69V-1.89h4.69V10.7h-4.73l-.03,2.12h4.69v2.1h-9.49v2.13h9.49v4.22h-56.53v-4.22h9.28v-2.13h-9.28v-2.1h4.8v-2.07h-4.8V-1.86h4.8V-3.9h-4.87v-4.19h-4.59V-3.93h-4.69V-1.83h4.69V12.82h-14.19v2.1h13.94v2.04h-9.28v2.12h9.28v2.19h-9.39l.1-2.19h-4.66v2.19h-4.83v-4.31h4.83v-2.04h-4.8V2.36h4.8V.26h-4.62V-3.93h-4.8V.21h-4.73V2.37h4.73v14.61h-4.59v2.09h4.59v4.19h-9.49v2.13h9.49v2.13h-9.49v-2.13h-4.59v-4.26h9.34l.16-2.05h-9.56V6.54h4.8v-2.12h-4.8V.21h-4.66V4.41h-4.73v2.13h4.73v14.77h-9.05v1.81h-4.88V10.82h4.88v-2.16h-4.89V4.41h-4.88v4.18h-4.88v2.09h4.88v14.61H2.68V14.87H7.87v-2.05H3.23v-4.23H-1.52v4.23H-6.28v2.08H-1.52v12.63H-6.28v2.01H228.19v-2.01h-3.56V14.92h3.56ZM36.19,27.52h-14.08v-2.13h9.07v-2.13h5.01v4.26Zm42.14,0h-18.77v-4.26h18.77v4.26Zm61.43,0h-56.53v-4.26h56.53v4.26Zm23.68,0h-18.88v-4.26h18.88v4.26Zm37.55,0h-13.87v-4.26h4.59v2.13h9.28v2.13Z"/>
  </g>
  <g>
    <path class="cls-1" d="M225.74,36.15v-3.46h-9.06v3.58h-9.6v3.77h9.18v10.99h-9.18v-10.99h-14.19v3.58h9.73v11.12h-10.01v3.58h10.01v29.72h-9.46l-.28,3.83h9.18v29.85h-4.58v3.71h4.72v18.56h4.73v-22.33h9.18v22.33h5.01v-26.28h4.61v-3.4h-4.47v-29.91h4.47v-3.65h-4.75v-29.73h4.75v-3.7h-4.75v-11.18h4.75Zm-9.47,81.81h-9.32v-29.91h9.32v29.91Zm0-33.37h-9.32v-29.97h9.32v29.97Z"/>
    <polygon class="cls-1" points="188.03 95.59 192.9 95.59 192.9 91.89 188.03 91.89 188.03 62.1 192.62 62.1 192.62 58.33 188.03 58.33 188.03 47.27 192.9 47.27 192.9 43.63 178.71 43.63 178.71 47.27 183.44 47.27 183.44 58.33 178.71 58.33 178.71 62.23 183.44 62.23 183.44 91.89 179.13 91.89 179.13 95.59 183.44 95.59 183.44 129.08 178.85 129.08 178.85 132.85 183.58 132.85 183.58 144 188.31 144 188.31 129.08 197.5 129.08 197.5 125.44 188.03 125.44 188.03 95.59"/>
    <polygon class="cls-1" points="169.67 144 173.98 144 173.98 136.38 178.57 136.38 178.57 132.85 173.84 132.85 173.84 99.3 178.64 99.3 178.85 95.59 173.84 95.59 173.84 65.86 178.64 65.86 178.64 62.23 173.84 62.23 173.84 51.03 178.64 51.03 178.71 47.27 169.26 47.27 169.67 144"/>
  </g>
  <g>
    <path class="cls-1" d="M-4.83,35.9v11.18h-4.75s0,3.7,0,3.7H-4.83v29.73h-4.75s0,3.65,0,3.65H-5.11v29.91h-4.47s0,3.4,0,3.4H-4.97v26.28s5.01,0,5.01,0v-22.33H9.22v22.33s4.73,0,4.73,0v-18.56h4.72s0-3.71,0-3.71h-4.58v-29.85h9.18s-.28-3.83-.28-3.83H13.53v-29.72h10.01s0-3.58,0-3.58H13.53v-11.12h9.73s0-3.58,0-3.58H9.08s0,10.99,0,10.99H-.1v-10.99H9.08s0-3.77,0-3.77H-.52v-3.58s-9.06,0-9.06,0v3.46s4.75,0,4.75,0ZM-.1,87.8H9.22v29.91H-.1v-29.91Zm0-33.43H9.22v29.97H-.1v-29.97Z"/>
    <polygon class="cls-1" points="28.13 95.34 23.27 95.34 23.27 91.63 28.13 91.63 28.13 61.85 23.54 61.85 23.54 58.08 28.13 58.08 28.13 47.02 23.27 47.02 23.27 43.37 37.45 43.37 37.45 47.02 32.72 47.02 32.72 58.08 37.45 58.08 37.45 61.97 32.72 61.97 32.72 91.63 37.03 91.63 37.03 95.34 32.72 95.34 32.72 128.83 37.31 128.83 37.31 132.6 32.58 132.6 32.58 143.75 27.85 143.75 27.85 128.83 18.67 128.83 18.67 125.19 28.13 125.19 28.13 95.34"/>
    <polygon class="cls-1" points="46.49 143.75 42.18 143.75 42.18 136.12 37.59 136.12 37.59 132.6 42.32 132.6 42.32 99.05 37.52 99.05 37.31 95.34 42.32 95.34 42.32 65.61 37.52 65.61 37.52 61.97 42.32 61.97 42.32 50.78 37.52 50.78 37.45 47.02 46.91 47.02 46.49 143.75"/>
  </g>
  <path d="M145.96,45.31c-.9,.51-1.78,.85-2.75,.89-1.71,.08-3.4-.12-5.02-.67-1.24-.43-2.46-.94-3.69-1.41-.29-.11-.58-.21-.91-.24,.64,.81,1.28,1.63,1.93,2.43,1.04,1.3,1.74,2.77,2.14,4.37,.13,.5,.27,.68,.82,.79,.82,.17,1.39,.84,1.68,1.63,.24,.62,.36,1.29,.53,1.94,.02,.07,.04,.14,.06,.2,.57-.05,1.13-.1,1.68-.16,1-.09,1.8,.44,2.62,.87,.1,.05,.17,.22,.21,.34,.34,1.23,.34,2.48,.24,3.73-.01,.17-.14,.34-.23,.56,.61-.22,1.17-.42,1.72-.63,.9-.33,1.84-.46,2.79-.5,.53-.02,.85,.24,1.03,.67,.13,.31,.22,.65,.26,.99,.05,.42,.04,.86,.06,1.37,.36-.16,.76-.25,1.05-.47,1.48-1.1,3.51-.43,4.57,.66,.37,.39,.67,.85,.95,1.32,.12,.21,.11,.5,.15,.71,1.63-.48,3.33-.76,5.06-.51,1.07,.15,2.13,.44,3.2,.65,.17,.03,.36,.01,.54,.01,.01-.04,.03-.09,.04-.13-.1-.11-.18-.24-.29-.31-2.85-1.84-4.61-4.59-6.25-7.43-.3-.52-.57-1.04-.87-1.56-.16-.28-.35-.43-.72-.41-1.44,.08-2.86-.04-4.25-.48-.13-.04-.27-.04-.48-.08l.84-3.6c-.23,.1-.35,.13-.44,.2-.56,.39-1.12,.79-1.66,1.2-.44,.33-.48,.3-.94,.02-.54-.32-.7-.74-.65-1.32,.06-.63,.1-1.26,.15-1.89,0-.11,.03-.21-.03-.37-.1,.09-.22,.18-.31,.28-.52,.65-1.19,1.1-1.91,1.48-.53,.28-.77,.15-1.07-.36-.82-1.38-1.33-2.87-1.7-4.42-.03-.13-.11-.24-.17-.38Z"/>
  <g>
    <path d="M67.92,128.09c-.72,.49-1.48,.63-2.28,.63-.19,0-.39-.01-.58-.05-2.56-.47-4.94-1.43-7.19-2.71-.22-.13-.42-.3-.62-.47-.87-.77-1.34-1.72-1.16-2.88-1.82-.93-2.73-2.56-3.46-4.32-.24-.57-.39-1.19-.55-1.79-.13-.48-.04-.61,.42-.81,1.58-.69,3.14-1.45,4.37-2.67,2-1.98,3.82-4.11,5.12-6.65,1.23-2.39,2.52-4.76,3.85-7.1,1.01-1.79,2.44-3.19,4.22-4.24,1.81-1.07,3.77-1.57,5.86-1.46,1.25,.07,2.46,.48,3.47,1.21,4.11,2.98,6.3,7,6.12,12.13-.05,1.4-.46,2.79-.76,4.17-.37,1.67-.93,3.32-1.17,5.01-.55,3.8,.05,7.44,2.01,10.8,.36,.62,.33,.8-.19,1.28-1.13,1.04-2.47,1.71-3.88,2.28-.34,.14-.62,.28-.79,.66-.24,.55-.77,.8-1.34,.91-2.09,.38-4.2,.45-6.29,.06-1.06-.2-2.09-.61-3.13-.94-.24-.08-.47-.23-.69-.36-.96-.61-1.54-1.42-1.37-2.67Zm-9.17-9.42c.05,.03,.1,.06,.16,.09-.17,.23-.33,.46-.5,.69-.49,.7-1.02,1.38-1.47,2.12-.73,1.2-.55,2.45,.49,3.39,.41,.37,.87,.74,1.37,.95,1.72,.72,3.47,1.41,5.23,2.03,.91,.32,1.88,.41,2.85,.16,.33-.09,.59-.24,.75-.56,.52-1.01,1.05-2.01,1.58-3,.1-.19,.24-.35,.36-.52,.03,.02,.07,.03,.1,.05-.12,.31-.27,.61-.36,.92-.33,1.07-.66,2.13-.95,3.21-.21,.78,.1,1.43,.71,1.89,.46,.34,.99,.64,1.52,.85,2.72,1.11,5.56,1.11,8.41,.72,1.24-.17,1.68-.71,1.63-1.96-.03-.93-.22-1.85-.34-2.78-.02-.14-.04-.29-.05-.43,.05-.01,.09-.02,.14-.04,.36,.53,.45,1.17,.55,1.79,.11,.65,.12,1.31,.18,1.99,.27-.13,.55-.27,.82-.4,1.13-.56,2.25-1.14,3.18-2.02,.23-.22,.27-.39,.1-.66-1.7-2.76-2.33-5.79-2.27-8.99,.04-2.27,.57-4.46,1.18-6.62,.45-1.59,.92-3.19,.95-4.85,.11-4.54-1.77-8.19-5.21-11.05-1.76-1.46-3.82-1.93-6.08-1.48-3.25,.65-5.72,2.43-7.42,5.24-1.17,1.95-2.25,3.96-3.29,5.98-1.19,2.33-2.57,4.5-4.38,6.42-1.71,1.81-3.6,3.3-5.9,4.24-.25,.1-.32,.23-.26,.5,.41,1.67,1.11,3.19,2.24,4.5,.39,.45,.85,.83,1.3,1.27,.67-1.45,1.62-2.57,2.66-3.63Z"/>
    <path d="M72.2,109.23c-.27-1.33-.19-2.92,.52-4.44,.21-.45,.52-.88,.87-1.23,.74-.72,1.77-.64,2.44,.15,.67,.79,.91,1.74,1,2.74,.13,1.36-.04,2.68-.64,3.92-.22,.44-.53,.87-.89,1.21-.76,.69-1.69,.58-2.37-.2-.4-.47-.7-1.1-.93-2.15Z"/>
    <path d="M79.34,110.24c-.38-1.89-.26-3.47,.49-4.95,.21-.42,.51-.82,.86-1.14,.76-.69,1.73-.55,2.34,.27,.49,.66,.69,1.43,.76,2.22,.13,1.4-.08,2.76-.76,4-.21,.39-.51,.76-.85,1.05-.73,.62-1.62,.52-2.19-.24-.33-.44-.53-.97-.66-1.22Z"/>
  </g>
  <path d="M111.53,98.58c2.58,.17,6.58,.2,7.49-2.82,.88-2.95-.84-6.02-2.92-8.01-1.2-1.14-2.59-2.07-3.96-2.97-1.6-1.05-3.58-2.09-4.61-3.76-1.13-1.82-.34-4.05,1.19-5.37s3.64-1.73,5.57-1.93c4.19-.43,8.42,.04,12.56,.66,1.6,.24,3.27,.51,4.72,1.26,1.85,.96,2.52,2.56,2.6,4.58,.04,1,.13,2.13-.22,3.08-.57,1.54-1.95,1.57-3.29,1.03-1.51-.62-2.92-1.51-4.14-2.59-2.43-2.16-4.19-5.06-4.89-8.24-.46-2.09-.74-4.66,1.53-5.76,1.86-.89,4.02-1.09,6.05-1.19,3.65-.19,7.41,0,10.73-1.8,.42-.23,.05-.88-.38-.65-3.8,2.06-8.23,1.38-12.37,1.86-1.66,.19-3.48,.51-4.92,1.41-1.32,.83-1.74,2.23-1.71,3.73,.07,3.27,1.43,6.52,3.44,9.07,1.06,1.35,2.34,2.53,3.77,3.48,1.24,.82,3.19,2.06,4.75,1.83,1.38-.21,2.14-1.53,2.34-2.8,.25-1.6,.21-3.77-.49-5.27-1.46-3.1-5.56-3.5-8.54-3.92-4.33-.61-8.88-1.08-13.22-.28-3.11,.57-6.78,2.73-6.37,6.41,.2,1.85,1.64,3.12,3.05,4.15,1.97,1.44,4.14,2.6,5.96,4.24,1.92,1.73,3.65,4.35,3.16,7.06-.55,3.03-4.46,2.93-6.89,2.77-.48-.03-.48,.72,0,.75h0Z"/>
</svg>