<?xml version="1.0" encoding="UTF-8"?>
<svg id="Layer_4" data-name="Layer 4" xmlns="http://www.w3.org/2000/svg" viewBox="0 0 827.1 1080">
  <defs>
    <style>
      .cls-1 {
        fill: #9b9898;
      }

      .cls-2 {
        fill: #2d2d2d;
      }
    </style>
  </defs>
  <polygon class="cls-1" points="301.32 729.53 301.32 697.24 290.56 697.24 290.56 707.49 257.25 707.49 257.25 697.24 235.22 697.24 235.22 674.69 224.46 674.69 224.46 641.56 235.56 641.56 235.56 619.69 224.46 619.69 224.46 608.67 213.52 608.67 213.52 586.55 202.08 586.55 202.08 553.51 191.32 553.51 191.32 476.54 202.25 476.54 202.25 443.23 213.35 443.23 213.35 421.2 224.28 421.2 224.28 410.1 235.39 410.1 235.39 388.23 246.32 388.23 246.32 377.13 268.27 377.13 268.27 366.02 279.8 366.02 279.8 354.92 301.32 354.92 301.32 343.99 334.8 343.99 334.8 332.72 411.84 332.72 411.84 344.16 444.81 344.16 444.81 355.26 466.85 355.26 466.85 366.2 477.78 366.2 477.78 376.79 499.81 376.79 499.81 388.23 510.92 388.23 510.92 410.27 522.02 410.27 522.02 421.03 532.95 421.03 532.95 443.06 544.06 443.06 544.06 476.37 554.82 476.37 554.82 553.51 544.23 553.51 544.23 586.72 532.78 586.72 532.78 619.78 554.82 619.78 554.82 641.9 565.92 641.9 565.92 674.52 555.16 674.52 555.16 697.07 533.12 697.07 533.12 707.49 499.99 707.49 499.99 697.41 488.71 697.41 488.71 685.28 477.1 685.28 477.1 708 466.85 708 466.85 729.53 444.98 729.53 444.98 741.14 411.67 741.14 411.67 729.7 389.64 729.7 389.64 708.17 378.62 708.17 378.62 729.87 356.67 729.87 356.67 741.14 323.36 741.14 323.36 729.7 301.32 729.53"/>
  <path class="cls-2" d="M279.12,586.64c.06-7.32,.11-14.63,.17-21.95h-11.02v-55.35h11.02v-21.78h11.27v-11.02h21.78v-11.02h33.31v10.76h22.04v11.1h11.02v22.12l10.93-.09v55.09h-11.1v22.04h-10.85l-.09,11.1h-21.86v11.02h-33.4v-11.02h-21.95v-10.68c-3.76-.11-7.52-.23-11.27-.34Z"/>
  <polygon class="cls-2" points="433.54 509.34 422.86 509.34 422.86 564.43 433.96 564.43 433.96 586.64 444.81 586.64 444.81 597.57 455.91 597.57 455.91 608.67 488.97 608.67 488.97 597.48 499.9 597.48 499.9 586.47 510.92 586.47 510.92 564.6 522.02 564.6 522.02 509.34 511 509.34 511 487.14 499.9 487.14 499.9 476.29 488.88 476.29 488.88 465.27 456 465.27 456 476.37 444.73 476.37 444.73 487.56 433.71 487.56 433.54 509.34"/>
  <polygon class="cls-2" points="400.74 575.62 400.74 586.64 389.64 586.64 389.64 597.65 378.79 597.65 378.79 619.78 400.74 619.78 400.74 608.67 411.67 608.67 411.67 619.78 433.79 619.78 433.79 597.7 422.86 597.7 422.86 586.64 411.67 586.64 411.67 575.62 400.74 575.62"/>
</svg>