<?xml version="1.0" encoding="UTF-8"?>
<svg id="web" xmlns="http://www.w3.org/2000/svg" viewBox="0 0 1920 1080">
  <defs>
    <style>
      .cls-1 {
        fill: #3d3d3d;
      }

      .cls-2 {
        fill: #331802;
      }
    </style>
  </defs>
  <g>
    <polygon class="cls-1" points="171.87 174.73 171.87 179.79 177.87 179.79 177.87 173.99 171.66 173.99 171.66 167.79 165.4 167.79 165.46 174.73 171.87 174.73"/>
    <rect class="cls-1" x="41.13" y="43.47" width="6.17" height="6.26"/>
    <polygon class="cls-1" points="41.06 43.47 41.06 37.22 34.83 37.22 34.84 43.47 41.06 43.47"/>
    <rect class="cls-1" x="53.64" y="24.86" width="18.47" height="6.27"/>
    <rect class="cls-1" x="16.18" y="18.67" width="6.2" height="6.2"/>
    <rect class="cls-1" x="134.19" y="136.92" width="6.27" height="6.07"/>
    <polygon class="cls-1" points="97.02 161.7 90.87 161.7 90.87 167.68 84.58 167.68 84.58 180.19 90.78 180.19 90.78 173.99 97.05 173.99 97.05 167.93 103.18 167.93 103.18 161.52 109.37 161.52 109.37 155.41 97.02 155.41 97.02 161.7"/>
    <polygon class="cls-1" points="78.42 198.91 72.26 198.91 72.26 186.46 66.02 186.46 66.02 167.86 59.77 167.86 59.77 149.21 53.52 149.21 53.52 167.86 59.7 167.86 59.7 186.46 65.94 186.46 65.94 192.73 22.43 192.73 22.43 198.93 9.96 198.93 9.96 142.92 16.23 142.88 16.23 136.75 22.43 136.75 22.43 130.58 47.27 130.58 47.27 149.21 53.52 149.21 53.52 130.51 59.73 130.51 59.73 118.1 65.84 118.1 65.84 111.91 53.5 111.91 53.5 124.28 47.27 124.28 47.27 118.21 41.03 118.21 41.03 124.28 16.23 124.28 16.23 130.58 9.91 130.58 9.91 124.28 3.82 124.28 3.82 136.72 -2.46 136.72 -2.46 143.12 3.89 143.12 3.89 199 -2.46 199 -2.46 205.13 10.02 205.13 10.02 236.21 16.16 236.21 16.16 211.34 22.43 211.34 22.43 205.07 28.63 205.07 28.63 198.87 59.64 198.87 59.64 205.13 72.04 205.13 72.04 217.6 78.51 217.6 78.51 230.01 84.58 230.01 84.58 180.19 78.42 180.19 78.42 198.91"/>
    <rect class="cls-1" x="121.85" y="124.45" width="6.13" height="6.11"/>
    <rect class="cls-1" x="127.99" y="130.58" width="6.2" height="6.09"/>
    <polygon class="cls-1" points="72.14 105.57 65.87 105.57 65.87 111.91 78.33 111.91 78.33 105.66 97.02 105.66 97.02 111.91 109.37 111.91 109.37 118.1 115.65 118.1 115.65 105.64 109.37 105.64 109.37 93.22 103.27 93.22 103.27 74.52 96.98 74.52 96.98 93.22 90.81 93.22 90.81 99.54 72.14 99.54 72.14 105.57"/>
    <polygon class="cls-1" points="184 186.53 184 179.79 177.87 179.79 178 186.53 184 186.53"/>
    <path class="cls-1" d="m183.8,37.31v-6.29h6.29v-6.11h18.51v-6.47h12.58v-5.93h-18.51V0h-12.4l.18,6.25h6.11v6.25h-31.1l-.13,6.18h18.74v6.2h-6.2v6.17h-6.2v37.29h-6.2v-6.18h-18.67v-12.47h-6.34v-6.22h-6.07v-18.58h6.07v-6.34h12.5v-6.04h12.51v-6.47h-12.51V0h-12.48v6.04h-55.9V0h-6.29v6.04h-18.87V0H16.63v6.04h-6.83V0H-2.46v18.69H3.69v12.34h6.27v.04l.02-12.4h6.2v-6.2h6.2v-6.11h12.45v6.11h-12.45v6.2h6.25v6.2h-6.25v6.2h-12.43v6.09H-2.46v87.02H3.82v-30.96h6.22v-6.27h12.38v6.22l6.25.04v6.25h6.17v18.64h6.19v-18.73h-6.19v-6.16h6.33l-.07-24.87v.09h-6.27v12.34h-6.22v-18.6h-6.22v18.6H3.76v-37.3h12.47v18.69h6.16v-24.94h12.45v-18.56h6.3v6.19h12.34v-6.19h-6.13V6.22h12.37v6.2h18.64v18.71h-6.24v6.1h-6.1v6.25h-6.34v12.49h-6.17v-6.24h-6.2v12.39h-6.2v6.22h24.87v6.36h6.25v-12.45h-6.25v-12.56h6.13v-6.22h31.18v6.22s12.37,0,12.37,0v-6.3h-12.37v-6.03h-12.47l-.03-12.5h-6.2v-6.19h12.34v-6.25h37.48v6.22h-6.24v31.06h-12.5v6.27h-6.17v6.29h-6.21v12.18h6.1v-6.13h6.28v-6.13h31.07v6.18h18.67v6.09l12.4.27v5.93h-12.4v6.4h-6.13v6.18h-6.31v6.29h-6.23v6.2h-6.27v24.81h6.34v12.47h-6.34v6.27h-31.09v6.16h43.59v6.04h6.24v6.34h6.2v-12.38h-6.2v-12.43h-6.24v-18.67h-6.23v-12.4h6.23v-6.27h6.17v-6.2h6.27v-6.22h6.07v-6.04h37.41l.09,6.04h12.22v-6.65h-12.4l.18-5.39h-12.58v-6.29h-6.11v-6.29h-6.47v-6.11h-5.93v-25.17h5.93ZM9.98,12.46H3.82v-6.11h6.16v6.11Z"/>
    <polygon class="cls-1" points="78.34 87.02 84.61 87.02 84.61 93.22 90.78 93.22 90.78 87.02 84.67 87.02 84.67 80.86 78.46 80.86 78.46 74.7 72.24 74.7 72.24 80.86 78.34 80.86 78.34 87.02"/>
    <rect class="cls-1" x="115.65" y="118.1" width="6.2" height="6.18"/>
  </g>
  <g>
    <polygon class="cls-1" points="1743.64 174.73 1743.64 179.79 1737.64 179.79 1737.64 173.99 1743.85 173.99 1743.85 167.79 1750.11 167.79 1750.05 174.73 1743.64 174.73"/>
    <rect class="cls-1" x="1868.21" y="43.47" width="6.17" height="6.26"/>
    <polygon class="cls-1" points="1874.45 43.47 1874.45 37.22 1880.68 37.22 1880.67 43.47 1874.45 43.47"/>
    <rect class="cls-1" x="1843.4" y="24.86" width="18.47" height="6.27"/>
    <rect class="cls-1" x="1893.13" y="18.67" width="6.2" height="6.2"/>
    <rect class="cls-1" x="1775.05" y="136.92" width="6.27" height="6.07"/>
    <polygon class="cls-1" points="1818.49 161.7 1824.64 161.7 1824.64 167.68 1830.93 167.68 1830.93 180.19 1824.73 180.19 1824.73 173.99 1818.46 173.99 1818.46 167.93 1812.33 167.93 1812.33 161.52 1806.15 161.52 1806.15 155.41 1818.49 155.41 1818.49 161.7"/>
    <polygon class="cls-1" points="1837.09 198.91 1843.25 198.91 1843.25 186.46 1849.49 186.46 1849.49 167.86 1855.74 167.86 1855.74 149.21 1861.99 149.21 1861.99 167.86 1855.81 167.86 1855.81 186.46 1849.57 186.46 1849.57 192.73 1893.08 192.73 1893.08 198.93 1905.55 198.93 1905.55 142.92 1899.28 142.88 1899.28 136.75 1893.08 136.75 1893.08 130.58 1868.24 130.58 1868.24 149.21 1861.99 149.21 1861.99 130.51 1855.79 130.51 1855.79 118.1 1849.67 118.1 1849.67 111.91 1862.01 111.91 1862.01 124.28 1868.24 124.28 1868.24 118.21 1874.48 118.21 1874.48 124.28 1899.28 124.28 1899.28 130.58 1905.6 130.58 1905.6 124.28 1911.69 124.28 1911.69 136.72 1917.97 136.72 1917.97 143.12 1911.62 143.12 1911.62 199 1917.97 199 1917.97 205.13 1905.49 205.13 1905.49 236.21 1899.35 236.21 1899.35 211.34 1893.08 211.34 1893.08 205.07 1886.88 205.07 1886.88 198.87 1855.88 198.87 1855.88 205.13 1843.47 205.13 1843.47 217.6 1837 217.6 1837 230.01 1830.93 230.01 1830.93 180.19 1837.09 180.19 1837.09 198.91"/>
    <rect class="cls-1" x="1787.52" y="124.45" width="6.13" height="6.11"/>
    <rect class="cls-1" x="1781.32" y="130.58" width="6.2" height="6.09"/>
    <polygon class="cls-1" points="1843.37 105.57 1849.64 105.57 1849.64 111.91 1837.18 111.91 1837.18 105.66 1818.49 105.66 1818.49 111.91 1806.15 111.91 1806.15 118.1 1799.86 118.1 1799.86 105.64 1806.15 105.64 1806.15 93.22 1812.24 93.22 1812.24 74.52 1818.53 74.52 1818.53 93.22 1824.7 93.22 1824.7 99.54 1843.37 99.54 1843.37 105.57"/>
    <polygon class="cls-1" points="1731.51 186.53 1731.51 179.79 1737.64 179.79 1737.51 186.53 1731.51 186.53"/>
    <path class="cls-1" d="m1737.64,37.31v25.17h-5.93s0,6.11,0,6.11h-6.47s0,6.29,0,6.29h-6.11s0,6.29,0,6.29h-12.58s.18,5.39.18,5.39h-12.4s0,6.65,0,6.65h12.22s.09-6.04.09-6.04h37.41v6.04s6.07,0,6.07,0v6.22s6.27,0,6.27,0v6.2s6.17,0,6.17,0v6.27s6.23,0,6.23,0v12.4h-6.23s0,18.67,0,18.67h-6.24s0,12.43,0,12.43h-6.2s0,12.38,0,12.38h6.2s0-6.34,0-6.34h6.24s0-6.04,0-6.04h43.59s0-6.16,0-6.16h-31.09v-6.27s-6.34,0-6.34,0v-12.47h6.34s0-24.81,0-24.81h-6.27v-6.2s-6.23,0-6.23,0v-6.29s-6.31,0-6.31,0v-6.18s-6.13,0-6.13,0v-6.4s-12.4,0-12.4,0v-5.93s12.4-.27,12.4-.27v-6.09h18.67s0-6.18,0-6.18h31.07v6.13s6.28,0,6.28,0v6.13s6.1,0,6.1,0v-12.18s-6.21,0-6.21,0v-6.29s-6.17,0-6.17,0v-6.27s-12.5,0-12.5,0v-31.06s-6.24,0-6.24,0v-6.22h37.48v6.25s12.34,0,12.34,0v6.19h-6.2s-.03,12.5-.03,12.5h-12.47s0,6.03,0,6.03h-12.37s0,6.3,0,6.3h12.38s-.01-6.22-.01-6.22h31.18v6.22s6.13,0,6.13,0v12.56h-6.25s0,12.45,0,12.45h6.25s0-6.36,0-6.36h24.87s0-6.22,0-6.22h-6.2v-12.39s-6.2,0-6.2,0v6.24h-6.17v-12.49s-6.34,0-6.34,0v-6.25s-6.1,0-6.1,0v-6.1s-6.24,0-6.24,0V12.42h18.64s0-6.2,0-6.2h12.37v12.45h-6.13s0,6.19,0,6.19h12.34s0-6.19,0-6.19h6.3v18.56s12.45,0,12.45,0v24.94s6.16,0,6.16,0v-18.69h12.47v37.3h-18.63v-18.6s-6.22,0-6.22,0v18.6h-6.22v-12.34s-6.27,0-6.27,0v-.09l-.07,24.87h6.33v6.16h-6.19s0,18.73,0,18.73h6.19s0-18.64,0-18.64h6.17s0-6.25,0-6.25l6.25-.04v-6.22h12.38v6.27s6.22,0,6.22,0v30.96s6.28,0,6.28,0V37.16s-12.41,0-12.41,0v-6.09s-12.43,0-12.43,0v-6.2s-6.25,0-6.25,0v-6.2h6.25s0-6.2,0-6.2h-12.45v-6.11h12.45v6.11s6.2,0,6.2,0v6.2s6.2,0,6.2,0l.02,12.4v-.04h6.27s0-12.34,0-12.34h6.14s0-18.69,0-18.69h-12.25s0,6.04,0,6.04h-6.83V0s-42.78,0-42.78,0v6.04h-18.87V0s-6.29,0-6.29,0v6.04h-55.9V0s-12.48,0-12.48,0v6.04h-12.51s0,6.47,0,6.47h12.51v6.04s12.5,0,12.5,0v6.34s6.07,0,6.07,0v18.58h-6.07s0,6.22,0,6.22h-6.34s0,12.47,0,12.47h-18.67s0,6.18,0,6.18h-6.2V31.06s-6.2,0-6.2,0v-6.17s-6.2,0-6.2,0v-6.2h18.74s-.13-6.18-.13-6.18h-31.1v-6.25h6.11S1725.24,0,1725.24,0h-12.4s0,12.51,0,12.51h-18.51s0,5.93,0,5.93h12.58v6.47s18.51,0,18.51,0v6.11s6.29,0,6.29,0v6.29s5.93,0,5.93,0Zm167.89-30.96h6.16v6.11h-6.16v-6.11Z"/>
    <polygon class="cls-1" points="1837.17 87.02 1830.9 87.02 1830.9 93.22 1824.73 93.22 1824.73 87.02 1830.84 87.02 1830.84 80.86 1837.05 80.86 1837.05 74.7 1843.27 74.7 1843.27 80.86 1837.17 80.86 1837.17 87.02"/>
    <rect class="cls-1" x="1793.66" y="118.1" width="6.2" height="6.18"/>
  </g>
  <rect class="cls-2" x="1712.7" y="198.97" width="204.12" height="37.24"/>
  <rect class="cls-2" x="-1.9" y="198.97" width="204.12" height="37.24"/>
</svg>