<?xml version="1.0" encoding="iso-8859-1"?>
<!-- Generator: Adobe Illustrator 26.5.2, SVG Export Plug-In . SVG Version: 6.00 Build 0)  -->
<svg version="1.1" xmlns="http://www.w3.org/2000/svg" xmlns:xlink="http://www.w3.org/1999/xlink" x="0px" y="0px"
	 viewBox="0 0 111.626 75.732" style="enable-background:new 0 0 111.626 75.732;" xml:space="preserve">
<g id="Layer_4">
	<rect x="275.626" y="-475.25" style="stroke:#000000;stroke-width:0.5;stroke-miterlimit:10;" width="144" height="216"/>
</g>
<g id="Layer_1">
	
		<image style="overflow:visible;" width="50" height="50" xlink:href="../../../business card stuff/pixil-frame-0.png"  transform="matrix(2.2432 0 0 2.2432 128.1886 -196.8941)">
	</image>
	
		<image style="overflow:visible;" width="50" height="50" xlink:href="../../../../../../../Downloads/pixil-frame-0.png"  transform="matrix(1.9349 0 0 1.9349 32.9573 -166.0507)">
	</image>
</g>
<g id="Layer_3">
	<g>
		<polygon style="fill:#37F1FF;stroke:#20EAFF;stroke-width:0.5;stroke-miterlimit:10;" points="353.731,-444.501 353.837,-441.639 
			362.442,-441.639 362.442,-444.501 		"/>
		<polygon style="fill:#37F1FF;stroke:#20EAFF;stroke-width:0.5;stroke-miterlimit:10;" points="350.827,-447.383 350.827,-458.977 
			356.613,-458.977 356.613,-464.764 350.848,-464.764 350.848,-473.476 345.104,-473.476 345.104,-464.764 339.275,-464.764 
			339.275,-458.977 345.104,-458.977 345.104,-447.383 342.115,-447.383 342.115,-444.522 353.731,-444.501 353.731,-447.383 		"/>
		
			<rect x="333.531" y="-444.522" style="fill:#37F1FF;stroke:#20EAFF;stroke-width:0.5;stroke-miterlimit:10;" width="8.584" height="2.754"/>
		
			<rect x="336.478" y="-438.714" style="fill:#37F1FF;stroke:#20EAFF;stroke-width:0.5;stroke-miterlimit:10;" width="22.996" height="2.904"/>
		<path style="fill:#37F1FF;stroke:#20EAFF;stroke-width:0.5;stroke-miterlimit:10;" d="M419.613-435.81v-2.904h-2.21v-5.808h-2.904
			v5.808h-2.84v2.818h2.84v14.541h-8.626v-20.349h2.818v-2.754h-2.904v-5.851h-2.84v5.808h-2.84v2.84h2.947v17.445h-2.947v-2.883
			h-5.851v-20.285h2.904v-2.968h-2.947v-5.722h-2.861v5.701h-2.904v2.925h2.904v17.381h-5.786v3.032h5.872v5.701h-2.947l0.064,2.947
			h-5.765v-2.947h5.701v-2.947h-5.701v-5.786h2.776v-2.819h-2.904v-20.327h2.904v-2.883h-2.925v-5.808h-2.818v5.786h-2.989v2.925
			h2.989v17.317h-2.968v2.883h2.989v5.957h-2.947v-3.032h-2.851v3.032h-5.797v-3.032h5.797v-2.861l-5.797-0.064v-2.818l8.605-0.064
			v-2.84h-8.648v-20.264h2.818v-2.925h-2.818v-5.808h-2.861v5.744h-2.883v2.925h2.883v17.402h-2.904l-0.021,2.926h2.883v2.904
			h-5.829v2.947h5.829v5.829h-34.719v-5.829h5.701v-2.947h-5.701v-2.904h2.947v-2.861h-2.947v-17.423h2.947v-2.819h-2.989v-5.786
			h-2.819v5.744h-2.883v2.904h2.883v20.242h-8.712v2.904h8.562v2.818h-5.701v2.925h5.701v3.032h-5.765l0.064-3.032h-2.861v3.032
			h-2.968v-5.957h2.968v-2.818h-2.947v-17.359h2.947v-2.904h-2.84v-5.786h-2.947v5.722h-2.904v2.989h2.904v20.199h-2.818v2.883
			h2.818v5.786h-5.829v2.947h5.829v2.947h-5.829v-2.947h-2.818v-5.893h5.733l0.096-2.84h-5.872v-17.317h2.947v-2.925h-2.947v-5.829
			h-2.861v5.808h-2.904v2.947h2.904v20.413h-1.56h-4v2.5h-3v-17h3v-2.988h-3.002v-5.872h-2.998v5.776h-3v2.893h3v20.19h-9v-14.404
			h3.19v-2.84h-2.851v-5.84h-2.915v5.84h-2.925v2.872h2.925v17.456h-2.925v2.776h144v-2.776h-2.189v-17.423H419.613z
			 M301.695-418.387h-8.648v-2.947h5.573v-2.947h3.075V-418.387z M327.574-418.387h-11.53v-5.893h11.53V-418.387z M365.304-418.387
			h-34.719v-5.893h34.719V-418.387z M379.844-418.387H368.25v-5.893h11.594V-418.387z M402.905-418.387h-8.52v-5.893h2.818v2.947
			h5.701V-418.387z"/>
	</g>
	<g>
		<polygon style="fill:#FF1DE3;stroke:#F600DF;stroke-width:0.5;stroke-miterlimit:10;" points="355.7,-446.481 355.807,-443.62 
			364.412,-443.62 364.412,-446.481 		"/>
		<polygon style="fill:#FF1DE3;stroke:#F600DF;stroke-width:0.5;stroke-miterlimit:10;" points="352.796,-449.363 352.796,-460.958 
			358.583,-460.958 358.583,-466.744 352.818,-466.744 352.818,-475.456 347.074,-475.456 347.074,-466.744 341.245,-466.744 
			341.245,-460.958 347.074,-460.958 347.074,-449.363 344.084,-449.363 344.084,-446.502 355.7,-446.481 355.7,-449.363 		"/>
		
			<rect x="335.501" y="-446.502" style="fill:#FF1DE3;stroke:#F600DF;stroke-width:0.5;stroke-miterlimit:10;" width="8.584" height="2.754"/>
		
			<rect x="338.447" y="-440.694" style="fill:#FF1DE3;stroke:#F600DF;stroke-width:0.5;stroke-miterlimit:10;" width="22.996" height="2.904"/>
		<path style="fill:#FF1DE3;stroke:#F600DF;stroke-width:0.5;stroke-miterlimit:10;" d="M421.583-437.79v-2.904h-2.21v-5.808h-2.904
			v5.808h-2.84v2.818h2.84v14.541h-8.626v-20.349h2.818v-2.754h-2.904v-5.851h-2.84v5.808h-2.84v2.84h2.947v17.445h-2.947v-2.883
			h-5.851v-20.285h2.904v-2.968h-2.947v-5.722h-2.861v5.701h-2.904v2.925h2.904v17.381h-5.786v3.032h5.872v5.701h-2.947l0.064,2.947
			h-5.765v-2.947h5.701v-2.947h-5.701v-5.786h2.776v-2.819h-2.904v-20.327h2.904v-2.883h-2.925v-5.808h-2.818v5.786h-2.989v2.925
			h2.989v17.317h-2.968v2.883h2.989v5.957h-2.947v-3.032h-2.851v3.032h-5.797v-3.032h5.797v-2.861l-5.797-0.064v-2.818l8.605-0.064
			v-2.84h-8.648v-20.264h2.818v-2.925h-2.818v-5.808h-2.861v5.744h-2.883v2.925h2.883v17.402h-2.904l-0.021,2.926h2.883v2.904
			h-5.829v2.947h5.829v5.829h-34.719v-5.829h5.701v-2.947h-5.701v-2.904h2.947v-2.861h-2.947v-17.423h2.947v-2.819h-2.989v-5.786
			h-2.819v5.744h-2.883v2.904h2.883v20.242h-8.712v2.904h8.562v2.818h-5.701v2.925h5.701v3.032h-5.765l0.064-3.032h-2.861v3.032
			h-2.968v-5.957h2.968v-2.818h-2.947v-17.359h2.947v-2.904h-2.84v-5.786h-2.947v5.722h-2.904v2.989h2.904v20.199h-2.818v2.883
			h2.818v5.786h-5.829v2.947h5.829v2.947h-5.829v-2.947h-2.818v-5.893h5.733l0.096-2.84h-5.872v-17.317h2.947v-2.925h-2.947v-5.829
			h-2.861v5.808h-2.904v2.947h2.904v20.413h-1.56h-4v2.5h-3v-17h3v-2.988h-3.002v-5.872h-2.998v5.776h-3v2.893h3v20.19h-9v-14.404
			h3.19v-2.84h-2.851v-5.84h-2.915v5.84h-2.925v2.872h2.925v17.456h-2.925v2.776h144v-2.776h-2.189v-17.423H421.583z
			 M303.665-420.367h-8.648v-2.947h5.573v-2.947h3.075V-420.367z M329.544-420.367h-11.53v-5.893h11.53V-420.367z M367.273-420.367
			h-34.719v-5.893h34.719V-420.367z M381.814-420.367H370.22v-5.893h11.594V-420.367z M404.875-420.367h-8.52v-5.893h2.818v2.947
			h5.701V-420.367z"/>
	</g>
	<g>
		<g>
			<g>
				<polygon style="fill:#FFFFFF;" points="354.368,-445.523 354.475,-442.662 363.08,-442.662 363.08,-445.523 				"/>
			</g>
			<g>
				<polygon style="fill:none;stroke:#FFFFFF;stroke-width:0.5;stroke-miterlimit:10;" points="354.368,-445.523 354.475,-442.662 
					363.08,-442.662 363.08,-445.523 				"/>
			</g>
		</g>
		<g>
			<g>
				<polygon style="fill:#FFFFFF;" points="357.251,-460 357.251,-465.786 351.486,-465.786 351.486,-474.498 345.742,-474.498 
					345.742,-465.786 339.913,-465.786 339.913,-460 345.742,-460 345.742,-448.405 342.753,-448.405 342.753,-445.544 
					354.368,-445.523 354.368,-448.405 351.464,-448.405 351.464,-460 				"/>
			</g>
			<g>
				<polygon style="fill:none;stroke:#FFFFFF;stroke-width:0.5;stroke-miterlimit:10;" points="357.251,-460 357.251,-465.786 
					351.486,-465.786 351.486,-474.498 345.742,-474.498 345.742,-465.786 339.913,-465.786 339.913,-460 345.742,-460 
					345.742,-448.405 342.753,-448.405 342.753,-445.544 354.368,-445.523 354.368,-448.405 351.464,-448.405 351.464,-460 				"/>
			</g>
		</g>
		<g>
			<g>
				<path style="fill:#FFFFFF;" d="M420.251-436.832v-2.904h-2.21v-5.808h-2.904v5.808h-2.84v2.818h2.84v14.541h-8.626v-20.349
					h2.818v-2.754h-2.904v-5.851h-2.84v5.808h-2.84v2.84h2.947v17.445h-2.947v-2.883h-5.851v-20.285h2.904v-2.968h-2.947v-5.722
					h-2.861v5.701h-2.904v2.925h2.904v17.381h-5.786v3.032h5.872v5.701h-2.947l0.064,2.947h-5.765v-2.947h5.701v-2.947h-5.701
					v-5.786h2.776v-2.819h-2.904v-20.327h2.904v-2.883h-2.925v-5.808h-2.818v5.786h-2.989v2.925h2.989v17.317h-2.968v2.883h2.989
					v5.957h-2.947v-3.032h-2.851v3.032h-5.797v-3.032h5.797v-2.861l-5.797-0.064v-2.818l8.605-0.064v-2.84h-8.648V-460h2.818v-2.925
					h-2.818v-5.808h-2.861v5.744h-2.883v2.925h2.883v17.402h-2.904l-0.021,2.926h2.883v2.904h-5.829v2.947h5.829v5.829h-34.719
					v-5.829h5.701v-2.947h-5.701v-2.904h2.947v-2.861h-2.947v-17.423h2.947v-2.819h-2.989v-5.786h-2.818v5.744h-2.883v2.904h2.883
					v20.242h-8.712v2.904h8.562v2.818h-5.701v2.925h5.701v3.032h-5.765l0.064-3.032h-2.861v3.032h-2.968v-5.957h2.968v-2.818h-2.947
					v-17.359h2.947v-2.904h-2.84v-5.786h-2.947v5.722h-2.904v2.989h2.904v20.199h-2.818v2.883h2.818v5.786h-5.829v2.947h5.829v2.947
					h-5.829v-2.947h-2.819v-5.893h5.733l0.096-2.84h-5.872v-17.317h2.947v-2.925h-2.947v-5.829h-2.861v5.808h-2.904v2.947h2.904
					v20.413h-1.56h-4v2.5h-3v-17h3v-2.988h-3.002v-5.872h-2.998v5.776h-3v2.893h3v20.19h-9v-14.404h3.19v-2.84h-2.851v-5.84h-2.915
					v5.84h-2.925v2.872h2.925v17.456h-2.925v2.776h144v-2.776h-2.189v-17.423H420.251z M302.333-419.409h-8.648v-2.947h5.573v-2.947
					h3.075V-419.409z M328.212-419.409h-11.53v-5.893h11.53V-419.409z M365.941-419.409h-34.719v-5.893h34.719V-419.409z
					 M380.482-419.409h-11.594v-5.893h11.594V-419.409z M403.543-419.409h-8.52v-5.893h2.818v2.947h5.701V-419.409z"/>
			</g>
			<g>
				<path style="fill:none;stroke:#FFFFFF;stroke-width:0.5;stroke-miterlimit:10;" d="M420.251-436.832v-2.904h-2.21v-5.808h-2.904
					v5.808h-2.84v2.818h2.84v14.541h-8.626v-20.349h2.818v-2.754h-2.904v-5.851h-2.84v5.808h-2.84v2.84h2.947v17.445h-2.947v-2.883
					h-5.851v-20.285h2.904v-2.968h-2.947v-5.722h-2.861v5.701h-2.904v2.925h2.904v17.381h-5.786v3.032h5.872v5.701h-2.947
					l0.064,2.947h-5.765v-2.947h5.701v-2.947h-5.701v-5.786h2.776v-2.819h-2.904v-20.327h2.904v-2.883h-2.925v-5.808h-2.818v5.786
					h-2.989v2.925h2.989v17.317h-2.968v2.883h2.989v5.957h-2.947v-3.032h-2.851v3.032h-5.797v-3.032h5.797v-2.861l-5.797-0.064
					v-2.818l8.605-0.064v-2.84h-8.648V-460h2.818v-2.925h-2.818v-5.808h-2.861v5.744h-2.883v2.925h2.883v17.402h-2.904l-0.021,2.926
					h2.883v2.904h-5.829v2.947h5.829v5.829h-34.719v-5.829h5.701v-2.947h-5.701v-2.904h2.947v-2.861h-2.947v-17.423h2.947v-2.819
					h-2.989v-5.786h-2.818v5.744h-2.883v2.904h2.883v20.242h-8.712v2.904h8.562v2.818h-5.701v2.925h5.701v3.032h-5.765l0.064-3.032
					h-2.861v3.032h-2.968v-5.957h2.968v-2.818h-2.947v-17.359h2.947v-2.904h-2.84v-5.786h-2.947v5.722h-2.904v2.989h2.904v20.199
					h-2.818v2.883h2.818v5.786h-5.829v2.947h5.829v2.947h-5.829v-2.947h-2.819v-5.893h5.733l0.096-2.84h-5.872v-17.317h2.947v-2.925
					h-2.947v-5.829h-2.861v5.808h-2.904v2.947h2.904v20.413h-1.56h-4v2.5h-3v-17h3v-2.988h-3.002v-5.872h-2.998v5.776h-3v2.893h3
					v20.19h-9v-14.404h3.19v-2.84h-2.851v-5.84h-2.915v5.84h-2.925v2.872h2.925v17.456h-2.925v2.776h144v-2.776h-2.189v-17.423
					H420.251z M302.333-419.409h-8.648v-2.947h5.573v-2.947h3.075V-419.409z M328.212-419.409h-11.53v-5.893h11.53V-419.409z
					 M365.941-419.409h-34.719v-5.893h34.719V-419.409z M380.482-419.409h-11.594v-5.893h11.594V-419.409z M403.543-419.409h-8.52
					v-5.893h2.818v2.947h5.701V-419.409z"/>
			</g>
		</g>
		<g>
			<g>
				<rect x="334.169" y="-445.544" style="fill:#FFFFFF;" width="8.584" height="2.754"/>
			</g>
			<g>
				
					<rect x="334.169" y="-445.544" style="fill:none;stroke:#FFFFFF;stroke-width:0.5;stroke-miterlimit:10;" width="8.584" height="2.754"/>
			</g>
		</g>
		<g>
			<g>
				<rect x="337.116" y="-439.736" style="fill:#FFFFFF;" width="22.996" height="2.904"/>
			</g>
			<g>
				
					<rect x="337.116" y="-439.736" style="fill:none;stroke:#FFFFFF;stroke-width:0.5;stroke-miterlimit:10;" width="22.996" height="2.904"/>
			</g>
		</g>
	</g>
</g>
<g id="Layer_5">
	<g>
		<path style="fill:#37F1FF;stroke:#20EAFF;stroke-width:0.5;stroke-miterlimit:10;" d="M419.16-407.79v-4.783h-5.562v4.954h-5.893
			v5.21h5.637v15.19h-5.637v-15.19h-8.712v4.954h5.979v15.374h-6.149v4.954h6.149v41.082h-5.808l-0.171,5.295h5.637v41.253h-2.813
			v5.125h2.899v25.655h2.904v-30.865h5.637v30.865h3.075v-36.331h2.829v-4.698h-2.744v-41.338h2.744v-5.039h-2.915v-41.094h2.915
			v-5.112h-2.915v-15.459H419.16z M413.341-294.708h-5.722v-41.338h5.722V-294.708z M413.341-340.829h-5.722v-41.423h5.722V-340.829
			z"/>
		<polygon style="fill:#37F1FF;stroke:#20EAFF;stroke-width:0.5;stroke-miterlimit:10;" points="396.003,-325.626 398.992,-325.626 
			398.992,-330.751 396.003,-330.751 396.003,-371.918 398.822,-371.918 398.822,-377.128 396.003,-377.128 396.003,-392.416 
			398.992,-392.416 398.992,-397.455 390.281,-397.455 390.281,-392.416 393.185,-392.416 393.185,-377.128 390.281,-377.128 
			390.281,-371.747 393.185,-371.747 393.185,-330.751 390.537,-330.751 390.537,-325.626 393.185,-325.626 393.185,-279.334 
			390.366,-279.334 390.366,-274.124 393.27,-274.124 393.27,-258.719 396.174,-258.719 396.174,-279.334 401.816,-279.334 
			401.816,-284.374 396.003,-284.374 		"/>
		<polygon style="fill:#37F1FF;stroke:#20EAFF;stroke-width:0.5;stroke-miterlimit:10;" points="384.729,-258.719 387.377,-258.719 
			387.377,-269.256 390.195,-269.256 390.195,-274.124 387.291,-274.124 387.291,-320.502 390.238,-320.502 390.366,-325.626 
			387.291,-325.626 387.291,-366.719 390.238,-366.719 390.238,-371.747 387.291,-371.747 387.291,-387.219 390.238,-387.219 
			390.281,-392.416 384.473,-392.416 		"/>
	</g>
	<g>
		<path style="fill:#FF1DE3;stroke:#F600DF;stroke-width:0.5;stroke-miterlimit:10;" d="M421.329-409.176v-4.783h-5.562v4.954
			h-5.893v5.21h5.637v15.19h-5.637v-15.19h-8.712v4.954h5.979v15.374h-6.149v4.954h6.149v41.082h-5.808l-0.171,5.295h5.637v41.253
			h-2.813v5.125h2.899v25.655h2.904v-30.865h5.637v30.865h3.075v-36.331h2.829v-4.698h-2.744v-41.338h2.744v-5.039h-2.915v-41.094
			h2.915v-5.112h-2.915v-15.459H421.329z M415.511-296.094h-5.722v-41.338h5.722V-296.094z M415.511-342.215h-5.722v-41.423h5.722
			V-342.215z"/>
		<polygon style="fill:#FF1DE3;stroke:#F600DF;stroke-width:0.5;stroke-miterlimit:10;" points="398.173,-327.012 401.162,-327.012 
			401.162,-332.137 398.173,-332.137 398.173,-373.304 400.991,-373.304 400.991,-378.514 398.173,-378.514 398.173,-393.802 
			401.162,-393.802 401.162,-398.841 392.45,-398.841 392.45,-393.802 395.354,-393.802 395.354,-378.514 392.45,-378.514 
			392.45,-373.133 395.354,-373.133 395.354,-332.137 392.707,-332.137 392.707,-327.012 395.354,-327.012 395.354,-280.72 
			392.536,-280.72 392.536,-275.51 395.44,-275.51 395.44,-260.105 398.344,-260.105 398.344,-280.72 403.986,-280.72 
			403.986,-285.76 398.173,-285.76 		"/>
		<polygon style="fill:#FF1DE3;stroke:#F600DF;stroke-width:0.5;stroke-miterlimit:10;" points="386.899,-260.105 389.547,-260.105 
			389.547,-270.642 392.365,-270.642 392.365,-275.51 389.461,-275.51 389.461,-321.888 392.408,-321.888 392.536,-327.012 
			389.461,-327.012 389.461,-368.105 392.408,-368.105 392.408,-373.133 389.461,-373.133 389.461,-388.605 392.408,-388.605 
			392.45,-393.802 386.643,-393.802 		"/>
	</g>
	<g>
		<path style="fill:#FFFFFF;stroke:#F2F2F2;stroke-width:0.5;stroke-miterlimit:10;" d="M420.072-408.443v-4.783h-5.562v4.954
			h-5.893v5.21h5.637v15.19h-5.637v-15.19h-8.712v4.954h5.979v15.374h-6.149v4.954h6.149v41.082h-5.808l-0.171,5.295h5.637v41.253
			h-2.813v5.125h2.899v25.655h2.904v-30.865h5.637v30.865h3.075v-36.331h2.829v-4.698h-2.744v-41.338h2.744v-5.039h-2.915v-41.094
			h2.915v-5.112h-2.915v-15.459H420.072z M414.254-295.361h-5.722v-41.338h5.722V-295.361z M414.254-341.482h-5.722v-41.423h5.722
			V-341.482z"/>
		<polygon style="fill:#FFFFFF;stroke:#F2F2F2;stroke-width:0.5;stroke-miterlimit:10;" points="396.916,-326.279 399.905,-326.279 
			399.905,-331.404 396.916,-331.404 396.916,-372.571 399.734,-372.571 399.734,-377.781 396.916,-377.781 396.916,-393.069 
			399.905,-393.069 399.905,-398.108 391.193,-398.108 391.193,-393.069 394.097,-393.069 394.097,-377.781 391.193,-377.781 
			391.193,-372.4 394.097,-372.4 394.097,-331.404 391.45,-331.404 391.45,-326.279 394.097,-326.279 394.097,-279.987 
			391.279,-279.987 391.279,-274.777 394.183,-274.777 394.183,-259.372 397.087,-259.372 397.087,-279.987 402.729,-279.987 
			402.729,-285.026 396.916,-285.026 		"/>
		<polygon style="fill:#FFFFFF;stroke:#F2F2F2;stroke-width:0.5;stroke-miterlimit:10;" points="385.642,-259.372 388.289,-259.372 
			388.289,-269.909 391.108,-269.909 391.108,-274.777 388.204,-274.777 388.204,-321.154 391.151,-321.154 391.279,-326.279 
			388.204,-326.279 388.204,-367.371 391.151,-367.371 391.151,-372.4 388.204,-372.4 388.204,-387.871 391.151,-387.871 
			391.193,-393.069 385.386,-393.069 		"/>
	</g>
	<g>
		<path style="fill:#37F1FF;stroke:#20EAFF;stroke-width:0.5;stroke-miterlimit:10;" d="M277.473-407.79v15.459h-2.915v5.112h2.915
			v41.094h-2.915v5.039h2.744v41.338h-2.744v4.698h2.829v36.331h3.075v-30.865h5.637v30.865h2.904v-25.655h2.899v-5.125h-2.813
			v-41.253h5.637l-0.171-5.295h-5.808v-41.082h6.149v-4.954h-6.149v-15.374h5.979v-4.954h-8.712v15.19h-5.637v-15.19h5.637v-5.21
			h-5.893v-4.954h-5.562v4.783H277.473z M280.377-336.046h5.722v41.338h-5.722V-336.046z M280.377-382.253h5.722v41.423h-5.722
			V-382.253z"/>
		<polygon style="fill:#37F1FF;stroke:#20EAFF;stroke-width:0.5;stroke-miterlimit:10;" points="297.715,-325.626 294.726,-325.626 
			294.726,-330.751 297.715,-330.751 297.715,-371.918 294.897,-371.918 294.897,-377.128 297.715,-377.128 297.715,-392.416 
			294.726,-392.416 294.726,-397.455 303.438,-397.455 303.438,-392.416 300.534,-392.416 300.534,-377.128 303.438,-377.128 
			303.438,-371.747 300.534,-371.747 300.534,-330.751 303.182,-330.751 303.182,-325.626 300.534,-325.626 300.534,-279.334 
			303.352,-279.334 303.352,-274.124 300.448,-274.124 300.448,-258.719 297.545,-258.719 297.545,-279.334 291.902,-279.334 
			291.902,-284.374 297.715,-284.374 		"/>
		<polygon style="fill:#37F1FF;stroke:#20EAFF;stroke-width:0.5;stroke-miterlimit:10;" points="308.989,-258.719 306.342,-258.719 
			306.342,-269.256 303.523,-269.256 303.523,-274.124 306.427,-274.124 306.427,-320.502 303.48,-320.502 303.352,-325.626 
			306.427,-325.626 306.427,-366.719 303.48,-366.719 303.48,-371.747 306.427,-371.747 306.427,-387.219 303.48,-387.219 
			303.438,-392.416 309.246,-392.416 		"/>
	</g>
	<g>
		<path style="fill:#FF1DE3;stroke:#F600DF;stroke-width:0.5;stroke-miterlimit:10;" d="M279.475-409.792v15.459h-2.915v5.112h2.915
			v41.094h-2.915v5.039h2.744v41.338h-2.744v4.698h2.829v36.331h3.075v-30.865h5.637v30.865h2.904v-25.655h2.899v-5.125h-2.813
			v-41.253h5.637l-0.171-5.295h-5.808v-41.082h6.149v-4.954h-6.149v-15.374h5.979v-4.954h-8.712v15.19h-5.637v-15.19h5.637v-5.21
			h-5.893v-4.954h-5.562v4.783H279.475z M282.379-338.048h5.722v41.338h-5.722V-338.048z M282.379-384.254h5.722v41.423h-5.722
			V-384.254z"/>
		<polygon style="fill:#FF1DE3;stroke:#F600DF;stroke-width:0.5;stroke-miterlimit:10;" points="299.717,-327.628 296.728,-327.628 
			296.728,-332.752 299.717,-332.752 299.717,-373.92 296.898,-373.92 296.898,-379.13 299.717,-379.13 299.717,-394.418 
			296.728,-394.418 296.728,-399.457 305.439,-399.457 305.439,-394.418 302.535,-394.418 302.535,-379.13 305.439,-379.13 
			305.439,-373.749 302.535,-373.749 302.535,-332.752 305.183,-332.752 305.183,-327.628 302.535,-327.628 302.535,-281.336 
			305.354,-281.336 305.354,-276.126 302.45,-276.126 302.45,-260.72 299.546,-260.72 299.546,-281.336 293.904,-281.336 
			293.904,-286.375 299.717,-286.375 		"/>
		<polygon style="fill:#FF1DE3;stroke:#F600DF;stroke-width:0.5;stroke-miterlimit:10;" points="310.991,-260.72 308.343,-260.72 
			308.343,-271.258 305.525,-271.258 305.525,-276.126 308.429,-276.126 308.429,-322.503 305.482,-322.503 305.354,-327.628 
			308.429,-327.628 308.429,-368.72 305.482,-368.72 305.482,-373.749 308.429,-373.749 308.429,-389.22 305.482,-389.22 
			305.439,-394.418 311.247,-394.418 		"/>
	</g>
	<g>
		<path style="fill:#FFFFFF;stroke:#F2F2F2;stroke-width:0.5;stroke-miterlimit:10;" d="M278.474-408.791v15.459h-2.915v5.112h2.915
			v41.094h-2.915v5.039h2.744v41.338h-2.744v4.698h2.829v36.331h3.075v-30.865h5.637v30.865h2.904v-25.655h2.899v-5.125h-2.813
			v-41.253h5.637l-0.171-5.295h-5.808v-41.082h6.149v-4.954h-6.149v-15.374h5.979v-4.954h-8.712v15.19h-5.637v-15.19h5.637v-5.21
			h-5.893v-4.954h-5.562v4.783H278.474z M281.378-337.047h5.722v41.338h-5.722V-337.047z M281.378-383.253h5.722v41.423h-5.722
			V-383.253z"/>
		<polygon style="fill:#FFFFFF;stroke:#F2F2F2;stroke-width:0.5;stroke-miterlimit:10;" points="298.716,-326.627 295.727,-326.627 
			295.727,-331.752 298.716,-331.752 298.716,-372.919 295.898,-372.919 295.898,-378.129 298.716,-378.129 298.716,-393.417 
			295.727,-393.417 295.727,-398.456 304.439,-398.456 304.439,-393.417 301.535,-393.417 301.535,-378.129 304.439,-378.129 
			304.439,-372.748 301.535,-372.748 301.535,-331.752 304.182,-331.752 304.182,-326.627 301.535,-326.627 301.535,-280.335 
			304.353,-280.335 304.353,-275.125 301.449,-275.125 301.449,-259.72 298.545,-259.72 298.545,-280.335 292.903,-280.335 
			292.903,-285.374 298.716,-285.374 		"/>
		<polygon style="fill:#FFFFFF;stroke:#F2F2F2;stroke-width:0.5;stroke-miterlimit:10;" points="309.99,-259.72 307.342,-259.72 
			307.342,-270.257 304.524,-270.257 304.524,-275.125 307.428,-275.125 307.428,-321.502 304.481,-321.502 304.353,-326.627 
			307.428,-326.627 307.428,-367.72 304.481,-367.72 304.481,-372.748 307.428,-372.748 307.428,-388.22 304.481,-388.22 
			304.439,-393.417 310.246,-393.417 		"/>
	</g>
</g>
<g id="Layer_6">
	<polygon style="fill:#37F1FF;stroke:#20EAFF;stroke-width:0.5;stroke-miterlimit:10;" points="317.555,-312.313 317.555,-321.217 
		319.925,-321.217 319.925,-323.459 322.039,-323.459 322.039,-327.943 324.345,-327.943 324.345,-334.797 326.715,-334.797 
		326.715,-352.733 328.829,-352.733 328.829,-357.025 330.878,-357.025 330.878,-359.523 333.185,-359.523 333.185,-361.701 
		335.427,-361.701 335.427,-363.815 340.039,-363.815 340.039,-366.249 351.185,-366.249 351.185,-363.943 355.604,-363.943 
		355.604,-361.573 357.975,-361.573 357.975,-359.267 360.281,-359.267 360.281,-357.217 362.587,-357.217 362.587,-352.797 
		364.636,-352.797 364.636,-334.925 366.814,-334.925 366.814,-328.007 369.12,-328.007 369.12,-323.395 371.362,-323.395 
		371.362,-321.281 373.668,-321.281 373.668,-312.313 367.007,-312.313 367.007,-309.943 364.572,-309.943 364.572,-307.509 
		362.651,-307.509 362.651,-305.395 360.281,-305.395 360.281,-303.409 355.733,-303.409 355.733,-301.039 346.806,-301.039 
		346.806,-303.345 344.523,-303.345 344.523,-301.039 335.491,-301.039 335.491,-303.473 330.943,-303.473 330.943,-305.587 
		328.701,-305.587 328.701,-307.829 326.523,-307.829 326.523,-310.327 324.281,-310.327 324.281,-312.441 	"/>
	<polygon style="fill:#FF1DE3;stroke:#F600DF;stroke-width:0.5;stroke-miterlimit:10;" points="322.527,-314.459 322.527,-323.363 
		324.897,-323.363 324.897,-325.605 327.011,-325.605 327.011,-330.089 329.317,-330.089 329.317,-336.943 331.687,-336.943 
		331.687,-354.879 333.801,-354.879 333.801,-359.171 335.85,-359.171 335.85,-361.669 338.156,-361.669 338.156,-363.847 
		340.398,-363.847 340.398,-365.961 345.011,-365.961 345.011,-368.395 356.156,-368.395 356.156,-366.089 360.576,-366.089 
		360.576,-363.719 362.947,-363.719 362.947,-361.413 365.253,-361.413 365.253,-359.363 367.559,-359.363 367.559,-354.943 
		369.608,-354.943 369.608,-337.072 371.786,-337.072 371.786,-330.153 374.092,-330.153 374.092,-325.541 376.334,-325.541 
		376.334,-323.427 378.64,-323.427 378.64,-314.459 371.979,-314.459 371.979,-312.089 369.544,-312.089 369.544,-309.655 
		367.623,-309.655 367.623,-307.541 365.253,-307.541 365.253,-305.556 360.704,-305.556 360.704,-303.185 351.777,-303.185 
		351.777,-305.492 349.495,-305.492 349.495,-303.185 340.463,-303.185 340.463,-305.62 335.914,-305.62 335.914,-307.733 
		333.672,-307.733 333.672,-309.975 331.495,-309.975 331.495,-312.474 329.253,-312.474 329.253,-314.588 	"/>
	<polygon style="fill:#FFFFFF;stroke:#FFFFFF;stroke-miterlimit:10;" points="319.919,-313.314 319.919,-322.218 322.289,-322.218 
		322.289,-324.46 324.403,-324.46 324.403,-328.944 326.709,-328.944 326.709,-335.798 329.079,-335.798 329.079,-353.734 
		331.193,-353.734 331.193,-358.026 333.243,-358.026 333.243,-360.524 335.549,-360.524 335.549,-362.702 337.791,-362.702 
		337.791,-364.816 342.403,-364.816 342.403,-367.25 353.549,-367.25 353.549,-364.944 357.969,-364.944 357.969,-362.574 
		360.339,-362.574 360.339,-360.268 362.645,-360.268 362.645,-358.218 364.951,-358.218 364.951,-353.798 367.001,-353.798 
		367.001,-335.926 369.179,-335.926 369.179,-329.008 371.485,-329.008 371.485,-324.396 373.727,-324.396 373.727,-322.282 
		376.033,-322.282 376.033,-313.314 369.371,-313.314 369.371,-310.944 366.937,-310.944 366.937,-308.51 365.015,-308.51 
		365.015,-306.396 362.645,-306.396 362.645,-304.41 358.097,-304.41 358.097,-302.04 349.17,-302.04 349.17,-304.346 
		346.887,-304.346 346.887,-302.04 337.855,-302.04 337.855,-304.474 333.307,-304.474 333.307,-306.588 331.065,-306.588 
		331.065,-308.83 328.887,-308.83 328.887,-311.328 326.645,-311.328 326.645,-313.442 	"/>
	<polygon style="stroke:#000000;stroke-miterlimit:10;" points="335.741,-346.944 335.741,-349.122 342.339,-349.122 
		342.339,-346.944 344.645,-346.944 344.645,-340.218 342.467,-340.218 342.467,-338.104 335.741,-338.104 335.741,-340.154 
		333.371,-340.154 333.371,-346.88 	"/>
	<polygon style="stroke:#000000;stroke-miterlimit:10;" points="353.613,-346.944 353.613,-349.122 360.339,-349.122 
		360.339,-346.944 362.581,-346.944 362.581,-340.09 360.339,-340.09 360.339,-337.848 353.613,-337.848 353.613,-340.154 
		351.243,-340.154 351.243,-346.88 	"/>
</g>
<g id="Layer_7">
</g>
<g id="Layer_8">
</g>
<g id="Layer_2">
	<rect x="468.569" y="-476.395" style="stroke:#000000;stroke-width:0.5;stroke-miterlimit:10;" width="144" height="216"/>
	<rect x="469.18" y="-216.25" style="stroke:#000000;stroke-width:0.5;stroke-miterlimit:10;" width="144" height="216"/>
	
		<line style="fill:#37F1FF;stroke:#20EAFF;stroke-width:0.5;stroke-miterlimit:10;" x1="606.258" y1="-45.251" x2="606.258" y2="-13.251"/>
	
		<line style="fill:#37F1FF;stroke:#20EAFF;stroke-width:0.5;stroke-miterlimit:10;" x1="571.258" y1="-13.251" x2="606.258" y2="-13.251"/>
	
		<line style="fill:#37F1FF;stroke:#20EAFF;stroke-width:0.5;stroke-miterlimit:10;" x1="600.258" y1="-39.251" x2="600.258" y2="-8.251"/>
	
		<line style="fill:#37F1FF;stroke:#20EAFF;stroke-width:0.5;stroke-miterlimit:10;" x1="557.258" y1="-8.251" x2="600.258" y2="-8.251"/>
	
		<line style="fill:#FF1DE3;stroke:#F600DF;stroke-width:0.5;stroke-miterlimit:10;" x1="608.26" y1="-47.252" x2="608.26" y2="-15.252"/>
	
		<line style="fill:#FF1DE3;stroke:#F600DF;stroke-width:0.5;stroke-miterlimit:10;" x1="573.26" y1="-15.252" x2="608.26" y2="-15.252"/>
	
		<line style="fill:#FF1DE3;stroke:#F600DF;stroke-width:0.5;stroke-miterlimit:10;" x1="602.26" y1="-41.252" x2="602.26" y2="-10.252"/>
	
		<line style="fill:#FF1DE3;stroke:#F600DF;stroke-width:0.5;stroke-miterlimit:10;" x1="559.26" y1="-10.252" x2="602.26" y2="-10.252"/>
	
		<line style="fill:#37F1FF;stroke:#20EAFF;stroke-width:0.5;stroke-miterlimit:10;" x1="474.239" y1="-202.727" x2="474.239" y2="-170.727"/>
	
		<line style="fill:#37F1FF;stroke:#20EAFF;stroke-width:0.5;stroke-miterlimit:10;" x1="506.239" y1="-202.727" x2="474.239" y2="-202.727"/>
	
		<line style="fill:#37F1FF;stroke:#20EAFF;stroke-width:0.5;stroke-miterlimit:10;" x1="514.24" y1="-206.727" x2="485.239" y2="-206.727"/>
	
		<line style="fill:#37F1FF;stroke:#20EAFF;stroke-width:0.5;stroke-miterlimit:10;" x1="485.239" y1="-177.727" x2="485.239" y2="-206.727"/>
	
		<line style="fill:#FF1DE3;stroke:#F600DF;stroke-width:0.5;stroke-miterlimit:10;" x1="476.241" y1="-204.674" x2="476.241" y2="-172.674"/>
	<line style="fill:none;stroke:#FFFFFF;stroke-miterlimit:10;" x1="475.24" y1="-203.728" x2="475.24" y2="-171.728"/>
	<line style="fill:none;stroke:#F7F7F7;stroke-miterlimit:10;" x1="607.259" y1="-46.252" x2="607.259" y2="-14.252"/>
	<line style="fill:none;stroke:#F7F7F7;stroke-miterlimit:10;" x1="572.259" y1="-14.252" x2="607.259" y2="-14.252"/>
	<line style="fill:none;stroke:#F7F7F7;stroke-miterlimit:10;" x1="601.259" y1="-40.252" x2="601.259" y2="-9.252"/>
	<line style="fill:none;stroke:#F7F7F7;stroke-miterlimit:10;" x1="558.259" y1="-9.252" x2="601.259" y2="-9.252"/>
	
		<line style="fill:#FF1DE3;stroke:#F600DF;stroke-width:0.5;stroke-miterlimit:10;" x1="508.241" y1="-204.674" x2="476.241" y2="-204.674"/>
	
		<line style="fill:#FF1DE3;stroke:#F600DF;stroke-width:0.5;stroke-miterlimit:10;" x1="516.241" y1="-208.674" x2="487.241" y2="-208.674"/>
	
		<line style="fill:#FF1DE3;stroke:#F600DF;stroke-width:0.5;stroke-miterlimit:10;" x1="487.241" y1="-179.674" x2="487.241" y2="-208.674"/>
	<line style="fill:none;stroke:#FFFFFF;stroke-miterlimit:10;" x1="507.24" y1="-203.728" x2="475.24" y2="-203.728"/>
	<line style="fill:none;stroke:#FFFFFF;stroke-miterlimit:10;" x1="515.24" y1="-207.728" x2="486.24" y2="-207.728"/>
	<line style="fill:none;stroke:#FFFFFF;stroke-miterlimit:10;" x1="486.24" y1="-178.728" x2="486.24" y2="-207.728"/>
	<g>
		<polygon style="fill:#37F1FF;stroke:#20EAFF;stroke-width:0.5;stroke-miterlimit:10;" points="546.673,-445.646 546.78,-442.785 
			555.385,-442.785 555.385,-445.646 		"/>
		<polygon style="fill:#37F1FF;stroke:#20EAFF;stroke-width:0.5;stroke-miterlimit:10;" points="543.769,-448.528 543.769,-460.123 
			549.556,-460.123 549.556,-465.909 543.79,-465.909 543.79,-474.621 538.047,-474.621 538.047,-465.909 532.218,-465.909 
			532.218,-460.123 538.047,-460.123 538.047,-448.528 535.057,-448.528 535.057,-445.667 546.673,-445.646 546.673,-448.528 		"/>
		
			<rect x="526.474" y="-445.667" style="fill:#37F1FF;stroke:#20EAFF;stroke-width:0.5;stroke-miterlimit:10;" width="8.584" height="2.754"/>
		
			<rect x="529.42" y="-439.859" style="fill:#37F1FF;stroke:#20EAFF;stroke-width:0.5;stroke-miterlimit:10;" width="22.996" height="2.904"/>
		<path style="fill:#37F1FF;stroke:#20EAFF;stroke-width:0.5;stroke-miterlimit:10;" d="M612.556-436.956v-2.904h-2.21v-5.808
			h-2.904v5.808h-2.84v2.818h2.84v14.541h-8.626v-20.349h2.818v-2.754h-2.904v-5.851h-2.84v5.808h-2.84v2.84h2.947v17.445h-2.947
			v-2.883H587.2v-20.285h2.904v-2.968h-2.947v-5.722h-2.861v5.701h-2.904v2.925h2.904v17.381h-5.786v3.032h5.872v5.701h-2.947
			l0.064,2.947h-5.765v-2.947h5.701v-2.947h-5.701v-5.786h2.776v-2.819h-2.904v-20.327h2.904v-2.883h-2.925v-5.808h-2.818v5.786
			h-2.989v2.925h2.989v17.317h-2.968v2.883h2.989v5.957h-2.947v-3.032h-2.851v3.032h-5.797v-3.032h5.797v-2.861l-5.797-0.064v-2.818
			l8.605-0.064v-2.84h-8.648v-20.264h2.818v-2.925h-2.818v-5.808h-2.861v5.744h-2.883v2.925h2.883v17.402h-2.904l-0.021,2.926h2.883
			v2.904h-5.829v2.947h5.829v5.829h-34.719v-5.829h5.701v-2.947h-5.701v-2.904h2.947v-2.861h-2.947v-17.423h2.947v-2.819h-2.989
			v-5.786h-2.819v5.744h-2.883v2.904h2.883v20.242h-8.712v2.904h8.562v2.818h-5.701v2.925h5.701v3.032h-5.765l0.064-3.032h-2.861
			v3.032h-2.968v-5.957h2.968v-2.818h-2.947v-17.359h2.947v-2.904h-2.84v-5.786h-2.947v5.722h-2.904v2.989h2.904v20.199h-2.818
			v2.883h2.818v5.786h-5.829v2.947h5.829v2.947h-5.829v-2.947h-2.818v-5.893h5.733l0.096-2.84h-5.872v-17.317h2.947v-2.925h-2.947
			v-5.829h-2.861v5.808h-2.904v2.947h2.904v20.413h-1.56h-4v2.5h-3v-17h3v-2.988h-3.002v-5.872h-2.998v5.776h-3v2.893h3v20.19h-9
			v-14.404h3.19v-2.84h-2.851v-5.84h-2.915v5.84h-2.925v2.872h2.925v17.456h-2.925v2.776h144v-2.776h-2.189v-17.423H612.556z
			 M494.637-419.532h-8.648v-2.947h5.573v-2.947h3.075V-419.532z M520.516-419.532h-11.53v-5.893h11.53V-419.532z M558.246-419.532
			h-34.719v-5.893h34.719V-419.532z M572.787-419.532h-11.594v-5.893h11.594V-419.532z M595.847-419.532h-8.52v-5.893h2.818v2.947
			h5.701V-419.532z"/>
	</g>
	<g>
		<polygon style="fill:#FF1DE3;stroke:#F600DF;stroke-width:0.5;stroke-miterlimit:10;" points="548.643,-447.626 548.749,-444.765 
			557.354,-444.765 557.354,-447.626 		"/>
		<polygon style="fill:#FF1DE3;stroke:#F600DF;stroke-width:0.5;stroke-miterlimit:10;" points="545.739,-450.509 545.739,-462.103 
			551.525,-462.103 551.525,-467.89 545.76,-467.89 545.76,-476.601 540.016,-476.601 540.016,-467.89 534.187,-467.89 
			534.187,-462.103 540.016,-462.103 540.016,-450.509 537.027,-450.509 537.027,-447.648 548.643,-447.626 548.643,-450.509 		"/>
		
			<rect x="528.443" y="-447.648" style="fill:#FF1DE3;stroke:#F600DF;stroke-width:0.5;stroke-miterlimit:10;" width="8.584" height="2.754"/>
		
			<rect x="531.39" y="-441.84" style="fill:#FF1DE3;stroke:#F600DF;stroke-width:0.5;stroke-miterlimit:10;" width="22.996" height="2.904"/>
		<path style="fill:#FF1DE3;stroke:#F600DF;stroke-width:0.5;stroke-miterlimit:10;" d="M614.525-438.936v-2.904h-2.21v-5.808
			h-2.904v5.808h-2.84v2.818h2.84v14.541h-8.626v-20.349h2.818v-2.754H600.7v-5.851h-2.84v5.808h-2.84v2.84h2.947v17.445h-2.947
			v-2.883h-5.851v-20.285h2.904v-2.968h-2.947v-5.722h-2.861v5.701h-2.904v2.925h2.904v17.381h-5.786v3.032h5.872v5.701h-2.947
			l0.064,2.947h-5.765v-2.947h5.701v-2.947h-5.701v-5.786h2.776v-2.819h-2.904v-20.327h2.904v-2.883h-2.925v-5.808h-2.818v5.786
			h-2.989v2.925h2.989V-439h-2.968v2.883h2.989v5.957h-2.947v-3.032h-2.851v3.032h-5.797v-3.032h5.797v-2.861l-5.797-0.064v-2.818
			l8.605-0.064v-2.84h-8.648v-20.264h2.818v-2.925h-2.818v-5.808h-2.861v5.744h-2.883v2.925h2.883v17.402h-2.904l-0.021,2.926h2.883
			v2.904h-5.829v2.947h5.829v5.829h-34.719v-5.829h5.701v-2.947h-5.701v-2.904h2.947v-2.861h-2.947v-17.423h2.947v-2.819h-2.989
			v-5.786h-2.819v5.744h-2.883v2.904h2.883v20.242h-8.712v2.904h8.562v2.818h-5.701v2.925h5.701v3.032h-5.765l0.064-3.032h-2.861
			v3.032h-2.968v-5.957h2.968v-2.818h-2.947v-17.359h2.947v-2.904h-2.84v-5.786h-2.947v5.722h-2.904v2.989h2.904v20.199h-2.818
			v2.883h2.818v5.786h-5.829v2.947h5.829v2.947h-5.829v-2.947h-2.818v-5.893h5.733l0.096-2.84h-5.872v-17.317h2.947v-2.925h-2.947
			v-5.829h-2.861v5.808h-2.904v2.947h2.904v20.413h-1.56h-4v2.5h-3v-17h3v-2.988h-3.002v-5.872h-2.998v5.776h-3v2.893h3v20.19h-9
			V-439h3.19v-2.84h-2.851v-5.84h-2.915v5.84h-2.925v2.872h2.925v17.456h-2.925v2.776h144v-2.776h-2.189v-17.423H614.525z
			 M496.607-421.512h-8.648v-2.947h5.573v-2.947h3.075V-421.512z M522.486-421.512h-11.53v-5.893h11.53V-421.512z M560.216-421.512
			h-34.719v-5.893h34.719V-421.512z M574.757-421.512h-11.594v-5.893h11.594V-421.512z M597.817-421.512h-8.52v-5.893h2.818v2.947
			h5.701V-421.512z"/>
	</g>
	<g>
		<g>
			<g>
				<polygon style="fill:#FFFFFF;" points="547.311,-446.668 547.418,-443.807 556.023,-443.807 556.023,-446.668 				"/>
			</g>
			<g>
				<polygon style="fill:none;stroke:#FFFFFF;stroke-width:0.5;stroke-miterlimit:10;" points="547.311,-446.668 547.418,-443.807 
					556.023,-443.807 556.023,-446.668 				"/>
			</g>
		</g>
		<g>
			<g>
				<polygon style="fill:#FFFFFF;" points="550.193,-461.145 550.193,-466.931 544.428,-466.931 544.428,-475.643 538.685,-475.643 
					538.685,-466.931 532.855,-466.931 532.855,-461.145 538.685,-461.145 538.685,-449.551 535.695,-449.551 535.695,-446.689 
					547.311,-446.668 547.311,-449.551 544.407,-449.551 544.407,-461.145 				"/>
			</g>
			<g>
				<polygon style="fill:none;stroke:#FFFFFF;stroke-width:0.5;stroke-miterlimit:10;" points="550.193,-461.145 550.193,-466.931 
					544.428,-466.931 544.428,-475.643 538.685,-475.643 538.685,-466.931 532.855,-466.931 532.855,-461.145 538.685,-461.145 
					538.685,-449.551 535.695,-449.551 535.695,-446.689 547.311,-446.668 547.311,-449.551 544.407,-449.551 544.407,-461.145 				
					"/>
			</g>
		</g>
		<g>
			<g>
				<path style="fill:#FFFFFF;" d="M613.193-437.978v-2.904h-2.21v-5.808h-2.904v5.808h-2.84v2.818h2.84v14.541h-8.626v-20.349
					h2.818v-2.754h-2.904v-5.851h-2.84v5.808h-2.84v2.84h2.947v17.445h-2.947v-2.883h-5.851v-20.285h2.904v-2.968h-2.947v-5.722
					h-2.861v5.701h-2.904v2.925h2.904v17.381h-5.786v3.032h5.872v5.701h-2.947l0.064,2.947h-5.765v-2.947h5.701v-2.947h-5.701
					v-5.786h2.776v-2.819h-2.904v-20.327h2.904v-2.883h-2.925v-5.808h-2.818v5.786h-2.989v2.925h2.989v17.317h-2.968v2.883h2.989
					v5.957h-2.947v-3.032h-2.851v3.032h-5.797v-3.032h5.797v-2.861l-5.797-0.064v-2.818l8.605-0.064v-2.84h-8.648v-20.264h2.818
					v-2.925h-2.818v-5.808h-2.861v5.744h-2.883v2.925h2.883v17.402h-2.904l-0.021,2.926h2.883v2.904h-5.829v2.947h5.829v5.829
					h-34.719v-5.829h5.701v-2.947h-5.701v-2.904h2.947v-2.861h-2.947v-17.423h2.947v-2.819h-2.989v-5.786h-2.818v5.744h-2.883v2.904
					h2.883v20.242h-8.712v2.904h8.562v2.818h-5.701v2.925h5.701v3.032h-5.765l0.064-3.032h-2.861v3.032h-2.968v-5.957h2.968v-2.818
					h-2.947v-17.359h2.947v-2.904h-2.84v-5.786h-2.947v5.722h-2.904v2.989h2.904v20.199h-2.818v2.883h2.818v5.786h-5.829v2.947
					h5.829v2.947h-5.829v-2.947h-2.819v-5.893h5.733l0.096-2.84h-5.872v-17.317h2.947v-2.925h-2.947v-5.829h-2.861v5.808h-2.904
					v2.947h2.904v20.413h-1.56h-4v2.5h-3v-17h3v-2.988h-3.002v-5.872h-2.998v5.776h-3v2.893h3v20.19h-9v-14.404h3.19v-2.84h-2.851
					v-5.84h-2.915v5.84h-2.925v2.872h2.925v17.456h-2.925v2.776h144v-2.776h-2.189v-17.423H613.193z M495.275-420.554h-8.648v-2.947
					h5.573v-2.947h3.075V-420.554z M521.154-420.554h-11.53v-5.893h11.53V-420.554z M558.884-420.554h-34.719v-5.893h34.719
					V-420.554z M573.425-420.554H561.83v-5.893h11.594V-420.554z M596.485-420.554h-8.52v-5.893h2.818v2.947h5.701V-420.554z"/>
			</g>
			<g>
				<path style="fill:none;stroke:#FFFFFF;stroke-width:0.5;stroke-miterlimit:10;" d="M613.193-437.978v-2.904h-2.21v-5.808h-2.904
					v5.808h-2.84v2.818h2.84v14.541h-8.626v-20.349h2.818v-2.754h-2.904v-5.851h-2.84v5.808h-2.84v2.84h2.947v17.445h-2.947v-2.883
					h-5.851v-20.285h2.904v-2.968h-2.947v-5.722h-2.861v5.701h-2.904v2.925h2.904v17.381h-5.786v3.032h5.872v5.701h-2.947
					l0.064,2.947h-5.765v-2.947h5.701v-2.947h-5.701v-5.786h2.776v-2.819h-2.904v-20.327h2.904v-2.883h-2.925v-5.808h-2.818v5.786
					h-2.989v2.925h2.989v17.317h-2.968v2.883h2.989v5.957h-2.947v-3.032h-2.851v3.032h-5.797v-3.032h5.797v-2.861l-5.797-0.064
					v-2.818l8.605-0.064v-2.84h-8.648v-20.264h2.818v-2.925h-2.818v-5.808h-2.861v5.744h-2.883v2.925h2.883v17.402h-2.904
					l-0.021,2.926h2.883v2.904h-5.829v2.947h5.829v5.829h-34.719v-5.829h5.701v-2.947h-5.701v-2.904h2.947v-2.861h-2.947v-17.423
					h2.947v-2.819h-2.989v-5.786h-2.818v5.744h-2.883v2.904h2.883v20.242h-8.712v2.904h8.562v2.818h-5.701v2.925h5.701v3.032h-5.765
					l0.064-3.032h-2.861v3.032h-2.968v-5.957h2.968v-2.818h-2.947v-17.359h2.947v-2.904h-2.84v-5.786h-2.947v5.722h-2.904v2.989
					h2.904v20.199h-2.818v2.883h2.818v5.786h-5.829v2.947h5.829v2.947h-5.829v-2.947h-2.819v-5.893h5.733l0.096-2.84h-5.872v-17.317
					h2.947v-2.925h-2.947v-5.829h-2.861v5.808h-2.904v2.947h2.904v20.413h-1.56h-4v2.5h-3v-17h3v-2.988h-3.002v-5.872h-2.998v5.776
					h-3v2.893h3v20.19h-9v-14.404h3.19v-2.84h-2.851v-5.84h-2.915v5.84h-2.925v2.872h2.925v17.456h-2.925v2.776h144v-2.776h-2.189
					v-17.423H613.193z M495.275-420.554h-8.648v-2.947h5.573v-2.947h3.075V-420.554z M521.154-420.554h-11.53v-5.893h11.53V-420.554
					z M558.884-420.554h-34.719v-5.893h34.719V-420.554z M573.425-420.554H561.83v-5.893h11.594V-420.554z M596.485-420.554h-8.52
					v-5.893h2.818v2.947h5.701V-420.554z"/>
			</g>
		</g>
		<g>
			<g>
				<rect x="527.112" y="-446.689" style="fill:#FFFFFF;" width="8.584" height="2.754"/>
			</g>
			<g>
				
					<rect x="527.112" y="-446.689" style="fill:none;stroke:#FFFFFF;stroke-width:0.5;stroke-miterlimit:10;" width="8.584" height="2.754"/>
			</g>
		</g>
		<g>
			<g>
				<rect x="530.058" y="-440.881" style="fill:#FFFFFF;" width="22.996" height="2.904"/>
			</g>
			<g>
				
					<rect x="530.058" y="-440.881" style="fill:none;stroke:#FFFFFF;stroke-width:0.5;stroke-miterlimit:10;" width="22.996" height="2.904"/>
			</g>
		</g>
	</g>
	<g>
		<path style="fill:#37F1FF;stroke:#20EAFF;stroke-width:0.5;stroke-miterlimit:10;" d="M612.102-408.935v-4.783h-5.562v4.954
			h-5.893v5.21h5.637v15.19h-5.637v-15.19h-8.712v4.954h5.979v15.374h-6.149v4.954h6.149v41.082h-5.808l-0.171,5.295h5.637v41.253
			h-2.813v5.125h2.899v25.655h2.904v-30.865h5.637v30.865h3.075v-36.331h2.829v-4.698h-2.744v-41.338h2.744v-5.039h-2.915v-41.094
			h2.915v-5.112h-2.915v-15.459H612.102z M606.284-295.854h-5.722v-41.338h5.722V-295.854z M606.284-341.974h-5.722v-41.423h5.722
			V-341.974z"/>
		<polygon style="fill:#37F1FF;stroke:#20EAFF;stroke-width:0.5;stroke-miterlimit:10;" points="588.946,-326.772 591.935,-326.772 
			591.935,-331.896 588.946,-331.896 588.946,-373.063 591.764,-373.063 591.764,-378.273 588.946,-378.273 588.946,-393.562 
			591.935,-393.562 591.935,-398.601 583.223,-398.601 583.223,-393.562 586.127,-393.562 586.127,-378.273 583.223,-378.273 
			583.223,-372.893 586.127,-372.893 586.127,-331.896 583.479,-331.896 583.479,-326.772 586.127,-326.772 586.127,-280.48 
			583.309,-280.48 583.309,-275.27 586.212,-275.27 586.212,-259.864 589.116,-259.864 589.116,-280.48 594.759,-280.48 
			594.759,-285.519 588.946,-285.519 		"/>
		<polygon style="fill:#37F1FF;stroke:#20EAFF;stroke-width:0.5;stroke-miterlimit:10;" points="577.672,-259.864 580.319,-259.864 
			580.319,-270.402 583.138,-270.402 583.138,-275.27 580.234,-275.27 580.234,-321.647 583.18,-321.647 583.309,-326.772 
			580.234,-326.772 580.234,-367.864 583.18,-367.864 583.18,-372.893 580.234,-372.893 580.234,-388.364 583.18,-388.364 
			583.223,-393.562 577.415,-393.562 		"/>
	</g>
	<g>
		<path style="fill:#FF1DE3;stroke:#F600DF;stroke-width:0.5;stroke-miterlimit:10;" d="M614.272-410.321v-4.783h-5.562v4.954
			h-5.893v5.21h5.637v15.19h-5.637v-15.19h-8.712v4.954h5.979v15.374h-6.149v4.954h6.149v41.082h-5.808l-0.171,5.295h5.637v41.253
			h-2.813v5.125h2.899v25.655h2.904v-30.865h5.637v30.865h3.075v-36.331h2.829v-4.698h-2.744v-41.338h2.744v-5.039h-2.915v-41.094
			h2.915v-5.112h-2.915v-15.459H614.272z M608.453-297.239h-5.722v-41.338h5.722V-297.239z M608.453-343.36h-5.722v-41.423h5.722
			V-343.36z"/>
		<polygon style="fill:#FF1DE3;stroke:#F600DF;stroke-width:0.5;stroke-miterlimit:10;" points="591.115,-328.158 594.105,-328.158 
			594.105,-333.282 591.115,-333.282 591.115,-374.449 593.934,-374.449 593.934,-379.659 591.115,-379.659 591.115,-394.948 
			594.105,-394.948 594.105,-399.987 585.393,-399.987 585.393,-394.948 588.297,-394.948 588.297,-379.659 585.393,-379.659 
			585.393,-374.279 588.297,-374.279 588.297,-333.282 585.649,-333.282 585.649,-328.158 588.297,-328.158 588.297,-281.866 
			585.478,-281.866 585.478,-276.656 588.382,-276.656 588.382,-261.25 591.286,-261.25 591.286,-281.866 596.929,-281.866 
			596.929,-286.905 591.115,-286.905 		"/>
		<polygon style="fill:#FF1DE3;stroke:#F600DF;stroke-width:0.5;stroke-miterlimit:10;" points="579.841,-261.25 582.489,-261.25 
			582.489,-271.788 585.307,-271.788 585.307,-276.656 582.404,-276.656 582.404,-323.033 585.35,-323.033 585.478,-328.158 
			582.404,-328.158 582.404,-369.25 585.35,-369.25 585.35,-374.279 582.404,-374.279 582.404,-389.75 585.35,-389.75 
			585.393,-394.948 579.585,-394.948 		"/>
	</g>
	<g>
		<path style="fill:#FFFFFF;stroke:#F2F2F2;stroke-width:0.5;stroke-miterlimit:10;" d="M613.015-409.588v-4.783h-5.562v4.954
			h-5.893v5.21h5.637v15.19h-5.637v-15.19h-8.712v4.954h5.979v15.374h-6.149v4.954h6.149v41.082h-5.808l-0.171,5.295h5.637v41.253
			h-2.813v5.125h2.899v25.655h2.904v-30.865h5.637v30.865h3.075v-36.331h2.829v-4.698h-2.744v-41.338h2.744v-5.039H610.1v-41.094
			h2.915v-5.112H610.1v-15.459H613.015z M607.196-296.506h-5.722v-41.338h5.722V-296.506z M607.196-342.627h-5.722v-41.423h5.722
			V-342.627z"/>
		<polygon style="fill:#FFFFFF;stroke:#F2F2F2;stroke-width:0.5;stroke-miterlimit:10;" points="589.858,-327.424 592.848,-327.424 
			592.848,-332.549 589.858,-332.549 589.858,-373.716 592.677,-373.716 592.677,-378.926 589.858,-378.926 589.858,-394.214 
			592.848,-394.214 592.848,-399.254 584.136,-399.254 584.136,-394.214 587.04,-394.214 587.04,-378.926 584.136,-378.926 
			584.136,-373.545 587.04,-373.545 587.04,-332.549 584.392,-332.549 584.392,-327.424 587.04,-327.424 587.04,-281.133 
			584.221,-281.133 584.221,-275.923 587.125,-275.923 587.125,-260.517 590.029,-260.517 590.029,-281.133 595.671,-281.133 
			595.671,-286.172 589.858,-286.172 		"/>
		<polygon style="fill:#FFFFFF;stroke:#F2F2F2;stroke-width:0.5;stroke-miterlimit:10;" points="578.584,-260.517 581.232,-260.517 
			581.232,-271.054 584.05,-271.054 584.05,-275.923 581.146,-275.923 581.146,-322.3 584.093,-322.3 584.221,-327.424 
			581.146,-327.424 581.146,-368.517 584.093,-368.517 584.093,-373.545 581.146,-373.545 581.146,-389.017 584.093,-389.017 
			584.136,-394.214 578.328,-394.214 		"/>
	</g>
	<g>
		<path style="fill:#37F1FF;stroke:#20EAFF;stroke-width:0.5;stroke-miterlimit:10;" d="M470.416-408.935v15.459h-2.915v5.112h2.915
			v41.094h-2.915v5.039h2.744v41.338h-2.744v4.698h2.829v36.331h3.075v-30.865h5.637v30.865h2.904v-25.655h2.899v-5.125h-2.813
			v-41.253h5.637l-0.171-5.295h-5.808v-41.082h6.149v-4.954h-6.149v-15.374h5.979v-4.954h-8.712v15.19h-5.637v-15.19h5.637v-5.21
			h-5.893v-4.954h-5.562v4.783H470.416z M473.32-337.192h5.722v41.338h-5.722V-337.192z M473.32-383.398h5.722v41.423h-5.722
			V-383.398z"/>
		<polygon style="fill:#37F1FF;stroke:#20EAFF;stroke-width:0.5;stroke-miterlimit:10;" points="490.658,-326.772 487.668,-326.772 
			487.668,-331.896 490.658,-331.896 490.658,-373.063 487.839,-373.063 487.839,-378.273 490.658,-378.273 490.658,-393.562 
			487.668,-393.562 487.668,-398.601 496.38,-398.601 496.38,-393.562 493.476,-393.562 493.476,-378.273 496.38,-378.273 
			496.38,-372.893 493.476,-372.893 493.476,-331.896 496.124,-331.896 496.124,-326.772 493.476,-326.772 493.476,-280.48 
			496.295,-280.48 496.295,-275.27 493.391,-275.27 493.391,-259.864 490.487,-259.864 490.487,-280.48 484.845,-280.48 
			484.845,-285.519 490.658,-285.519 		"/>
		<polygon style="fill:#37F1FF;stroke:#20EAFF;stroke-width:0.5;stroke-miterlimit:10;" points="501.932,-259.864 499.284,-259.864 
			499.284,-270.402 496.466,-270.402 496.466,-275.27 499.37,-275.27 499.37,-321.647 496.423,-321.647 496.295,-326.772 
			499.37,-326.772 499.37,-367.864 496.423,-367.864 496.423,-372.893 499.37,-372.893 499.37,-388.364 496.423,-388.364 
			496.38,-393.562 502.188,-393.562 		"/>
	</g>
	<g>
		<path style="fill:#FF1DE3;stroke:#F600DF;stroke-width:0.5;stroke-miterlimit:10;" d="M472.417-410.937v15.459h-2.915v5.112h2.915
			v41.094h-2.915v5.039h2.744v41.338h-2.744v4.698h2.829v36.331h3.075v-30.865h5.637v30.865h2.904v-25.655h2.899v-5.125h-2.813
			v-41.253h5.637l-0.171-5.295h-5.808v-41.082h6.149v-4.954h-6.149v-15.374h5.979v-4.954h-8.712v15.19h-5.637v-15.19h5.637v-5.21
			h-5.893v-4.954h-5.562v4.783H472.417z M475.321-339.193h5.722v41.338h-5.722V-339.193z M475.321-385.4h5.722v41.423h-5.722V-385.4
			z"/>
		<polygon style="fill:#FF1DE3;stroke:#F600DF;stroke-width:0.5;stroke-miterlimit:10;" points="492.659,-328.773 489.67,-328.773 
			489.67,-333.898 492.659,-333.898 492.659,-375.065 489.841,-375.065 489.841,-380.275 492.659,-380.275 492.659,-395.563 
			489.67,-395.563 489.67,-400.602 498.382,-400.602 498.382,-395.563 495.478,-395.563 495.478,-380.275 498.382,-380.275 
			498.382,-374.894 495.478,-374.894 495.478,-333.898 498.126,-333.898 498.126,-328.773 495.478,-328.773 495.478,-282.481 
			498.296,-282.481 498.296,-277.272 495.392,-277.272 495.392,-261.866 492.489,-261.866 492.489,-282.481 486.846,-282.481 
			486.846,-287.521 492.659,-287.521 		"/>
		<polygon style="fill:#FF1DE3;stroke:#F600DF;stroke-width:0.5;stroke-miterlimit:10;" points="503.933,-261.866 501.286,-261.866 
			501.286,-272.403 498.467,-272.403 498.467,-277.272 501.371,-277.272 501.371,-323.649 498.425,-323.649 498.296,-328.773 
			501.371,-328.773 501.371,-369.866 498.425,-369.866 498.425,-374.894 501.371,-374.894 501.371,-390.366 498.425,-390.366 
			498.382,-395.563 504.19,-395.563 		"/>
	</g>
	<g>
		<path style="fill:#FFFFFF;stroke:#F2F2F2;stroke-width:0.5;stroke-miterlimit:10;" d="M471.417-409.936v15.459h-2.915v5.112h2.915
			v41.094h-2.915v5.039h2.744v41.338h-2.744v4.698h2.829v36.331h3.075v-30.865h5.637v30.865h2.904v-25.655h2.899v-5.125h-2.813
			v-41.253h5.637l-0.171-5.295h-5.808v-41.082h6.149v-4.954h-6.149v-15.374h5.979v-4.954h-8.712v15.19h-5.637v-15.19h5.637v-5.21
			h-5.893v-4.954h-5.562v4.783H471.417z M474.321-338.192h5.722v41.338h-5.722V-338.192z M474.321-384.399h5.722v41.423h-5.722
			V-384.399z"/>
		<polygon style="fill:#FFFFFF;stroke:#F2F2F2;stroke-width:0.5;stroke-miterlimit:10;" points="491.659,-327.772 488.669,-327.772 
			488.669,-332.897 491.659,-332.897 491.659,-374.064 488.84,-374.064 488.84,-379.274 491.659,-379.274 491.659,-394.562 
			488.669,-394.562 488.669,-399.602 497.381,-399.602 497.381,-394.562 494.477,-394.562 494.477,-379.274 497.381,-379.274 
			497.381,-373.893 494.477,-373.893 494.477,-332.897 497.125,-332.897 497.125,-327.772 494.477,-327.772 494.477,-281.481 
			497.296,-281.481 497.296,-276.271 494.392,-276.271 494.392,-260.865 491.488,-260.865 491.488,-281.481 485.845,-281.481 
			485.845,-286.52 491.659,-286.52 		"/>
		<polygon style="fill:#FFFFFF;stroke:#F2F2F2;stroke-width:0.5;stroke-miterlimit:10;" points="502.933,-260.865 500.285,-260.865 
			500.285,-271.402 497.466,-271.402 497.466,-276.271 500.37,-276.271 500.37,-322.648 497.424,-322.648 497.296,-327.772 
			500.37,-327.772 500.37,-368.865 497.424,-368.865 497.424,-373.893 500.37,-373.893 500.37,-389.365 497.424,-389.365 
			497.381,-394.562 503.189,-394.562 		"/>
	</g>
	<polygon style="fill:#37F1FF;stroke:#20EAFF;stroke-width:0.5;stroke-miterlimit:10;" points="510.497,-313.459 510.497,-322.363 
		512.867,-322.363 512.867,-324.605 514.981,-324.605 514.981,-329.089 517.287,-329.089 517.287,-335.943 519.657,-335.943 
		519.657,-353.879 521.771,-353.879 521.771,-358.17 523.821,-358.17 523.821,-360.669 526.127,-360.669 526.127,-362.847 
		528.369,-362.847 528.369,-364.96 532.981,-364.96 532.981,-367.395 544.127,-367.395 544.127,-365.089 548.547,-365.089 
		548.547,-362.718 550.917,-362.718 550.917,-360.412 553.223,-360.412 553.223,-358.363 555.529,-358.363 555.529,-353.943 
		557.579,-353.943 557.579,-336.071 559.757,-336.071 559.757,-329.153 562.063,-329.153 562.063,-324.541 564.305,-324.541 
		564.305,-322.427 566.611,-322.427 566.611,-313.459 559.949,-313.459 559.949,-311.089 557.515,-311.089 557.515,-308.654 
		555.593,-308.654 555.593,-306.541 553.223,-306.541 553.223,-304.555 548.675,-304.555 548.675,-302.185 539.748,-302.185 
		539.748,-304.491 537.465,-304.491 537.465,-302.185 528.433,-302.185 528.433,-304.619 523.885,-304.619 523.885,-306.733 
		521.643,-306.733 521.643,-308.975 519.465,-308.975 519.465,-311.473 517.223,-311.473 517.223,-313.587 	"/>
	<polygon style="fill:#FF1DE3;stroke:#F600DF;stroke-width:0.5;stroke-miterlimit:10;" points="515.469,-315.605 515.469,-324.509 
		517.839,-324.509 517.839,-326.751 519.953,-326.751 519.953,-331.235 522.259,-331.235 522.259,-338.089 524.629,-338.089 
		524.629,-356.025 526.743,-356.025 526.743,-360.317 528.793,-360.317 528.793,-362.815 531.099,-362.815 531.099,-364.993 
		533.341,-364.993 533.341,-367.107 537.953,-367.107 537.953,-369.541 549.099,-369.541 549.099,-367.235 553.519,-367.235 
		553.519,-364.865 555.889,-364.865 555.889,-362.559 558.195,-362.559 558.195,-360.509 560.501,-360.509 560.501,-356.089 
		562.551,-356.089 562.551,-338.217 564.729,-338.217 564.729,-331.299 567.035,-331.299 567.035,-326.687 569.277,-326.687 
		569.277,-324.573 571.583,-324.573 571.583,-315.605 564.921,-315.605 564.921,-313.235 562.487,-313.235 562.487,-310.801 
		560.565,-310.801 560.565,-308.687 558.195,-308.687 558.195,-306.701 553.647,-306.701 553.647,-304.331 544.72,-304.331 
		544.72,-306.637 542.437,-306.637 542.437,-304.331 533.405,-304.331 533.405,-306.765 528.857,-306.765 528.857,-308.879 
		526.615,-308.879 526.615,-311.121 524.437,-311.121 524.437,-313.619 522.195,-313.619 522.195,-315.733 	"/>
	<polygon style="fill:#FFFFFF;stroke:#FFFFFF;stroke-miterlimit:10;" points="512.862,-314.459 512.862,-323.363 515.232,-323.363 
		515.232,-325.605 517.346,-325.605 517.346,-330.089 519.652,-330.089 519.652,-336.943 522.022,-336.943 522.022,-354.879 
		524.136,-354.879 524.136,-359.171 526.185,-359.171 526.185,-361.669 528.492,-361.669 528.492,-363.847 530.734,-363.847 
		530.734,-365.961 535.346,-365.961 535.346,-368.395 546.492,-368.395 546.492,-366.089 550.911,-366.089 550.911,-363.719 
		553.282,-363.719 553.282,-361.413 555.588,-361.413 555.588,-359.363 557.894,-359.363 557.894,-354.943 559.944,-354.943 
		559.944,-337.072 562.121,-337.072 562.121,-330.153 564.427,-330.153 564.427,-325.541 566.669,-325.541 566.669,-323.427 
		568.976,-323.427 568.976,-314.459 562.314,-314.459 562.314,-312.089 559.879,-312.089 559.879,-309.655 557.958,-309.655 
		557.958,-307.541 555.588,-307.541 555.588,-305.556 551.04,-305.556 551.04,-303.185 542.113,-303.185 542.113,-305.492 
		539.83,-305.492 539.83,-303.185 530.798,-303.185 530.798,-305.62 526.25,-305.62 526.25,-307.733 524.008,-307.733 
		524.008,-309.975 521.83,-309.975 521.83,-312.474 519.588,-312.474 519.588,-314.588 	"/>
	<polygon style="stroke:#000000;stroke-miterlimit:10;" points="528.684,-348.089 528.684,-350.267 535.282,-350.267 
		535.282,-348.089 537.588,-348.089 537.588,-341.363 535.41,-341.363 535.41,-339.25 528.684,-339.25 528.684,-341.299 
		526.314,-341.299 526.314,-348.025 	"/>
	<polygon style="stroke:#000000;stroke-miterlimit:10;" points="546.556,-348.089 546.556,-350.267 553.282,-350.267 
		553.282,-348.089 555.524,-348.089 555.524,-341.235 553.282,-341.235 553.282,-338.993 546.556,-338.993 546.556,-341.299 
		544.185,-341.299 544.185,-348.025 	"/>
	<rect x="490.026" y="-170.566" style="fill:none;" width="98.304" height="40.044"/>
	<text transform="matrix(1 0 0 1 512.5095 -158.8815)"><tspan x="0" y="0" style="fill:#FFFFFF; font-family:'LoRes9OT-NarrowRegular'; font-size:15px;">Allison </tspan><tspan x="-8.34" y="18" style="fill:#FFFFFF; font-family:'LoRes9OT-NarrowRegular'; font-size:15px;">Cravinho</tspan></text>
	<rect x="512.535" y="-133.614" style="fill:none;" width="51.355" height="15.287"/>
	
		<text transform="matrix(1 0 0 1 526.6149 -125.5976)" style="fill:#FFFFFF; font-family:'LoRes15OT-NarrowRegular'; font-size:12px;">Artist</text>
	<rect x="487.501" y="-71.769" style="fill:none;" width="107.359" height="36.555"/>
	<text transform="matrix(1 0 0 1 505.577 -63.7539)"><tspan x="0" y="0" style="fill:#FFFFFF; font-family:'LoRes15OT-NarrowRegular'; font-size:12px;">IG: @allypatriciac</tspan><tspan x="-14.4" y="14.4" style="fill:#FFFFFF; font-family:'LoRes15OT-NarrowRegular'; font-size:12px;">allypatriciac@gmail.com</tspan></text>
	<path style="fill:#FFFFFF;" d="M544.425-107.164v-1.939h-1.929v-0.978h-2.906v0.967h-1.934v1.945h-0.972v1.945h-0.967v0.967h-0.972
		v0.959h-1.923v1.931h0.951v0.982h0.978v1.935l1.934-0.005v0.972h1.934v0.967h2.906v-0.97h0.967v-1.937h0.967v-1.929h0.967v-2.906
		h0.967v-2.906H544.425z M542.488-103.298h-1.923v-1.923h1.923V-103.298z"/>
	<path style="fill:#FFFFFF;" d="M525.105-107.164v-1.939h-1.929v-0.978h-2.906v0.967h-1.934v1.945h-0.972v1.945h-0.967v0.967h-0.972
		v0.959h-1.923v1.931h0.951v0.982h0.978v1.935l1.934-0.005v0.972h1.934v0.967h2.906v-0.97h0.967v-1.937h0.967v-1.929h0.967v-2.906
		h0.967v-2.906H525.105z M523.169-103.298h-1.923v-1.923h1.923V-103.298z"/>
	<path style="fill:#FFFFFF;" d="M563.889-106.533v-1.939h-1.929v-0.978h-2.906v0.967h-1.934v1.945h-0.972v1.945h-0.967v0.967h-0.972
		v0.959h-1.923v1.931h0.951v0.982h0.978v1.935l1.934-0.005v0.972h1.934v0.967h2.906v-0.97h0.967v-1.937h0.967v-1.929h0.967v-2.906
		h0.967v-2.906H563.889z M561.952-102.668h-1.923v-1.923h1.923V-102.668z"/>
	<rect x="275.613" y="-216" style="stroke:#000000;stroke-width:0.5;stroke-miterlimit:10;" width="144" height="216"/>
	
		<line style="fill:#37F1FF;stroke:#20EAFF;stroke-width:0.5;stroke-miterlimit:10;" x1="412.691" y1="-45.001" x2="412.691" y2="-13.001"/>
	
		<line style="fill:#37F1FF;stroke:#20EAFF;stroke-width:0.5;stroke-miterlimit:10;" x1="377.691" y1="-13.001" x2="412.691" y2="-13.001"/>
	
		<line style="fill:#37F1FF;stroke:#20EAFF;stroke-width:0.5;stroke-miterlimit:10;" x1="406.691" y1="-39.001" x2="406.691" y2="-8.001"/>
	
		<line style="fill:#37F1FF;stroke:#20EAFF;stroke-width:0.5;stroke-miterlimit:10;" x1="363.691" y1="-8.001" x2="406.691" y2="-8.001"/>
	
		<line style="fill:#FF1DE3;stroke:#F600DF;stroke-width:0.5;stroke-miterlimit:10;" x1="414.693" y1="-47.002" x2="414.693" y2="-15.002"/>
	
		<line style="fill:#FF1DE3;stroke:#F600DF;stroke-width:0.5;stroke-miterlimit:10;" x1="379.693" y1="-15.002" x2="414.693" y2="-15.002"/>
	
		<line style="fill:#FF1DE3;stroke:#F600DF;stroke-width:0.5;stroke-miterlimit:10;" x1="408.693" y1="-41.002" x2="408.693" y2="-10.002"/>
	
		<line style="fill:#FF1DE3;stroke:#F600DF;stroke-width:0.5;stroke-miterlimit:10;" x1="365.693" y1="-10.002" x2="408.693" y2="-10.002"/>
	
		<line style="fill:#37F1FF;stroke:#20EAFF;stroke-width:0.5;stroke-miterlimit:10;" x1="280.672" y1="-202.477" x2="280.672" y2="-170.477"/>
	
		<line style="fill:#37F1FF;stroke:#20EAFF;stroke-width:0.5;stroke-miterlimit:10;" x1="312.672" y1="-202.477" x2="280.672" y2="-202.477"/>
	
		<line style="fill:#37F1FF;stroke:#20EAFF;stroke-width:0.5;stroke-miterlimit:10;" x1="320.672" y1="-206.477" x2="291.672" y2="-206.477"/>
	
		<line style="fill:#37F1FF;stroke:#20EAFF;stroke-width:0.5;stroke-miterlimit:10;" x1="291.672" y1="-177.477" x2="291.672" y2="-206.477"/>
	
		<line style="fill:#FF1DE3;stroke:#F600DF;stroke-width:0.5;stroke-miterlimit:10;" x1="282.674" y1="-204.424" x2="282.674" y2="-172.424"/>
	<line style="fill:none;stroke:#FFFFFF;stroke-miterlimit:10;" x1="281.673" y1="-203.478" x2="281.673" y2="-171.478"/>
	<line style="fill:none;stroke:#F7F7F7;stroke-miterlimit:10;" x1="413.692" y1="-46.002" x2="413.692" y2="-14.002"/>
	<line style="fill:none;stroke:#F7F7F7;stroke-miterlimit:10;" x1="378.692" y1="-14.002" x2="413.692" y2="-14.002"/>
	<line style="fill:none;stroke:#F7F7F7;stroke-miterlimit:10;" x1="407.692" y1="-40.002" x2="407.692" y2="-9.002"/>
	<line style="fill:none;stroke:#F7F7F7;stroke-miterlimit:10;" x1="364.692" y1="-9.002" x2="407.692" y2="-9.002"/>
	
		<line style="fill:#FF1DE3;stroke:#F600DF;stroke-width:0.5;stroke-miterlimit:10;" x1="314.674" y1="-204.424" x2="282.674" y2="-204.424"/>
	
		<line style="fill:#FF1DE3;stroke:#F600DF;stroke-width:0.5;stroke-miterlimit:10;" x1="322.674" y1="-208.424" x2="293.674" y2="-208.424"/>
	
		<line style="fill:#FF1DE3;stroke:#F600DF;stroke-width:0.5;stroke-miterlimit:10;" x1="293.674" y1="-179.424" x2="293.674" y2="-208.424"/>
	<line style="fill:none;stroke:#FFFFFF;stroke-miterlimit:10;" x1="313.673" y1="-203.478" x2="281.673" y2="-203.478"/>
	<line style="fill:none;stroke:#FFFFFF;stroke-miterlimit:10;" x1="321.673" y1="-207.478" x2="292.673" y2="-207.478"/>
	<line style="fill:none;stroke:#FFFFFF;stroke-miterlimit:10;" x1="292.673" y1="-178.478" x2="292.673" y2="-207.478"/>
	<rect x="298.461" y="-170.316" style="fill:none;" width="98.304" height="40.044"/>
	<text transform="matrix(1 0 0 1 320.944 -158.6315)"><tspan x="0" y="0" style="fill:#FFFFFF; font-family:'LoRes9OT-NarrowRegular'; font-size:15px;">Allison </tspan><tspan x="-8.34" y="18" style="fill:#FFFFFF; font-family:'LoRes9OT-NarrowRegular'; font-size:15px;">Cravinho</tspan></text>
	<rect x="319.934" y="-136.014" style="fill:none;" width="51.355" height="15.287"/>
	
		<text transform="matrix(1 0 0 1 334.0141 -127.998)" style="fill:#FFFFFF; font-family:'LoRes15OT-NarrowRegular'; font-size:12px;">Artist</text>
	<rect x="293.933" y="-71.519" style="fill:none;" width="107.359" height="36.555"/>
	<text transform="matrix(1 0 0 1 312.0099 -63.504)"><tspan x="0" y="0" style="fill:#FFFFFF; font-family:'LoRes15OT-NarrowRegular'; font-size:12px;">IG: @allypatriciac</tspan><tspan x="-14.4" y="14.4" style="fill:#FFFFFF; font-family:'LoRes15OT-NarrowRegular'; font-size:12px;">allypatriciac@gmail.com</tspan></text>
	<path style="fill:#FFFFFF;" d="M350.858-106.914v-1.939h-1.929v-0.978h-2.906v0.967h-1.934v1.945h-0.972v1.945h-0.967v0.967h-0.972
		v0.959h-1.923v1.931h0.951v0.982h0.978v1.935l1.934-0.005v0.972h1.934v0.967h2.906v-0.97h0.967v-1.937h0.967v-1.929h0.967v-2.906
		h0.967v-2.906H350.858z M348.921-103.048h-1.923v-1.923h1.923V-103.048z"/>
	<path style="fill:#FFFFFF;" d="M331.538-106.914v-1.939h-1.929v-0.978h-2.906v0.967h-1.934v1.945h-0.972v1.945h-0.967v0.967h-0.972
		v0.959h-1.923v1.931h0.951v0.982h0.978v1.935l1.934-0.005v0.972h1.934v0.967h2.906v-0.97h0.967v-1.937h0.967v-1.929h0.967v-2.906
		h0.967v-2.906H331.538z M329.601-103.048h-1.923v-1.923h1.923V-103.048z"/>
	<path style="fill:#FFFFFF;" d="M370.322-106.283v-1.939h-1.929v-0.978h-2.906v0.967h-1.934v1.945h-0.972v1.945h-0.967v0.967h-0.972
		v0.959h-1.923v1.931h0.951v0.982h0.978v1.935l1.934-0.005v0.972h1.934v0.967h2.906v-0.97h0.967v-1.937h0.967v-1.929h0.967v-2.906
		h0.967v-2.906H370.322z M368.385-102.418h-1.923v-1.923h1.923V-102.418z"/>
	
		<line style="fill:#37F1FF;stroke:#20EAFF;stroke-width:0.5;stroke-miterlimit:10;" x1="803.989" y1="-168.831" x2="803.989" y2="-136.831"/>
	
		<line style="fill:#37F1FF;stroke:#20EAFF;stroke-width:0.5;stroke-miterlimit:10;" x1="768.989" y1="-136.831" x2="803.989" y2="-136.831"/>
	
		<line style="fill:#37F1FF;stroke:#20EAFF;stroke-width:0.5;stroke-miterlimit:10;" x1="797.989" y1="-162.831" x2="797.989" y2="-131.831"/>
	
		<line style="fill:#37F1FF;stroke:#20EAFF;stroke-width:0.5;stroke-miterlimit:10;" x1="754.989" y1="-131.831" x2="797.989" y2="-131.831"/>
	
		<line style="fill:#FF1DE3;stroke:#F600DF;stroke-width:0.5;stroke-miterlimit:10;" x1="805.99" y1="-170.832" x2="805.99" y2="-138.832"/>
	
		<line style="fill:#FF1DE3;stroke:#F600DF;stroke-width:0.5;stroke-miterlimit:10;" x1="770.99" y1="-138.832" x2="805.99" y2="-138.832"/>
	
		<line style="fill:#FF1DE3;stroke:#F600DF;stroke-width:0.5;stroke-miterlimit:10;" x1="799.99" y1="-164.832" x2="799.99" y2="-133.832"/>
	
		<line style="fill:#FF1DE3;stroke:#F600DF;stroke-width:0.5;stroke-miterlimit:10;" x1="756.99" y1="-133.832" x2="799.99" y2="-133.832"/>
	<line style="fill:none;stroke:#F7F7F7;stroke-miterlimit:10;" x1="804.989" y1="-169.832" x2="804.989" y2="-137.832"/>
	<line style="fill:none;stroke:#F7F7F7;stroke-miterlimit:10;" x1="769.989" y1="-137.832" x2="804.989" y2="-137.832"/>
	<line style="fill:none;stroke:#F7F7F7;stroke-miterlimit:10;" x1="798.989" y1="-163.832" x2="798.989" y2="-132.832"/>
	<line style="fill:none;stroke:#F7F7F7;stroke-miterlimit:10;" x1="755.989" y1="-132.832" x2="798.989" y2="-132.832"/>
	
		<line style="fill:#37F1FF;stroke:#20EAFF;stroke-width:0.5;stroke-miterlimit:10;" x1="856.133" y1="-326.307" x2="856.133" y2="-294.307"/>
	
		<line style="fill:#37F1FF;stroke:#20EAFF;stroke-width:0.5;stroke-miterlimit:10;" x1="888.133" y1="-326.307" x2="856.133" y2="-326.307"/>
	
		<line style="fill:#37F1FF;stroke:#20EAFF;stroke-width:0.5;stroke-miterlimit:10;" x1="896.133" y1="-330.307" x2="867.133" y2="-330.307"/>
	
		<line style="fill:#37F1FF;stroke:#20EAFF;stroke-width:0.5;stroke-miterlimit:10;" x1="867.133" y1="-301.307" x2="867.133" y2="-330.307"/>
	
		<line style="fill:#FF1DE3;stroke:#F600DF;stroke-width:0.5;stroke-miterlimit:10;" x1="858.135" y1="-328.254" x2="858.135" y2="-296.254"/>
	<line style="fill:none;stroke:#FFFFFF;stroke-miterlimit:10;" x1="857.134" y1="-327.308" x2="857.134" y2="-295.308"/>
	
		<line style="fill:#FF1DE3;stroke:#F600DF;stroke-width:0.5;stroke-miterlimit:10;" x1="890.135" y1="-328.254" x2="858.135" y2="-328.254"/>
	
		<line style="fill:#FF1DE3;stroke:#F600DF;stroke-width:0.5;stroke-miterlimit:10;" x1="898.135" y1="-332.254" x2="869.135" y2="-332.254"/>
	
		<line style="fill:#FF1DE3;stroke:#F600DF;stroke-width:0.5;stroke-miterlimit:10;" x1="869.135" y1="-303.254" x2="869.135" y2="-332.254"/>
	<line style="fill:none;stroke:#FFFFFF;stroke-miterlimit:10;" x1="889.134" y1="-327.308" x2="857.134" y2="-327.308"/>
	<line style="fill:none;stroke:#FFFFFF;stroke-miterlimit:10;" x1="897.134" y1="-331.308" x2="868.134" y2="-331.308"/>
	<line style="fill:none;stroke:#FFFFFF;stroke-miterlimit:10;" x1="868.134" y1="-302.308" x2="868.134" y2="-331.308"/>
	<path style="fill:#FFFFFF;" d="M71.672,34.001v-1.939h-1.929v-0.978h-2.906v0.967h-1.934v1.945H63.93v1.945h-0.967v0.967h-0.972
		v0.959h-1.923v1.931h0.951v0.982h0.978v1.935l1.934-0.005v0.972h1.934v0.967h2.906v-0.97h0.967v-1.937h0.967v-1.929h0.967v-2.906
		h0.967v-2.906H71.672z M69.735,37.866h-1.923v-1.923h1.923V37.866z"/>
	<path style="fill:#FFFFFF;" d="M73.13,136.492v-1.939h-1.929v-0.978h-2.906v0.967h-1.934v1.945h-0.972v1.945h-0.967v0.967H63.45
		v0.959h-1.923v1.931h0.951v0.982h0.978v1.935l1.934-0.005v0.972h1.934v0.967h2.906v-0.97h0.967v-1.937h0.967v-1.929h0.967v-2.906
		h0.967v-2.906H73.13z M71.194,140.357H69.27v-1.923h1.923V140.357z"/>
	<path style="fill:#FFFFFF;" d="M66.845,238.983v-1.939h-1.929v-0.978H62.01v0.967h-1.934v1.945h-0.972v1.945h-0.967v0.967h-0.972
		v0.959h-1.923v1.931h0.951v0.982h0.978v1.935l1.934-0.005v0.972h1.934v0.967h2.906v-0.97h0.967v-1.937h0.967v-1.929h0.967v-2.906
		h0.967v-2.906H66.845z M64.908,242.848h-1.923v-1.923h1.923V242.848z"/>
</g>
<g id="Layer_9">
	<rect x="499.866" y="-172.674" style="fill:none;stroke:#FFFFFF;stroke-miterlimit:10;" width="78.892" height="32.057"/>
	<rect x="516.241" y="-136.937" style="fill:none;stroke:#FFFFFF;stroke-miterlimit:10;" width="45.711" height="16.21"/>
	<rect x="505.819" y="-116.097" style="fill:none;stroke:#FFFFFF;stroke-miterlimit:10;" width="63.242" height="27.502"/>
	<rect x="483.481" y="-84.325" style="fill:none;stroke:#FFFFFF;stroke-miterlimit:10;" width="113.423" height="52.27"/>
	<rect x="496.634" y="-76.809" style="fill:none;stroke:#FFFFFF;stroke-miterlimit:10;" width="87.972" height="16.911"/>
	<rect x="487.501" y="-58.19" style="fill:none;stroke:#FFFFFF;stroke-miterlimit:10;" width="106.158" height="14.007"/>
	<rect x="468.126" y="-216" style="fill:none;stroke:#FFFFFF;stroke-miterlimit:10;" width="59.671" height="45.684"/>
	<rect x="548.629" y="-47.733" style="fill:none;stroke:#FFFFFF;stroke-miterlimit:10;" width="65.011" height="47.483"/>
	<rect x="507.616" y="-383.398" style="fill:none;stroke:#FFFFFF;stroke-miterlimit:10;" width="67.14" height="105.415"/>
	<rect x="467.501" y="-476.601" style="fill:none;stroke:#FFFFFF;stroke-miterlimit:10;" width="145.068" height="216.206"/>
	<rect x="548.136" y="-189.617" style="fill:none;" width="34.335" height="11.786"/>
	<text transform="matrix(1 0 0 1 548.1359 -181.0967)" style="fill:#FFFFFF; font-family:'MyriadPro-Regular'; font-size:12px;">&lt;h1&gt;</text>
	<rect x="569.659" y="-133.759" style="fill:none;" width="30.599" height="20.498"/>
	<text transform="matrix(1 0 0 1 569.6584 -125.2393)" style="fill:#FFFFFF; font-family:'MyriadPro-Regular'; font-size:12px;">&lt;h2&gt;</text>
	<rect x="594.422" y="-77.577" style="fill:none;" width="38.434" height="18.448"/>
	<text transform="matrix(1 0 0 1 594.4228 -69.0576)" style="fill:#FFFFFF; font-family:'MyriadPro-Regular'; font-size:12px;">&lt;h3&gt;</text>
	<g>
		<defs>
			<rect id="SVGID_1_" x="-10.53" y="-417.115" width="244.313" height="162.939"/>
		</defs>
		<clipPath id="SVGID_00000042017094460218949920000001420715703698640560_">
			<use xlink:href="#SVGID_1_"  style="overflow:visible;"/>
		</clipPath>
		<g style="clip-path:url(#SVGID_00000042017094460218949920000001420715703698640560_);">
			<g>
				
					<image style="overflow:visible;" width="918" height="924" xlink:href="9DB81560.png"  transform="matrix(-0.0463 0 0 0.0463 6.4696 -412.6152)">
				</image>
			</g>
			<g>
				
					<image style="overflow:visible;" width="918" height="924" xlink:href="9DB81561.png"  transform="matrix(-0.0463 0 0 0.0463 31.9927 -443.5157)">
				</image>
			</g>
			<g>
				
					<image style="overflow:visible;" width="918" height="924" xlink:href="9DB81563.png"  transform="matrix(-0.0463 0 0 0.0463 57.5157 -412.6152)">
				</image>
			</g>
			<g>
				
					<image style="overflow:visible;" width="918" height="924" xlink:href="9DB8156E.png"  transform="matrix(-0.0463 0 0 0.0463 83.0388 -443.5157)">
				</image>
			</g>
			<g>
				
					<image style="overflow:visible;" width="918" height="924" xlink:href="9DB8156F.png"  transform="matrix(-0.0463 0 0 0.0463 108.5618 -412.6152)">
				</image>
			</g>
			<g>
				
					<image style="overflow:visible;" width="918" height="924" xlink:href="9DB81562.png"  transform="matrix(-0.0463 0 0 0.0463 134.0849 -443.5157)">
				</image>
			</g>
			<g>
				
					<image style="overflow:visible;" width="918" height="924" xlink:href="9DB81565.png"  transform="matrix(-0.0463 0 0 0.0463 159.608 -412.6152)">
				</image>
			</g>
			<g>
				
					<image style="overflow:visible;" width="918" height="924" xlink:href="CB9B173F.png"  transform="matrix(-0.0463 0 0 0.0463 185.131 -443.5157)">
				</image>
			</g>
			<g>
				
					<image style="overflow:visible;" width="918" height="924" xlink:href="CB9B173D.png"  transform="matrix(-0.0463 0 0 0.0463 210.6541 -412.6152)">
				</image>
			</g>
			<g>
				
					<image style="overflow:visible;" width="918" height="924" xlink:href="CB9B173B.png"  transform="matrix(-0.0463 0 0 0.0463 236.1771 -443.5157)">
				</image>
			</g>
			<g>
				
					<image style="overflow:visible;" width="918" height="924" xlink:href="CB9B1735.png"  transform="matrix(-0.0463 0 0 0.0463 261.7002 -412.6152)">
				</image>
			</g>
			<g>
				
					<image style="overflow:visible;" width="918" height="924" xlink:href="CB9B1737.png"  transform="matrix(0.0463 0 0 0.0463 -36.0535 -350.8142)">
				</image>
			</g>
			<g>
				
					<image style="overflow:visible;" width="918" height="924" xlink:href="CB9B172A.png"  transform="matrix(0.0463 0 0 0.0463 -10.53 -381.7147)">
				</image>
			</g>
			<g>
				
					<image style="overflow:visible;" width="918" height="924" xlink:href="CB9B172B.png"  transform="matrix(0.0463 0 0 0.0463 14.9924 -350.8142)">
				</image>
			</g>
			<g>
				
					<image style="overflow:visible;" width="918" height="924" xlink:href="CB9B172D.png"  transform="matrix(0.0463 0 0 0.0463 40.5159 -381.7147)">
				</image>
			</g>
			<g>
				
					<image style="overflow:visible;" width="918" height="924" xlink:href="CB9B172F.png"  transform="matrix(0.0463 0 0 0.0463 66.0383 -350.8142)">
				</image>
			</g>
			<g>
				
					<image style="overflow:visible;" width="918" height="924" xlink:href="CB9B1728.png"  transform="matrix(0.0463 0 0 0.0463 91.5618 -381.7147)">
				</image>
			</g>
			<g>
				
					<image style="overflow:visible;" width="918" height="924" xlink:href="CB9B174E.png"  transform="matrix(0.0463 0 0 0.0463 117.0852 -350.8142)">
				</image>
			</g>
			<g>
				
					<image style="overflow:visible;" width="918" height="924" xlink:href="CB9B174D.png"  transform="matrix(0.0463 0 0 0.0463 142.6077 -381.7147)">
				</image>
			</g>
			<g>
				
					<image style="overflow:visible;" width="918" height="924" xlink:href="CB9B174A.png"  transform="matrix(0.0463 0 0 0.0463 168.1311 -350.8142)">
				</image>
			</g>
			<g>
				
					<image style="overflow:visible;" width="918" height="924" xlink:href="CB9B1745.png"  transform="matrix(0.0463 0 0 0.0463 193.6545 -381.7147)">
				</image>
			</g>
			<g>
				
					<image style="overflow:visible;" width="918" height="924" xlink:href="CB9B1746.png"  transform="matrix(0.0463 0 0 0.0463 219.178 -350.8142)">
				</image>
			</g>
			<g>
				
					<image style="overflow:visible;" width="918" height="924" xlink:href="CB9B1744.png"  transform="matrix(-0.0463 0 0 0.0463 6.4696 -289.0132)">
				</image>
			</g>
			<g>
				
					<image style="overflow:visible;" width="918" height="924" xlink:href="CB9B177A.png"  transform="matrix(-0.0463 0 0 0.0463 31.9927 -319.9138)">
				</image>
			</g>
			<g>
				
					<image style="overflow:visible;" width="918" height="924" xlink:href="CB9B177D.png"  transform="matrix(-0.0463 0 0 0.0463 57.5157 -289.0132)">
				</image>
			</g>
			<g>
				
					<image style="overflow:visible;" width="918" height="924" xlink:href="CB9B177E.png"  transform="matrix(-0.0463 0 0 0.0463 83.0388 -319.9138)">
				</image>
			</g>
			<g>
				
					<image style="overflow:visible;" width="918" height="924" xlink:href="CB9B177C.png"  transform="matrix(-0.0463 0 0 0.0463 108.5618 -289.0132)">
				</image>
			</g>
			<g>
				
					<image style="overflow:visible;" width="918" height="924" xlink:href="CB9B1761.png"  transform="matrix(-0.0463 0 0 0.0463 134.0849 -319.9138)">
				</image>
			</g>
			<g>
				
					<image style="overflow:visible;" width="918" height="924" xlink:href="CB9B179F.png"  transform="matrix(-0.0463 0 0 0.0463 159.608 -289.0132)">
				</image>
			</g>
			<g>
				
					<image style="overflow:visible;" width="918" height="924" xlink:href="CB9B17A1.png"  transform="matrix(-0.0463 0 0 0.0463 185.131 -319.9138)">
				</image>
			</g>
			<g>
				
					<image style="overflow:visible;" width="918" height="924" xlink:href="CB9B17A3.png"  transform="matrix(-0.0463 0 0 0.0463 210.6541 -289.0132)">
				</image>
			</g>
			<g>
				
					<image style="overflow:visible;" width="918" height="924" xlink:href="CB9B17A0.png"  transform="matrix(-0.0463 0 0 0.0463 236.1771 -319.9138)">
				</image>
			</g>
			<g>
				
					<image style="overflow:visible;" width="918" height="924" xlink:href="CB9B17A7.png"  transform="matrix(-0.0463 0 0 0.0463 261.7002 -289.0132)">
				</image>
			</g>
			<g>
				
					<image style="overflow:visible;" width="918" height="924" xlink:href="CB9B17A2.png"  transform="matrix(0.0463 0 0 0.0463 -10.53 -258.1128)">
				</image>
			</g>
			<g>
				
					<image style="overflow:visible;" width="918" height="924" xlink:href="CB9B17AE.png"  transform="matrix(0.0463 0 0 0.0463 40.5159 -258.1128)">
				</image>
			</g>
			<g>
				
					<image style="overflow:visible;" width="918" height="924" xlink:href="CB9B17AF.png"  transform="matrix(0.0463 0 0 0.0463 91.5618 -258.1128)">
				</image>
			</g>
			<g>
				
					<image style="overflow:visible;" width="918" height="924" xlink:href="CB9B17A4.png"  transform="matrix(0.0463 0 0 0.0463 142.6077 -258.1128)">
				</image>
			</g>
			<g>
				
					<image style="overflow:visible;" width="918" height="924" xlink:href="CB9B178C.png"  transform="matrix(0.0463 0 0 0.0463 193.6545 -258.1128)">
				</image>
			</g>
		</g>
	</g>
	
		<image style="overflow:visible;" width="918" height="924" xlink:href="CB9B178F.png"  transform="matrix(0.0463 0 0 0.0463 38.8061 -183.615)">
	</image>
</g>
</svg>
