<?xml version="1.0" encoding="utf-8"?>
<!-- Generator: Adobe Illustrator 27.2.0, SVG Export Plug-In . SVG Version: 6.00 Build 0)  -->
<svg version="1.1" xmlns="http://www.w3.org/2000/svg" xmlns:xlink="http://www.w3.org/1999/xlink" x="0px" y="0px"
	 viewBox="0 0 24 24" style="enable-background:new 0 0 24 24;" xml:space="preserve">
<g id="line-work">
	<g>
		<path d="M119.17,12765.03L16.82,12765l-2.16-0.73c-6.82-2.35-11.49-7.01-13.81-13.84l-0.76-2.16l-0.08-67.42
			c-0.05-60.9-0.03-67.64,0.35-69.58c0.86-4.29,2.48-7.31,5.66-10.54c3.51-3.53,7.28-5.39,12.3-6.04
			c3.24-0.4,200.14-0.38,203.46,0.03c8.55,1.05,15.45,7.04,17.53,15.21l0.67,2.64l-0.05,67.99l-0.08,67.99l-0.73,2.16
			c-2.54,7.44-8.79,12.89-16.29,14.13C222.12,12764.98,175.46,12765.06,119.17,12765.03z M120.47,12752.46
			c55.05,0,100.11-0.05,100.11-0.11c0-0.19-88.22-86.28-89.22-87.06c-2.64-2.13-6.72-2.43-9.9-0.73
			c-1.29,0.67-9.52,7.74-32.28,27.64c-16.8,14.7-38.94,34.04-49.17,42.99c-10.25,8.93-18.85,16.48-19.15,16.75
			C20.36,12752.46,22.08,12752.46,120.47,12752.46z M12.7,12710.8l0.08,31.42l30.13-26.32l30.15-26.32l-0.51-0.65
			c-0.27-0.35-13.84-16.78-30.13-36.52l-29.64-35.87l-0.08,31.42C12.67,12665.24,12.67,12693.51,12.7,12710.8z M227.3,12741.08
			c0.08,0.03,0.16-26.94,0.16-59.95s-0.05-60.01-0.13-59.98c-0.16,0.03-54.59,65.97-54.7,66.29c-0.05,0.13,12.19,12.24,27.21,26.89
			C214.86,12729,227.22,12741.03,227.3,12741.08z M82.44,12681.05c0.11,0.08,6.55-5.42,14.35-12.24
			c7.79-6.82,14.89-12.95,15.78-13.62c7.69-5.77,18.96-5.77,26.35-0.03c0.84,0.65,6.66,6.18,12.92,12.3
			c6.28,6.12,11.46,11.11,11.54,11.08c0.27-0.03,58.42-70.58,58.39-70.82c-0.03-0.11-0.59-0.3-1.27-0.43
			c-0.65-0.11-45.71-0.16-100.11-0.13l-98.9,0.08l30.4,36.81C68.61,12664.3,82.36,12680.94,82.44,12681.05z"/>
	</g>
	<g transform="translate(0.000000,1280.000000) scale(0.100000,-0.100000)">
		<path d="M17.09,12757.22c-7.5-1.24-13.76-6.69-16.3-14.14l-0.73-2.16l-0.08-68.03l-0.05-68.03l0.67-2.64
			c2.08-8.18,8.99-14.17,17.54-15.22c3.32-0.41,200.35-0.43,203.59-0.03c5.02,0.65,8.8,2.51,12.31,6.04
			c3.18,3.24,4.8,6.26,5.67,10.55c0.38,1.94,0.4,8.69,0.35,69.63l-0.08,67.47l-0.76,2.16c-2.32,6.83-6.99,11.5-13.82,13.84
			l-2.16,0.73l-102.41,0.03C64.5,12757.44,17.82,12757.36,17.09,12757.22z M219.19,12744.32c-0.3-0.27-8.91-7.83-19.16-16.76
			c-10.23-8.96-32.38-28.31-49.2-43.02c-22.78-19.92-31.01-26.99-32.3-27.66c-3.18-1.7-7.26-1.4-9.9,0.73
			c-1,0.78-89.27,86.92-89.27,87.11c0,0.05,45.09,0.11,100.17,0.11C217.98,12744.83,219.71,12744.83,219.19,12744.32z
			 M227.37,12640.26l-0.08-31.44l-29.66,35.89c-16.3,19.75-29.87,36.19-30.14,36.54l-0.51,0.65l30.17,26.34l30.14,26.34l0.08-31.44
			C227.4,12685.84,227.4,12657.56,227.37,12640.26z M40.11,12706.67c15.03-14.65,27.28-26.77,27.23-26.91
			c-0.11-0.32-54.57-66.31-54.73-66.33c-0.08-0.03-0.13,26.99-0.13,60.02c0,33.03,0.08,60.02,0.16,59.99
			C12.72,12733.39,25.08,12721.36,40.11,12706.67z M188.16,12636.35l30.41-36.84l-98.96-0.08c-54.43-0.03-99.53,0.03-100.17,0.13
			c-0.67,0.14-1.24,0.32-1.27,0.43c-0.03,0.24,58.16,70.84,58.43,70.87c0.08,0.03,5.26-4.96,11.55-11.09
			c6.26-6.13,12.09-11.66,12.93-12.31c7.39-5.75,18.67-5.75,26.37,0.03c0.89,0.67,7.99,6.8,15.79,13.63
			c7.8,6.83,14.25,12.33,14.36,12.25C157.66,12673.27,171.43,12656.61,188.16,12636.35z"/>
	</g>
</g>
</svg>
