<?xml version="1.0" encoding="utf-8"?>
<!-- Generator: Adobe Illustrator 26.5.2, SVG Export Plug-In . SVG Version: 6.00 Build 0)  -->
<svg version="1.1" xmlns="http://www.w3.org/2000/svg" xmlns:xlink="http://www.w3.org/1999/xlink" x="0px" y="0px"
	 viewBox="0 0 144 216" style="enable-background:new 0 0 144 216;" xml:space="preserve">
<style type="text/css">
	.st0{stroke:#000000;stroke-width:0.5;stroke-miterlimit:10;}
	.st1{fill:#37F1FF;stroke:#20EAFF;stroke-width:0.5;stroke-miterlimit:10;}
	.st2{fill:#FF1DE3;stroke:#F600DF;stroke-width:0.5;stroke-miterlimit:10;}
	.st3{fill:#FFFFFF;}
	.st4{fill:none;stroke:#FFFFFF;stroke-width:0.5;stroke-miterlimit:10;}
	.st5{fill:#FFFFFF;stroke:#F2F2F2;stroke-width:0.5;stroke-miterlimit:10;}
	.st6{fill:#FFFFFF;stroke:#FFFFFF;stroke-miterlimit:10;}
	.st7{stroke:#000000;stroke-miterlimit:10;}
	.st8{fill:none;stroke:#FFFFFF;stroke-miterlimit:10;}
	.st9{fill:none;stroke:#F7F7F7;stroke-miterlimit:10;}
</style>
<g id="Layer_4">
	<rect class="st0" width="144" height="216"/>
</g>
<g id="Layer_1">
</g>
<g id="Layer_3">
	<g>
		<polygon class="st1" points="78.1,30.75 78.21,33.61 86.82,33.61 86.82,30.75 		"/>
		<polygon class="st1" points="75.2,27.87 75.2,16.27 80.99,16.27 80.99,10.49 75.22,10.49 75.22,1.77 69.48,1.77 69.48,10.49 
			63.65,10.49 63.65,16.27 69.48,16.27 69.48,27.87 66.49,27.87 66.49,30.73 78.1,30.75 78.1,27.87 		"/>
		<rect x="57.9" y="30.73" class="st1" width="8.58" height="2.75"/>
		<rect x="60.85" y="36.54" class="st1" width="23" height="2.9"/>
		<path class="st1" d="M143.99,39.44v-2.9h-2.21v-5.81h-2.9v5.81h-2.84v2.82h2.84V53.9h-8.63V33.55h2.82v-2.75h-2.9v-5.85h-2.84
			v5.81h-2.84v2.84h2.95v17.44h-2.95v-2.88h-5.85V27.87h2.9V24.9h-2.95v-5.72h-2.86v5.7h-2.9v2.93h2.9v17.38h-5.79v3.03h5.87v5.7
			h-2.95l0.06,2.95h-5.77v-2.95h5.7v-2.95h-5.7v-5.79h2.78v-2.82h-2.9V22.04h2.9v-2.88h-2.93v-5.81h-2.82v5.79h-2.99v2.93h2.99
			v17.32h-2.97v2.88h2.99v5.96h-2.95v-3.03h-2.85v3.03h-5.8v-3.03h5.8v-2.86l-5.8-0.06v-2.82l8.6-0.06v-2.84h-8.65V16.27h2.82v-2.93
			h-2.82V7.54h-2.86v5.74h-2.88v2.93h2.88v17.4h-2.9l-0.02,2.93h2.88v2.9h-5.83v2.95h5.83v5.83H54.96v-5.83h5.7v-2.95h-5.7v-2.9
			h2.95v-2.86h-2.95V16.25h2.95v-2.82h-2.99V7.65H52.1v5.74h-2.88v2.9h2.88v20.24h-8.71v2.9h8.56v2.82h-5.7v2.93h5.7v3.03h-5.77
			l0.06-3.03h-2.86v3.03h-2.97v-5.96h2.97v-2.82h-2.95V22.08h2.95v-2.9h-2.84v-5.79H37.6v5.72h-2.9v2.99h2.9v20.2h-2.82v2.88h2.82
			v5.79h-5.83v2.95h5.83v2.95h-5.83v-2.95h-2.82v-5.89h5.73l0.1-2.84h-5.87V27.87h2.95v-2.93h-2.95v-5.83h-2.86v5.81h-2.9v2.95h2.9
			v20.41h-1.56h-4v2.5h-3v-17h3v-2.99h-3v-5.87h-3v5.78h-3v2.89h3v20.19h-9v-14.4h3.19v-2.84H5.83V30.7H2.91v5.84h-2.93v2.87h2.93
			v17.46h-2.93v2.78h144v-2.78h-2.19V39.44H143.99z M26.07,56.86h-8.65v-2.95h5.57v-2.95h3.07V56.86z M51.95,56.86H40.42v-5.89
			h11.53V56.86z M89.68,56.86H54.96v-5.89h34.72V56.86z M104.22,56.86H92.62v-5.89h11.59V56.86z M127.28,56.86h-8.52v-5.89h2.82
			v2.95h5.7V56.86z"/>
	</g>
	<g>
		<polygon class="st2" points="80.07,28.77 80.18,31.63 88.79,31.63 88.79,28.77 		"/>
		<polygon class="st2" points="77.17,25.89 77.17,14.29 82.96,14.29 82.96,8.51 77.19,8.51 77.19,-0.21 71.45,-0.21 71.45,8.51 
			65.62,8.51 65.62,14.29 71.45,14.29 71.45,25.89 68.46,25.89 68.46,28.75 80.07,28.77 80.07,25.89 		"/>
		<rect x="59.87" y="28.75" class="st2" width="8.58" height="2.75"/>
		<rect x="62.82" y="34.56" class="st2" width="23" height="2.9"/>
		<path class="st2" d="M145.96,37.46v-2.9h-2.21v-5.81h-2.9v5.81H138v2.82h2.84v14.54h-8.63V31.57h2.82v-2.75h-2.9v-5.85h-2.84v5.81
			h-2.84v2.84h2.95v17.44h-2.95v-2.88h-5.85V25.89h2.9v-2.97h-2.95V17.2h-2.86v5.7h-2.9v2.93h2.9V43.2h-5.79v3.03h5.87v5.7h-2.95
			l0.06,2.95h-5.77v-2.95h5.7v-2.95h-5.7V43.2h2.78v-2.82h-2.9V20.06h2.9v-2.88h-2.93v-5.81h-2.82v5.79h-2.99v2.93h2.99V37.4h-2.97
			v2.88h2.99v5.96h-2.95V43.2h-2.85v3.03h-5.8V43.2h5.8v-2.86l-5.8-0.06v-2.82l8.6-0.06v-2.84h-8.65V14.29h2.82v-2.93h-2.82V5.56
			h-2.86v5.74h-2.88v2.93h2.88v17.4h-2.9l-0.02,2.93h2.88v2.9h-5.83v2.95h5.83v5.83H56.93v-5.83h5.7v-2.95h-5.7v-2.9h2.95v-2.86
			h-2.95V14.27h2.95v-2.82h-2.99V5.67h-2.82v5.74h-2.88v2.9h2.88v20.24h-8.71v2.9h8.56v2.82h-5.7v2.93h5.7v3.03h-5.77l0.06-3.03
			h-2.86v3.03h-2.97v-5.96h2.97v-2.82h-2.95V20.1h2.95v-2.9h-2.84v-5.79h-2.95v5.72h-2.9v2.99h2.9v20.2h-2.82v2.88h2.82v5.79h-5.83
			v2.95h5.83v2.95h-5.83v-2.95h-2.82v-5.89h5.73l0.1-2.84h-5.87V25.89h2.95v-2.93h-2.95v-5.83h-2.86v5.81h-2.9v2.95h2.9V46.3h-1.56
			h-4v2.5h-3v-17h3v-2.99h-3v-5.87h-3v5.78h-3v2.89h3V51.8h-9V37.4h3.19v-2.84H7.8v-5.84H4.88v5.84H1.96v2.87h2.93v17.46H1.96v2.78
			h144v-2.78h-2.19V37.46H145.96z M28.04,54.88h-8.65v-2.95h5.57v-2.95h3.07V54.88z M53.92,54.88H42.39v-5.89h11.53V54.88z
			 M91.65,54.88H56.93v-5.89h34.72V54.88z M106.19,54.88H94.59v-5.89h11.59V54.88z M129.25,54.88h-8.52v-5.89h2.82v2.95h5.7V54.88z"
			/>
	</g>
	<g>
		<g>
			<g>
				<polygon class="st3" points="78.74,29.73 78.85,32.59 87.45,32.59 87.45,29.73 				"/>
			</g>
			<g>
				<polygon class="st4" points="78.74,29.73 78.85,32.59 87.45,32.59 87.45,29.73 				"/>
			</g>
		</g>
		<g>
			<g>
				<polygon class="st3" points="81.62,15.25 81.62,9.46 75.86,9.46 75.86,0.75 70.12,0.75 70.12,9.46 64.29,9.46 64.29,15.25 
					70.12,15.25 70.12,26.84 67.13,26.84 67.13,29.71 78.74,29.73 78.74,26.84 75.84,26.84 75.84,15.25 				"/>
			</g>
			<g>
				<polygon class="st4" points="81.62,15.25 81.62,9.46 75.86,9.46 75.86,0.75 70.12,0.75 70.12,9.46 64.29,9.46 64.29,15.25 
					70.12,15.25 70.12,26.84 67.13,26.84 67.13,29.71 78.74,29.73 78.74,26.84 75.84,26.84 75.84,15.25 				"/>
			</g>
		</g>
		<g>
			<g>
				<path class="st3" d="M144.62,38.42v-2.9h-2.21v-5.81h-2.9v5.81h-2.84v2.82h2.84v14.54h-8.63V32.52h2.82v-2.75h-2.9v-5.85h-2.84
					v5.81h-2.84v2.84h2.95v17.44h-2.95v-2.88h-5.85V26.84h2.9v-2.97h-2.95v-5.72h-2.86v5.7h-2.9v2.93h2.9v17.38h-5.79v3.03h5.87v5.7
					h-2.95l0.06,2.95h-5.77v-2.95h5.7v-2.95h-5.7v-5.79h2.78v-2.82h-2.9V21.02h2.9v-2.88h-2.93v-5.81h-2.82v5.79h-2.99v2.93h2.99
					v17.32h-2.97v2.88h2.99v5.96h-2.95v-3.03h-2.85v3.03h-5.8v-3.03h5.8V41.3l-5.8-0.06v-2.82l8.6-0.06v-2.84h-8.65V15.25h2.82
					v-2.93h-2.82V6.52h-2.86v5.74h-2.88v2.93h2.88v17.4h-2.9l-0.02,2.93h2.88v2.9h-5.83v2.95h5.83v5.83H55.6v-5.83h5.7v-2.95h-5.7
					v-2.9h2.95v-2.86H55.6V15.23h2.95v-2.82h-2.99V6.62h-2.82v5.74h-2.88v2.9h2.88v20.24h-8.71v2.9h8.56v2.82h-5.7v2.93h5.7v3.03
					h-5.77l0.06-3.03h-2.86v3.03h-2.97v-5.96h2.97v-2.82h-2.95V21.06h2.95v-2.9h-2.84v-5.79h-2.95v5.72h-2.9v2.99h2.9v20.2h-2.82
					v2.88h2.82v5.79h-5.83v2.95h5.83v2.95h-5.83v-2.95h-2.82V47h5.73l0.1-2.84h-5.87V26.84h2.95v-2.93h-2.95v-5.83h-2.86v5.81h-2.9
					v2.95h2.9v20.41h-1.56h-4v2.5h-3v-17h3v-2.99h-3V23.9h-3v5.78h-3v2.89h3v20.19h-9v-14.4h3.19v-2.84H6.46v-5.84H3.55v5.84H0.62
					v2.87h2.93v17.46H0.62v2.78h144v-2.78h-2.19V38.42H144.62z M26.71,55.84h-8.65v-2.95h5.57v-2.95h3.07V55.84z M52.59,55.84H41.06
					v-5.89h11.53V55.84z M90.32,55.84H55.6v-5.89h34.72V55.84z M104.86,55.84H93.26v-5.89h11.59V55.84z M127.92,55.84h-8.52v-5.89
					h2.82v2.95h5.7V55.84z"/>
			</g>
			<g>
				<path class="st4" d="M144.62,38.42v-2.9h-2.21v-5.81h-2.9v5.81h-2.84v2.82h2.84v14.54h-8.63V32.52h2.82v-2.75h-2.9v-5.85h-2.84
					v5.81h-2.84v2.84h2.95v17.44h-2.95v-2.88h-5.85V26.84h2.9v-2.97h-2.95v-5.72h-2.86v5.7h-2.9v2.93h2.9v17.38h-5.79v3.03h5.87v5.7
					h-2.95l0.06,2.95h-5.77v-2.95h5.7v-2.95h-5.7v-5.79h2.78v-2.82h-2.9V21.02h2.9v-2.88h-2.93v-5.81h-2.82v5.79h-2.99v2.93h2.99
					v17.32h-2.97v2.88h2.99v5.96h-2.95v-3.03h-2.85v3.03h-5.8v-3.03h5.8V41.3l-5.8-0.06v-2.82l8.6-0.06v-2.84h-8.65V15.25h2.82
					v-2.93h-2.82V6.52h-2.86v5.74h-2.88v2.93h2.88v17.4h-2.9l-0.02,2.93h2.88v2.9h-5.83v2.95h5.83v5.83H55.6v-5.83h5.7v-2.95h-5.7
					v-2.9h2.95v-2.86H55.6V15.23h2.95v-2.82h-2.99V6.62h-2.82v5.74h-2.88v2.9h2.88v20.24h-8.71v2.9h8.56v2.82h-5.7v2.93h5.7v3.03
					h-5.77l0.06-3.03h-2.86v3.03h-2.97v-5.96h2.97v-2.82h-2.95V21.06h2.95v-2.9h-2.84v-5.79h-2.95v5.72h-2.9v2.99h2.9v20.2h-2.82
					v2.88h2.82v5.79h-5.83v2.95h5.83v2.95h-5.83v-2.95h-2.82V47h5.73l0.1-2.84h-5.87V26.84h2.95v-2.93h-2.95v-5.83h-2.86v5.81h-2.9
					v2.95h2.9v20.41h-1.56h-4v2.5h-3v-17h3v-2.99h-3V23.9h-3v5.78h-3v2.89h3v20.19h-9v-14.4h3.19v-2.84H6.46v-5.84H3.55v5.84H0.62
					v2.87h2.93v17.46H0.62v2.78h144v-2.78h-2.19V38.42H144.62z M26.71,55.84h-8.65v-2.95h5.57v-2.95h3.07V55.84z M52.59,55.84H41.06
					v-5.89h11.53V55.84z M90.32,55.84H55.6v-5.89h34.72V55.84z M104.86,55.84H93.26v-5.89h11.59V55.84z M127.92,55.84h-8.52v-5.89
					h2.82v2.95h5.7V55.84z"/>
			</g>
		</g>
		<g>
			<g>
				<rect x="58.54" y="29.71" class="st3" width="8.58" height="2.75"/>
			</g>
			<g>
				<rect x="58.54" y="29.71" class="st4" width="8.58" height="2.75"/>
			</g>
		</g>
		<g>
			<g>
				<rect x="61.49" y="35.51" class="st3" width="23" height="2.9"/>
			</g>
			<g>
				<rect x="61.49" y="35.51" class="st4" width="23" height="2.9"/>
			</g>
		</g>
	</g>
</g>
<g id="Layer_5">
	<g>
		<path class="st1" d="M143.53,67.46v-4.78h-5.56v4.95h-5.89v5.21h5.64v15.19h-5.64V72.84h-8.71v4.95h5.98v15.37h-6.15v4.95h6.15
			v41.08h-5.81l-0.17,5.3H129v41.25h-2.81v5.12h2.9v25.65h2.9v-30.86h5.64v30.86h3.07V180.2h2.83v-4.7h-2.74v-41.34h2.74v-5.04
			h-2.91V88.03h2.91v-5.11h-2.91V67.46H143.53z M137.71,180.54h-5.72V139.2h5.72V180.54z M137.71,134.42h-5.72V93h5.72V134.42z"/>
		<polygon class="st1" points="120.38,149.62 123.37,149.62 123.37,144.5 120.38,144.5 120.38,103.33 123.2,103.33 123.2,98.12 
			120.38,98.12 120.38,82.83 123.37,82.83 123.37,77.79 114.65,77.79 114.65,82.83 117.56,82.83 117.56,98.12 114.65,98.12 
			114.65,103.5 117.56,103.5 117.56,144.5 114.91,144.5 114.91,149.62 117.56,149.62 117.56,195.92 114.74,195.92 114.74,201.13 
			117.64,201.13 117.64,216.53 120.55,216.53 120.55,195.92 126.19,195.92 126.19,190.88 120.38,190.88 		"/>
		<polygon class="st1" points="109.1,216.53 111.75,216.53 111.75,205.99 114.57,205.99 114.57,201.13 111.66,201.13 111.66,154.75 
			114.61,154.75 114.74,149.62 111.66,149.62 111.66,108.53 114.61,108.53 114.61,103.5 111.66,103.5 111.66,88.03 114.61,88.03 
			114.65,82.83 108.85,82.83 		"/>
	</g>
	<g>
		<path class="st2" d="M145.7,66.07v-4.78h-5.56v4.95h-5.89v5.21h5.64v15.19h-5.64V71.45h-8.71v4.95h5.98v15.37h-6.15v4.95h6.15
			v41.08h-5.81l-0.17,5.3h5.64v41.25h-2.81v5.12h2.9v25.65h2.9v-30.86h5.64v30.86h3.07v-36.33h2.83v-4.7h-2.74v-41.34h2.74v-5.04
			h-2.91V86.65h2.91v-5.11h-2.91V66.07H145.7z M139.88,179.16h-5.72v-41.34h5.72V179.16z M139.88,133.03h-5.72V91.61h5.72V133.03z"
			/>
		<polygon class="st2" points="122.55,148.24 125.54,148.24 125.54,143.11 122.55,143.11 122.55,101.95 125.36,101.95 125.36,96.74 
			122.55,96.74 122.55,81.45 125.54,81.45 125.54,76.41 116.82,76.41 116.82,81.45 119.73,81.45 119.73,96.74 116.82,96.74 
			116.82,102.12 119.73,102.12 119.73,143.11 117.08,143.11 117.08,148.24 119.73,148.24 119.73,194.53 116.91,194.53 
			116.91,199.74 119.81,199.74 119.81,215.15 122.72,215.15 122.72,194.53 128.36,194.53 128.36,189.49 122.55,189.49 		"/>
		<polygon class="st2" points="111.27,215.15 113.92,215.15 113.92,204.61 116.74,204.61 116.74,199.74 113.83,199.74 
			113.83,153.36 116.78,153.36 116.91,148.24 113.83,148.24 113.83,107.15 116.78,107.15 116.78,102.12 113.83,102.12 113.83,86.65 
			116.78,86.65 116.82,81.45 111.02,81.45 		"/>
	</g>
	<g>
		<path class="st5" d="M144.45,66.81v-4.78h-5.56v4.95h-5.89v5.21h5.64v15.19h-5.64V72.19h-8.71v4.95h5.98v15.37h-6.15v4.95h6.15
			v41.08h-5.81l-0.17,5.3h5.64v41.25h-2.81v5.12h2.9v25.65h2.9v-30.86h5.64v30.86h3.07v-36.33h2.83v-4.7h-2.74v-41.34h2.74v-5.04
			h-2.91V87.38h2.91v-5.11h-2.91V66.81H144.45z M138.63,179.89h-5.72v-41.34h5.72V179.89z M138.63,133.77h-5.72V92.34h5.72V133.77z"
			/>
		<polygon class="st5" points="121.29,148.97 124.28,148.97 124.28,143.85 121.29,143.85 121.29,102.68 124.11,102.68 124.11,97.47 
			121.29,97.47 121.29,82.18 124.28,82.18 124.28,77.14 115.57,77.14 115.57,82.18 118.47,82.18 118.47,97.47 115.57,97.47 
			115.57,102.85 118.47,102.85 118.47,143.85 115.82,143.85 115.82,148.97 118.47,148.97 118.47,195.26 115.65,195.26 
			115.65,200.47 118.56,200.47 118.56,215.88 121.46,215.88 121.46,195.26 127.1,195.26 127.1,190.22 121.29,190.22 		"/>
		<polygon class="st5" points="110.02,215.88 112.66,215.88 112.66,205.34 115.48,205.34 115.48,200.47 112.58,200.47 112.58,154.1 
			115.52,154.1 115.65,148.97 112.58,148.97 112.58,107.88 115.52,107.88 115.52,102.85 112.58,102.85 112.58,87.38 115.52,87.38 
			115.57,82.18 109.76,82.18 		"/>
	</g>
	<g>
		<path class="st1" d="M1.85,67.46v15.46h-2.91v5.11h2.91v41.09h-2.91v5.04h2.74v41.34h-2.74v4.7h2.83v36.33h3.07v-30.86h5.64v30.86
			h2.9v-25.65h2.9v-5.12h-2.81V144.5h5.64l-0.17-5.3h-5.81V98.12h6.15v-4.95h-6.15V77.79h5.98v-4.95h-8.71v15.19H4.75V72.84h5.64
			v-5.21H4.49v-4.95h-5.56v4.78H1.85z M4.75,139.2h5.72v41.34H4.75V139.2z M4.75,93h5.72v41.42H4.75V93z"/>
		<polygon class="st1" points="22.09,149.62 19.1,149.62 19.1,144.5 22.09,144.5 22.09,103.33 19.27,103.33 19.27,98.12 
			22.09,98.12 22.09,82.83 19.1,82.83 19.1,77.79 27.81,77.79 27.81,82.83 24.91,82.83 24.91,98.12 27.81,98.12 27.81,103.5 
			24.91,103.5 24.91,144.5 27.56,144.5 27.56,149.62 24.91,149.62 24.91,195.92 27.73,195.92 27.73,201.13 24.82,201.13 
			24.82,216.53 21.92,216.53 21.92,195.92 16.28,195.92 16.28,190.88 22.09,190.88 		"/>
		<polygon class="st1" points="33.36,216.53 30.72,216.53 30.72,205.99 27.9,205.99 27.9,201.13 30.8,201.13 30.8,154.75 
			27.85,154.75 27.73,149.62 30.8,149.62 30.8,108.53 27.85,108.53 27.85,103.5 30.8,103.5 30.8,88.03 27.85,88.03 27.81,82.83 
			33.62,82.83 		"/>
	</g>
	<g>
		<path class="st2" d="M3.85,65.46v15.46H0.93v5.11h2.91v41.09H0.93v5.04h2.74v41.34H0.93v4.7h2.83v36.33h3.07v-30.86h5.64v30.86
			h2.9v-25.65h2.9v-5.12h-2.81V142.5h5.64l-0.17-5.3h-5.81V96.12h6.15v-4.95h-6.15V75.79h5.98v-4.95h-8.71v15.19H6.75V70.84h5.64
			v-5.21H6.5v-4.95H0.93v4.78H3.85z M6.75,137.2h5.72v41.34H6.75V137.2z M6.75,91h5.72v41.42H6.75V91z"/>
		<polygon class="st2" points="24.09,147.62 21.1,147.62 21.1,142.5 24.09,142.5 24.09,101.33 21.27,101.33 21.27,96.12 
			24.09,96.12 24.09,80.83 21.1,80.83 21.1,75.79 29.81,75.79 29.81,80.83 26.91,80.83 26.91,96.12 29.81,96.12 29.81,101.5 
			26.91,101.5 26.91,142.5 29.56,142.5 29.56,147.62 26.91,147.62 26.91,193.91 29.73,193.91 29.73,199.12 26.82,199.12 
			26.82,214.53 23.92,214.53 23.92,193.91 18.28,193.91 18.28,188.87 24.09,188.87 		"/>
		<polygon class="st2" points="35.36,214.53 32.72,214.53 32.72,203.99 29.9,203.99 29.9,199.12 32.8,199.12 32.8,152.75 
			29.86,152.75 29.73,147.62 32.8,147.62 32.8,106.53 29.86,106.53 29.86,101.5 32.8,101.5 32.8,86.03 29.86,86.03 29.81,80.83 
			35.62,80.83 		"/>
	</g>
	<g>
		<path class="st5" d="M2.85,66.46v15.46h-2.91v5.11h2.91v41.09h-2.91v5.04h2.74v41.34h-2.74v4.7h2.83v36.33h3.07v-30.86h5.64v30.86
			h2.9v-25.65h2.9v-5.12h-2.81V143.5h5.64l-0.17-5.3h-5.81V97.12h6.15v-4.95h-6.15V76.79h5.98v-4.95h-8.71v15.19H5.75V71.84h5.64
			v-5.21H5.5v-4.95h-5.56v4.78H2.85z M5.75,138.2h5.72v41.34H5.75V138.2z M5.75,92h5.72v41.42H5.75V92z"/>
		<polygon class="st5" points="23.09,148.62 20.1,148.62 20.1,143.5 23.09,143.5 23.09,102.33 20.27,102.33 20.27,97.12 
			23.09,97.12 23.09,81.83 20.1,81.83 20.1,76.79 28.81,76.79 28.81,81.83 25.91,81.83 25.91,97.12 28.81,97.12 28.81,102.5 
			25.91,102.5 25.91,143.5 28.56,143.5 28.56,148.62 25.91,148.62 25.91,194.91 28.73,194.91 28.73,200.12 25.82,200.12 
			25.82,215.53 22.92,215.53 22.92,194.91 17.28,194.91 17.28,189.88 23.09,189.88 		"/>
		<polygon class="st5" points="34.36,215.53 31.72,215.53 31.72,204.99 28.9,204.99 28.9,200.12 31.8,200.12 31.8,153.75 
			28.85,153.75 28.73,148.62 31.8,148.62 31.8,107.53 28.85,107.53 28.85,102.5 31.8,102.5 31.8,87.03 28.85,87.03 28.81,81.83 
			34.62,81.83 		"/>
	</g>
</g>
<g id="Layer_6">
	<polygon class="st1" points="41.93,162.94 41.93,154.03 44.3,154.03 44.3,151.79 46.41,151.79 46.41,147.31 48.72,147.31 
		48.72,140.45 51.09,140.45 51.09,122.52 53.2,122.52 53.2,118.22 55.25,118.22 55.25,115.73 57.56,115.73 57.56,113.55 
		59.8,113.55 59.8,111.43 64.41,111.43 64.41,109 75.56,109 75.56,111.31 79.98,111.31 79.98,113.68 82.35,113.68 82.35,115.98 
		84.65,115.98 84.65,118.03 86.96,118.03 86.96,122.45 89.01,122.45 89.01,140.32 91.19,140.32 91.19,147.24 93.49,147.24 
		93.49,151.85 95.74,151.85 95.74,153.97 98.04,153.97 98.04,162.94 91.38,162.94 91.38,165.31 88.95,165.31 88.95,167.74 
		87.02,167.74 87.02,169.85 84.65,169.85 84.65,171.84 80.11,171.84 80.11,174.21 71.18,174.21 71.18,171.9 68.9,171.9 68.9,174.21 
		59.86,174.21 59.86,171.78 55.32,171.78 55.32,169.66 53.07,169.66 53.07,167.42 50.9,167.42 50.9,164.92 48.65,164.92 
		48.65,162.81 	"/>
	<polygon class="st2" points="46.9,160.79 46.9,151.89 49.27,151.89 49.27,149.64 51.38,149.64 51.38,145.16 53.69,145.16 
		53.69,138.31 56.06,138.31 56.06,120.37 58.17,120.37 58.17,116.08 60.22,116.08 60.22,113.58 62.53,113.58 62.53,111.4 
		64.77,111.4 64.77,109.29 69.38,109.29 69.38,106.85 80.53,106.85 80.53,109.16 84.95,109.16 84.95,111.53 87.32,111.53 
		87.32,113.84 89.63,113.84 89.63,115.89 91.93,115.89 91.93,120.31 93.98,120.31 93.98,138.18 96.16,138.18 96.16,145.1 
		98.47,145.1 98.47,149.71 100.71,149.71 100.71,151.82 103.01,151.82 103.01,160.79 96.35,160.79 96.35,163.16 93.92,163.16 
		93.92,165.59 92,165.59 92,167.71 89.63,167.71 89.63,169.69 85.08,169.69 85.08,172.06 76.15,172.06 76.15,169.76 73.87,169.76 
		73.87,172.06 64.84,172.06 64.84,169.63 60.29,169.63 60.29,167.52 58.05,167.52 58.05,165.27 55.87,165.27 55.87,162.78 
		53.63,162.78 53.63,160.66 	"/>
	<polygon class="st6" points="44.29,161.94 44.29,153.03 46.66,153.03 46.66,150.79 48.78,150.79 48.78,146.31 51.08,146.31 
		51.08,139.45 53.45,139.45 53.45,121.52 55.57,121.52 55.57,117.22 57.62,117.22 57.62,114.73 59.92,114.73 59.92,112.55 
		62.16,112.55 62.16,110.43 66.78,110.43 66.78,108 77.92,108 77.92,110.31 82.34,110.31 82.34,112.68 84.71,112.68 84.71,114.98 
		87.02,114.98 87.02,117.03 89.32,117.03 89.32,121.45 91.37,121.45 91.37,139.32 93.55,139.32 93.55,146.24 95.86,146.24 
		95.86,150.85 98.1,150.85 98.1,152.97 100.41,152.97 100.41,161.94 93.74,161.94 93.74,164.31 91.31,164.31 91.31,166.74 
		89.39,166.74 89.39,168.85 87.02,168.85 87.02,170.84 82.47,170.84 82.47,173.21 73.54,173.21 73.54,170.9 71.26,170.9 
		71.26,173.21 62.23,173.21 62.23,170.78 57.68,170.78 57.68,168.66 55.44,168.66 55.44,166.42 53.26,166.42 53.26,163.92 
		51.02,163.92 51.02,161.81 	"/>
	<polygon class="st7" points="60.11,128.31 60.11,126.13 66.71,126.13 66.71,128.31 69.02,128.31 69.02,135.03 66.84,135.03 
		66.84,137.15 60.11,137.15 60.11,135.1 57.74,135.1 57.74,128.37 	"/>
	<polygon class="st7" points="77.99,128.31 77.99,126.13 84.71,126.13 84.71,128.31 86.95,128.31 86.95,135.16 84.71,135.16 
		84.71,137.4 77.99,137.4 77.99,135.1 75.62,135.1 75.62,128.37 	"/>
</g>
<g id="Layer_7">
</g>
<g id="Layer_8">
</g>
<g id="Layer_2">
</g>
<g id="Layer_9">
</g>
</svg>
