<?xml version="1.0" encoding="utf-8"?>
<!-- Generator: Adobe Illustrator 27.2.0, SVG Export Plug-In . SVG Version: 6.00 Build 0)  -->
<svg version="1.1" id="twitter" xmlns="http://www.w3.org/2000/svg" xmlns:xlink="http://www.w3.org/1999/xlink" x="0px" y="0px"
	 viewBox="0 0 24 24" style="enable-background:new 0 0 24 24;" xml:space="preserve">
<g id="twitter_2_">
	<path d="M23.93,4.92c0.09-0.11,0.1-0.27,0.02-0.39s-0.23-0.17-0.37-0.13c-0.64,0.21-1.3,0.35-1.98,0.44
		c0.82-0.49,1.49-1.2,1.94-2.05c0.07-0.12,0.04-0.28-0.05-0.38c-0.1-0.1-0.25-0.13-0.38-0.07c-0.79,0.39-1.64,0.68-2.53,0.85
		c-0.96-1.03-2.32-1.67-3.82-1.67c-2.89,0-5.24,2.37-5.24,5.28c0,0.41,0.05,0.82,0.14,1.2C7.69,7.82,4.13,6.06,1.58,3.34
		C1.4,3.15,1.14,3.07,0.89,3.13c-0.25,0.06-0.46,0.25-0.53,0.5c-0.15,0.48-0.22,1-0.22,1.53c0,1.83,0.81,3.45,2.22,4.4
		C1.97,9.55,1.44,9.43,0.97,9.3c-0.26-0.07-0.55,0-0.74,0.2c-0.19,0.19-0.27,0.47-0.2,0.74c0.51,1.97,2.17,3.51,4.15,3.91
		c-0.44,0.12-0.85,0.19-1.32,0.19l0,0c-0.21,0-0.41,0.11-0.52,0.3c-0.11,0.19-0.11,0.41,0,0.6c0.89,1.57,2.56,2.64,4.47,2.68
		c-1.79,1.42-4.05,2.26-6.5,2.26l0,0c-0.14,0-0.26,0.1-0.3,0.23c-0.03,0.14,0.03,0.28,0.15,0.34c2.07,1.1,4.43,1.73,6.93,1.73
		C16.73,22.47,22,14.42,22,7.43c0-0.23,0-0.45-0.01-0.68C22.71,6.22,23.36,5.61,23.93,4.92z"/>
</g>
</svg>
